G04 #@! TF.GenerationSoftware,KiCad,Pcbnew,(5.1.5)-3*
G04 #@! TF.CreationDate,2020-08-02T11:19:38+02:00*
G04 #@! TF.ProjectId,_Spot,b553706f-742e-46b6-9963-61645f706362,rev?*
G04 #@! TF.SameCoordinates,Original*
G04 #@! TF.FileFunction,Copper,L1,Top*
G04 #@! TF.FilePolarity,Positive*
%FSLAX46Y46*%
G04 Gerber Fmt 4.6, Leading zero omitted, Abs format (unit mm)*
G04 Created by KiCad (PCBNEW (5.1.5)-3) date 2020-08-02 11:19:38*
%MOMM*%
%LPD*%
G04 APERTURE LIST*
%ADD10O,1.700000X1.700000*%
%ADD11R,1.700000X1.700000*%
%ADD12C,3.500000*%
%ADD13C,0.900000*%
%ADD14C,8.600000*%
%ADD15R,2.200000X0.350000*%
%ADD16R,0.650000X1.060000*%
%ADD17R,1.560000X0.650000*%
%ADD18C,0.150000*%
%ADD19R,1.500000X2.000000*%
%ADD20R,2.500000X3.000000*%
%ADD21R,2.000000X0.650000*%
%ADD22R,0.800000X0.900000*%
%ADD23C,0.450000*%
%ADD24C,0.250000*%
%ADD25C,0.508000*%
%ADD26C,0.381000*%
G04 APERTURE END LIST*
D10*
X140680000Y-107200000D03*
X138140000Y-107200000D03*
D11*
X135600000Y-107200000D03*
D12*
X113200000Y-108000000D03*
X98000000Y-80000000D03*
D13*
X170280419Y-82719581D03*
X168000000Y-81775000D03*
X165719581Y-82719581D03*
X164775000Y-85000000D03*
X165719581Y-87280419D03*
X168000000Y-88225000D03*
X170280419Y-87280419D03*
X171225000Y-85000000D03*
D14*
X168000000Y-85000000D03*
D13*
X170280419Y-96519581D03*
X168000000Y-95575000D03*
X165719581Y-96519581D03*
X164775000Y-98800000D03*
X165719581Y-101080419D03*
X168000000Y-102025000D03*
X170280419Y-101080419D03*
X171225000Y-98800000D03*
D14*
X168000000Y-98800000D03*
D15*
X149000000Y-81000000D03*
X149000000Y-81620000D03*
X149000000Y-82240000D03*
X149000000Y-82860000D03*
X149000000Y-85340000D03*
X149000000Y-83480000D03*
X149000000Y-84720000D03*
X149000000Y-84100000D03*
X149000000Y-86580000D03*
X149000000Y-87200000D03*
X149000000Y-87820000D03*
X149000000Y-89060000D03*
X149000000Y-88440000D03*
X149000000Y-85960000D03*
D16*
X149800000Y-104400000D03*
X151700000Y-104400000D03*
X151700000Y-106600000D03*
X150750000Y-106600000D03*
X149800000Y-106600000D03*
D17*
X109850000Y-82050000D03*
X109850000Y-83950000D03*
X107150000Y-83950000D03*
X107150000Y-83000000D03*
X107150000Y-82050000D03*
G04 #@! TA.AperFunction,SMDPad,CuDef*
D18*
G36*
X129789703Y-94785722D02*
G01*
X129804264Y-94787882D01*
X129818543Y-94791459D01*
X129832403Y-94796418D01*
X129845710Y-94802712D01*
X129858336Y-94810280D01*
X129870159Y-94819048D01*
X129881066Y-94828934D01*
X129890952Y-94839841D01*
X129899720Y-94851664D01*
X129907288Y-94864290D01*
X129913582Y-94877597D01*
X129918541Y-94891457D01*
X129922118Y-94905736D01*
X129924278Y-94920297D01*
X129925000Y-94935000D01*
X129925000Y-95235000D01*
X129924278Y-95249703D01*
X129922118Y-95264264D01*
X129918541Y-95278543D01*
X129913582Y-95292403D01*
X129907288Y-95305710D01*
X129899720Y-95318336D01*
X129890952Y-95330159D01*
X129881066Y-95341066D01*
X129870159Y-95350952D01*
X129858336Y-95359720D01*
X129845710Y-95367288D01*
X129832403Y-95373582D01*
X129818543Y-95378541D01*
X129804264Y-95382118D01*
X129789703Y-95384278D01*
X129775000Y-95385000D01*
X128025000Y-95385000D01*
X128010297Y-95384278D01*
X127995736Y-95382118D01*
X127981457Y-95378541D01*
X127967597Y-95373582D01*
X127954290Y-95367288D01*
X127941664Y-95359720D01*
X127929841Y-95350952D01*
X127918934Y-95341066D01*
X127909048Y-95330159D01*
X127900280Y-95318336D01*
X127892712Y-95305710D01*
X127886418Y-95292403D01*
X127881459Y-95278543D01*
X127877882Y-95264264D01*
X127875722Y-95249703D01*
X127875000Y-95235000D01*
X127875000Y-94935000D01*
X127875722Y-94920297D01*
X127877882Y-94905736D01*
X127881459Y-94891457D01*
X127886418Y-94877597D01*
X127892712Y-94864290D01*
X127900280Y-94851664D01*
X127909048Y-94839841D01*
X127918934Y-94828934D01*
X127929841Y-94819048D01*
X127941664Y-94810280D01*
X127954290Y-94802712D01*
X127967597Y-94796418D01*
X127981457Y-94791459D01*
X127995736Y-94787882D01*
X128010297Y-94785722D01*
X128025000Y-94785000D01*
X129775000Y-94785000D01*
X129789703Y-94785722D01*
G37*
G04 #@! TD.AperFunction*
G04 #@! TA.AperFunction,SMDPad,CuDef*
G36*
X129789703Y-96055722D02*
G01*
X129804264Y-96057882D01*
X129818543Y-96061459D01*
X129832403Y-96066418D01*
X129845710Y-96072712D01*
X129858336Y-96080280D01*
X129870159Y-96089048D01*
X129881066Y-96098934D01*
X129890952Y-96109841D01*
X129899720Y-96121664D01*
X129907288Y-96134290D01*
X129913582Y-96147597D01*
X129918541Y-96161457D01*
X129922118Y-96175736D01*
X129924278Y-96190297D01*
X129925000Y-96205000D01*
X129925000Y-96505000D01*
X129924278Y-96519703D01*
X129922118Y-96534264D01*
X129918541Y-96548543D01*
X129913582Y-96562403D01*
X129907288Y-96575710D01*
X129899720Y-96588336D01*
X129890952Y-96600159D01*
X129881066Y-96611066D01*
X129870159Y-96620952D01*
X129858336Y-96629720D01*
X129845710Y-96637288D01*
X129832403Y-96643582D01*
X129818543Y-96648541D01*
X129804264Y-96652118D01*
X129789703Y-96654278D01*
X129775000Y-96655000D01*
X128025000Y-96655000D01*
X128010297Y-96654278D01*
X127995736Y-96652118D01*
X127981457Y-96648541D01*
X127967597Y-96643582D01*
X127954290Y-96637288D01*
X127941664Y-96629720D01*
X127929841Y-96620952D01*
X127918934Y-96611066D01*
X127909048Y-96600159D01*
X127900280Y-96588336D01*
X127892712Y-96575710D01*
X127886418Y-96562403D01*
X127881459Y-96548543D01*
X127877882Y-96534264D01*
X127875722Y-96519703D01*
X127875000Y-96505000D01*
X127875000Y-96205000D01*
X127875722Y-96190297D01*
X127877882Y-96175736D01*
X127881459Y-96161457D01*
X127886418Y-96147597D01*
X127892712Y-96134290D01*
X127900280Y-96121664D01*
X127909048Y-96109841D01*
X127918934Y-96098934D01*
X127929841Y-96089048D01*
X127941664Y-96080280D01*
X127954290Y-96072712D01*
X127967597Y-96066418D01*
X127981457Y-96061459D01*
X127995736Y-96057882D01*
X128010297Y-96055722D01*
X128025000Y-96055000D01*
X129775000Y-96055000D01*
X129789703Y-96055722D01*
G37*
G04 #@! TD.AperFunction*
G04 #@! TA.AperFunction,SMDPad,CuDef*
G36*
X129789703Y-97325722D02*
G01*
X129804264Y-97327882D01*
X129818543Y-97331459D01*
X129832403Y-97336418D01*
X129845710Y-97342712D01*
X129858336Y-97350280D01*
X129870159Y-97359048D01*
X129881066Y-97368934D01*
X129890952Y-97379841D01*
X129899720Y-97391664D01*
X129907288Y-97404290D01*
X129913582Y-97417597D01*
X129918541Y-97431457D01*
X129922118Y-97445736D01*
X129924278Y-97460297D01*
X129925000Y-97475000D01*
X129925000Y-97775000D01*
X129924278Y-97789703D01*
X129922118Y-97804264D01*
X129918541Y-97818543D01*
X129913582Y-97832403D01*
X129907288Y-97845710D01*
X129899720Y-97858336D01*
X129890952Y-97870159D01*
X129881066Y-97881066D01*
X129870159Y-97890952D01*
X129858336Y-97899720D01*
X129845710Y-97907288D01*
X129832403Y-97913582D01*
X129818543Y-97918541D01*
X129804264Y-97922118D01*
X129789703Y-97924278D01*
X129775000Y-97925000D01*
X128025000Y-97925000D01*
X128010297Y-97924278D01*
X127995736Y-97922118D01*
X127981457Y-97918541D01*
X127967597Y-97913582D01*
X127954290Y-97907288D01*
X127941664Y-97899720D01*
X127929841Y-97890952D01*
X127918934Y-97881066D01*
X127909048Y-97870159D01*
X127900280Y-97858336D01*
X127892712Y-97845710D01*
X127886418Y-97832403D01*
X127881459Y-97818543D01*
X127877882Y-97804264D01*
X127875722Y-97789703D01*
X127875000Y-97775000D01*
X127875000Y-97475000D01*
X127875722Y-97460297D01*
X127877882Y-97445736D01*
X127881459Y-97431457D01*
X127886418Y-97417597D01*
X127892712Y-97404290D01*
X127900280Y-97391664D01*
X127909048Y-97379841D01*
X127918934Y-97368934D01*
X127929841Y-97359048D01*
X127941664Y-97350280D01*
X127954290Y-97342712D01*
X127967597Y-97336418D01*
X127981457Y-97331459D01*
X127995736Y-97327882D01*
X128010297Y-97325722D01*
X128025000Y-97325000D01*
X129775000Y-97325000D01*
X129789703Y-97325722D01*
G37*
G04 #@! TD.AperFunction*
G04 #@! TA.AperFunction,SMDPad,CuDef*
G36*
X129789703Y-98595722D02*
G01*
X129804264Y-98597882D01*
X129818543Y-98601459D01*
X129832403Y-98606418D01*
X129845710Y-98612712D01*
X129858336Y-98620280D01*
X129870159Y-98629048D01*
X129881066Y-98638934D01*
X129890952Y-98649841D01*
X129899720Y-98661664D01*
X129907288Y-98674290D01*
X129913582Y-98687597D01*
X129918541Y-98701457D01*
X129922118Y-98715736D01*
X129924278Y-98730297D01*
X129925000Y-98745000D01*
X129925000Y-99045000D01*
X129924278Y-99059703D01*
X129922118Y-99074264D01*
X129918541Y-99088543D01*
X129913582Y-99102403D01*
X129907288Y-99115710D01*
X129899720Y-99128336D01*
X129890952Y-99140159D01*
X129881066Y-99151066D01*
X129870159Y-99160952D01*
X129858336Y-99169720D01*
X129845710Y-99177288D01*
X129832403Y-99183582D01*
X129818543Y-99188541D01*
X129804264Y-99192118D01*
X129789703Y-99194278D01*
X129775000Y-99195000D01*
X128025000Y-99195000D01*
X128010297Y-99194278D01*
X127995736Y-99192118D01*
X127981457Y-99188541D01*
X127967597Y-99183582D01*
X127954290Y-99177288D01*
X127941664Y-99169720D01*
X127929841Y-99160952D01*
X127918934Y-99151066D01*
X127909048Y-99140159D01*
X127900280Y-99128336D01*
X127892712Y-99115710D01*
X127886418Y-99102403D01*
X127881459Y-99088543D01*
X127877882Y-99074264D01*
X127875722Y-99059703D01*
X127875000Y-99045000D01*
X127875000Y-98745000D01*
X127875722Y-98730297D01*
X127877882Y-98715736D01*
X127881459Y-98701457D01*
X127886418Y-98687597D01*
X127892712Y-98674290D01*
X127900280Y-98661664D01*
X127909048Y-98649841D01*
X127918934Y-98638934D01*
X127929841Y-98629048D01*
X127941664Y-98620280D01*
X127954290Y-98612712D01*
X127967597Y-98606418D01*
X127981457Y-98601459D01*
X127995736Y-98597882D01*
X128010297Y-98595722D01*
X128025000Y-98595000D01*
X129775000Y-98595000D01*
X129789703Y-98595722D01*
G37*
G04 #@! TD.AperFunction*
G04 #@! TA.AperFunction,SMDPad,CuDef*
G36*
X129789703Y-99865722D02*
G01*
X129804264Y-99867882D01*
X129818543Y-99871459D01*
X129832403Y-99876418D01*
X129845710Y-99882712D01*
X129858336Y-99890280D01*
X129870159Y-99899048D01*
X129881066Y-99908934D01*
X129890952Y-99919841D01*
X129899720Y-99931664D01*
X129907288Y-99944290D01*
X129913582Y-99957597D01*
X129918541Y-99971457D01*
X129922118Y-99985736D01*
X129924278Y-100000297D01*
X129925000Y-100015000D01*
X129925000Y-100315000D01*
X129924278Y-100329703D01*
X129922118Y-100344264D01*
X129918541Y-100358543D01*
X129913582Y-100372403D01*
X129907288Y-100385710D01*
X129899720Y-100398336D01*
X129890952Y-100410159D01*
X129881066Y-100421066D01*
X129870159Y-100430952D01*
X129858336Y-100439720D01*
X129845710Y-100447288D01*
X129832403Y-100453582D01*
X129818543Y-100458541D01*
X129804264Y-100462118D01*
X129789703Y-100464278D01*
X129775000Y-100465000D01*
X128025000Y-100465000D01*
X128010297Y-100464278D01*
X127995736Y-100462118D01*
X127981457Y-100458541D01*
X127967597Y-100453582D01*
X127954290Y-100447288D01*
X127941664Y-100439720D01*
X127929841Y-100430952D01*
X127918934Y-100421066D01*
X127909048Y-100410159D01*
X127900280Y-100398336D01*
X127892712Y-100385710D01*
X127886418Y-100372403D01*
X127881459Y-100358543D01*
X127877882Y-100344264D01*
X127875722Y-100329703D01*
X127875000Y-100315000D01*
X127875000Y-100015000D01*
X127875722Y-100000297D01*
X127877882Y-99985736D01*
X127881459Y-99971457D01*
X127886418Y-99957597D01*
X127892712Y-99944290D01*
X127900280Y-99931664D01*
X127909048Y-99919841D01*
X127918934Y-99908934D01*
X127929841Y-99899048D01*
X127941664Y-99890280D01*
X127954290Y-99882712D01*
X127967597Y-99876418D01*
X127981457Y-99871459D01*
X127995736Y-99867882D01*
X128010297Y-99865722D01*
X128025000Y-99865000D01*
X129775000Y-99865000D01*
X129789703Y-99865722D01*
G37*
G04 #@! TD.AperFunction*
G04 #@! TA.AperFunction,SMDPad,CuDef*
G36*
X129789703Y-101135722D02*
G01*
X129804264Y-101137882D01*
X129818543Y-101141459D01*
X129832403Y-101146418D01*
X129845710Y-101152712D01*
X129858336Y-101160280D01*
X129870159Y-101169048D01*
X129881066Y-101178934D01*
X129890952Y-101189841D01*
X129899720Y-101201664D01*
X129907288Y-101214290D01*
X129913582Y-101227597D01*
X129918541Y-101241457D01*
X129922118Y-101255736D01*
X129924278Y-101270297D01*
X129925000Y-101285000D01*
X129925000Y-101585000D01*
X129924278Y-101599703D01*
X129922118Y-101614264D01*
X129918541Y-101628543D01*
X129913582Y-101642403D01*
X129907288Y-101655710D01*
X129899720Y-101668336D01*
X129890952Y-101680159D01*
X129881066Y-101691066D01*
X129870159Y-101700952D01*
X129858336Y-101709720D01*
X129845710Y-101717288D01*
X129832403Y-101723582D01*
X129818543Y-101728541D01*
X129804264Y-101732118D01*
X129789703Y-101734278D01*
X129775000Y-101735000D01*
X128025000Y-101735000D01*
X128010297Y-101734278D01*
X127995736Y-101732118D01*
X127981457Y-101728541D01*
X127967597Y-101723582D01*
X127954290Y-101717288D01*
X127941664Y-101709720D01*
X127929841Y-101700952D01*
X127918934Y-101691066D01*
X127909048Y-101680159D01*
X127900280Y-101668336D01*
X127892712Y-101655710D01*
X127886418Y-101642403D01*
X127881459Y-101628543D01*
X127877882Y-101614264D01*
X127875722Y-101599703D01*
X127875000Y-101585000D01*
X127875000Y-101285000D01*
X127875722Y-101270297D01*
X127877882Y-101255736D01*
X127881459Y-101241457D01*
X127886418Y-101227597D01*
X127892712Y-101214290D01*
X127900280Y-101201664D01*
X127909048Y-101189841D01*
X127918934Y-101178934D01*
X127929841Y-101169048D01*
X127941664Y-101160280D01*
X127954290Y-101152712D01*
X127967597Y-101146418D01*
X127981457Y-101141459D01*
X127995736Y-101137882D01*
X128010297Y-101135722D01*
X128025000Y-101135000D01*
X129775000Y-101135000D01*
X129789703Y-101135722D01*
G37*
G04 #@! TD.AperFunction*
G04 #@! TA.AperFunction,SMDPad,CuDef*
G36*
X129789703Y-102405722D02*
G01*
X129804264Y-102407882D01*
X129818543Y-102411459D01*
X129832403Y-102416418D01*
X129845710Y-102422712D01*
X129858336Y-102430280D01*
X129870159Y-102439048D01*
X129881066Y-102448934D01*
X129890952Y-102459841D01*
X129899720Y-102471664D01*
X129907288Y-102484290D01*
X129913582Y-102497597D01*
X129918541Y-102511457D01*
X129922118Y-102525736D01*
X129924278Y-102540297D01*
X129925000Y-102555000D01*
X129925000Y-102855000D01*
X129924278Y-102869703D01*
X129922118Y-102884264D01*
X129918541Y-102898543D01*
X129913582Y-102912403D01*
X129907288Y-102925710D01*
X129899720Y-102938336D01*
X129890952Y-102950159D01*
X129881066Y-102961066D01*
X129870159Y-102970952D01*
X129858336Y-102979720D01*
X129845710Y-102987288D01*
X129832403Y-102993582D01*
X129818543Y-102998541D01*
X129804264Y-103002118D01*
X129789703Y-103004278D01*
X129775000Y-103005000D01*
X128025000Y-103005000D01*
X128010297Y-103004278D01*
X127995736Y-103002118D01*
X127981457Y-102998541D01*
X127967597Y-102993582D01*
X127954290Y-102987288D01*
X127941664Y-102979720D01*
X127929841Y-102970952D01*
X127918934Y-102961066D01*
X127909048Y-102950159D01*
X127900280Y-102938336D01*
X127892712Y-102925710D01*
X127886418Y-102912403D01*
X127881459Y-102898543D01*
X127877882Y-102884264D01*
X127875722Y-102869703D01*
X127875000Y-102855000D01*
X127875000Y-102555000D01*
X127875722Y-102540297D01*
X127877882Y-102525736D01*
X127881459Y-102511457D01*
X127886418Y-102497597D01*
X127892712Y-102484290D01*
X127900280Y-102471664D01*
X127909048Y-102459841D01*
X127918934Y-102448934D01*
X127929841Y-102439048D01*
X127941664Y-102430280D01*
X127954290Y-102422712D01*
X127967597Y-102416418D01*
X127981457Y-102411459D01*
X127995736Y-102407882D01*
X128010297Y-102405722D01*
X128025000Y-102405000D01*
X129775000Y-102405000D01*
X129789703Y-102405722D01*
G37*
G04 #@! TD.AperFunction*
G04 #@! TA.AperFunction,SMDPad,CuDef*
G36*
X129789703Y-103675722D02*
G01*
X129804264Y-103677882D01*
X129818543Y-103681459D01*
X129832403Y-103686418D01*
X129845710Y-103692712D01*
X129858336Y-103700280D01*
X129870159Y-103709048D01*
X129881066Y-103718934D01*
X129890952Y-103729841D01*
X129899720Y-103741664D01*
X129907288Y-103754290D01*
X129913582Y-103767597D01*
X129918541Y-103781457D01*
X129922118Y-103795736D01*
X129924278Y-103810297D01*
X129925000Y-103825000D01*
X129925000Y-104125000D01*
X129924278Y-104139703D01*
X129922118Y-104154264D01*
X129918541Y-104168543D01*
X129913582Y-104182403D01*
X129907288Y-104195710D01*
X129899720Y-104208336D01*
X129890952Y-104220159D01*
X129881066Y-104231066D01*
X129870159Y-104240952D01*
X129858336Y-104249720D01*
X129845710Y-104257288D01*
X129832403Y-104263582D01*
X129818543Y-104268541D01*
X129804264Y-104272118D01*
X129789703Y-104274278D01*
X129775000Y-104275000D01*
X128025000Y-104275000D01*
X128010297Y-104274278D01*
X127995736Y-104272118D01*
X127981457Y-104268541D01*
X127967597Y-104263582D01*
X127954290Y-104257288D01*
X127941664Y-104249720D01*
X127929841Y-104240952D01*
X127918934Y-104231066D01*
X127909048Y-104220159D01*
X127900280Y-104208336D01*
X127892712Y-104195710D01*
X127886418Y-104182403D01*
X127881459Y-104168543D01*
X127877882Y-104154264D01*
X127875722Y-104139703D01*
X127875000Y-104125000D01*
X127875000Y-103825000D01*
X127875722Y-103810297D01*
X127877882Y-103795736D01*
X127881459Y-103781457D01*
X127886418Y-103767597D01*
X127892712Y-103754290D01*
X127900280Y-103741664D01*
X127909048Y-103729841D01*
X127918934Y-103718934D01*
X127929841Y-103709048D01*
X127941664Y-103700280D01*
X127954290Y-103692712D01*
X127967597Y-103686418D01*
X127981457Y-103681459D01*
X127995736Y-103677882D01*
X128010297Y-103675722D01*
X128025000Y-103675000D01*
X129775000Y-103675000D01*
X129789703Y-103675722D01*
G37*
G04 #@! TD.AperFunction*
G04 #@! TA.AperFunction,SMDPad,CuDef*
G36*
X129789703Y-104945722D02*
G01*
X129804264Y-104947882D01*
X129818543Y-104951459D01*
X129832403Y-104956418D01*
X129845710Y-104962712D01*
X129858336Y-104970280D01*
X129870159Y-104979048D01*
X129881066Y-104988934D01*
X129890952Y-104999841D01*
X129899720Y-105011664D01*
X129907288Y-105024290D01*
X129913582Y-105037597D01*
X129918541Y-105051457D01*
X129922118Y-105065736D01*
X129924278Y-105080297D01*
X129925000Y-105095000D01*
X129925000Y-105395000D01*
X129924278Y-105409703D01*
X129922118Y-105424264D01*
X129918541Y-105438543D01*
X129913582Y-105452403D01*
X129907288Y-105465710D01*
X129899720Y-105478336D01*
X129890952Y-105490159D01*
X129881066Y-105501066D01*
X129870159Y-105510952D01*
X129858336Y-105519720D01*
X129845710Y-105527288D01*
X129832403Y-105533582D01*
X129818543Y-105538541D01*
X129804264Y-105542118D01*
X129789703Y-105544278D01*
X129775000Y-105545000D01*
X128025000Y-105545000D01*
X128010297Y-105544278D01*
X127995736Y-105542118D01*
X127981457Y-105538541D01*
X127967597Y-105533582D01*
X127954290Y-105527288D01*
X127941664Y-105519720D01*
X127929841Y-105510952D01*
X127918934Y-105501066D01*
X127909048Y-105490159D01*
X127900280Y-105478336D01*
X127892712Y-105465710D01*
X127886418Y-105452403D01*
X127881459Y-105438543D01*
X127877882Y-105424264D01*
X127875722Y-105409703D01*
X127875000Y-105395000D01*
X127875000Y-105095000D01*
X127875722Y-105080297D01*
X127877882Y-105065736D01*
X127881459Y-105051457D01*
X127886418Y-105037597D01*
X127892712Y-105024290D01*
X127900280Y-105011664D01*
X127909048Y-104999841D01*
X127918934Y-104988934D01*
X127929841Y-104979048D01*
X127941664Y-104970280D01*
X127954290Y-104962712D01*
X127967597Y-104956418D01*
X127981457Y-104951459D01*
X127995736Y-104947882D01*
X128010297Y-104945722D01*
X128025000Y-104945000D01*
X129775000Y-104945000D01*
X129789703Y-104945722D01*
G37*
G04 #@! TD.AperFunction*
G04 #@! TA.AperFunction,SMDPad,CuDef*
G36*
X129789703Y-106215722D02*
G01*
X129804264Y-106217882D01*
X129818543Y-106221459D01*
X129832403Y-106226418D01*
X129845710Y-106232712D01*
X129858336Y-106240280D01*
X129870159Y-106249048D01*
X129881066Y-106258934D01*
X129890952Y-106269841D01*
X129899720Y-106281664D01*
X129907288Y-106294290D01*
X129913582Y-106307597D01*
X129918541Y-106321457D01*
X129922118Y-106335736D01*
X129924278Y-106350297D01*
X129925000Y-106365000D01*
X129925000Y-106665000D01*
X129924278Y-106679703D01*
X129922118Y-106694264D01*
X129918541Y-106708543D01*
X129913582Y-106722403D01*
X129907288Y-106735710D01*
X129899720Y-106748336D01*
X129890952Y-106760159D01*
X129881066Y-106771066D01*
X129870159Y-106780952D01*
X129858336Y-106789720D01*
X129845710Y-106797288D01*
X129832403Y-106803582D01*
X129818543Y-106808541D01*
X129804264Y-106812118D01*
X129789703Y-106814278D01*
X129775000Y-106815000D01*
X128025000Y-106815000D01*
X128010297Y-106814278D01*
X127995736Y-106812118D01*
X127981457Y-106808541D01*
X127967597Y-106803582D01*
X127954290Y-106797288D01*
X127941664Y-106789720D01*
X127929841Y-106780952D01*
X127918934Y-106771066D01*
X127909048Y-106760159D01*
X127900280Y-106748336D01*
X127892712Y-106735710D01*
X127886418Y-106722403D01*
X127881459Y-106708543D01*
X127877882Y-106694264D01*
X127875722Y-106679703D01*
X127875000Y-106665000D01*
X127875000Y-106365000D01*
X127875722Y-106350297D01*
X127877882Y-106335736D01*
X127881459Y-106321457D01*
X127886418Y-106307597D01*
X127892712Y-106294290D01*
X127900280Y-106281664D01*
X127909048Y-106269841D01*
X127918934Y-106258934D01*
X127929841Y-106249048D01*
X127941664Y-106240280D01*
X127954290Y-106232712D01*
X127967597Y-106226418D01*
X127981457Y-106221459D01*
X127995736Y-106217882D01*
X128010297Y-106215722D01*
X128025000Y-106215000D01*
X129775000Y-106215000D01*
X129789703Y-106215722D01*
G37*
G04 #@! TD.AperFunction*
G04 #@! TA.AperFunction,SMDPad,CuDef*
G36*
X120489703Y-106215722D02*
G01*
X120504264Y-106217882D01*
X120518543Y-106221459D01*
X120532403Y-106226418D01*
X120545710Y-106232712D01*
X120558336Y-106240280D01*
X120570159Y-106249048D01*
X120581066Y-106258934D01*
X120590952Y-106269841D01*
X120599720Y-106281664D01*
X120607288Y-106294290D01*
X120613582Y-106307597D01*
X120618541Y-106321457D01*
X120622118Y-106335736D01*
X120624278Y-106350297D01*
X120625000Y-106365000D01*
X120625000Y-106665000D01*
X120624278Y-106679703D01*
X120622118Y-106694264D01*
X120618541Y-106708543D01*
X120613582Y-106722403D01*
X120607288Y-106735710D01*
X120599720Y-106748336D01*
X120590952Y-106760159D01*
X120581066Y-106771066D01*
X120570159Y-106780952D01*
X120558336Y-106789720D01*
X120545710Y-106797288D01*
X120532403Y-106803582D01*
X120518543Y-106808541D01*
X120504264Y-106812118D01*
X120489703Y-106814278D01*
X120475000Y-106815000D01*
X118725000Y-106815000D01*
X118710297Y-106814278D01*
X118695736Y-106812118D01*
X118681457Y-106808541D01*
X118667597Y-106803582D01*
X118654290Y-106797288D01*
X118641664Y-106789720D01*
X118629841Y-106780952D01*
X118618934Y-106771066D01*
X118609048Y-106760159D01*
X118600280Y-106748336D01*
X118592712Y-106735710D01*
X118586418Y-106722403D01*
X118581459Y-106708543D01*
X118577882Y-106694264D01*
X118575722Y-106679703D01*
X118575000Y-106665000D01*
X118575000Y-106365000D01*
X118575722Y-106350297D01*
X118577882Y-106335736D01*
X118581459Y-106321457D01*
X118586418Y-106307597D01*
X118592712Y-106294290D01*
X118600280Y-106281664D01*
X118609048Y-106269841D01*
X118618934Y-106258934D01*
X118629841Y-106249048D01*
X118641664Y-106240280D01*
X118654290Y-106232712D01*
X118667597Y-106226418D01*
X118681457Y-106221459D01*
X118695736Y-106217882D01*
X118710297Y-106215722D01*
X118725000Y-106215000D01*
X120475000Y-106215000D01*
X120489703Y-106215722D01*
G37*
G04 #@! TD.AperFunction*
G04 #@! TA.AperFunction,SMDPad,CuDef*
G36*
X120489703Y-104945722D02*
G01*
X120504264Y-104947882D01*
X120518543Y-104951459D01*
X120532403Y-104956418D01*
X120545710Y-104962712D01*
X120558336Y-104970280D01*
X120570159Y-104979048D01*
X120581066Y-104988934D01*
X120590952Y-104999841D01*
X120599720Y-105011664D01*
X120607288Y-105024290D01*
X120613582Y-105037597D01*
X120618541Y-105051457D01*
X120622118Y-105065736D01*
X120624278Y-105080297D01*
X120625000Y-105095000D01*
X120625000Y-105395000D01*
X120624278Y-105409703D01*
X120622118Y-105424264D01*
X120618541Y-105438543D01*
X120613582Y-105452403D01*
X120607288Y-105465710D01*
X120599720Y-105478336D01*
X120590952Y-105490159D01*
X120581066Y-105501066D01*
X120570159Y-105510952D01*
X120558336Y-105519720D01*
X120545710Y-105527288D01*
X120532403Y-105533582D01*
X120518543Y-105538541D01*
X120504264Y-105542118D01*
X120489703Y-105544278D01*
X120475000Y-105545000D01*
X118725000Y-105545000D01*
X118710297Y-105544278D01*
X118695736Y-105542118D01*
X118681457Y-105538541D01*
X118667597Y-105533582D01*
X118654290Y-105527288D01*
X118641664Y-105519720D01*
X118629841Y-105510952D01*
X118618934Y-105501066D01*
X118609048Y-105490159D01*
X118600280Y-105478336D01*
X118592712Y-105465710D01*
X118586418Y-105452403D01*
X118581459Y-105438543D01*
X118577882Y-105424264D01*
X118575722Y-105409703D01*
X118575000Y-105395000D01*
X118575000Y-105095000D01*
X118575722Y-105080297D01*
X118577882Y-105065736D01*
X118581459Y-105051457D01*
X118586418Y-105037597D01*
X118592712Y-105024290D01*
X118600280Y-105011664D01*
X118609048Y-104999841D01*
X118618934Y-104988934D01*
X118629841Y-104979048D01*
X118641664Y-104970280D01*
X118654290Y-104962712D01*
X118667597Y-104956418D01*
X118681457Y-104951459D01*
X118695736Y-104947882D01*
X118710297Y-104945722D01*
X118725000Y-104945000D01*
X120475000Y-104945000D01*
X120489703Y-104945722D01*
G37*
G04 #@! TD.AperFunction*
G04 #@! TA.AperFunction,SMDPad,CuDef*
G36*
X120489703Y-103675722D02*
G01*
X120504264Y-103677882D01*
X120518543Y-103681459D01*
X120532403Y-103686418D01*
X120545710Y-103692712D01*
X120558336Y-103700280D01*
X120570159Y-103709048D01*
X120581066Y-103718934D01*
X120590952Y-103729841D01*
X120599720Y-103741664D01*
X120607288Y-103754290D01*
X120613582Y-103767597D01*
X120618541Y-103781457D01*
X120622118Y-103795736D01*
X120624278Y-103810297D01*
X120625000Y-103825000D01*
X120625000Y-104125000D01*
X120624278Y-104139703D01*
X120622118Y-104154264D01*
X120618541Y-104168543D01*
X120613582Y-104182403D01*
X120607288Y-104195710D01*
X120599720Y-104208336D01*
X120590952Y-104220159D01*
X120581066Y-104231066D01*
X120570159Y-104240952D01*
X120558336Y-104249720D01*
X120545710Y-104257288D01*
X120532403Y-104263582D01*
X120518543Y-104268541D01*
X120504264Y-104272118D01*
X120489703Y-104274278D01*
X120475000Y-104275000D01*
X118725000Y-104275000D01*
X118710297Y-104274278D01*
X118695736Y-104272118D01*
X118681457Y-104268541D01*
X118667597Y-104263582D01*
X118654290Y-104257288D01*
X118641664Y-104249720D01*
X118629841Y-104240952D01*
X118618934Y-104231066D01*
X118609048Y-104220159D01*
X118600280Y-104208336D01*
X118592712Y-104195710D01*
X118586418Y-104182403D01*
X118581459Y-104168543D01*
X118577882Y-104154264D01*
X118575722Y-104139703D01*
X118575000Y-104125000D01*
X118575000Y-103825000D01*
X118575722Y-103810297D01*
X118577882Y-103795736D01*
X118581459Y-103781457D01*
X118586418Y-103767597D01*
X118592712Y-103754290D01*
X118600280Y-103741664D01*
X118609048Y-103729841D01*
X118618934Y-103718934D01*
X118629841Y-103709048D01*
X118641664Y-103700280D01*
X118654290Y-103692712D01*
X118667597Y-103686418D01*
X118681457Y-103681459D01*
X118695736Y-103677882D01*
X118710297Y-103675722D01*
X118725000Y-103675000D01*
X120475000Y-103675000D01*
X120489703Y-103675722D01*
G37*
G04 #@! TD.AperFunction*
G04 #@! TA.AperFunction,SMDPad,CuDef*
G36*
X120489703Y-102405722D02*
G01*
X120504264Y-102407882D01*
X120518543Y-102411459D01*
X120532403Y-102416418D01*
X120545710Y-102422712D01*
X120558336Y-102430280D01*
X120570159Y-102439048D01*
X120581066Y-102448934D01*
X120590952Y-102459841D01*
X120599720Y-102471664D01*
X120607288Y-102484290D01*
X120613582Y-102497597D01*
X120618541Y-102511457D01*
X120622118Y-102525736D01*
X120624278Y-102540297D01*
X120625000Y-102555000D01*
X120625000Y-102855000D01*
X120624278Y-102869703D01*
X120622118Y-102884264D01*
X120618541Y-102898543D01*
X120613582Y-102912403D01*
X120607288Y-102925710D01*
X120599720Y-102938336D01*
X120590952Y-102950159D01*
X120581066Y-102961066D01*
X120570159Y-102970952D01*
X120558336Y-102979720D01*
X120545710Y-102987288D01*
X120532403Y-102993582D01*
X120518543Y-102998541D01*
X120504264Y-103002118D01*
X120489703Y-103004278D01*
X120475000Y-103005000D01*
X118725000Y-103005000D01*
X118710297Y-103004278D01*
X118695736Y-103002118D01*
X118681457Y-102998541D01*
X118667597Y-102993582D01*
X118654290Y-102987288D01*
X118641664Y-102979720D01*
X118629841Y-102970952D01*
X118618934Y-102961066D01*
X118609048Y-102950159D01*
X118600280Y-102938336D01*
X118592712Y-102925710D01*
X118586418Y-102912403D01*
X118581459Y-102898543D01*
X118577882Y-102884264D01*
X118575722Y-102869703D01*
X118575000Y-102855000D01*
X118575000Y-102555000D01*
X118575722Y-102540297D01*
X118577882Y-102525736D01*
X118581459Y-102511457D01*
X118586418Y-102497597D01*
X118592712Y-102484290D01*
X118600280Y-102471664D01*
X118609048Y-102459841D01*
X118618934Y-102448934D01*
X118629841Y-102439048D01*
X118641664Y-102430280D01*
X118654290Y-102422712D01*
X118667597Y-102416418D01*
X118681457Y-102411459D01*
X118695736Y-102407882D01*
X118710297Y-102405722D01*
X118725000Y-102405000D01*
X120475000Y-102405000D01*
X120489703Y-102405722D01*
G37*
G04 #@! TD.AperFunction*
G04 #@! TA.AperFunction,SMDPad,CuDef*
G36*
X120489703Y-101135722D02*
G01*
X120504264Y-101137882D01*
X120518543Y-101141459D01*
X120532403Y-101146418D01*
X120545710Y-101152712D01*
X120558336Y-101160280D01*
X120570159Y-101169048D01*
X120581066Y-101178934D01*
X120590952Y-101189841D01*
X120599720Y-101201664D01*
X120607288Y-101214290D01*
X120613582Y-101227597D01*
X120618541Y-101241457D01*
X120622118Y-101255736D01*
X120624278Y-101270297D01*
X120625000Y-101285000D01*
X120625000Y-101585000D01*
X120624278Y-101599703D01*
X120622118Y-101614264D01*
X120618541Y-101628543D01*
X120613582Y-101642403D01*
X120607288Y-101655710D01*
X120599720Y-101668336D01*
X120590952Y-101680159D01*
X120581066Y-101691066D01*
X120570159Y-101700952D01*
X120558336Y-101709720D01*
X120545710Y-101717288D01*
X120532403Y-101723582D01*
X120518543Y-101728541D01*
X120504264Y-101732118D01*
X120489703Y-101734278D01*
X120475000Y-101735000D01*
X118725000Y-101735000D01*
X118710297Y-101734278D01*
X118695736Y-101732118D01*
X118681457Y-101728541D01*
X118667597Y-101723582D01*
X118654290Y-101717288D01*
X118641664Y-101709720D01*
X118629841Y-101700952D01*
X118618934Y-101691066D01*
X118609048Y-101680159D01*
X118600280Y-101668336D01*
X118592712Y-101655710D01*
X118586418Y-101642403D01*
X118581459Y-101628543D01*
X118577882Y-101614264D01*
X118575722Y-101599703D01*
X118575000Y-101585000D01*
X118575000Y-101285000D01*
X118575722Y-101270297D01*
X118577882Y-101255736D01*
X118581459Y-101241457D01*
X118586418Y-101227597D01*
X118592712Y-101214290D01*
X118600280Y-101201664D01*
X118609048Y-101189841D01*
X118618934Y-101178934D01*
X118629841Y-101169048D01*
X118641664Y-101160280D01*
X118654290Y-101152712D01*
X118667597Y-101146418D01*
X118681457Y-101141459D01*
X118695736Y-101137882D01*
X118710297Y-101135722D01*
X118725000Y-101135000D01*
X120475000Y-101135000D01*
X120489703Y-101135722D01*
G37*
G04 #@! TD.AperFunction*
G04 #@! TA.AperFunction,SMDPad,CuDef*
G36*
X120489703Y-99865722D02*
G01*
X120504264Y-99867882D01*
X120518543Y-99871459D01*
X120532403Y-99876418D01*
X120545710Y-99882712D01*
X120558336Y-99890280D01*
X120570159Y-99899048D01*
X120581066Y-99908934D01*
X120590952Y-99919841D01*
X120599720Y-99931664D01*
X120607288Y-99944290D01*
X120613582Y-99957597D01*
X120618541Y-99971457D01*
X120622118Y-99985736D01*
X120624278Y-100000297D01*
X120625000Y-100015000D01*
X120625000Y-100315000D01*
X120624278Y-100329703D01*
X120622118Y-100344264D01*
X120618541Y-100358543D01*
X120613582Y-100372403D01*
X120607288Y-100385710D01*
X120599720Y-100398336D01*
X120590952Y-100410159D01*
X120581066Y-100421066D01*
X120570159Y-100430952D01*
X120558336Y-100439720D01*
X120545710Y-100447288D01*
X120532403Y-100453582D01*
X120518543Y-100458541D01*
X120504264Y-100462118D01*
X120489703Y-100464278D01*
X120475000Y-100465000D01*
X118725000Y-100465000D01*
X118710297Y-100464278D01*
X118695736Y-100462118D01*
X118681457Y-100458541D01*
X118667597Y-100453582D01*
X118654290Y-100447288D01*
X118641664Y-100439720D01*
X118629841Y-100430952D01*
X118618934Y-100421066D01*
X118609048Y-100410159D01*
X118600280Y-100398336D01*
X118592712Y-100385710D01*
X118586418Y-100372403D01*
X118581459Y-100358543D01*
X118577882Y-100344264D01*
X118575722Y-100329703D01*
X118575000Y-100315000D01*
X118575000Y-100015000D01*
X118575722Y-100000297D01*
X118577882Y-99985736D01*
X118581459Y-99971457D01*
X118586418Y-99957597D01*
X118592712Y-99944290D01*
X118600280Y-99931664D01*
X118609048Y-99919841D01*
X118618934Y-99908934D01*
X118629841Y-99899048D01*
X118641664Y-99890280D01*
X118654290Y-99882712D01*
X118667597Y-99876418D01*
X118681457Y-99871459D01*
X118695736Y-99867882D01*
X118710297Y-99865722D01*
X118725000Y-99865000D01*
X120475000Y-99865000D01*
X120489703Y-99865722D01*
G37*
G04 #@! TD.AperFunction*
G04 #@! TA.AperFunction,SMDPad,CuDef*
G36*
X120489703Y-98595722D02*
G01*
X120504264Y-98597882D01*
X120518543Y-98601459D01*
X120532403Y-98606418D01*
X120545710Y-98612712D01*
X120558336Y-98620280D01*
X120570159Y-98629048D01*
X120581066Y-98638934D01*
X120590952Y-98649841D01*
X120599720Y-98661664D01*
X120607288Y-98674290D01*
X120613582Y-98687597D01*
X120618541Y-98701457D01*
X120622118Y-98715736D01*
X120624278Y-98730297D01*
X120625000Y-98745000D01*
X120625000Y-99045000D01*
X120624278Y-99059703D01*
X120622118Y-99074264D01*
X120618541Y-99088543D01*
X120613582Y-99102403D01*
X120607288Y-99115710D01*
X120599720Y-99128336D01*
X120590952Y-99140159D01*
X120581066Y-99151066D01*
X120570159Y-99160952D01*
X120558336Y-99169720D01*
X120545710Y-99177288D01*
X120532403Y-99183582D01*
X120518543Y-99188541D01*
X120504264Y-99192118D01*
X120489703Y-99194278D01*
X120475000Y-99195000D01*
X118725000Y-99195000D01*
X118710297Y-99194278D01*
X118695736Y-99192118D01*
X118681457Y-99188541D01*
X118667597Y-99183582D01*
X118654290Y-99177288D01*
X118641664Y-99169720D01*
X118629841Y-99160952D01*
X118618934Y-99151066D01*
X118609048Y-99140159D01*
X118600280Y-99128336D01*
X118592712Y-99115710D01*
X118586418Y-99102403D01*
X118581459Y-99088543D01*
X118577882Y-99074264D01*
X118575722Y-99059703D01*
X118575000Y-99045000D01*
X118575000Y-98745000D01*
X118575722Y-98730297D01*
X118577882Y-98715736D01*
X118581459Y-98701457D01*
X118586418Y-98687597D01*
X118592712Y-98674290D01*
X118600280Y-98661664D01*
X118609048Y-98649841D01*
X118618934Y-98638934D01*
X118629841Y-98629048D01*
X118641664Y-98620280D01*
X118654290Y-98612712D01*
X118667597Y-98606418D01*
X118681457Y-98601459D01*
X118695736Y-98597882D01*
X118710297Y-98595722D01*
X118725000Y-98595000D01*
X120475000Y-98595000D01*
X120489703Y-98595722D01*
G37*
G04 #@! TD.AperFunction*
G04 #@! TA.AperFunction,SMDPad,CuDef*
G36*
X120489703Y-97325722D02*
G01*
X120504264Y-97327882D01*
X120518543Y-97331459D01*
X120532403Y-97336418D01*
X120545710Y-97342712D01*
X120558336Y-97350280D01*
X120570159Y-97359048D01*
X120581066Y-97368934D01*
X120590952Y-97379841D01*
X120599720Y-97391664D01*
X120607288Y-97404290D01*
X120613582Y-97417597D01*
X120618541Y-97431457D01*
X120622118Y-97445736D01*
X120624278Y-97460297D01*
X120625000Y-97475000D01*
X120625000Y-97775000D01*
X120624278Y-97789703D01*
X120622118Y-97804264D01*
X120618541Y-97818543D01*
X120613582Y-97832403D01*
X120607288Y-97845710D01*
X120599720Y-97858336D01*
X120590952Y-97870159D01*
X120581066Y-97881066D01*
X120570159Y-97890952D01*
X120558336Y-97899720D01*
X120545710Y-97907288D01*
X120532403Y-97913582D01*
X120518543Y-97918541D01*
X120504264Y-97922118D01*
X120489703Y-97924278D01*
X120475000Y-97925000D01*
X118725000Y-97925000D01*
X118710297Y-97924278D01*
X118695736Y-97922118D01*
X118681457Y-97918541D01*
X118667597Y-97913582D01*
X118654290Y-97907288D01*
X118641664Y-97899720D01*
X118629841Y-97890952D01*
X118618934Y-97881066D01*
X118609048Y-97870159D01*
X118600280Y-97858336D01*
X118592712Y-97845710D01*
X118586418Y-97832403D01*
X118581459Y-97818543D01*
X118577882Y-97804264D01*
X118575722Y-97789703D01*
X118575000Y-97775000D01*
X118575000Y-97475000D01*
X118575722Y-97460297D01*
X118577882Y-97445736D01*
X118581459Y-97431457D01*
X118586418Y-97417597D01*
X118592712Y-97404290D01*
X118600280Y-97391664D01*
X118609048Y-97379841D01*
X118618934Y-97368934D01*
X118629841Y-97359048D01*
X118641664Y-97350280D01*
X118654290Y-97342712D01*
X118667597Y-97336418D01*
X118681457Y-97331459D01*
X118695736Y-97327882D01*
X118710297Y-97325722D01*
X118725000Y-97325000D01*
X120475000Y-97325000D01*
X120489703Y-97325722D01*
G37*
G04 #@! TD.AperFunction*
G04 #@! TA.AperFunction,SMDPad,CuDef*
G36*
X120489703Y-96055722D02*
G01*
X120504264Y-96057882D01*
X120518543Y-96061459D01*
X120532403Y-96066418D01*
X120545710Y-96072712D01*
X120558336Y-96080280D01*
X120570159Y-96089048D01*
X120581066Y-96098934D01*
X120590952Y-96109841D01*
X120599720Y-96121664D01*
X120607288Y-96134290D01*
X120613582Y-96147597D01*
X120618541Y-96161457D01*
X120622118Y-96175736D01*
X120624278Y-96190297D01*
X120625000Y-96205000D01*
X120625000Y-96505000D01*
X120624278Y-96519703D01*
X120622118Y-96534264D01*
X120618541Y-96548543D01*
X120613582Y-96562403D01*
X120607288Y-96575710D01*
X120599720Y-96588336D01*
X120590952Y-96600159D01*
X120581066Y-96611066D01*
X120570159Y-96620952D01*
X120558336Y-96629720D01*
X120545710Y-96637288D01*
X120532403Y-96643582D01*
X120518543Y-96648541D01*
X120504264Y-96652118D01*
X120489703Y-96654278D01*
X120475000Y-96655000D01*
X118725000Y-96655000D01*
X118710297Y-96654278D01*
X118695736Y-96652118D01*
X118681457Y-96648541D01*
X118667597Y-96643582D01*
X118654290Y-96637288D01*
X118641664Y-96629720D01*
X118629841Y-96620952D01*
X118618934Y-96611066D01*
X118609048Y-96600159D01*
X118600280Y-96588336D01*
X118592712Y-96575710D01*
X118586418Y-96562403D01*
X118581459Y-96548543D01*
X118577882Y-96534264D01*
X118575722Y-96519703D01*
X118575000Y-96505000D01*
X118575000Y-96205000D01*
X118575722Y-96190297D01*
X118577882Y-96175736D01*
X118581459Y-96161457D01*
X118586418Y-96147597D01*
X118592712Y-96134290D01*
X118600280Y-96121664D01*
X118609048Y-96109841D01*
X118618934Y-96098934D01*
X118629841Y-96089048D01*
X118641664Y-96080280D01*
X118654290Y-96072712D01*
X118667597Y-96066418D01*
X118681457Y-96061459D01*
X118695736Y-96057882D01*
X118710297Y-96055722D01*
X118725000Y-96055000D01*
X120475000Y-96055000D01*
X120489703Y-96055722D01*
G37*
G04 #@! TD.AperFunction*
G04 #@! TA.AperFunction,SMDPad,CuDef*
G36*
X120489703Y-94785722D02*
G01*
X120504264Y-94787882D01*
X120518543Y-94791459D01*
X120532403Y-94796418D01*
X120545710Y-94802712D01*
X120558336Y-94810280D01*
X120570159Y-94819048D01*
X120581066Y-94828934D01*
X120590952Y-94839841D01*
X120599720Y-94851664D01*
X120607288Y-94864290D01*
X120613582Y-94877597D01*
X120618541Y-94891457D01*
X120622118Y-94905736D01*
X120624278Y-94920297D01*
X120625000Y-94935000D01*
X120625000Y-95235000D01*
X120624278Y-95249703D01*
X120622118Y-95264264D01*
X120618541Y-95278543D01*
X120613582Y-95292403D01*
X120607288Y-95305710D01*
X120599720Y-95318336D01*
X120590952Y-95330159D01*
X120581066Y-95341066D01*
X120570159Y-95350952D01*
X120558336Y-95359720D01*
X120545710Y-95367288D01*
X120532403Y-95373582D01*
X120518543Y-95378541D01*
X120504264Y-95382118D01*
X120489703Y-95384278D01*
X120475000Y-95385000D01*
X118725000Y-95385000D01*
X118710297Y-95384278D01*
X118695736Y-95382118D01*
X118681457Y-95378541D01*
X118667597Y-95373582D01*
X118654290Y-95367288D01*
X118641664Y-95359720D01*
X118629841Y-95350952D01*
X118618934Y-95341066D01*
X118609048Y-95330159D01*
X118600280Y-95318336D01*
X118592712Y-95305710D01*
X118586418Y-95292403D01*
X118581459Y-95278543D01*
X118577882Y-95264264D01*
X118575722Y-95249703D01*
X118575000Y-95235000D01*
X118575000Y-94935000D01*
X118575722Y-94920297D01*
X118577882Y-94905736D01*
X118581459Y-94891457D01*
X118586418Y-94877597D01*
X118592712Y-94864290D01*
X118600280Y-94851664D01*
X118609048Y-94839841D01*
X118618934Y-94828934D01*
X118629841Y-94819048D01*
X118641664Y-94810280D01*
X118654290Y-94802712D01*
X118667597Y-94796418D01*
X118681457Y-94791459D01*
X118695736Y-94787882D01*
X118710297Y-94785722D01*
X118725000Y-94785000D01*
X120475000Y-94785000D01*
X120489703Y-94785722D01*
G37*
G04 #@! TD.AperFunction*
D19*
X105000000Y-103000000D03*
X102500000Y-103000000D03*
X107500000Y-103000000D03*
X107500000Y-87000000D03*
X102500000Y-87000000D03*
D20*
X111750000Y-95000000D03*
X98250000Y-95000000D03*
D21*
X164540000Y-106750000D03*
X164540000Y-105800000D03*
X164540000Y-104850000D03*
X167960000Y-104850000D03*
X167960000Y-105800000D03*
X167960000Y-106750000D03*
G04 #@! TA.AperFunction,SMDPad,CuDef*
D18*
G36*
X99899504Y-108276204D02*
G01*
X99923773Y-108279804D01*
X99947571Y-108285765D01*
X99970671Y-108294030D01*
X99992849Y-108304520D01*
X100013893Y-108317133D01*
X100033598Y-108331747D01*
X100051777Y-108348223D01*
X100068253Y-108366402D01*
X100082867Y-108386107D01*
X100095480Y-108407151D01*
X100105970Y-108429329D01*
X100114235Y-108452429D01*
X100120196Y-108476227D01*
X100123796Y-108500496D01*
X100125000Y-108525000D01*
X100125000Y-109450000D01*
X100123796Y-109474504D01*
X100120196Y-109498773D01*
X100114235Y-109522571D01*
X100105970Y-109545671D01*
X100095480Y-109567849D01*
X100082867Y-109588893D01*
X100068253Y-109608598D01*
X100051777Y-109626777D01*
X100033598Y-109643253D01*
X100013893Y-109657867D01*
X99992849Y-109670480D01*
X99970671Y-109680970D01*
X99947571Y-109689235D01*
X99923773Y-109695196D01*
X99899504Y-109698796D01*
X99875000Y-109700000D01*
X98625000Y-109700000D01*
X98600496Y-109698796D01*
X98576227Y-109695196D01*
X98552429Y-109689235D01*
X98529329Y-109680970D01*
X98507151Y-109670480D01*
X98486107Y-109657867D01*
X98466402Y-109643253D01*
X98448223Y-109626777D01*
X98431747Y-109608598D01*
X98417133Y-109588893D01*
X98404520Y-109567849D01*
X98394030Y-109545671D01*
X98385765Y-109522571D01*
X98379804Y-109498773D01*
X98376204Y-109474504D01*
X98375000Y-109450000D01*
X98375000Y-108525000D01*
X98376204Y-108500496D01*
X98379804Y-108476227D01*
X98385765Y-108452429D01*
X98394030Y-108429329D01*
X98404520Y-108407151D01*
X98417133Y-108386107D01*
X98431747Y-108366402D01*
X98448223Y-108348223D01*
X98466402Y-108331747D01*
X98486107Y-108317133D01*
X98507151Y-108304520D01*
X98529329Y-108294030D01*
X98552429Y-108285765D01*
X98576227Y-108279804D01*
X98600496Y-108276204D01*
X98625000Y-108275000D01*
X99875000Y-108275000D01*
X99899504Y-108276204D01*
G37*
G04 #@! TD.AperFunction*
G04 #@! TA.AperFunction,SMDPad,CuDef*
G36*
X99899504Y-105301204D02*
G01*
X99923773Y-105304804D01*
X99947571Y-105310765D01*
X99970671Y-105319030D01*
X99992849Y-105329520D01*
X100013893Y-105342133D01*
X100033598Y-105356747D01*
X100051777Y-105373223D01*
X100068253Y-105391402D01*
X100082867Y-105411107D01*
X100095480Y-105432151D01*
X100105970Y-105454329D01*
X100114235Y-105477429D01*
X100120196Y-105501227D01*
X100123796Y-105525496D01*
X100125000Y-105550000D01*
X100125000Y-106475000D01*
X100123796Y-106499504D01*
X100120196Y-106523773D01*
X100114235Y-106547571D01*
X100105970Y-106570671D01*
X100095480Y-106592849D01*
X100082867Y-106613893D01*
X100068253Y-106633598D01*
X100051777Y-106651777D01*
X100033598Y-106668253D01*
X100013893Y-106682867D01*
X99992849Y-106695480D01*
X99970671Y-106705970D01*
X99947571Y-106714235D01*
X99923773Y-106720196D01*
X99899504Y-106723796D01*
X99875000Y-106725000D01*
X98625000Y-106725000D01*
X98600496Y-106723796D01*
X98576227Y-106720196D01*
X98552429Y-106714235D01*
X98529329Y-106705970D01*
X98507151Y-106695480D01*
X98486107Y-106682867D01*
X98466402Y-106668253D01*
X98448223Y-106651777D01*
X98431747Y-106633598D01*
X98417133Y-106613893D01*
X98404520Y-106592849D01*
X98394030Y-106570671D01*
X98385765Y-106547571D01*
X98379804Y-106523773D01*
X98376204Y-106499504D01*
X98375000Y-106475000D01*
X98375000Y-105550000D01*
X98376204Y-105525496D01*
X98379804Y-105501227D01*
X98385765Y-105477429D01*
X98394030Y-105454329D01*
X98404520Y-105432151D01*
X98417133Y-105411107D01*
X98431747Y-105391402D01*
X98448223Y-105373223D01*
X98466402Y-105356747D01*
X98486107Y-105342133D01*
X98507151Y-105329520D01*
X98529329Y-105319030D01*
X98552429Y-105310765D01*
X98576227Y-105304804D01*
X98600496Y-105301204D01*
X98625000Y-105300000D01*
X99875000Y-105300000D01*
X99899504Y-105301204D01*
G37*
G04 #@! TD.AperFunction*
G04 #@! TA.AperFunction,SMDPad,CuDef*
G36*
X140449504Y-99613704D02*
G01*
X140473773Y-99617304D01*
X140497571Y-99623265D01*
X140520671Y-99631530D01*
X140542849Y-99642020D01*
X140563893Y-99654633D01*
X140583598Y-99669247D01*
X140601777Y-99685723D01*
X140618253Y-99703902D01*
X140632867Y-99723607D01*
X140645480Y-99744651D01*
X140655970Y-99766829D01*
X140664235Y-99789929D01*
X140670196Y-99813727D01*
X140673796Y-99837996D01*
X140675000Y-99862500D01*
X140675000Y-100787500D01*
X140673796Y-100812004D01*
X140670196Y-100836273D01*
X140664235Y-100860071D01*
X140655970Y-100883171D01*
X140645480Y-100905349D01*
X140632867Y-100926393D01*
X140618253Y-100946098D01*
X140601777Y-100964277D01*
X140583598Y-100980753D01*
X140563893Y-100995367D01*
X140542849Y-101007980D01*
X140520671Y-101018470D01*
X140497571Y-101026735D01*
X140473773Y-101032696D01*
X140449504Y-101036296D01*
X140425000Y-101037500D01*
X139175000Y-101037500D01*
X139150496Y-101036296D01*
X139126227Y-101032696D01*
X139102429Y-101026735D01*
X139079329Y-101018470D01*
X139057151Y-101007980D01*
X139036107Y-100995367D01*
X139016402Y-100980753D01*
X138998223Y-100964277D01*
X138981747Y-100946098D01*
X138967133Y-100926393D01*
X138954520Y-100905349D01*
X138944030Y-100883171D01*
X138935765Y-100860071D01*
X138929804Y-100836273D01*
X138926204Y-100812004D01*
X138925000Y-100787500D01*
X138925000Y-99862500D01*
X138926204Y-99837996D01*
X138929804Y-99813727D01*
X138935765Y-99789929D01*
X138944030Y-99766829D01*
X138954520Y-99744651D01*
X138967133Y-99723607D01*
X138981747Y-99703902D01*
X138998223Y-99685723D01*
X139016402Y-99669247D01*
X139036107Y-99654633D01*
X139057151Y-99642020D01*
X139079329Y-99631530D01*
X139102429Y-99623265D01*
X139126227Y-99617304D01*
X139150496Y-99613704D01*
X139175000Y-99612500D01*
X140425000Y-99612500D01*
X140449504Y-99613704D01*
G37*
G04 #@! TD.AperFunction*
G04 #@! TA.AperFunction,SMDPad,CuDef*
G36*
X140449504Y-102588704D02*
G01*
X140473773Y-102592304D01*
X140497571Y-102598265D01*
X140520671Y-102606530D01*
X140542849Y-102617020D01*
X140563893Y-102629633D01*
X140583598Y-102644247D01*
X140601777Y-102660723D01*
X140618253Y-102678902D01*
X140632867Y-102698607D01*
X140645480Y-102719651D01*
X140655970Y-102741829D01*
X140664235Y-102764929D01*
X140670196Y-102788727D01*
X140673796Y-102812996D01*
X140675000Y-102837500D01*
X140675000Y-103762500D01*
X140673796Y-103787004D01*
X140670196Y-103811273D01*
X140664235Y-103835071D01*
X140655970Y-103858171D01*
X140645480Y-103880349D01*
X140632867Y-103901393D01*
X140618253Y-103921098D01*
X140601777Y-103939277D01*
X140583598Y-103955753D01*
X140563893Y-103970367D01*
X140542849Y-103982980D01*
X140520671Y-103993470D01*
X140497571Y-104001735D01*
X140473773Y-104007696D01*
X140449504Y-104011296D01*
X140425000Y-104012500D01*
X139175000Y-104012500D01*
X139150496Y-104011296D01*
X139126227Y-104007696D01*
X139102429Y-104001735D01*
X139079329Y-103993470D01*
X139057151Y-103982980D01*
X139036107Y-103970367D01*
X139016402Y-103955753D01*
X138998223Y-103939277D01*
X138981747Y-103921098D01*
X138967133Y-103901393D01*
X138954520Y-103880349D01*
X138944030Y-103858171D01*
X138935765Y-103835071D01*
X138929804Y-103811273D01*
X138926204Y-103787004D01*
X138925000Y-103762500D01*
X138925000Y-102837500D01*
X138926204Y-102812996D01*
X138929804Y-102788727D01*
X138935765Y-102764929D01*
X138944030Y-102741829D01*
X138954520Y-102719651D01*
X138967133Y-102698607D01*
X138981747Y-102678902D01*
X138998223Y-102660723D01*
X139016402Y-102644247D01*
X139036107Y-102629633D01*
X139057151Y-102617020D01*
X139079329Y-102606530D01*
X139102429Y-102598265D01*
X139126227Y-102592304D01*
X139150496Y-102588704D01*
X139175000Y-102587500D01*
X140425000Y-102587500D01*
X140449504Y-102588704D01*
G37*
G04 #@! TD.AperFunction*
G04 #@! TA.AperFunction,SMDPad,CuDef*
G36*
X135049504Y-99601204D02*
G01*
X135073773Y-99604804D01*
X135097571Y-99610765D01*
X135120671Y-99619030D01*
X135142849Y-99629520D01*
X135163893Y-99642133D01*
X135183598Y-99656747D01*
X135201777Y-99673223D01*
X135218253Y-99691402D01*
X135232867Y-99711107D01*
X135245480Y-99732151D01*
X135255970Y-99754329D01*
X135264235Y-99777429D01*
X135270196Y-99801227D01*
X135273796Y-99825496D01*
X135275000Y-99850000D01*
X135275000Y-100775000D01*
X135273796Y-100799504D01*
X135270196Y-100823773D01*
X135264235Y-100847571D01*
X135255970Y-100870671D01*
X135245480Y-100892849D01*
X135232867Y-100913893D01*
X135218253Y-100933598D01*
X135201777Y-100951777D01*
X135183598Y-100968253D01*
X135163893Y-100982867D01*
X135142849Y-100995480D01*
X135120671Y-101005970D01*
X135097571Y-101014235D01*
X135073773Y-101020196D01*
X135049504Y-101023796D01*
X135025000Y-101025000D01*
X133775000Y-101025000D01*
X133750496Y-101023796D01*
X133726227Y-101020196D01*
X133702429Y-101014235D01*
X133679329Y-101005970D01*
X133657151Y-100995480D01*
X133636107Y-100982867D01*
X133616402Y-100968253D01*
X133598223Y-100951777D01*
X133581747Y-100933598D01*
X133567133Y-100913893D01*
X133554520Y-100892849D01*
X133544030Y-100870671D01*
X133535765Y-100847571D01*
X133529804Y-100823773D01*
X133526204Y-100799504D01*
X133525000Y-100775000D01*
X133525000Y-99850000D01*
X133526204Y-99825496D01*
X133529804Y-99801227D01*
X133535765Y-99777429D01*
X133544030Y-99754329D01*
X133554520Y-99732151D01*
X133567133Y-99711107D01*
X133581747Y-99691402D01*
X133598223Y-99673223D01*
X133616402Y-99656747D01*
X133636107Y-99642133D01*
X133657151Y-99629520D01*
X133679329Y-99619030D01*
X133702429Y-99610765D01*
X133726227Y-99604804D01*
X133750496Y-99601204D01*
X133775000Y-99600000D01*
X135025000Y-99600000D01*
X135049504Y-99601204D01*
G37*
G04 #@! TD.AperFunction*
G04 #@! TA.AperFunction,SMDPad,CuDef*
G36*
X135049504Y-102576204D02*
G01*
X135073773Y-102579804D01*
X135097571Y-102585765D01*
X135120671Y-102594030D01*
X135142849Y-102604520D01*
X135163893Y-102617133D01*
X135183598Y-102631747D01*
X135201777Y-102648223D01*
X135218253Y-102666402D01*
X135232867Y-102686107D01*
X135245480Y-102707151D01*
X135255970Y-102729329D01*
X135264235Y-102752429D01*
X135270196Y-102776227D01*
X135273796Y-102800496D01*
X135275000Y-102825000D01*
X135275000Y-103750000D01*
X135273796Y-103774504D01*
X135270196Y-103798773D01*
X135264235Y-103822571D01*
X135255970Y-103845671D01*
X135245480Y-103867849D01*
X135232867Y-103888893D01*
X135218253Y-103908598D01*
X135201777Y-103926777D01*
X135183598Y-103943253D01*
X135163893Y-103957867D01*
X135142849Y-103970480D01*
X135120671Y-103980970D01*
X135097571Y-103989235D01*
X135073773Y-103995196D01*
X135049504Y-103998796D01*
X135025000Y-104000000D01*
X133775000Y-104000000D01*
X133750496Y-103998796D01*
X133726227Y-103995196D01*
X133702429Y-103989235D01*
X133679329Y-103980970D01*
X133657151Y-103970480D01*
X133636107Y-103957867D01*
X133616402Y-103943253D01*
X133598223Y-103926777D01*
X133581747Y-103908598D01*
X133567133Y-103888893D01*
X133554520Y-103867849D01*
X133544030Y-103845671D01*
X133535765Y-103822571D01*
X133529804Y-103798773D01*
X133526204Y-103774504D01*
X133525000Y-103750000D01*
X133525000Y-102825000D01*
X133526204Y-102800496D01*
X133529804Y-102776227D01*
X133535765Y-102752429D01*
X133544030Y-102729329D01*
X133554520Y-102707151D01*
X133567133Y-102686107D01*
X133581747Y-102666402D01*
X133598223Y-102648223D01*
X133616402Y-102631747D01*
X133636107Y-102617133D01*
X133657151Y-102604520D01*
X133679329Y-102594030D01*
X133702429Y-102585765D01*
X133726227Y-102579804D01*
X133750496Y-102576204D01*
X133775000Y-102575000D01*
X135025000Y-102575000D01*
X135049504Y-102576204D01*
G37*
G04 #@! TD.AperFunction*
G04 #@! TA.AperFunction,SMDPad,CuDef*
G36*
X154974504Y-82926204D02*
G01*
X154998773Y-82929804D01*
X155022571Y-82935765D01*
X155045671Y-82944030D01*
X155067849Y-82954520D01*
X155088893Y-82967133D01*
X155108598Y-82981747D01*
X155126777Y-82998223D01*
X155143253Y-83016402D01*
X155157867Y-83036107D01*
X155170480Y-83057151D01*
X155180970Y-83079329D01*
X155189235Y-83102429D01*
X155195196Y-83126227D01*
X155198796Y-83150496D01*
X155200000Y-83175000D01*
X155200000Y-84425000D01*
X155198796Y-84449504D01*
X155195196Y-84473773D01*
X155189235Y-84497571D01*
X155180970Y-84520671D01*
X155170480Y-84542849D01*
X155157867Y-84563893D01*
X155143253Y-84583598D01*
X155126777Y-84601777D01*
X155108598Y-84618253D01*
X155088893Y-84632867D01*
X155067849Y-84645480D01*
X155045671Y-84655970D01*
X155022571Y-84664235D01*
X154998773Y-84670196D01*
X154974504Y-84673796D01*
X154950000Y-84675000D01*
X154025000Y-84675000D01*
X154000496Y-84673796D01*
X153976227Y-84670196D01*
X153952429Y-84664235D01*
X153929329Y-84655970D01*
X153907151Y-84645480D01*
X153886107Y-84632867D01*
X153866402Y-84618253D01*
X153848223Y-84601777D01*
X153831747Y-84583598D01*
X153817133Y-84563893D01*
X153804520Y-84542849D01*
X153794030Y-84520671D01*
X153785765Y-84497571D01*
X153779804Y-84473773D01*
X153776204Y-84449504D01*
X153775000Y-84425000D01*
X153775000Y-83175000D01*
X153776204Y-83150496D01*
X153779804Y-83126227D01*
X153785765Y-83102429D01*
X153794030Y-83079329D01*
X153804520Y-83057151D01*
X153817133Y-83036107D01*
X153831747Y-83016402D01*
X153848223Y-82998223D01*
X153866402Y-82981747D01*
X153886107Y-82967133D01*
X153907151Y-82954520D01*
X153929329Y-82944030D01*
X153952429Y-82935765D01*
X153976227Y-82929804D01*
X154000496Y-82926204D01*
X154025000Y-82925000D01*
X154950000Y-82925000D01*
X154974504Y-82926204D01*
G37*
G04 #@! TD.AperFunction*
G04 #@! TA.AperFunction,SMDPad,CuDef*
G36*
X151999504Y-82926204D02*
G01*
X152023773Y-82929804D01*
X152047571Y-82935765D01*
X152070671Y-82944030D01*
X152092849Y-82954520D01*
X152113893Y-82967133D01*
X152133598Y-82981747D01*
X152151777Y-82998223D01*
X152168253Y-83016402D01*
X152182867Y-83036107D01*
X152195480Y-83057151D01*
X152205970Y-83079329D01*
X152214235Y-83102429D01*
X152220196Y-83126227D01*
X152223796Y-83150496D01*
X152225000Y-83175000D01*
X152225000Y-84425000D01*
X152223796Y-84449504D01*
X152220196Y-84473773D01*
X152214235Y-84497571D01*
X152205970Y-84520671D01*
X152195480Y-84542849D01*
X152182867Y-84563893D01*
X152168253Y-84583598D01*
X152151777Y-84601777D01*
X152133598Y-84618253D01*
X152113893Y-84632867D01*
X152092849Y-84645480D01*
X152070671Y-84655970D01*
X152047571Y-84664235D01*
X152023773Y-84670196D01*
X151999504Y-84673796D01*
X151975000Y-84675000D01*
X151050000Y-84675000D01*
X151025496Y-84673796D01*
X151001227Y-84670196D01*
X150977429Y-84664235D01*
X150954329Y-84655970D01*
X150932151Y-84645480D01*
X150911107Y-84632867D01*
X150891402Y-84618253D01*
X150873223Y-84601777D01*
X150856747Y-84583598D01*
X150842133Y-84563893D01*
X150829520Y-84542849D01*
X150819030Y-84520671D01*
X150810765Y-84497571D01*
X150804804Y-84473773D01*
X150801204Y-84449504D01*
X150800000Y-84425000D01*
X150800000Y-83175000D01*
X150801204Y-83150496D01*
X150804804Y-83126227D01*
X150810765Y-83102429D01*
X150819030Y-83079329D01*
X150829520Y-83057151D01*
X150842133Y-83036107D01*
X150856747Y-83016402D01*
X150873223Y-82998223D01*
X150891402Y-82981747D01*
X150911107Y-82967133D01*
X150932151Y-82954520D01*
X150954329Y-82944030D01*
X150977429Y-82935765D01*
X151001227Y-82929804D01*
X151025496Y-82926204D01*
X151050000Y-82925000D01*
X151975000Y-82925000D01*
X151999504Y-82926204D01*
G37*
G04 #@! TD.AperFunction*
G04 #@! TA.AperFunction,SMDPad,CuDef*
G36*
X157299504Y-82126204D02*
G01*
X157323773Y-82129804D01*
X157347571Y-82135765D01*
X157370671Y-82144030D01*
X157392849Y-82154520D01*
X157413893Y-82167133D01*
X157433598Y-82181747D01*
X157451777Y-82198223D01*
X157468253Y-82216402D01*
X157482867Y-82236107D01*
X157495480Y-82257151D01*
X157505970Y-82279329D01*
X157514235Y-82302429D01*
X157520196Y-82326227D01*
X157523796Y-82350496D01*
X157525000Y-82375000D01*
X157525000Y-83625000D01*
X157523796Y-83649504D01*
X157520196Y-83673773D01*
X157514235Y-83697571D01*
X157505970Y-83720671D01*
X157495480Y-83742849D01*
X157482867Y-83763893D01*
X157468253Y-83783598D01*
X157451777Y-83801777D01*
X157433598Y-83818253D01*
X157413893Y-83832867D01*
X157392849Y-83845480D01*
X157370671Y-83855970D01*
X157347571Y-83864235D01*
X157323773Y-83870196D01*
X157299504Y-83873796D01*
X157275000Y-83875000D01*
X156350000Y-83875000D01*
X156325496Y-83873796D01*
X156301227Y-83870196D01*
X156277429Y-83864235D01*
X156254329Y-83855970D01*
X156232151Y-83845480D01*
X156211107Y-83832867D01*
X156191402Y-83818253D01*
X156173223Y-83801777D01*
X156156747Y-83783598D01*
X156142133Y-83763893D01*
X156129520Y-83742849D01*
X156119030Y-83720671D01*
X156110765Y-83697571D01*
X156104804Y-83673773D01*
X156101204Y-83649504D01*
X156100000Y-83625000D01*
X156100000Y-82375000D01*
X156101204Y-82350496D01*
X156104804Y-82326227D01*
X156110765Y-82302429D01*
X156119030Y-82279329D01*
X156129520Y-82257151D01*
X156142133Y-82236107D01*
X156156747Y-82216402D01*
X156173223Y-82198223D01*
X156191402Y-82181747D01*
X156211107Y-82167133D01*
X156232151Y-82154520D01*
X156254329Y-82144030D01*
X156277429Y-82135765D01*
X156301227Y-82129804D01*
X156325496Y-82126204D01*
X156350000Y-82125000D01*
X157275000Y-82125000D01*
X157299504Y-82126204D01*
G37*
G04 #@! TD.AperFunction*
G04 #@! TA.AperFunction,SMDPad,CuDef*
G36*
X160274504Y-82126204D02*
G01*
X160298773Y-82129804D01*
X160322571Y-82135765D01*
X160345671Y-82144030D01*
X160367849Y-82154520D01*
X160388893Y-82167133D01*
X160408598Y-82181747D01*
X160426777Y-82198223D01*
X160443253Y-82216402D01*
X160457867Y-82236107D01*
X160470480Y-82257151D01*
X160480970Y-82279329D01*
X160489235Y-82302429D01*
X160495196Y-82326227D01*
X160498796Y-82350496D01*
X160500000Y-82375000D01*
X160500000Y-83625000D01*
X160498796Y-83649504D01*
X160495196Y-83673773D01*
X160489235Y-83697571D01*
X160480970Y-83720671D01*
X160470480Y-83742849D01*
X160457867Y-83763893D01*
X160443253Y-83783598D01*
X160426777Y-83801777D01*
X160408598Y-83818253D01*
X160388893Y-83832867D01*
X160367849Y-83845480D01*
X160345671Y-83855970D01*
X160322571Y-83864235D01*
X160298773Y-83870196D01*
X160274504Y-83873796D01*
X160250000Y-83875000D01*
X159325000Y-83875000D01*
X159300496Y-83873796D01*
X159276227Y-83870196D01*
X159252429Y-83864235D01*
X159229329Y-83855970D01*
X159207151Y-83845480D01*
X159186107Y-83832867D01*
X159166402Y-83818253D01*
X159148223Y-83801777D01*
X159131747Y-83783598D01*
X159117133Y-83763893D01*
X159104520Y-83742849D01*
X159094030Y-83720671D01*
X159085765Y-83697571D01*
X159079804Y-83673773D01*
X159076204Y-83649504D01*
X159075000Y-83625000D01*
X159075000Y-82375000D01*
X159076204Y-82350496D01*
X159079804Y-82326227D01*
X159085765Y-82302429D01*
X159094030Y-82279329D01*
X159104520Y-82257151D01*
X159117133Y-82236107D01*
X159131747Y-82216402D01*
X159148223Y-82198223D01*
X159166402Y-82181747D01*
X159186107Y-82167133D01*
X159207151Y-82154520D01*
X159229329Y-82144030D01*
X159252429Y-82135765D01*
X159276227Y-82129804D01*
X159300496Y-82126204D01*
X159325000Y-82125000D01*
X160250000Y-82125000D01*
X160274504Y-82126204D01*
G37*
G04 #@! TD.AperFunction*
G04 #@! TA.AperFunction,SMDPad,CuDef*
G36*
X129749504Y-107876204D02*
G01*
X129773773Y-107879804D01*
X129797571Y-107885765D01*
X129820671Y-107894030D01*
X129842849Y-107904520D01*
X129863893Y-107917133D01*
X129883598Y-107931747D01*
X129901777Y-107948223D01*
X129918253Y-107966402D01*
X129932867Y-107986107D01*
X129945480Y-108007151D01*
X129955970Y-108029329D01*
X129964235Y-108052429D01*
X129970196Y-108076227D01*
X129973796Y-108100496D01*
X129975000Y-108125000D01*
X129975000Y-109375000D01*
X129973796Y-109399504D01*
X129970196Y-109423773D01*
X129964235Y-109447571D01*
X129955970Y-109470671D01*
X129945480Y-109492849D01*
X129932867Y-109513893D01*
X129918253Y-109533598D01*
X129901777Y-109551777D01*
X129883598Y-109568253D01*
X129863893Y-109582867D01*
X129842849Y-109595480D01*
X129820671Y-109605970D01*
X129797571Y-109614235D01*
X129773773Y-109620196D01*
X129749504Y-109623796D01*
X129725000Y-109625000D01*
X128800000Y-109625000D01*
X128775496Y-109623796D01*
X128751227Y-109620196D01*
X128727429Y-109614235D01*
X128704329Y-109605970D01*
X128682151Y-109595480D01*
X128661107Y-109582867D01*
X128641402Y-109568253D01*
X128623223Y-109551777D01*
X128606747Y-109533598D01*
X128592133Y-109513893D01*
X128579520Y-109492849D01*
X128569030Y-109470671D01*
X128560765Y-109447571D01*
X128554804Y-109423773D01*
X128551204Y-109399504D01*
X128550000Y-109375000D01*
X128550000Y-108125000D01*
X128551204Y-108100496D01*
X128554804Y-108076227D01*
X128560765Y-108052429D01*
X128569030Y-108029329D01*
X128579520Y-108007151D01*
X128592133Y-107986107D01*
X128606747Y-107966402D01*
X128623223Y-107948223D01*
X128641402Y-107931747D01*
X128661107Y-107917133D01*
X128682151Y-107904520D01*
X128704329Y-107894030D01*
X128727429Y-107885765D01*
X128751227Y-107879804D01*
X128775496Y-107876204D01*
X128800000Y-107875000D01*
X129725000Y-107875000D01*
X129749504Y-107876204D01*
G37*
G04 #@! TD.AperFunction*
G04 #@! TA.AperFunction,SMDPad,CuDef*
G36*
X132724504Y-107876204D02*
G01*
X132748773Y-107879804D01*
X132772571Y-107885765D01*
X132795671Y-107894030D01*
X132817849Y-107904520D01*
X132838893Y-107917133D01*
X132858598Y-107931747D01*
X132876777Y-107948223D01*
X132893253Y-107966402D01*
X132907867Y-107986107D01*
X132920480Y-108007151D01*
X132930970Y-108029329D01*
X132939235Y-108052429D01*
X132945196Y-108076227D01*
X132948796Y-108100496D01*
X132950000Y-108125000D01*
X132950000Y-109375000D01*
X132948796Y-109399504D01*
X132945196Y-109423773D01*
X132939235Y-109447571D01*
X132930970Y-109470671D01*
X132920480Y-109492849D01*
X132907867Y-109513893D01*
X132893253Y-109533598D01*
X132876777Y-109551777D01*
X132858598Y-109568253D01*
X132838893Y-109582867D01*
X132817849Y-109595480D01*
X132795671Y-109605970D01*
X132772571Y-109614235D01*
X132748773Y-109620196D01*
X132724504Y-109623796D01*
X132700000Y-109625000D01*
X131775000Y-109625000D01*
X131750496Y-109623796D01*
X131726227Y-109620196D01*
X131702429Y-109614235D01*
X131679329Y-109605970D01*
X131657151Y-109595480D01*
X131636107Y-109582867D01*
X131616402Y-109568253D01*
X131598223Y-109551777D01*
X131581747Y-109533598D01*
X131567133Y-109513893D01*
X131554520Y-109492849D01*
X131544030Y-109470671D01*
X131535765Y-109447571D01*
X131529804Y-109423773D01*
X131526204Y-109399504D01*
X131525000Y-109375000D01*
X131525000Y-108125000D01*
X131526204Y-108100496D01*
X131529804Y-108076227D01*
X131535765Y-108052429D01*
X131544030Y-108029329D01*
X131554520Y-108007151D01*
X131567133Y-107986107D01*
X131581747Y-107966402D01*
X131598223Y-107948223D01*
X131616402Y-107931747D01*
X131636107Y-107917133D01*
X131657151Y-107904520D01*
X131679329Y-107894030D01*
X131702429Y-107885765D01*
X131726227Y-107879804D01*
X131750496Y-107876204D01*
X131775000Y-107875000D01*
X132700000Y-107875000D01*
X132724504Y-107876204D01*
G37*
G04 #@! TD.AperFunction*
G04 #@! TA.AperFunction,SMDPad,CuDef*
G36*
X119887004Y-107926204D02*
G01*
X119911273Y-107929804D01*
X119935071Y-107935765D01*
X119958171Y-107944030D01*
X119980349Y-107954520D01*
X120001393Y-107967133D01*
X120021098Y-107981747D01*
X120039277Y-107998223D01*
X120055753Y-108016402D01*
X120070367Y-108036107D01*
X120082980Y-108057151D01*
X120093470Y-108079329D01*
X120101735Y-108102429D01*
X120107696Y-108126227D01*
X120111296Y-108150496D01*
X120112500Y-108175000D01*
X120112500Y-109425000D01*
X120111296Y-109449504D01*
X120107696Y-109473773D01*
X120101735Y-109497571D01*
X120093470Y-109520671D01*
X120082980Y-109542849D01*
X120070367Y-109563893D01*
X120055753Y-109583598D01*
X120039277Y-109601777D01*
X120021098Y-109618253D01*
X120001393Y-109632867D01*
X119980349Y-109645480D01*
X119958171Y-109655970D01*
X119935071Y-109664235D01*
X119911273Y-109670196D01*
X119887004Y-109673796D01*
X119862500Y-109675000D01*
X118937500Y-109675000D01*
X118912996Y-109673796D01*
X118888727Y-109670196D01*
X118864929Y-109664235D01*
X118841829Y-109655970D01*
X118819651Y-109645480D01*
X118798607Y-109632867D01*
X118778902Y-109618253D01*
X118760723Y-109601777D01*
X118744247Y-109583598D01*
X118729633Y-109563893D01*
X118717020Y-109542849D01*
X118706530Y-109520671D01*
X118698265Y-109497571D01*
X118692304Y-109473773D01*
X118688704Y-109449504D01*
X118687500Y-109425000D01*
X118687500Y-108175000D01*
X118688704Y-108150496D01*
X118692304Y-108126227D01*
X118698265Y-108102429D01*
X118706530Y-108079329D01*
X118717020Y-108057151D01*
X118729633Y-108036107D01*
X118744247Y-108016402D01*
X118760723Y-107998223D01*
X118778902Y-107981747D01*
X118798607Y-107967133D01*
X118819651Y-107954520D01*
X118841829Y-107944030D01*
X118864929Y-107935765D01*
X118888727Y-107929804D01*
X118912996Y-107926204D01*
X118937500Y-107925000D01*
X119862500Y-107925000D01*
X119887004Y-107926204D01*
G37*
G04 #@! TD.AperFunction*
G04 #@! TA.AperFunction,SMDPad,CuDef*
G36*
X122862004Y-107926204D02*
G01*
X122886273Y-107929804D01*
X122910071Y-107935765D01*
X122933171Y-107944030D01*
X122955349Y-107954520D01*
X122976393Y-107967133D01*
X122996098Y-107981747D01*
X123014277Y-107998223D01*
X123030753Y-108016402D01*
X123045367Y-108036107D01*
X123057980Y-108057151D01*
X123068470Y-108079329D01*
X123076735Y-108102429D01*
X123082696Y-108126227D01*
X123086296Y-108150496D01*
X123087500Y-108175000D01*
X123087500Y-109425000D01*
X123086296Y-109449504D01*
X123082696Y-109473773D01*
X123076735Y-109497571D01*
X123068470Y-109520671D01*
X123057980Y-109542849D01*
X123045367Y-109563893D01*
X123030753Y-109583598D01*
X123014277Y-109601777D01*
X122996098Y-109618253D01*
X122976393Y-109632867D01*
X122955349Y-109645480D01*
X122933171Y-109655970D01*
X122910071Y-109664235D01*
X122886273Y-109670196D01*
X122862004Y-109673796D01*
X122837500Y-109675000D01*
X121912500Y-109675000D01*
X121887996Y-109673796D01*
X121863727Y-109670196D01*
X121839929Y-109664235D01*
X121816829Y-109655970D01*
X121794651Y-109645480D01*
X121773607Y-109632867D01*
X121753902Y-109618253D01*
X121735723Y-109601777D01*
X121719247Y-109583598D01*
X121704633Y-109563893D01*
X121692020Y-109542849D01*
X121681530Y-109520671D01*
X121673265Y-109497571D01*
X121667304Y-109473773D01*
X121663704Y-109449504D01*
X121662500Y-109425000D01*
X121662500Y-108175000D01*
X121663704Y-108150496D01*
X121667304Y-108126227D01*
X121673265Y-108102429D01*
X121681530Y-108079329D01*
X121692020Y-108057151D01*
X121704633Y-108036107D01*
X121719247Y-108016402D01*
X121735723Y-107998223D01*
X121753902Y-107981747D01*
X121773607Y-107967133D01*
X121794651Y-107954520D01*
X121816829Y-107944030D01*
X121839929Y-107935765D01*
X121863727Y-107929804D01*
X121887996Y-107926204D01*
X121912500Y-107925000D01*
X122837500Y-107925000D01*
X122862004Y-107926204D01*
G37*
G04 #@! TD.AperFunction*
G04 #@! TA.AperFunction,SMDPad,CuDef*
G36*
X108149504Y-105313704D02*
G01*
X108173773Y-105317304D01*
X108197571Y-105323265D01*
X108220671Y-105331530D01*
X108242849Y-105342020D01*
X108263893Y-105354633D01*
X108283598Y-105369247D01*
X108301777Y-105385723D01*
X108318253Y-105403902D01*
X108332867Y-105423607D01*
X108345480Y-105444651D01*
X108355970Y-105466829D01*
X108364235Y-105489929D01*
X108370196Y-105513727D01*
X108373796Y-105537996D01*
X108375000Y-105562500D01*
X108375000Y-106487500D01*
X108373796Y-106512004D01*
X108370196Y-106536273D01*
X108364235Y-106560071D01*
X108355970Y-106583171D01*
X108345480Y-106605349D01*
X108332867Y-106626393D01*
X108318253Y-106646098D01*
X108301777Y-106664277D01*
X108283598Y-106680753D01*
X108263893Y-106695367D01*
X108242849Y-106707980D01*
X108220671Y-106718470D01*
X108197571Y-106726735D01*
X108173773Y-106732696D01*
X108149504Y-106736296D01*
X108125000Y-106737500D01*
X106875000Y-106737500D01*
X106850496Y-106736296D01*
X106826227Y-106732696D01*
X106802429Y-106726735D01*
X106779329Y-106718470D01*
X106757151Y-106707980D01*
X106736107Y-106695367D01*
X106716402Y-106680753D01*
X106698223Y-106664277D01*
X106681747Y-106646098D01*
X106667133Y-106626393D01*
X106654520Y-106605349D01*
X106644030Y-106583171D01*
X106635765Y-106560071D01*
X106629804Y-106536273D01*
X106626204Y-106512004D01*
X106625000Y-106487500D01*
X106625000Y-105562500D01*
X106626204Y-105537996D01*
X106629804Y-105513727D01*
X106635765Y-105489929D01*
X106644030Y-105466829D01*
X106654520Y-105444651D01*
X106667133Y-105423607D01*
X106681747Y-105403902D01*
X106698223Y-105385723D01*
X106716402Y-105369247D01*
X106736107Y-105354633D01*
X106757151Y-105342020D01*
X106779329Y-105331530D01*
X106802429Y-105323265D01*
X106826227Y-105317304D01*
X106850496Y-105313704D01*
X106875000Y-105312500D01*
X108125000Y-105312500D01*
X108149504Y-105313704D01*
G37*
G04 #@! TD.AperFunction*
G04 #@! TA.AperFunction,SMDPad,CuDef*
G36*
X108149504Y-108288704D02*
G01*
X108173773Y-108292304D01*
X108197571Y-108298265D01*
X108220671Y-108306530D01*
X108242849Y-108317020D01*
X108263893Y-108329633D01*
X108283598Y-108344247D01*
X108301777Y-108360723D01*
X108318253Y-108378902D01*
X108332867Y-108398607D01*
X108345480Y-108419651D01*
X108355970Y-108441829D01*
X108364235Y-108464929D01*
X108370196Y-108488727D01*
X108373796Y-108512996D01*
X108375000Y-108537500D01*
X108375000Y-109462500D01*
X108373796Y-109487004D01*
X108370196Y-109511273D01*
X108364235Y-109535071D01*
X108355970Y-109558171D01*
X108345480Y-109580349D01*
X108332867Y-109601393D01*
X108318253Y-109621098D01*
X108301777Y-109639277D01*
X108283598Y-109655753D01*
X108263893Y-109670367D01*
X108242849Y-109682980D01*
X108220671Y-109693470D01*
X108197571Y-109701735D01*
X108173773Y-109707696D01*
X108149504Y-109711296D01*
X108125000Y-109712500D01*
X106875000Y-109712500D01*
X106850496Y-109711296D01*
X106826227Y-109707696D01*
X106802429Y-109701735D01*
X106779329Y-109693470D01*
X106757151Y-109682980D01*
X106736107Y-109670367D01*
X106716402Y-109655753D01*
X106698223Y-109639277D01*
X106681747Y-109621098D01*
X106667133Y-109601393D01*
X106654520Y-109580349D01*
X106644030Y-109558171D01*
X106635765Y-109535071D01*
X106629804Y-109511273D01*
X106626204Y-109487004D01*
X106625000Y-109462500D01*
X106625000Y-108537500D01*
X106626204Y-108512996D01*
X106629804Y-108488727D01*
X106635765Y-108464929D01*
X106644030Y-108441829D01*
X106654520Y-108419651D01*
X106667133Y-108398607D01*
X106681747Y-108378902D01*
X106698223Y-108360723D01*
X106716402Y-108344247D01*
X106736107Y-108329633D01*
X106757151Y-108317020D01*
X106779329Y-108306530D01*
X106802429Y-108298265D01*
X106826227Y-108292304D01*
X106850496Y-108288704D01*
X106875000Y-108287500D01*
X108125000Y-108287500D01*
X108149504Y-108288704D01*
G37*
G04 #@! TD.AperFunction*
G04 #@! TA.AperFunction,SMDPad,CuDef*
G36*
X103149504Y-105313704D02*
G01*
X103173773Y-105317304D01*
X103197571Y-105323265D01*
X103220671Y-105331530D01*
X103242849Y-105342020D01*
X103263893Y-105354633D01*
X103283598Y-105369247D01*
X103301777Y-105385723D01*
X103318253Y-105403902D01*
X103332867Y-105423607D01*
X103345480Y-105444651D01*
X103355970Y-105466829D01*
X103364235Y-105489929D01*
X103370196Y-105513727D01*
X103373796Y-105537996D01*
X103375000Y-105562500D01*
X103375000Y-106487500D01*
X103373796Y-106512004D01*
X103370196Y-106536273D01*
X103364235Y-106560071D01*
X103355970Y-106583171D01*
X103345480Y-106605349D01*
X103332867Y-106626393D01*
X103318253Y-106646098D01*
X103301777Y-106664277D01*
X103283598Y-106680753D01*
X103263893Y-106695367D01*
X103242849Y-106707980D01*
X103220671Y-106718470D01*
X103197571Y-106726735D01*
X103173773Y-106732696D01*
X103149504Y-106736296D01*
X103125000Y-106737500D01*
X101875000Y-106737500D01*
X101850496Y-106736296D01*
X101826227Y-106732696D01*
X101802429Y-106726735D01*
X101779329Y-106718470D01*
X101757151Y-106707980D01*
X101736107Y-106695367D01*
X101716402Y-106680753D01*
X101698223Y-106664277D01*
X101681747Y-106646098D01*
X101667133Y-106626393D01*
X101654520Y-106605349D01*
X101644030Y-106583171D01*
X101635765Y-106560071D01*
X101629804Y-106536273D01*
X101626204Y-106512004D01*
X101625000Y-106487500D01*
X101625000Y-105562500D01*
X101626204Y-105537996D01*
X101629804Y-105513727D01*
X101635765Y-105489929D01*
X101644030Y-105466829D01*
X101654520Y-105444651D01*
X101667133Y-105423607D01*
X101681747Y-105403902D01*
X101698223Y-105385723D01*
X101716402Y-105369247D01*
X101736107Y-105354633D01*
X101757151Y-105342020D01*
X101779329Y-105331530D01*
X101802429Y-105323265D01*
X101826227Y-105317304D01*
X101850496Y-105313704D01*
X101875000Y-105312500D01*
X103125000Y-105312500D01*
X103149504Y-105313704D01*
G37*
G04 #@! TD.AperFunction*
G04 #@! TA.AperFunction,SMDPad,CuDef*
G36*
X103149504Y-108288704D02*
G01*
X103173773Y-108292304D01*
X103197571Y-108298265D01*
X103220671Y-108306530D01*
X103242849Y-108317020D01*
X103263893Y-108329633D01*
X103283598Y-108344247D01*
X103301777Y-108360723D01*
X103318253Y-108378902D01*
X103332867Y-108398607D01*
X103345480Y-108419651D01*
X103355970Y-108441829D01*
X103364235Y-108464929D01*
X103370196Y-108488727D01*
X103373796Y-108512996D01*
X103375000Y-108537500D01*
X103375000Y-109462500D01*
X103373796Y-109487004D01*
X103370196Y-109511273D01*
X103364235Y-109535071D01*
X103355970Y-109558171D01*
X103345480Y-109580349D01*
X103332867Y-109601393D01*
X103318253Y-109621098D01*
X103301777Y-109639277D01*
X103283598Y-109655753D01*
X103263893Y-109670367D01*
X103242849Y-109682980D01*
X103220671Y-109693470D01*
X103197571Y-109701735D01*
X103173773Y-109707696D01*
X103149504Y-109711296D01*
X103125000Y-109712500D01*
X101875000Y-109712500D01*
X101850496Y-109711296D01*
X101826227Y-109707696D01*
X101802429Y-109701735D01*
X101779329Y-109693470D01*
X101757151Y-109682980D01*
X101736107Y-109670367D01*
X101716402Y-109655753D01*
X101698223Y-109639277D01*
X101681747Y-109621098D01*
X101667133Y-109601393D01*
X101654520Y-109580349D01*
X101644030Y-109558171D01*
X101635765Y-109535071D01*
X101629804Y-109511273D01*
X101626204Y-109487004D01*
X101625000Y-109462500D01*
X101625000Y-108537500D01*
X101626204Y-108512996D01*
X101629804Y-108488727D01*
X101635765Y-108464929D01*
X101644030Y-108441829D01*
X101654520Y-108419651D01*
X101667133Y-108398607D01*
X101681747Y-108378902D01*
X101698223Y-108360723D01*
X101716402Y-108344247D01*
X101736107Y-108329633D01*
X101757151Y-108317020D01*
X101779329Y-108306530D01*
X101802429Y-108298265D01*
X101826227Y-108292304D01*
X101850496Y-108288704D01*
X101875000Y-108287500D01*
X103125000Y-108287500D01*
X103149504Y-108288704D01*
G37*
G04 #@! TD.AperFunction*
G04 #@! TA.AperFunction,SMDPad,CuDef*
G36*
X159149504Y-108776204D02*
G01*
X159173773Y-108779804D01*
X159197571Y-108785765D01*
X159220671Y-108794030D01*
X159242849Y-108804520D01*
X159263893Y-108817133D01*
X159283598Y-108831747D01*
X159301777Y-108848223D01*
X159318253Y-108866402D01*
X159332867Y-108886107D01*
X159345480Y-108907151D01*
X159355970Y-108929329D01*
X159364235Y-108952429D01*
X159370196Y-108976227D01*
X159373796Y-109000496D01*
X159375000Y-109025000D01*
X159375000Y-109950000D01*
X159373796Y-109974504D01*
X159370196Y-109998773D01*
X159364235Y-110022571D01*
X159355970Y-110045671D01*
X159345480Y-110067849D01*
X159332867Y-110088893D01*
X159318253Y-110108598D01*
X159301777Y-110126777D01*
X159283598Y-110143253D01*
X159263893Y-110157867D01*
X159242849Y-110170480D01*
X159220671Y-110180970D01*
X159197571Y-110189235D01*
X159173773Y-110195196D01*
X159149504Y-110198796D01*
X159125000Y-110200000D01*
X157875000Y-110200000D01*
X157850496Y-110198796D01*
X157826227Y-110195196D01*
X157802429Y-110189235D01*
X157779329Y-110180970D01*
X157757151Y-110170480D01*
X157736107Y-110157867D01*
X157716402Y-110143253D01*
X157698223Y-110126777D01*
X157681747Y-110108598D01*
X157667133Y-110088893D01*
X157654520Y-110067849D01*
X157644030Y-110045671D01*
X157635765Y-110022571D01*
X157629804Y-109998773D01*
X157626204Y-109974504D01*
X157625000Y-109950000D01*
X157625000Y-109025000D01*
X157626204Y-109000496D01*
X157629804Y-108976227D01*
X157635765Y-108952429D01*
X157644030Y-108929329D01*
X157654520Y-108907151D01*
X157667133Y-108886107D01*
X157681747Y-108866402D01*
X157698223Y-108848223D01*
X157716402Y-108831747D01*
X157736107Y-108817133D01*
X157757151Y-108804520D01*
X157779329Y-108794030D01*
X157802429Y-108785765D01*
X157826227Y-108779804D01*
X157850496Y-108776204D01*
X157875000Y-108775000D01*
X159125000Y-108775000D01*
X159149504Y-108776204D01*
G37*
G04 #@! TD.AperFunction*
G04 #@! TA.AperFunction,SMDPad,CuDef*
G36*
X159149504Y-105801204D02*
G01*
X159173773Y-105804804D01*
X159197571Y-105810765D01*
X159220671Y-105819030D01*
X159242849Y-105829520D01*
X159263893Y-105842133D01*
X159283598Y-105856747D01*
X159301777Y-105873223D01*
X159318253Y-105891402D01*
X159332867Y-105911107D01*
X159345480Y-105932151D01*
X159355970Y-105954329D01*
X159364235Y-105977429D01*
X159370196Y-106001227D01*
X159373796Y-106025496D01*
X159375000Y-106050000D01*
X159375000Y-106975000D01*
X159373796Y-106999504D01*
X159370196Y-107023773D01*
X159364235Y-107047571D01*
X159355970Y-107070671D01*
X159345480Y-107092849D01*
X159332867Y-107113893D01*
X159318253Y-107133598D01*
X159301777Y-107151777D01*
X159283598Y-107168253D01*
X159263893Y-107182867D01*
X159242849Y-107195480D01*
X159220671Y-107205970D01*
X159197571Y-107214235D01*
X159173773Y-107220196D01*
X159149504Y-107223796D01*
X159125000Y-107225000D01*
X157875000Y-107225000D01*
X157850496Y-107223796D01*
X157826227Y-107220196D01*
X157802429Y-107214235D01*
X157779329Y-107205970D01*
X157757151Y-107195480D01*
X157736107Y-107182867D01*
X157716402Y-107168253D01*
X157698223Y-107151777D01*
X157681747Y-107133598D01*
X157667133Y-107113893D01*
X157654520Y-107092849D01*
X157644030Y-107070671D01*
X157635765Y-107047571D01*
X157629804Y-107023773D01*
X157626204Y-106999504D01*
X157625000Y-106975000D01*
X157625000Y-106050000D01*
X157626204Y-106025496D01*
X157629804Y-106001227D01*
X157635765Y-105977429D01*
X157644030Y-105954329D01*
X157654520Y-105932151D01*
X157667133Y-105911107D01*
X157681747Y-105891402D01*
X157698223Y-105873223D01*
X157716402Y-105856747D01*
X157736107Y-105842133D01*
X157757151Y-105829520D01*
X157779329Y-105819030D01*
X157802429Y-105810765D01*
X157826227Y-105804804D01*
X157850496Y-105801204D01*
X157875000Y-105800000D01*
X159125000Y-105800000D01*
X159149504Y-105801204D01*
G37*
G04 #@! TD.AperFunction*
G04 #@! TA.AperFunction,SMDPad,CuDef*
G36*
X162149504Y-105801204D02*
G01*
X162173773Y-105804804D01*
X162197571Y-105810765D01*
X162220671Y-105819030D01*
X162242849Y-105829520D01*
X162263893Y-105842133D01*
X162283598Y-105856747D01*
X162301777Y-105873223D01*
X162318253Y-105891402D01*
X162332867Y-105911107D01*
X162345480Y-105932151D01*
X162355970Y-105954329D01*
X162364235Y-105977429D01*
X162370196Y-106001227D01*
X162373796Y-106025496D01*
X162375000Y-106050000D01*
X162375000Y-106975000D01*
X162373796Y-106999504D01*
X162370196Y-107023773D01*
X162364235Y-107047571D01*
X162355970Y-107070671D01*
X162345480Y-107092849D01*
X162332867Y-107113893D01*
X162318253Y-107133598D01*
X162301777Y-107151777D01*
X162283598Y-107168253D01*
X162263893Y-107182867D01*
X162242849Y-107195480D01*
X162220671Y-107205970D01*
X162197571Y-107214235D01*
X162173773Y-107220196D01*
X162149504Y-107223796D01*
X162125000Y-107225000D01*
X160875000Y-107225000D01*
X160850496Y-107223796D01*
X160826227Y-107220196D01*
X160802429Y-107214235D01*
X160779329Y-107205970D01*
X160757151Y-107195480D01*
X160736107Y-107182867D01*
X160716402Y-107168253D01*
X160698223Y-107151777D01*
X160681747Y-107133598D01*
X160667133Y-107113893D01*
X160654520Y-107092849D01*
X160644030Y-107070671D01*
X160635765Y-107047571D01*
X160629804Y-107023773D01*
X160626204Y-106999504D01*
X160625000Y-106975000D01*
X160625000Y-106050000D01*
X160626204Y-106025496D01*
X160629804Y-106001227D01*
X160635765Y-105977429D01*
X160644030Y-105954329D01*
X160654520Y-105932151D01*
X160667133Y-105911107D01*
X160681747Y-105891402D01*
X160698223Y-105873223D01*
X160716402Y-105856747D01*
X160736107Y-105842133D01*
X160757151Y-105829520D01*
X160779329Y-105819030D01*
X160802429Y-105810765D01*
X160826227Y-105804804D01*
X160850496Y-105801204D01*
X160875000Y-105800000D01*
X162125000Y-105800000D01*
X162149504Y-105801204D01*
G37*
G04 #@! TD.AperFunction*
G04 #@! TA.AperFunction,SMDPad,CuDef*
G36*
X162149504Y-108776204D02*
G01*
X162173773Y-108779804D01*
X162197571Y-108785765D01*
X162220671Y-108794030D01*
X162242849Y-108804520D01*
X162263893Y-108817133D01*
X162283598Y-108831747D01*
X162301777Y-108848223D01*
X162318253Y-108866402D01*
X162332867Y-108886107D01*
X162345480Y-108907151D01*
X162355970Y-108929329D01*
X162364235Y-108952429D01*
X162370196Y-108976227D01*
X162373796Y-109000496D01*
X162375000Y-109025000D01*
X162375000Y-109950000D01*
X162373796Y-109974504D01*
X162370196Y-109998773D01*
X162364235Y-110022571D01*
X162355970Y-110045671D01*
X162345480Y-110067849D01*
X162332867Y-110088893D01*
X162318253Y-110108598D01*
X162301777Y-110126777D01*
X162283598Y-110143253D01*
X162263893Y-110157867D01*
X162242849Y-110170480D01*
X162220671Y-110180970D01*
X162197571Y-110189235D01*
X162173773Y-110195196D01*
X162149504Y-110198796D01*
X162125000Y-110200000D01*
X160875000Y-110200000D01*
X160850496Y-110198796D01*
X160826227Y-110195196D01*
X160802429Y-110189235D01*
X160779329Y-110180970D01*
X160757151Y-110170480D01*
X160736107Y-110157867D01*
X160716402Y-110143253D01*
X160698223Y-110126777D01*
X160681747Y-110108598D01*
X160667133Y-110088893D01*
X160654520Y-110067849D01*
X160644030Y-110045671D01*
X160635765Y-110022571D01*
X160629804Y-109998773D01*
X160626204Y-109974504D01*
X160625000Y-109950000D01*
X160625000Y-109025000D01*
X160626204Y-109000496D01*
X160629804Y-108976227D01*
X160635765Y-108952429D01*
X160644030Y-108929329D01*
X160654520Y-108907151D01*
X160667133Y-108886107D01*
X160681747Y-108866402D01*
X160698223Y-108848223D01*
X160716402Y-108831747D01*
X160736107Y-108817133D01*
X160757151Y-108804520D01*
X160779329Y-108794030D01*
X160802429Y-108785765D01*
X160826227Y-108779804D01*
X160850496Y-108776204D01*
X160875000Y-108775000D01*
X162125000Y-108775000D01*
X162149504Y-108776204D01*
G37*
G04 #@! TD.AperFunction*
G04 #@! TA.AperFunction,SMDPad,CuDef*
G36*
X161724504Y-96626204D02*
G01*
X161748773Y-96629804D01*
X161772571Y-96635765D01*
X161795671Y-96644030D01*
X161817849Y-96654520D01*
X161838893Y-96667133D01*
X161858598Y-96681747D01*
X161876777Y-96698223D01*
X161893253Y-96716402D01*
X161907867Y-96736107D01*
X161920480Y-96757151D01*
X161930970Y-96779329D01*
X161939235Y-96802429D01*
X161945196Y-96826227D01*
X161948796Y-96850496D01*
X161950000Y-96875000D01*
X161950000Y-98125000D01*
X161948796Y-98149504D01*
X161945196Y-98173773D01*
X161939235Y-98197571D01*
X161930970Y-98220671D01*
X161920480Y-98242849D01*
X161907867Y-98263893D01*
X161893253Y-98283598D01*
X161876777Y-98301777D01*
X161858598Y-98318253D01*
X161838893Y-98332867D01*
X161817849Y-98345480D01*
X161795671Y-98355970D01*
X161772571Y-98364235D01*
X161748773Y-98370196D01*
X161724504Y-98373796D01*
X161700000Y-98375000D01*
X160775000Y-98375000D01*
X160750496Y-98373796D01*
X160726227Y-98370196D01*
X160702429Y-98364235D01*
X160679329Y-98355970D01*
X160657151Y-98345480D01*
X160636107Y-98332867D01*
X160616402Y-98318253D01*
X160598223Y-98301777D01*
X160581747Y-98283598D01*
X160567133Y-98263893D01*
X160554520Y-98242849D01*
X160544030Y-98220671D01*
X160535765Y-98197571D01*
X160529804Y-98173773D01*
X160526204Y-98149504D01*
X160525000Y-98125000D01*
X160525000Y-96875000D01*
X160526204Y-96850496D01*
X160529804Y-96826227D01*
X160535765Y-96802429D01*
X160544030Y-96779329D01*
X160554520Y-96757151D01*
X160567133Y-96736107D01*
X160581747Y-96716402D01*
X160598223Y-96698223D01*
X160616402Y-96681747D01*
X160636107Y-96667133D01*
X160657151Y-96654520D01*
X160679329Y-96644030D01*
X160702429Y-96635765D01*
X160726227Y-96629804D01*
X160750496Y-96626204D01*
X160775000Y-96625000D01*
X161700000Y-96625000D01*
X161724504Y-96626204D01*
G37*
G04 #@! TD.AperFunction*
G04 #@! TA.AperFunction,SMDPad,CuDef*
G36*
X158749504Y-96626204D02*
G01*
X158773773Y-96629804D01*
X158797571Y-96635765D01*
X158820671Y-96644030D01*
X158842849Y-96654520D01*
X158863893Y-96667133D01*
X158883598Y-96681747D01*
X158901777Y-96698223D01*
X158918253Y-96716402D01*
X158932867Y-96736107D01*
X158945480Y-96757151D01*
X158955970Y-96779329D01*
X158964235Y-96802429D01*
X158970196Y-96826227D01*
X158973796Y-96850496D01*
X158975000Y-96875000D01*
X158975000Y-98125000D01*
X158973796Y-98149504D01*
X158970196Y-98173773D01*
X158964235Y-98197571D01*
X158955970Y-98220671D01*
X158945480Y-98242849D01*
X158932867Y-98263893D01*
X158918253Y-98283598D01*
X158901777Y-98301777D01*
X158883598Y-98318253D01*
X158863893Y-98332867D01*
X158842849Y-98345480D01*
X158820671Y-98355970D01*
X158797571Y-98364235D01*
X158773773Y-98370196D01*
X158749504Y-98373796D01*
X158725000Y-98375000D01*
X157800000Y-98375000D01*
X157775496Y-98373796D01*
X157751227Y-98370196D01*
X157727429Y-98364235D01*
X157704329Y-98355970D01*
X157682151Y-98345480D01*
X157661107Y-98332867D01*
X157641402Y-98318253D01*
X157623223Y-98301777D01*
X157606747Y-98283598D01*
X157592133Y-98263893D01*
X157579520Y-98242849D01*
X157569030Y-98220671D01*
X157560765Y-98197571D01*
X157554804Y-98173773D01*
X157551204Y-98149504D01*
X157550000Y-98125000D01*
X157550000Y-96875000D01*
X157551204Y-96850496D01*
X157554804Y-96826227D01*
X157560765Y-96802429D01*
X157569030Y-96779329D01*
X157579520Y-96757151D01*
X157592133Y-96736107D01*
X157606747Y-96716402D01*
X157623223Y-96698223D01*
X157641402Y-96681747D01*
X157661107Y-96667133D01*
X157682151Y-96654520D01*
X157704329Y-96644030D01*
X157727429Y-96635765D01*
X157751227Y-96629804D01*
X157775496Y-96626204D01*
X157800000Y-96625000D01*
X158725000Y-96625000D01*
X158749504Y-96626204D01*
G37*
G04 #@! TD.AperFunction*
G04 #@! TA.AperFunction,SMDPad,CuDef*
G36*
X162149504Y-100301204D02*
G01*
X162173773Y-100304804D01*
X162197571Y-100310765D01*
X162220671Y-100319030D01*
X162242849Y-100329520D01*
X162263893Y-100342133D01*
X162283598Y-100356747D01*
X162301777Y-100373223D01*
X162318253Y-100391402D01*
X162332867Y-100411107D01*
X162345480Y-100432151D01*
X162355970Y-100454329D01*
X162364235Y-100477429D01*
X162370196Y-100501227D01*
X162373796Y-100525496D01*
X162375000Y-100550000D01*
X162375000Y-101475000D01*
X162373796Y-101499504D01*
X162370196Y-101523773D01*
X162364235Y-101547571D01*
X162355970Y-101570671D01*
X162345480Y-101592849D01*
X162332867Y-101613893D01*
X162318253Y-101633598D01*
X162301777Y-101651777D01*
X162283598Y-101668253D01*
X162263893Y-101682867D01*
X162242849Y-101695480D01*
X162220671Y-101705970D01*
X162197571Y-101714235D01*
X162173773Y-101720196D01*
X162149504Y-101723796D01*
X162125000Y-101725000D01*
X160875000Y-101725000D01*
X160850496Y-101723796D01*
X160826227Y-101720196D01*
X160802429Y-101714235D01*
X160779329Y-101705970D01*
X160757151Y-101695480D01*
X160736107Y-101682867D01*
X160716402Y-101668253D01*
X160698223Y-101651777D01*
X160681747Y-101633598D01*
X160667133Y-101613893D01*
X160654520Y-101592849D01*
X160644030Y-101570671D01*
X160635765Y-101547571D01*
X160629804Y-101523773D01*
X160626204Y-101499504D01*
X160625000Y-101475000D01*
X160625000Y-100550000D01*
X160626204Y-100525496D01*
X160629804Y-100501227D01*
X160635765Y-100477429D01*
X160644030Y-100454329D01*
X160654520Y-100432151D01*
X160667133Y-100411107D01*
X160681747Y-100391402D01*
X160698223Y-100373223D01*
X160716402Y-100356747D01*
X160736107Y-100342133D01*
X160757151Y-100329520D01*
X160779329Y-100319030D01*
X160802429Y-100310765D01*
X160826227Y-100304804D01*
X160850496Y-100301204D01*
X160875000Y-100300000D01*
X162125000Y-100300000D01*
X162149504Y-100301204D01*
G37*
G04 #@! TD.AperFunction*
G04 #@! TA.AperFunction,SMDPad,CuDef*
G36*
X162149504Y-103276204D02*
G01*
X162173773Y-103279804D01*
X162197571Y-103285765D01*
X162220671Y-103294030D01*
X162242849Y-103304520D01*
X162263893Y-103317133D01*
X162283598Y-103331747D01*
X162301777Y-103348223D01*
X162318253Y-103366402D01*
X162332867Y-103386107D01*
X162345480Y-103407151D01*
X162355970Y-103429329D01*
X162364235Y-103452429D01*
X162370196Y-103476227D01*
X162373796Y-103500496D01*
X162375000Y-103525000D01*
X162375000Y-104450000D01*
X162373796Y-104474504D01*
X162370196Y-104498773D01*
X162364235Y-104522571D01*
X162355970Y-104545671D01*
X162345480Y-104567849D01*
X162332867Y-104588893D01*
X162318253Y-104608598D01*
X162301777Y-104626777D01*
X162283598Y-104643253D01*
X162263893Y-104657867D01*
X162242849Y-104670480D01*
X162220671Y-104680970D01*
X162197571Y-104689235D01*
X162173773Y-104695196D01*
X162149504Y-104698796D01*
X162125000Y-104700000D01*
X160875000Y-104700000D01*
X160850496Y-104698796D01*
X160826227Y-104695196D01*
X160802429Y-104689235D01*
X160779329Y-104680970D01*
X160757151Y-104670480D01*
X160736107Y-104657867D01*
X160716402Y-104643253D01*
X160698223Y-104626777D01*
X160681747Y-104608598D01*
X160667133Y-104588893D01*
X160654520Y-104567849D01*
X160644030Y-104545671D01*
X160635765Y-104522571D01*
X160629804Y-104498773D01*
X160626204Y-104474504D01*
X160625000Y-104450000D01*
X160625000Y-103525000D01*
X160626204Y-103500496D01*
X160629804Y-103476227D01*
X160635765Y-103452429D01*
X160644030Y-103429329D01*
X160654520Y-103407151D01*
X160667133Y-103386107D01*
X160681747Y-103366402D01*
X160698223Y-103348223D01*
X160716402Y-103331747D01*
X160736107Y-103317133D01*
X160757151Y-103304520D01*
X160779329Y-103294030D01*
X160802429Y-103285765D01*
X160826227Y-103279804D01*
X160850496Y-103276204D01*
X160875000Y-103275000D01*
X162125000Y-103275000D01*
X162149504Y-103276204D01*
G37*
G04 #@! TD.AperFunction*
G04 #@! TA.AperFunction,SMDPad,CuDef*
G36*
X105474504Y-78426204D02*
G01*
X105498773Y-78429804D01*
X105522571Y-78435765D01*
X105545671Y-78444030D01*
X105567849Y-78454520D01*
X105588893Y-78467133D01*
X105608598Y-78481747D01*
X105626777Y-78498223D01*
X105643253Y-78516402D01*
X105657867Y-78536107D01*
X105670480Y-78557151D01*
X105680970Y-78579329D01*
X105689235Y-78602429D01*
X105695196Y-78626227D01*
X105698796Y-78650496D01*
X105700000Y-78675000D01*
X105700000Y-79925000D01*
X105698796Y-79949504D01*
X105695196Y-79973773D01*
X105689235Y-79997571D01*
X105680970Y-80020671D01*
X105670480Y-80042849D01*
X105657867Y-80063893D01*
X105643253Y-80083598D01*
X105626777Y-80101777D01*
X105608598Y-80118253D01*
X105588893Y-80132867D01*
X105567849Y-80145480D01*
X105545671Y-80155970D01*
X105522571Y-80164235D01*
X105498773Y-80170196D01*
X105474504Y-80173796D01*
X105450000Y-80175000D01*
X104525000Y-80175000D01*
X104500496Y-80173796D01*
X104476227Y-80170196D01*
X104452429Y-80164235D01*
X104429329Y-80155970D01*
X104407151Y-80145480D01*
X104386107Y-80132867D01*
X104366402Y-80118253D01*
X104348223Y-80101777D01*
X104331747Y-80083598D01*
X104317133Y-80063893D01*
X104304520Y-80042849D01*
X104294030Y-80020671D01*
X104285765Y-79997571D01*
X104279804Y-79973773D01*
X104276204Y-79949504D01*
X104275000Y-79925000D01*
X104275000Y-78675000D01*
X104276204Y-78650496D01*
X104279804Y-78626227D01*
X104285765Y-78602429D01*
X104294030Y-78579329D01*
X104304520Y-78557151D01*
X104317133Y-78536107D01*
X104331747Y-78516402D01*
X104348223Y-78498223D01*
X104366402Y-78481747D01*
X104386107Y-78467133D01*
X104407151Y-78454520D01*
X104429329Y-78444030D01*
X104452429Y-78435765D01*
X104476227Y-78429804D01*
X104500496Y-78426204D01*
X104525000Y-78425000D01*
X105450000Y-78425000D01*
X105474504Y-78426204D01*
G37*
G04 #@! TD.AperFunction*
G04 #@! TA.AperFunction,SMDPad,CuDef*
G36*
X102499504Y-78426204D02*
G01*
X102523773Y-78429804D01*
X102547571Y-78435765D01*
X102570671Y-78444030D01*
X102592849Y-78454520D01*
X102613893Y-78467133D01*
X102633598Y-78481747D01*
X102651777Y-78498223D01*
X102668253Y-78516402D01*
X102682867Y-78536107D01*
X102695480Y-78557151D01*
X102705970Y-78579329D01*
X102714235Y-78602429D01*
X102720196Y-78626227D01*
X102723796Y-78650496D01*
X102725000Y-78675000D01*
X102725000Y-79925000D01*
X102723796Y-79949504D01*
X102720196Y-79973773D01*
X102714235Y-79997571D01*
X102705970Y-80020671D01*
X102695480Y-80042849D01*
X102682867Y-80063893D01*
X102668253Y-80083598D01*
X102651777Y-80101777D01*
X102633598Y-80118253D01*
X102613893Y-80132867D01*
X102592849Y-80145480D01*
X102570671Y-80155970D01*
X102547571Y-80164235D01*
X102523773Y-80170196D01*
X102499504Y-80173796D01*
X102475000Y-80175000D01*
X101550000Y-80175000D01*
X101525496Y-80173796D01*
X101501227Y-80170196D01*
X101477429Y-80164235D01*
X101454329Y-80155970D01*
X101432151Y-80145480D01*
X101411107Y-80132867D01*
X101391402Y-80118253D01*
X101373223Y-80101777D01*
X101356747Y-80083598D01*
X101342133Y-80063893D01*
X101329520Y-80042849D01*
X101319030Y-80020671D01*
X101310765Y-79997571D01*
X101304804Y-79973773D01*
X101301204Y-79949504D01*
X101300000Y-79925000D01*
X101300000Y-78675000D01*
X101301204Y-78650496D01*
X101304804Y-78626227D01*
X101310765Y-78602429D01*
X101319030Y-78579329D01*
X101329520Y-78557151D01*
X101342133Y-78536107D01*
X101356747Y-78516402D01*
X101373223Y-78498223D01*
X101391402Y-78481747D01*
X101411107Y-78467133D01*
X101432151Y-78454520D01*
X101454329Y-78444030D01*
X101477429Y-78435765D01*
X101501227Y-78429804D01*
X101525496Y-78426204D01*
X101550000Y-78425000D01*
X102475000Y-78425000D01*
X102499504Y-78426204D01*
G37*
G04 #@! TD.AperFunction*
D21*
X155750000Y-105425000D03*
X155750000Y-104075000D03*
D22*
X142800000Y-102300000D03*
X141850000Y-100300000D03*
X143750000Y-100300000D03*
G04 #@! TA.AperFunction,SMDPad,CuDef*
D18*
G36*
X161724504Y-93626204D02*
G01*
X161748773Y-93629804D01*
X161772571Y-93635765D01*
X161795671Y-93644030D01*
X161817849Y-93654520D01*
X161838893Y-93667133D01*
X161858598Y-93681747D01*
X161876777Y-93698223D01*
X161893253Y-93716402D01*
X161907867Y-93736107D01*
X161920480Y-93757151D01*
X161930970Y-93779329D01*
X161939235Y-93802429D01*
X161945196Y-93826227D01*
X161948796Y-93850496D01*
X161950000Y-93875000D01*
X161950000Y-95125000D01*
X161948796Y-95149504D01*
X161945196Y-95173773D01*
X161939235Y-95197571D01*
X161930970Y-95220671D01*
X161920480Y-95242849D01*
X161907867Y-95263893D01*
X161893253Y-95283598D01*
X161876777Y-95301777D01*
X161858598Y-95318253D01*
X161838893Y-95332867D01*
X161817849Y-95345480D01*
X161795671Y-95355970D01*
X161772571Y-95364235D01*
X161748773Y-95370196D01*
X161724504Y-95373796D01*
X161700000Y-95375000D01*
X160775000Y-95375000D01*
X160750496Y-95373796D01*
X160726227Y-95370196D01*
X160702429Y-95364235D01*
X160679329Y-95355970D01*
X160657151Y-95345480D01*
X160636107Y-95332867D01*
X160616402Y-95318253D01*
X160598223Y-95301777D01*
X160581747Y-95283598D01*
X160567133Y-95263893D01*
X160554520Y-95242849D01*
X160544030Y-95220671D01*
X160535765Y-95197571D01*
X160529804Y-95173773D01*
X160526204Y-95149504D01*
X160525000Y-95125000D01*
X160525000Y-93875000D01*
X160526204Y-93850496D01*
X160529804Y-93826227D01*
X160535765Y-93802429D01*
X160544030Y-93779329D01*
X160554520Y-93757151D01*
X160567133Y-93736107D01*
X160581747Y-93716402D01*
X160598223Y-93698223D01*
X160616402Y-93681747D01*
X160636107Y-93667133D01*
X160657151Y-93654520D01*
X160679329Y-93644030D01*
X160702429Y-93635765D01*
X160726227Y-93629804D01*
X160750496Y-93626204D01*
X160775000Y-93625000D01*
X161700000Y-93625000D01*
X161724504Y-93626204D01*
G37*
G04 #@! TD.AperFunction*
G04 #@! TA.AperFunction,SMDPad,CuDef*
G36*
X158749504Y-93626204D02*
G01*
X158773773Y-93629804D01*
X158797571Y-93635765D01*
X158820671Y-93644030D01*
X158842849Y-93654520D01*
X158863893Y-93667133D01*
X158883598Y-93681747D01*
X158901777Y-93698223D01*
X158918253Y-93716402D01*
X158932867Y-93736107D01*
X158945480Y-93757151D01*
X158955970Y-93779329D01*
X158964235Y-93802429D01*
X158970196Y-93826227D01*
X158973796Y-93850496D01*
X158975000Y-93875000D01*
X158975000Y-95125000D01*
X158973796Y-95149504D01*
X158970196Y-95173773D01*
X158964235Y-95197571D01*
X158955970Y-95220671D01*
X158945480Y-95242849D01*
X158932867Y-95263893D01*
X158918253Y-95283598D01*
X158901777Y-95301777D01*
X158883598Y-95318253D01*
X158863893Y-95332867D01*
X158842849Y-95345480D01*
X158820671Y-95355970D01*
X158797571Y-95364235D01*
X158773773Y-95370196D01*
X158749504Y-95373796D01*
X158725000Y-95375000D01*
X157800000Y-95375000D01*
X157775496Y-95373796D01*
X157751227Y-95370196D01*
X157727429Y-95364235D01*
X157704329Y-95355970D01*
X157682151Y-95345480D01*
X157661107Y-95332867D01*
X157641402Y-95318253D01*
X157623223Y-95301777D01*
X157606747Y-95283598D01*
X157592133Y-95263893D01*
X157579520Y-95242849D01*
X157569030Y-95220671D01*
X157560765Y-95197571D01*
X157554804Y-95173773D01*
X157551204Y-95149504D01*
X157550000Y-95125000D01*
X157550000Y-93875000D01*
X157551204Y-93850496D01*
X157554804Y-93826227D01*
X157560765Y-93802429D01*
X157569030Y-93779329D01*
X157579520Y-93757151D01*
X157592133Y-93736107D01*
X157606747Y-93716402D01*
X157623223Y-93698223D01*
X157641402Y-93681747D01*
X157661107Y-93667133D01*
X157682151Y-93654520D01*
X157704329Y-93644030D01*
X157727429Y-93635765D01*
X157751227Y-93629804D01*
X157775496Y-93626204D01*
X157800000Y-93625000D01*
X158725000Y-93625000D01*
X158749504Y-93626204D01*
G37*
G04 #@! TD.AperFunction*
G04 #@! TA.AperFunction,SMDPad,CuDef*
G36*
X105487004Y-80926204D02*
G01*
X105511273Y-80929804D01*
X105535071Y-80935765D01*
X105558171Y-80944030D01*
X105580349Y-80954520D01*
X105601393Y-80967133D01*
X105621098Y-80981747D01*
X105639277Y-80998223D01*
X105655753Y-81016402D01*
X105670367Y-81036107D01*
X105682980Y-81057151D01*
X105693470Y-81079329D01*
X105701735Y-81102429D01*
X105707696Y-81126227D01*
X105711296Y-81150496D01*
X105712500Y-81175000D01*
X105712500Y-82425000D01*
X105711296Y-82449504D01*
X105707696Y-82473773D01*
X105701735Y-82497571D01*
X105693470Y-82520671D01*
X105682980Y-82542849D01*
X105670367Y-82563893D01*
X105655753Y-82583598D01*
X105639277Y-82601777D01*
X105621098Y-82618253D01*
X105601393Y-82632867D01*
X105580349Y-82645480D01*
X105558171Y-82655970D01*
X105535071Y-82664235D01*
X105511273Y-82670196D01*
X105487004Y-82673796D01*
X105462500Y-82675000D01*
X104537500Y-82675000D01*
X104512996Y-82673796D01*
X104488727Y-82670196D01*
X104464929Y-82664235D01*
X104441829Y-82655970D01*
X104419651Y-82645480D01*
X104398607Y-82632867D01*
X104378902Y-82618253D01*
X104360723Y-82601777D01*
X104344247Y-82583598D01*
X104329633Y-82563893D01*
X104317020Y-82542849D01*
X104306530Y-82520671D01*
X104298265Y-82497571D01*
X104292304Y-82473773D01*
X104288704Y-82449504D01*
X104287500Y-82425000D01*
X104287500Y-81175000D01*
X104288704Y-81150496D01*
X104292304Y-81126227D01*
X104298265Y-81102429D01*
X104306530Y-81079329D01*
X104317020Y-81057151D01*
X104329633Y-81036107D01*
X104344247Y-81016402D01*
X104360723Y-80998223D01*
X104378902Y-80981747D01*
X104398607Y-80967133D01*
X104419651Y-80954520D01*
X104441829Y-80944030D01*
X104464929Y-80935765D01*
X104488727Y-80929804D01*
X104512996Y-80926204D01*
X104537500Y-80925000D01*
X105462500Y-80925000D01*
X105487004Y-80926204D01*
G37*
G04 #@! TD.AperFunction*
G04 #@! TA.AperFunction,SMDPad,CuDef*
G36*
X102512004Y-80926204D02*
G01*
X102536273Y-80929804D01*
X102560071Y-80935765D01*
X102583171Y-80944030D01*
X102605349Y-80954520D01*
X102626393Y-80967133D01*
X102646098Y-80981747D01*
X102664277Y-80998223D01*
X102680753Y-81016402D01*
X102695367Y-81036107D01*
X102707980Y-81057151D01*
X102718470Y-81079329D01*
X102726735Y-81102429D01*
X102732696Y-81126227D01*
X102736296Y-81150496D01*
X102737500Y-81175000D01*
X102737500Y-82425000D01*
X102736296Y-82449504D01*
X102732696Y-82473773D01*
X102726735Y-82497571D01*
X102718470Y-82520671D01*
X102707980Y-82542849D01*
X102695367Y-82563893D01*
X102680753Y-82583598D01*
X102664277Y-82601777D01*
X102646098Y-82618253D01*
X102626393Y-82632867D01*
X102605349Y-82645480D01*
X102583171Y-82655970D01*
X102560071Y-82664235D01*
X102536273Y-82670196D01*
X102512004Y-82673796D01*
X102487500Y-82675000D01*
X101562500Y-82675000D01*
X101537996Y-82673796D01*
X101513727Y-82670196D01*
X101489929Y-82664235D01*
X101466829Y-82655970D01*
X101444651Y-82645480D01*
X101423607Y-82632867D01*
X101403902Y-82618253D01*
X101385723Y-82601777D01*
X101369247Y-82583598D01*
X101354633Y-82563893D01*
X101342020Y-82542849D01*
X101331530Y-82520671D01*
X101323265Y-82497571D01*
X101317304Y-82473773D01*
X101313704Y-82449504D01*
X101312500Y-82425000D01*
X101312500Y-81175000D01*
X101313704Y-81150496D01*
X101317304Y-81126227D01*
X101323265Y-81102429D01*
X101331530Y-81079329D01*
X101342020Y-81057151D01*
X101354633Y-81036107D01*
X101369247Y-81016402D01*
X101385723Y-80998223D01*
X101403902Y-80981747D01*
X101423607Y-80967133D01*
X101444651Y-80954520D01*
X101466829Y-80944030D01*
X101489929Y-80935765D01*
X101513727Y-80929804D01*
X101537996Y-80926204D01*
X101562500Y-80925000D01*
X102487500Y-80925000D01*
X102512004Y-80926204D01*
G37*
G04 #@! TD.AperFunction*
G04 #@! TA.AperFunction,SMDPad,CuDef*
G36*
X137949504Y-99601204D02*
G01*
X137973773Y-99604804D01*
X137997571Y-99610765D01*
X138020671Y-99619030D01*
X138042849Y-99629520D01*
X138063893Y-99642133D01*
X138083598Y-99656747D01*
X138101777Y-99673223D01*
X138118253Y-99691402D01*
X138132867Y-99711107D01*
X138145480Y-99732151D01*
X138155970Y-99754329D01*
X138164235Y-99777429D01*
X138170196Y-99801227D01*
X138173796Y-99825496D01*
X138175000Y-99850000D01*
X138175000Y-100775000D01*
X138173796Y-100799504D01*
X138170196Y-100823773D01*
X138164235Y-100847571D01*
X138155970Y-100870671D01*
X138145480Y-100892849D01*
X138132867Y-100913893D01*
X138118253Y-100933598D01*
X138101777Y-100951777D01*
X138083598Y-100968253D01*
X138063893Y-100982867D01*
X138042849Y-100995480D01*
X138020671Y-101005970D01*
X137997571Y-101014235D01*
X137973773Y-101020196D01*
X137949504Y-101023796D01*
X137925000Y-101025000D01*
X136675000Y-101025000D01*
X136650496Y-101023796D01*
X136626227Y-101020196D01*
X136602429Y-101014235D01*
X136579329Y-101005970D01*
X136557151Y-100995480D01*
X136536107Y-100982867D01*
X136516402Y-100968253D01*
X136498223Y-100951777D01*
X136481747Y-100933598D01*
X136467133Y-100913893D01*
X136454520Y-100892849D01*
X136444030Y-100870671D01*
X136435765Y-100847571D01*
X136429804Y-100823773D01*
X136426204Y-100799504D01*
X136425000Y-100775000D01*
X136425000Y-99850000D01*
X136426204Y-99825496D01*
X136429804Y-99801227D01*
X136435765Y-99777429D01*
X136444030Y-99754329D01*
X136454520Y-99732151D01*
X136467133Y-99711107D01*
X136481747Y-99691402D01*
X136498223Y-99673223D01*
X136516402Y-99656747D01*
X136536107Y-99642133D01*
X136557151Y-99629520D01*
X136579329Y-99619030D01*
X136602429Y-99610765D01*
X136626227Y-99604804D01*
X136650496Y-99601204D01*
X136675000Y-99600000D01*
X137925000Y-99600000D01*
X137949504Y-99601204D01*
G37*
G04 #@! TD.AperFunction*
G04 #@! TA.AperFunction,SMDPad,CuDef*
G36*
X137949504Y-102576204D02*
G01*
X137973773Y-102579804D01*
X137997571Y-102585765D01*
X138020671Y-102594030D01*
X138042849Y-102604520D01*
X138063893Y-102617133D01*
X138083598Y-102631747D01*
X138101777Y-102648223D01*
X138118253Y-102666402D01*
X138132867Y-102686107D01*
X138145480Y-102707151D01*
X138155970Y-102729329D01*
X138164235Y-102752429D01*
X138170196Y-102776227D01*
X138173796Y-102800496D01*
X138175000Y-102825000D01*
X138175000Y-103750000D01*
X138173796Y-103774504D01*
X138170196Y-103798773D01*
X138164235Y-103822571D01*
X138155970Y-103845671D01*
X138145480Y-103867849D01*
X138132867Y-103888893D01*
X138118253Y-103908598D01*
X138101777Y-103926777D01*
X138083598Y-103943253D01*
X138063893Y-103957867D01*
X138042849Y-103970480D01*
X138020671Y-103980970D01*
X137997571Y-103989235D01*
X137973773Y-103995196D01*
X137949504Y-103998796D01*
X137925000Y-104000000D01*
X136675000Y-104000000D01*
X136650496Y-103998796D01*
X136626227Y-103995196D01*
X136602429Y-103989235D01*
X136579329Y-103980970D01*
X136557151Y-103970480D01*
X136536107Y-103957867D01*
X136516402Y-103943253D01*
X136498223Y-103926777D01*
X136481747Y-103908598D01*
X136467133Y-103888893D01*
X136454520Y-103867849D01*
X136444030Y-103845671D01*
X136435765Y-103822571D01*
X136429804Y-103798773D01*
X136426204Y-103774504D01*
X136425000Y-103750000D01*
X136425000Y-102825000D01*
X136426204Y-102800496D01*
X136429804Y-102776227D01*
X136435765Y-102752429D01*
X136444030Y-102729329D01*
X136454520Y-102707151D01*
X136467133Y-102686107D01*
X136481747Y-102666402D01*
X136498223Y-102648223D01*
X136516402Y-102631747D01*
X136536107Y-102617133D01*
X136557151Y-102604520D01*
X136579329Y-102594030D01*
X136602429Y-102585765D01*
X136626227Y-102579804D01*
X136650496Y-102576204D01*
X136675000Y-102575000D01*
X137925000Y-102575000D01*
X137949504Y-102576204D01*
G37*
G04 #@! TD.AperFunction*
G04 #@! TA.AperFunction,SMDPad,CuDef*
G36*
X156649504Y-90776204D02*
G01*
X156673773Y-90779804D01*
X156697571Y-90785765D01*
X156720671Y-90794030D01*
X156742849Y-90804520D01*
X156763893Y-90817133D01*
X156783598Y-90831747D01*
X156801777Y-90848223D01*
X156818253Y-90866402D01*
X156832867Y-90886107D01*
X156845480Y-90907151D01*
X156855970Y-90929329D01*
X156864235Y-90952429D01*
X156870196Y-90976227D01*
X156873796Y-91000496D01*
X156875000Y-91025000D01*
X156875000Y-91950000D01*
X156873796Y-91974504D01*
X156870196Y-91998773D01*
X156864235Y-92022571D01*
X156855970Y-92045671D01*
X156845480Y-92067849D01*
X156832867Y-92088893D01*
X156818253Y-92108598D01*
X156801777Y-92126777D01*
X156783598Y-92143253D01*
X156763893Y-92157867D01*
X156742849Y-92170480D01*
X156720671Y-92180970D01*
X156697571Y-92189235D01*
X156673773Y-92195196D01*
X156649504Y-92198796D01*
X156625000Y-92200000D01*
X155375000Y-92200000D01*
X155350496Y-92198796D01*
X155326227Y-92195196D01*
X155302429Y-92189235D01*
X155279329Y-92180970D01*
X155257151Y-92170480D01*
X155236107Y-92157867D01*
X155216402Y-92143253D01*
X155198223Y-92126777D01*
X155181747Y-92108598D01*
X155167133Y-92088893D01*
X155154520Y-92067849D01*
X155144030Y-92045671D01*
X155135765Y-92022571D01*
X155129804Y-91998773D01*
X155126204Y-91974504D01*
X155125000Y-91950000D01*
X155125000Y-91025000D01*
X155126204Y-91000496D01*
X155129804Y-90976227D01*
X155135765Y-90952429D01*
X155144030Y-90929329D01*
X155154520Y-90907151D01*
X155167133Y-90886107D01*
X155181747Y-90866402D01*
X155198223Y-90848223D01*
X155216402Y-90831747D01*
X155236107Y-90817133D01*
X155257151Y-90804520D01*
X155279329Y-90794030D01*
X155302429Y-90785765D01*
X155326227Y-90779804D01*
X155350496Y-90776204D01*
X155375000Y-90775000D01*
X156625000Y-90775000D01*
X156649504Y-90776204D01*
G37*
G04 #@! TD.AperFunction*
G04 #@! TA.AperFunction,SMDPad,CuDef*
G36*
X156649504Y-87801204D02*
G01*
X156673773Y-87804804D01*
X156697571Y-87810765D01*
X156720671Y-87819030D01*
X156742849Y-87829520D01*
X156763893Y-87842133D01*
X156783598Y-87856747D01*
X156801777Y-87873223D01*
X156818253Y-87891402D01*
X156832867Y-87911107D01*
X156845480Y-87932151D01*
X156855970Y-87954329D01*
X156864235Y-87977429D01*
X156870196Y-88001227D01*
X156873796Y-88025496D01*
X156875000Y-88050000D01*
X156875000Y-88975000D01*
X156873796Y-88999504D01*
X156870196Y-89023773D01*
X156864235Y-89047571D01*
X156855970Y-89070671D01*
X156845480Y-89092849D01*
X156832867Y-89113893D01*
X156818253Y-89133598D01*
X156801777Y-89151777D01*
X156783598Y-89168253D01*
X156763893Y-89182867D01*
X156742849Y-89195480D01*
X156720671Y-89205970D01*
X156697571Y-89214235D01*
X156673773Y-89220196D01*
X156649504Y-89223796D01*
X156625000Y-89225000D01*
X155375000Y-89225000D01*
X155350496Y-89223796D01*
X155326227Y-89220196D01*
X155302429Y-89214235D01*
X155279329Y-89205970D01*
X155257151Y-89195480D01*
X155236107Y-89182867D01*
X155216402Y-89168253D01*
X155198223Y-89151777D01*
X155181747Y-89133598D01*
X155167133Y-89113893D01*
X155154520Y-89092849D01*
X155144030Y-89070671D01*
X155135765Y-89047571D01*
X155129804Y-89023773D01*
X155126204Y-88999504D01*
X155125000Y-88975000D01*
X155125000Y-88050000D01*
X155126204Y-88025496D01*
X155129804Y-88001227D01*
X155135765Y-87977429D01*
X155144030Y-87954329D01*
X155154520Y-87932151D01*
X155167133Y-87911107D01*
X155181747Y-87891402D01*
X155198223Y-87873223D01*
X155216402Y-87856747D01*
X155236107Y-87842133D01*
X155257151Y-87829520D01*
X155279329Y-87819030D01*
X155302429Y-87810765D01*
X155326227Y-87804804D01*
X155350496Y-87801204D01*
X155375000Y-87800000D01*
X156625000Y-87800000D01*
X156649504Y-87801204D01*
G37*
G04 #@! TD.AperFunction*
G04 #@! TA.AperFunction,SMDPad,CuDef*
G36*
X160374504Y-79626204D02*
G01*
X160398773Y-79629804D01*
X160422571Y-79635765D01*
X160445671Y-79644030D01*
X160467849Y-79654520D01*
X160488893Y-79667133D01*
X160508598Y-79681747D01*
X160526777Y-79698223D01*
X160543253Y-79716402D01*
X160557867Y-79736107D01*
X160570480Y-79757151D01*
X160580970Y-79779329D01*
X160589235Y-79802429D01*
X160595196Y-79826227D01*
X160598796Y-79850496D01*
X160600000Y-79875000D01*
X160600000Y-81125000D01*
X160598796Y-81149504D01*
X160595196Y-81173773D01*
X160589235Y-81197571D01*
X160580970Y-81220671D01*
X160570480Y-81242849D01*
X160557867Y-81263893D01*
X160543253Y-81283598D01*
X160526777Y-81301777D01*
X160508598Y-81318253D01*
X160488893Y-81332867D01*
X160467849Y-81345480D01*
X160445671Y-81355970D01*
X160422571Y-81364235D01*
X160398773Y-81370196D01*
X160374504Y-81373796D01*
X160350000Y-81375000D01*
X159425000Y-81375000D01*
X159400496Y-81373796D01*
X159376227Y-81370196D01*
X159352429Y-81364235D01*
X159329329Y-81355970D01*
X159307151Y-81345480D01*
X159286107Y-81332867D01*
X159266402Y-81318253D01*
X159248223Y-81301777D01*
X159231747Y-81283598D01*
X159217133Y-81263893D01*
X159204520Y-81242849D01*
X159194030Y-81220671D01*
X159185765Y-81197571D01*
X159179804Y-81173773D01*
X159176204Y-81149504D01*
X159175000Y-81125000D01*
X159175000Y-79875000D01*
X159176204Y-79850496D01*
X159179804Y-79826227D01*
X159185765Y-79802429D01*
X159194030Y-79779329D01*
X159204520Y-79757151D01*
X159217133Y-79736107D01*
X159231747Y-79716402D01*
X159248223Y-79698223D01*
X159266402Y-79681747D01*
X159286107Y-79667133D01*
X159307151Y-79654520D01*
X159329329Y-79644030D01*
X159352429Y-79635765D01*
X159376227Y-79629804D01*
X159400496Y-79626204D01*
X159425000Y-79625000D01*
X160350000Y-79625000D01*
X160374504Y-79626204D01*
G37*
G04 #@! TD.AperFunction*
G04 #@! TA.AperFunction,SMDPad,CuDef*
G36*
X157399504Y-79626204D02*
G01*
X157423773Y-79629804D01*
X157447571Y-79635765D01*
X157470671Y-79644030D01*
X157492849Y-79654520D01*
X157513893Y-79667133D01*
X157533598Y-79681747D01*
X157551777Y-79698223D01*
X157568253Y-79716402D01*
X157582867Y-79736107D01*
X157595480Y-79757151D01*
X157605970Y-79779329D01*
X157614235Y-79802429D01*
X157620196Y-79826227D01*
X157623796Y-79850496D01*
X157625000Y-79875000D01*
X157625000Y-81125000D01*
X157623796Y-81149504D01*
X157620196Y-81173773D01*
X157614235Y-81197571D01*
X157605970Y-81220671D01*
X157595480Y-81242849D01*
X157582867Y-81263893D01*
X157568253Y-81283598D01*
X157551777Y-81301777D01*
X157533598Y-81318253D01*
X157513893Y-81332867D01*
X157492849Y-81345480D01*
X157470671Y-81355970D01*
X157447571Y-81364235D01*
X157423773Y-81370196D01*
X157399504Y-81373796D01*
X157375000Y-81375000D01*
X156450000Y-81375000D01*
X156425496Y-81373796D01*
X156401227Y-81370196D01*
X156377429Y-81364235D01*
X156354329Y-81355970D01*
X156332151Y-81345480D01*
X156311107Y-81332867D01*
X156291402Y-81318253D01*
X156273223Y-81301777D01*
X156256747Y-81283598D01*
X156242133Y-81263893D01*
X156229520Y-81242849D01*
X156219030Y-81220671D01*
X156210765Y-81197571D01*
X156204804Y-81173773D01*
X156201204Y-81149504D01*
X156200000Y-81125000D01*
X156200000Y-79875000D01*
X156201204Y-79850496D01*
X156204804Y-79826227D01*
X156210765Y-79802429D01*
X156219030Y-79779329D01*
X156229520Y-79757151D01*
X156242133Y-79736107D01*
X156256747Y-79716402D01*
X156273223Y-79698223D01*
X156291402Y-79681747D01*
X156311107Y-79667133D01*
X156332151Y-79654520D01*
X156354329Y-79644030D01*
X156377429Y-79635765D01*
X156401227Y-79629804D01*
X156425496Y-79626204D01*
X156450000Y-79625000D01*
X157375000Y-79625000D01*
X157399504Y-79626204D01*
G37*
G04 #@! TD.AperFunction*
G04 #@! TA.AperFunction,SMDPad,CuDef*
G36*
X153149504Y-91776204D02*
G01*
X153173773Y-91779804D01*
X153197571Y-91785765D01*
X153220671Y-91794030D01*
X153242849Y-91804520D01*
X153263893Y-91817133D01*
X153283598Y-91831747D01*
X153301777Y-91848223D01*
X153318253Y-91866402D01*
X153332867Y-91886107D01*
X153345480Y-91907151D01*
X153355970Y-91929329D01*
X153364235Y-91952429D01*
X153370196Y-91976227D01*
X153373796Y-92000496D01*
X153375000Y-92025000D01*
X153375000Y-92950000D01*
X153373796Y-92974504D01*
X153370196Y-92998773D01*
X153364235Y-93022571D01*
X153355970Y-93045671D01*
X153345480Y-93067849D01*
X153332867Y-93088893D01*
X153318253Y-93108598D01*
X153301777Y-93126777D01*
X153283598Y-93143253D01*
X153263893Y-93157867D01*
X153242849Y-93170480D01*
X153220671Y-93180970D01*
X153197571Y-93189235D01*
X153173773Y-93195196D01*
X153149504Y-93198796D01*
X153125000Y-93200000D01*
X151875000Y-93200000D01*
X151850496Y-93198796D01*
X151826227Y-93195196D01*
X151802429Y-93189235D01*
X151779329Y-93180970D01*
X151757151Y-93170480D01*
X151736107Y-93157867D01*
X151716402Y-93143253D01*
X151698223Y-93126777D01*
X151681747Y-93108598D01*
X151667133Y-93088893D01*
X151654520Y-93067849D01*
X151644030Y-93045671D01*
X151635765Y-93022571D01*
X151629804Y-92998773D01*
X151626204Y-92974504D01*
X151625000Y-92950000D01*
X151625000Y-92025000D01*
X151626204Y-92000496D01*
X151629804Y-91976227D01*
X151635765Y-91952429D01*
X151644030Y-91929329D01*
X151654520Y-91907151D01*
X151667133Y-91886107D01*
X151681747Y-91866402D01*
X151698223Y-91848223D01*
X151716402Y-91831747D01*
X151736107Y-91817133D01*
X151757151Y-91804520D01*
X151779329Y-91794030D01*
X151802429Y-91785765D01*
X151826227Y-91779804D01*
X151850496Y-91776204D01*
X151875000Y-91775000D01*
X153125000Y-91775000D01*
X153149504Y-91776204D01*
G37*
G04 #@! TD.AperFunction*
G04 #@! TA.AperFunction,SMDPad,CuDef*
G36*
X153149504Y-88801204D02*
G01*
X153173773Y-88804804D01*
X153197571Y-88810765D01*
X153220671Y-88819030D01*
X153242849Y-88829520D01*
X153263893Y-88842133D01*
X153283598Y-88856747D01*
X153301777Y-88873223D01*
X153318253Y-88891402D01*
X153332867Y-88911107D01*
X153345480Y-88932151D01*
X153355970Y-88954329D01*
X153364235Y-88977429D01*
X153370196Y-89001227D01*
X153373796Y-89025496D01*
X153375000Y-89050000D01*
X153375000Y-89975000D01*
X153373796Y-89999504D01*
X153370196Y-90023773D01*
X153364235Y-90047571D01*
X153355970Y-90070671D01*
X153345480Y-90092849D01*
X153332867Y-90113893D01*
X153318253Y-90133598D01*
X153301777Y-90151777D01*
X153283598Y-90168253D01*
X153263893Y-90182867D01*
X153242849Y-90195480D01*
X153220671Y-90205970D01*
X153197571Y-90214235D01*
X153173773Y-90220196D01*
X153149504Y-90223796D01*
X153125000Y-90225000D01*
X151875000Y-90225000D01*
X151850496Y-90223796D01*
X151826227Y-90220196D01*
X151802429Y-90214235D01*
X151779329Y-90205970D01*
X151757151Y-90195480D01*
X151736107Y-90182867D01*
X151716402Y-90168253D01*
X151698223Y-90151777D01*
X151681747Y-90133598D01*
X151667133Y-90113893D01*
X151654520Y-90092849D01*
X151644030Y-90070671D01*
X151635765Y-90047571D01*
X151629804Y-90023773D01*
X151626204Y-89999504D01*
X151625000Y-89975000D01*
X151625000Y-89050000D01*
X151626204Y-89025496D01*
X151629804Y-89001227D01*
X151635765Y-88977429D01*
X151644030Y-88954329D01*
X151654520Y-88932151D01*
X151667133Y-88911107D01*
X151681747Y-88891402D01*
X151698223Y-88873223D01*
X151716402Y-88856747D01*
X151736107Y-88842133D01*
X151757151Y-88829520D01*
X151779329Y-88819030D01*
X151802429Y-88810765D01*
X151826227Y-88804804D01*
X151850496Y-88801204D01*
X151875000Y-88800000D01*
X153125000Y-88800000D01*
X153149504Y-88801204D01*
G37*
G04 #@! TD.AperFunction*
G04 #@! TA.AperFunction,SMDPad,CuDef*
G36*
X160262004Y-85126204D02*
G01*
X160286273Y-85129804D01*
X160310071Y-85135765D01*
X160333171Y-85144030D01*
X160355349Y-85154520D01*
X160376393Y-85167133D01*
X160396098Y-85181747D01*
X160414277Y-85198223D01*
X160430753Y-85216402D01*
X160445367Y-85236107D01*
X160457980Y-85257151D01*
X160468470Y-85279329D01*
X160476735Y-85302429D01*
X160482696Y-85326227D01*
X160486296Y-85350496D01*
X160487500Y-85375000D01*
X160487500Y-86625000D01*
X160486296Y-86649504D01*
X160482696Y-86673773D01*
X160476735Y-86697571D01*
X160468470Y-86720671D01*
X160457980Y-86742849D01*
X160445367Y-86763893D01*
X160430753Y-86783598D01*
X160414277Y-86801777D01*
X160396098Y-86818253D01*
X160376393Y-86832867D01*
X160355349Y-86845480D01*
X160333171Y-86855970D01*
X160310071Y-86864235D01*
X160286273Y-86870196D01*
X160262004Y-86873796D01*
X160237500Y-86875000D01*
X159312500Y-86875000D01*
X159287996Y-86873796D01*
X159263727Y-86870196D01*
X159239929Y-86864235D01*
X159216829Y-86855970D01*
X159194651Y-86845480D01*
X159173607Y-86832867D01*
X159153902Y-86818253D01*
X159135723Y-86801777D01*
X159119247Y-86783598D01*
X159104633Y-86763893D01*
X159092020Y-86742849D01*
X159081530Y-86720671D01*
X159073265Y-86697571D01*
X159067304Y-86673773D01*
X159063704Y-86649504D01*
X159062500Y-86625000D01*
X159062500Y-85375000D01*
X159063704Y-85350496D01*
X159067304Y-85326227D01*
X159073265Y-85302429D01*
X159081530Y-85279329D01*
X159092020Y-85257151D01*
X159104633Y-85236107D01*
X159119247Y-85216402D01*
X159135723Y-85198223D01*
X159153902Y-85181747D01*
X159173607Y-85167133D01*
X159194651Y-85154520D01*
X159216829Y-85144030D01*
X159239929Y-85135765D01*
X159263727Y-85129804D01*
X159287996Y-85126204D01*
X159312500Y-85125000D01*
X160237500Y-85125000D01*
X160262004Y-85126204D01*
G37*
G04 #@! TD.AperFunction*
G04 #@! TA.AperFunction,SMDPad,CuDef*
G36*
X157287004Y-85126204D02*
G01*
X157311273Y-85129804D01*
X157335071Y-85135765D01*
X157358171Y-85144030D01*
X157380349Y-85154520D01*
X157401393Y-85167133D01*
X157421098Y-85181747D01*
X157439277Y-85198223D01*
X157455753Y-85216402D01*
X157470367Y-85236107D01*
X157482980Y-85257151D01*
X157493470Y-85279329D01*
X157501735Y-85302429D01*
X157507696Y-85326227D01*
X157511296Y-85350496D01*
X157512500Y-85375000D01*
X157512500Y-86625000D01*
X157511296Y-86649504D01*
X157507696Y-86673773D01*
X157501735Y-86697571D01*
X157493470Y-86720671D01*
X157482980Y-86742849D01*
X157470367Y-86763893D01*
X157455753Y-86783598D01*
X157439277Y-86801777D01*
X157421098Y-86818253D01*
X157401393Y-86832867D01*
X157380349Y-86845480D01*
X157358171Y-86855970D01*
X157335071Y-86864235D01*
X157311273Y-86870196D01*
X157287004Y-86873796D01*
X157262500Y-86875000D01*
X156337500Y-86875000D01*
X156312996Y-86873796D01*
X156288727Y-86870196D01*
X156264929Y-86864235D01*
X156241829Y-86855970D01*
X156219651Y-86845480D01*
X156198607Y-86832867D01*
X156178902Y-86818253D01*
X156160723Y-86801777D01*
X156144247Y-86783598D01*
X156129633Y-86763893D01*
X156117020Y-86742849D01*
X156106530Y-86720671D01*
X156098265Y-86697571D01*
X156092304Y-86673773D01*
X156088704Y-86649504D01*
X156087500Y-86625000D01*
X156087500Y-85375000D01*
X156088704Y-85350496D01*
X156092304Y-85326227D01*
X156098265Y-85302429D01*
X156106530Y-85279329D01*
X156117020Y-85257151D01*
X156129633Y-85236107D01*
X156144247Y-85216402D01*
X156160723Y-85198223D01*
X156178902Y-85181747D01*
X156198607Y-85167133D01*
X156219651Y-85154520D01*
X156241829Y-85144030D01*
X156264929Y-85135765D01*
X156288727Y-85129804D01*
X156312996Y-85126204D01*
X156337500Y-85125000D01*
X157262500Y-85125000D01*
X157287004Y-85126204D01*
G37*
G04 #@! TD.AperFunction*
G04 #@! TA.AperFunction,SMDPad,CuDef*
G36*
X155174504Y-78926204D02*
G01*
X155198773Y-78929804D01*
X155222571Y-78935765D01*
X155245671Y-78944030D01*
X155267849Y-78954520D01*
X155288893Y-78967133D01*
X155308598Y-78981747D01*
X155326777Y-78998223D01*
X155343253Y-79016402D01*
X155357867Y-79036107D01*
X155370480Y-79057151D01*
X155380970Y-79079329D01*
X155389235Y-79102429D01*
X155395196Y-79126227D01*
X155398796Y-79150496D01*
X155400000Y-79175000D01*
X155400000Y-80425000D01*
X155398796Y-80449504D01*
X155395196Y-80473773D01*
X155389235Y-80497571D01*
X155380970Y-80520671D01*
X155370480Y-80542849D01*
X155357867Y-80563893D01*
X155343253Y-80583598D01*
X155326777Y-80601777D01*
X155308598Y-80618253D01*
X155288893Y-80632867D01*
X155267849Y-80645480D01*
X155245671Y-80655970D01*
X155222571Y-80664235D01*
X155198773Y-80670196D01*
X155174504Y-80673796D01*
X155150000Y-80675000D01*
X154225000Y-80675000D01*
X154200496Y-80673796D01*
X154176227Y-80670196D01*
X154152429Y-80664235D01*
X154129329Y-80655970D01*
X154107151Y-80645480D01*
X154086107Y-80632867D01*
X154066402Y-80618253D01*
X154048223Y-80601777D01*
X154031747Y-80583598D01*
X154017133Y-80563893D01*
X154004520Y-80542849D01*
X153994030Y-80520671D01*
X153985765Y-80497571D01*
X153979804Y-80473773D01*
X153976204Y-80449504D01*
X153975000Y-80425000D01*
X153975000Y-79175000D01*
X153976204Y-79150496D01*
X153979804Y-79126227D01*
X153985765Y-79102429D01*
X153994030Y-79079329D01*
X154004520Y-79057151D01*
X154017133Y-79036107D01*
X154031747Y-79016402D01*
X154048223Y-78998223D01*
X154066402Y-78981747D01*
X154086107Y-78967133D01*
X154107151Y-78954520D01*
X154129329Y-78944030D01*
X154152429Y-78935765D01*
X154176227Y-78929804D01*
X154200496Y-78926204D01*
X154225000Y-78925000D01*
X155150000Y-78925000D01*
X155174504Y-78926204D01*
G37*
G04 #@! TD.AperFunction*
G04 #@! TA.AperFunction,SMDPad,CuDef*
G36*
X152199504Y-78926204D02*
G01*
X152223773Y-78929804D01*
X152247571Y-78935765D01*
X152270671Y-78944030D01*
X152292849Y-78954520D01*
X152313893Y-78967133D01*
X152333598Y-78981747D01*
X152351777Y-78998223D01*
X152368253Y-79016402D01*
X152382867Y-79036107D01*
X152395480Y-79057151D01*
X152405970Y-79079329D01*
X152414235Y-79102429D01*
X152420196Y-79126227D01*
X152423796Y-79150496D01*
X152425000Y-79175000D01*
X152425000Y-80425000D01*
X152423796Y-80449504D01*
X152420196Y-80473773D01*
X152414235Y-80497571D01*
X152405970Y-80520671D01*
X152395480Y-80542849D01*
X152382867Y-80563893D01*
X152368253Y-80583598D01*
X152351777Y-80601777D01*
X152333598Y-80618253D01*
X152313893Y-80632867D01*
X152292849Y-80645480D01*
X152270671Y-80655970D01*
X152247571Y-80664235D01*
X152223773Y-80670196D01*
X152199504Y-80673796D01*
X152175000Y-80675000D01*
X151250000Y-80675000D01*
X151225496Y-80673796D01*
X151201227Y-80670196D01*
X151177429Y-80664235D01*
X151154329Y-80655970D01*
X151132151Y-80645480D01*
X151111107Y-80632867D01*
X151091402Y-80618253D01*
X151073223Y-80601777D01*
X151056747Y-80583598D01*
X151042133Y-80563893D01*
X151029520Y-80542849D01*
X151019030Y-80520671D01*
X151010765Y-80497571D01*
X151004804Y-80473773D01*
X151001204Y-80449504D01*
X151000000Y-80425000D01*
X151000000Y-79175000D01*
X151001204Y-79150496D01*
X151004804Y-79126227D01*
X151010765Y-79102429D01*
X151019030Y-79079329D01*
X151029520Y-79057151D01*
X151042133Y-79036107D01*
X151056747Y-79016402D01*
X151073223Y-78998223D01*
X151091402Y-78981747D01*
X151111107Y-78967133D01*
X151132151Y-78954520D01*
X151154329Y-78944030D01*
X151177429Y-78935765D01*
X151201227Y-78929804D01*
X151225496Y-78926204D01*
X151250000Y-78925000D01*
X152175000Y-78925000D01*
X152199504Y-78926204D01*
G37*
G04 #@! TD.AperFunction*
G04 #@! TA.AperFunction,SMDPad,CuDef*
G36*
X121774504Y-90726204D02*
G01*
X121798773Y-90729804D01*
X121822571Y-90735765D01*
X121845671Y-90744030D01*
X121867849Y-90754520D01*
X121888893Y-90767133D01*
X121908598Y-90781747D01*
X121926777Y-90798223D01*
X121943253Y-90816402D01*
X121957867Y-90836107D01*
X121970480Y-90857151D01*
X121980970Y-90879329D01*
X121989235Y-90902429D01*
X121995196Y-90926227D01*
X121998796Y-90950496D01*
X122000000Y-90975000D01*
X122000000Y-92225000D01*
X121998796Y-92249504D01*
X121995196Y-92273773D01*
X121989235Y-92297571D01*
X121980970Y-92320671D01*
X121970480Y-92342849D01*
X121957867Y-92363893D01*
X121943253Y-92383598D01*
X121926777Y-92401777D01*
X121908598Y-92418253D01*
X121888893Y-92432867D01*
X121867849Y-92445480D01*
X121845671Y-92455970D01*
X121822571Y-92464235D01*
X121798773Y-92470196D01*
X121774504Y-92473796D01*
X121750000Y-92475000D01*
X120825000Y-92475000D01*
X120800496Y-92473796D01*
X120776227Y-92470196D01*
X120752429Y-92464235D01*
X120729329Y-92455970D01*
X120707151Y-92445480D01*
X120686107Y-92432867D01*
X120666402Y-92418253D01*
X120648223Y-92401777D01*
X120631747Y-92383598D01*
X120617133Y-92363893D01*
X120604520Y-92342849D01*
X120594030Y-92320671D01*
X120585765Y-92297571D01*
X120579804Y-92273773D01*
X120576204Y-92249504D01*
X120575000Y-92225000D01*
X120575000Y-90975000D01*
X120576204Y-90950496D01*
X120579804Y-90926227D01*
X120585765Y-90902429D01*
X120594030Y-90879329D01*
X120604520Y-90857151D01*
X120617133Y-90836107D01*
X120631747Y-90816402D01*
X120648223Y-90798223D01*
X120666402Y-90781747D01*
X120686107Y-90767133D01*
X120707151Y-90754520D01*
X120729329Y-90744030D01*
X120752429Y-90735765D01*
X120776227Y-90729804D01*
X120800496Y-90726204D01*
X120825000Y-90725000D01*
X121750000Y-90725000D01*
X121774504Y-90726204D01*
G37*
G04 #@! TD.AperFunction*
G04 #@! TA.AperFunction,SMDPad,CuDef*
G36*
X118799504Y-90726204D02*
G01*
X118823773Y-90729804D01*
X118847571Y-90735765D01*
X118870671Y-90744030D01*
X118892849Y-90754520D01*
X118913893Y-90767133D01*
X118933598Y-90781747D01*
X118951777Y-90798223D01*
X118968253Y-90816402D01*
X118982867Y-90836107D01*
X118995480Y-90857151D01*
X119005970Y-90879329D01*
X119014235Y-90902429D01*
X119020196Y-90926227D01*
X119023796Y-90950496D01*
X119025000Y-90975000D01*
X119025000Y-92225000D01*
X119023796Y-92249504D01*
X119020196Y-92273773D01*
X119014235Y-92297571D01*
X119005970Y-92320671D01*
X118995480Y-92342849D01*
X118982867Y-92363893D01*
X118968253Y-92383598D01*
X118951777Y-92401777D01*
X118933598Y-92418253D01*
X118913893Y-92432867D01*
X118892849Y-92445480D01*
X118870671Y-92455970D01*
X118847571Y-92464235D01*
X118823773Y-92470196D01*
X118799504Y-92473796D01*
X118775000Y-92475000D01*
X117850000Y-92475000D01*
X117825496Y-92473796D01*
X117801227Y-92470196D01*
X117777429Y-92464235D01*
X117754329Y-92455970D01*
X117732151Y-92445480D01*
X117711107Y-92432867D01*
X117691402Y-92418253D01*
X117673223Y-92401777D01*
X117656747Y-92383598D01*
X117642133Y-92363893D01*
X117629520Y-92342849D01*
X117619030Y-92320671D01*
X117610765Y-92297571D01*
X117604804Y-92273773D01*
X117601204Y-92249504D01*
X117600000Y-92225000D01*
X117600000Y-90975000D01*
X117601204Y-90950496D01*
X117604804Y-90926227D01*
X117610765Y-90902429D01*
X117619030Y-90879329D01*
X117629520Y-90857151D01*
X117642133Y-90836107D01*
X117656747Y-90816402D01*
X117673223Y-90798223D01*
X117691402Y-90781747D01*
X117711107Y-90767133D01*
X117732151Y-90754520D01*
X117754329Y-90744030D01*
X117777429Y-90735765D01*
X117801227Y-90729804D01*
X117825496Y-90726204D01*
X117850000Y-90725000D01*
X118775000Y-90725000D01*
X118799504Y-90726204D01*
G37*
G04 #@! TD.AperFunction*
G04 #@! TA.AperFunction,SMDPad,CuDef*
G36*
X167474504Y-108126204D02*
G01*
X167498773Y-108129804D01*
X167522571Y-108135765D01*
X167545671Y-108144030D01*
X167567849Y-108154520D01*
X167588893Y-108167133D01*
X167608598Y-108181747D01*
X167626777Y-108198223D01*
X167643253Y-108216402D01*
X167657867Y-108236107D01*
X167670480Y-108257151D01*
X167680970Y-108279329D01*
X167689235Y-108302429D01*
X167695196Y-108326227D01*
X167698796Y-108350496D01*
X167700000Y-108375000D01*
X167700000Y-109625000D01*
X167698796Y-109649504D01*
X167695196Y-109673773D01*
X167689235Y-109697571D01*
X167680970Y-109720671D01*
X167670480Y-109742849D01*
X167657867Y-109763893D01*
X167643253Y-109783598D01*
X167626777Y-109801777D01*
X167608598Y-109818253D01*
X167588893Y-109832867D01*
X167567849Y-109845480D01*
X167545671Y-109855970D01*
X167522571Y-109864235D01*
X167498773Y-109870196D01*
X167474504Y-109873796D01*
X167450000Y-109875000D01*
X166525000Y-109875000D01*
X166500496Y-109873796D01*
X166476227Y-109870196D01*
X166452429Y-109864235D01*
X166429329Y-109855970D01*
X166407151Y-109845480D01*
X166386107Y-109832867D01*
X166366402Y-109818253D01*
X166348223Y-109801777D01*
X166331747Y-109783598D01*
X166317133Y-109763893D01*
X166304520Y-109742849D01*
X166294030Y-109720671D01*
X166285765Y-109697571D01*
X166279804Y-109673773D01*
X166276204Y-109649504D01*
X166275000Y-109625000D01*
X166275000Y-108375000D01*
X166276204Y-108350496D01*
X166279804Y-108326227D01*
X166285765Y-108302429D01*
X166294030Y-108279329D01*
X166304520Y-108257151D01*
X166317133Y-108236107D01*
X166331747Y-108216402D01*
X166348223Y-108198223D01*
X166366402Y-108181747D01*
X166386107Y-108167133D01*
X166407151Y-108154520D01*
X166429329Y-108144030D01*
X166452429Y-108135765D01*
X166476227Y-108129804D01*
X166500496Y-108126204D01*
X166525000Y-108125000D01*
X167450000Y-108125000D01*
X167474504Y-108126204D01*
G37*
G04 #@! TD.AperFunction*
G04 #@! TA.AperFunction,SMDPad,CuDef*
G36*
X164499504Y-108126204D02*
G01*
X164523773Y-108129804D01*
X164547571Y-108135765D01*
X164570671Y-108144030D01*
X164592849Y-108154520D01*
X164613893Y-108167133D01*
X164633598Y-108181747D01*
X164651777Y-108198223D01*
X164668253Y-108216402D01*
X164682867Y-108236107D01*
X164695480Y-108257151D01*
X164705970Y-108279329D01*
X164714235Y-108302429D01*
X164720196Y-108326227D01*
X164723796Y-108350496D01*
X164725000Y-108375000D01*
X164725000Y-109625000D01*
X164723796Y-109649504D01*
X164720196Y-109673773D01*
X164714235Y-109697571D01*
X164705970Y-109720671D01*
X164695480Y-109742849D01*
X164682867Y-109763893D01*
X164668253Y-109783598D01*
X164651777Y-109801777D01*
X164633598Y-109818253D01*
X164613893Y-109832867D01*
X164592849Y-109845480D01*
X164570671Y-109855970D01*
X164547571Y-109864235D01*
X164523773Y-109870196D01*
X164499504Y-109873796D01*
X164475000Y-109875000D01*
X163550000Y-109875000D01*
X163525496Y-109873796D01*
X163501227Y-109870196D01*
X163477429Y-109864235D01*
X163454329Y-109855970D01*
X163432151Y-109845480D01*
X163411107Y-109832867D01*
X163391402Y-109818253D01*
X163373223Y-109801777D01*
X163356747Y-109783598D01*
X163342133Y-109763893D01*
X163329520Y-109742849D01*
X163319030Y-109720671D01*
X163310765Y-109697571D01*
X163304804Y-109673773D01*
X163301204Y-109649504D01*
X163300000Y-109625000D01*
X163300000Y-108375000D01*
X163301204Y-108350496D01*
X163304804Y-108326227D01*
X163310765Y-108302429D01*
X163319030Y-108279329D01*
X163329520Y-108257151D01*
X163342133Y-108236107D01*
X163356747Y-108216402D01*
X163373223Y-108198223D01*
X163391402Y-108181747D01*
X163411107Y-108167133D01*
X163432151Y-108154520D01*
X163454329Y-108144030D01*
X163477429Y-108135765D01*
X163501227Y-108129804D01*
X163525496Y-108126204D01*
X163550000Y-108125000D01*
X164475000Y-108125000D01*
X164499504Y-108126204D01*
G37*
G04 #@! TD.AperFunction*
G04 #@! TA.AperFunction,SMDPad,CuDef*
G36*
X159399504Y-103276204D02*
G01*
X159423773Y-103279804D01*
X159447571Y-103285765D01*
X159470671Y-103294030D01*
X159492849Y-103304520D01*
X159513893Y-103317133D01*
X159533598Y-103331747D01*
X159551777Y-103348223D01*
X159568253Y-103366402D01*
X159582867Y-103386107D01*
X159595480Y-103407151D01*
X159605970Y-103429329D01*
X159614235Y-103452429D01*
X159620196Y-103476227D01*
X159623796Y-103500496D01*
X159625000Y-103525000D01*
X159625000Y-104450000D01*
X159623796Y-104474504D01*
X159620196Y-104498773D01*
X159614235Y-104522571D01*
X159605970Y-104545671D01*
X159595480Y-104567849D01*
X159582867Y-104588893D01*
X159568253Y-104608598D01*
X159551777Y-104626777D01*
X159533598Y-104643253D01*
X159513893Y-104657867D01*
X159492849Y-104670480D01*
X159470671Y-104680970D01*
X159447571Y-104689235D01*
X159423773Y-104695196D01*
X159399504Y-104698796D01*
X159375000Y-104700000D01*
X158125000Y-104700000D01*
X158100496Y-104698796D01*
X158076227Y-104695196D01*
X158052429Y-104689235D01*
X158029329Y-104680970D01*
X158007151Y-104670480D01*
X157986107Y-104657867D01*
X157966402Y-104643253D01*
X157948223Y-104626777D01*
X157931747Y-104608598D01*
X157917133Y-104588893D01*
X157904520Y-104567849D01*
X157894030Y-104545671D01*
X157885765Y-104522571D01*
X157879804Y-104498773D01*
X157876204Y-104474504D01*
X157875000Y-104450000D01*
X157875000Y-103525000D01*
X157876204Y-103500496D01*
X157879804Y-103476227D01*
X157885765Y-103452429D01*
X157894030Y-103429329D01*
X157904520Y-103407151D01*
X157917133Y-103386107D01*
X157931747Y-103366402D01*
X157948223Y-103348223D01*
X157966402Y-103331747D01*
X157986107Y-103317133D01*
X158007151Y-103304520D01*
X158029329Y-103294030D01*
X158052429Y-103285765D01*
X158076227Y-103279804D01*
X158100496Y-103276204D01*
X158125000Y-103275000D01*
X159375000Y-103275000D01*
X159399504Y-103276204D01*
G37*
G04 #@! TD.AperFunction*
G04 #@! TA.AperFunction,SMDPad,CuDef*
G36*
X159399504Y-100301204D02*
G01*
X159423773Y-100304804D01*
X159447571Y-100310765D01*
X159470671Y-100319030D01*
X159492849Y-100329520D01*
X159513893Y-100342133D01*
X159533598Y-100356747D01*
X159551777Y-100373223D01*
X159568253Y-100391402D01*
X159582867Y-100411107D01*
X159595480Y-100432151D01*
X159605970Y-100454329D01*
X159614235Y-100477429D01*
X159620196Y-100501227D01*
X159623796Y-100525496D01*
X159625000Y-100550000D01*
X159625000Y-101475000D01*
X159623796Y-101499504D01*
X159620196Y-101523773D01*
X159614235Y-101547571D01*
X159605970Y-101570671D01*
X159595480Y-101592849D01*
X159582867Y-101613893D01*
X159568253Y-101633598D01*
X159551777Y-101651777D01*
X159533598Y-101668253D01*
X159513893Y-101682867D01*
X159492849Y-101695480D01*
X159470671Y-101705970D01*
X159447571Y-101714235D01*
X159423773Y-101720196D01*
X159399504Y-101723796D01*
X159375000Y-101725000D01*
X158125000Y-101725000D01*
X158100496Y-101723796D01*
X158076227Y-101720196D01*
X158052429Y-101714235D01*
X158029329Y-101705970D01*
X158007151Y-101695480D01*
X157986107Y-101682867D01*
X157966402Y-101668253D01*
X157948223Y-101651777D01*
X157931747Y-101633598D01*
X157917133Y-101613893D01*
X157904520Y-101592849D01*
X157894030Y-101570671D01*
X157885765Y-101547571D01*
X157879804Y-101523773D01*
X157876204Y-101499504D01*
X157875000Y-101475000D01*
X157875000Y-100550000D01*
X157876204Y-100525496D01*
X157879804Y-100501227D01*
X157885765Y-100477429D01*
X157894030Y-100454329D01*
X157904520Y-100432151D01*
X157917133Y-100411107D01*
X157931747Y-100391402D01*
X157948223Y-100373223D01*
X157966402Y-100356747D01*
X157986107Y-100342133D01*
X158007151Y-100329520D01*
X158029329Y-100319030D01*
X158052429Y-100310765D01*
X158076227Y-100304804D01*
X158100496Y-100301204D01*
X158125000Y-100300000D01*
X159375000Y-100300000D01*
X159399504Y-100301204D01*
G37*
G04 #@! TD.AperFunction*
G04 #@! TA.AperFunction,SMDPad,CuDef*
G36*
X148149504Y-105876204D02*
G01*
X148173773Y-105879804D01*
X148197571Y-105885765D01*
X148220671Y-105894030D01*
X148242849Y-105904520D01*
X148263893Y-105917133D01*
X148283598Y-105931747D01*
X148301777Y-105948223D01*
X148318253Y-105966402D01*
X148332867Y-105986107D01*
X148345480Y-106007151D01*
X148355970Y-106029329D01*
X148364235Y-106052429D01*
X148370196Y-106076227D01*
X148373796Y-106100496D01*
X148375000Y-106125000D01*
X148375000Y-107050000D01*
X148373796Y-107074504D01*
X148370196Y-107098773D01*
X148364235Y-107122571D01*
X148355970Y-107145671D01*
X148345480Y-107167849D01*
X148332867Y-107188893D01*
X148318253Y-107208598D01*
X148301777Y-107226777D01*
X148283598Y-107243253D01*
X148263893Y-107257867D01*
X148242849Y-107270480D01*
X148220671Y-107280970D01*
X148197571Y-107289235D01*
X148173773Y-107295196D01*
X148149504Y-107298796D01*
X148125000Y-107300000D01*
X146875000Y-107300000D01*
X146850496Y-107298796D01*
X146826227Y-107295196D01*
X146802429Y-107289235D01*
X146779329Y-107280970D01*
X146757151Y-107270480D01*
X146736107Y-107257867D01*
X146716402Y-107243253D01*
X146698223Y-107226777D01*
X146681747Y-107208598D01*
X146667133Y-107188893D01*
X146654520Y-107167849D01*
X146644030Y-107145671D01*
X146635765Y-107122571D01*
X146629804Y-107098773D01*
X146626204Y-107074504D01*
X146625000Y-107050000D01*
X146625000Y-106125000D01*
X146626204Y-106100496D01*
X146629804Y-106076227D01*
X146635765Y-106052429D01*
X146644030Y-106029329D01*
X146654520Y-106007151D01*
X146667133Y-105986107D01*
X146681747Y-105966402D01*
X146698223Y-105948223D01*
X146716402Y-105931747D01*
X146736107Y-105917133D01*
X146757151Y-105904520D01*
X146779329Y-105894030D01*
X146802429Y-105885765D01*
X146826227Y-105879804D01*
X146850496Y-105876204D01*
X146875000Y-105875000D01*
X148125000Y-105875000D01*
X148149504Y-105876204D01*
G37*
G04 #@! TD.AperFunction*
G04 #@! TA.AperFunction,SMDPad,CuDef*
G36*
X148149504Y-102901204D02*
G01*
X148173773Y-102904804D01*
X148197571Y-102910765D01*
X148220671Y-102919030D01*
X148242849Y-102929520D01*
X148263893Y-102942133D01*
X148283598Y-102956747D01*
X148301777Y-102973223D01*
X148318253Y-102991402D01*
X148332867Y-103011107D01*
X148345480Y-103032151D01*
X148355970Y-103054329D01*
X148364235Y-103077429D01*
X148370196Y-103101227D01*
X148373796Y-103125496D01*
X148375000Y-103150000D01*
X148375000Y-104075000D01*
X148373796Y-104099504D01*
X148370196Y-104123773D01*
X148364235Y-104147571D01*
X148355970Y-104170671D01*
X148345480Y-104192849D01*
X148332867Y-104213893D01*
X148318253Y-104233598D01*
X148301777Y-104251777D01*
X148283598Y-104268253D01*
X148263893Y-104282867D01*
X148242849Y-104295480D01*
X148220671Y-104305970D01*
X148197571Y-104314235D01*
X148173773Y-104320196D01*
X148149504Y-104323796D01*
X148125000Y-104325000D01*
X146875000Y-104325000D01*
X146850496Y-104323796D01*
X146826227Y-104320196D01*
X146802429Y-104314235D01*
X146779329Y-104305970D01*
X146757151Y-104295480D01*
X146736107Y-104282867D01*
X146716402Y-104268253D01*
X146698223Y-104251777D01*
X146681747Y-104233598D01*
X146667133Y-104213893D01*
X146654520Y-104192849D01*
X146644030Y-104170671D01*
X146635765Y-104147571D01*
X146629804Y-104123773D01*
X146626204Y-104099504D01*
X146625000Y-104075000D01*
X146625000Y-103150000D01*
X146626204Y-103125496D01*
X146629804Y-103101227D01*
X146635765Y-103077429D01*
X146644030Y-103054329D01*
X146654520Y-103032151D01*
X146667133Y-103011107D01*
X146681747Y-102991402D01*
X146698223Y-102973223D01*
X146716402Y-102956747D01*
X146736107Y-102942133D01*
X146757151Y-102929520D01*
X146779329Y-102919030D01*
X146802429Y-102910765D01*
X146826227Y-102904804D01*
X146850496Y-102901204D01*
X146875000Y-102900000D01*
X148125000Y-102900000D01*
X148149504Y-102901204D01*
G37*
G04 #@! TD.AperFunction*
G04 #@! TA.AperFunction,SMDPad,CuDef*
G36*
X148749504Y-108626204D02*
G01*
X148773773Y-108629804D01*
X148797571Y-108635765D01*
X148820671Y-108644030D01*
X148842849Y-108654520D01*
X148863893Y-108667133D01*
X148883598Y-108681747D01*
X148901777Y-108698223D01*
X148918253Y-108716402D01*
X148932867Y-108736107D01*
X148945480Y-108757151D01*
X148955970Y-108779329D01*
X148964235Y-108802429D01*
X148970196Y-108826227D01*
X148973796Y-108850496D01*
X148975000Y-108875000D01*
X148975000Y-110125000D01*
X148973796Y-110149504D01*
X148970196Y-110173773D01*
X148964235Y-110197571D01*
X148955970Y-110220671D01*
X148945480Y-110242849D01*
X148932867Y-110263893D01*
X148918253Y-110283598D01*
X148901777Y-110301777D01*
X148883598Y-110318253D01*
X148863893Y-110332867D01*
X148842849Y-110345480D01*
X148820671Y-110355970D01*
X148797571Y-110364235D01*
X148773773Y-110370196D01*
X148749504Y-110373796D01*
X148725000Y-110375000D01*
X147800000Y-110375000D01*
X147775496Y-110373796D01*
X147751227Y-110370196D01*
X147727429Y-110364235D01*
X147704329Y-110355970D01*
X147682151Y-110345480D01*
X147661107Y-110332867D01*
X147641402Y-110318253D01*
X147623223Y-110301777D01*
X147606747Y-110283598D01*
X147592133Y-110263893D01*
X147579520Y-110242849D01*
X147569030Y-110220671D01*
X147560765Y-110197571D01*
X147554804Y-110173773D01*
X147551204Y-110149504D01*
X147550000Y-110125000D01*
X147550000Y-108875000D01*
X147551204Y-108850496D01*
X147554804Y-108826227D01*
X147560765Y-108802429D01*
X147569030Y-108779329D01*
X147579520Y-108757151D01*
X147592133Y-108736107D01*
X147606747Y-108716402D01*
X147623223Y-108698223D01*
X147641402Y-108681747D01*
X147661107Y-108667133D01*
X147682151Y-108654520D01*
X147704329Y-108644030D01*
X147727429Y-108635765D01*
X147751227Y-108629804D01*
X147775496Y-108626204D01*
X147800000Y-108625000D01*
X148725000Y-108625000D01*
X148749504Y-108626204D01*
G37*
G04 #@! TD.AperFunction*
G04 #@! TA.AperFunction,SMDPad,CuDef*
G36*
X151724504Y-108626204D02*
G01*
X151748773Y-108629804D01*
X151772571Y-108635765D01*
X151795671Y-108644030D01*
X151817849Y-108654520D01*
X151838893Y-108667133D01*
X151858598Y-108681747D01*
X151876777Y-108698223D01*
X151893253Y-108716402D01*
X151907867Y-108736107D01*
X151920480Y-108757151D01*
X151930970Y-108779329D01*
X151939235Y-108802429D01*
X151945196Y-108826227D01*
X151948796Y-108850496D01*
X151950000Y-108875000D01*
X151950000Y-110125000D01*
X151948796Y-110149504D01*
X151945196Y-110173773D01*
X151939235Y-110197571D01*
X151930970Y-110220671D01*
X151920480Y-110242849D01*
X151907867Y-110263893D01*
X151893253Y-110283598D01*
X151876777Y-110301777D01*
X151858598Y-110318253D01*
X151838893Y-110332867D01*
X151817849Y-110345480D01*
X151795671Y-110355970D01*
X151772571Y-110364235D01*
X151748773Y-110370196D01*
X151724504Y-110373796D01*
X151700000Y-110375000D01*
X150775000Y-110375000D01*
X150750496Y-110373796D01*
X150726227Y-110370196D01*
X150702429Y-110364235D01*
X150679329Y-110355970D01*
X150657151Y-110345480D01*
X150636107Y-110332867D01*
X150616402Y-110318253D01*
X150598223Y-110301777D01*
X150581747Y-110283598D01*
X150567133Y-110263893D01*
X150554520Y-110242849D01*
X150544030Y-110220671D01*
X150535765Y-110197571D01*
X150529804Y-110173773D01*
X150526204Y-110149504D01*
X150525000Y-110125000D01*
X150525000Y-108875000D01*
X150526204Y-108850496D01*
X150529804Y-108826227D01*
X150535765Y-108802429D01*
X150544030Y-108779329D01*
X150554520Y-108757151D01*
X150567133Y-108736107D01*
X150581747Y-108716402D01*
X150598223Y-108698223D01*
X150616402Y-108681747D01*
X150636107Y-108667133D01*
X150657151Y-108654520D01*
X150679329Y-108644030D01*
X150702429Y-108635765D01*
X150726227Y-108629804D01*
X150750496Y-108626204D01*
X150775000Y-108625000D01*
X151700000Y-108625000D01*
X151724504Y-108626204D01*
G37*
G04 #@! TD.AperFunction*
G04 #@! TA.AperFunction,SMDPad,CuDef*
G36*
X171899504Y-107326204D02*
G01*
X171923773Y-107329804D01*
X171947571Y-107335765D01*
X171970671Y-107344030D01*
X171992849Y-107354520D01*
X172013893Y-107367133D01*
X172033598Y-107381747D01*
X172051777Y-107398223D01*
X172068253Y-107416402D01*
X172082867Y-107436107D01*
X172095480Y-107457151D01*
X172105970Y-107479329D01*
X172114235Y-107502429D01*
X172120196Y-107526227D01*
X172123796Y-107550496D01*
X172125000Y-107575000D01*
X172125000Y-108500000D01*
X172123796Y-108524504D01*
X172120196Y-108548773D01*
X172114235Y-108572571D01*
X172105970Y-108595671D01*
X172095480Y-108617849D01*
X172082867Y-108638893D01*
X172068253Y-108658598D01*
X172051777Y-108676777D01*
X172033598Y-108693253D01*
X172013893Y-108707867D01*
X171992849Y-108720480D01*
X171970671Y-108730970D01*
X171947571Y-108739235D01*
X171923773Y-108745196D01*
X171899504Y-108748796D01*
X171875000Y-108750000D01*
X170625000Y-108750000D01*
X170600496Y-108748796D01*
X170576227Y-108745196D01*
X170552429Y-108739235D01*
X170529329Y-108730970D01*
X170507151Y-108720480D01*
X170486107Y-108707867D01*
X170466402Y-108693253D01*
X170448223Y-108676777D01*
X170431747Y-108658598D01*
X170417133Y-108638893D01*
X170404520Y-108617849D01*
X170394030Y-108595671D01*
X170385765Y-108572571D01*
X170379804Y-108548773D01*
X170376204Y-108524504D01*
X170375000Y-108500000D01*
X170375000Y-107575000D01*
X170376204Y-107550496D01*
X170379804Y-107526227D01*
X170385765Y-107502429D01*
X170394030Y-107479329D01*
X170404520Y-107457151D01*
X170417133Y-107436107D01*
X170431747Y-107416402D01*
X170448223Y-107398223D01*
X170466402Y-107381747D01*
X170486107Y-107367133D01*
X170507151Y-107354520D01*
X170529329Y-107344030D01*
X170552429Y-107335765D01*
X170576227Y-107329804D01*
X170600496Y-107326204D01*
X170625000Y-107325000D01*
X171875000Y-107325000D01*
X171899504Y-107326204D01*
G37*
G04 #@! TD.AperFunction*
G04 #@! TA.AperFunction,SMDPad,CuDef*
G36*
X171899504Y-104351204D02*
G01*
X171923773Y-104354804D01*
X171947571Y-104360765D01*
X171970671Y-104369030D01*
X171992849Y-104379520D01*
X172013893Y-104392133D01*
X172033598Y-104406747D01*
X172051777Y-104423223D01*
X172068253Y-104441402D01*
X172082867Y-104461107D01*
X172095480Y-104482151D01*
X172105970Y-104504329D01*
X172114235Y-104527429D01*
X172120196Y-104551227D01*
X172123796Y-104575496D01*
X172125000Y-104600000D01*
X172125000Y-105525000D01*
X172123796Y-105549504D01*
X172120196Y-105573773D01*
X172114235Y-105597571D01*
X172105970Y-105620671D01*
X172095480Y-105642849D01*
X172082867Y-105663893D01*
X172068253Y-105683598D01*
X172051777Y-105701777D01*
X172033598Y-105718253D01*
X172013893Y-105732867D01*
X171992849Y-105745480D01*
X171970671Y-105755970D01*
X171947571Y-105764235D01*
X171923773Y-105770196D01*
X171899504Y-105773796D01*
X171875000Y-105775000D01*
X170625000Y-105775000D01*
X170600496Y-105773796D01*
X170576227Y-105770196D01*
X170552429Y-105764235D01*
X170529329Y-105755970D01*
X170507151Y-105745480D01*
X170486107Y-105732867D01*
X170466402Y-105718253D01*
X170448223Y-105701777D01*
X170431747Y-105683598D01*
X170417133Y-105663893D01*
X170404520Y-105642849D01*
X170394030Y-105620671D01*
X170385765Y-105597571D01*
X170379804Y-105573773D01*
X170376204Y-105549504D01*
X170375000Y-105525000D01*
X170375000Y-104600000D01*
X170376204Y-104575496D01*
X170379804Y-104551227D01*
X170385765Y-104527429D01*
X170394030Y-104504329D01*
X170404520Y-104482151D01*
X170417133Y-104461107D01*
X170431747Y-104441402D01*
X170448223Y-104423223D01*
X170466402Y-104406747D01*
X170486107Y-104392133D01*
X170507151Y-104379520D01*
X170529329Y-104369030D01*
X170552429Y-104360765D01*
X170576227Y-104354804D01*
X170600496Y-104351204D01*
X170625000Y-104350000D01*
X171875000Y-104350000D01*
X171899504Y-104351204D01*
G37*
G04 #@! TD.AperFunction*
D23*
X132600000Y-103000000D03*
X105000000Y-105600000D03*
X144800000Y-104600000D03*
X146900000Y-109500000D03*
X150800000Y-107800000D03*
X156800000Y-108662500D03*
X169000000Y-109000000D03*
X110400000Y-79000000D03*
X96800000Y-82800000D03*
X130200000Y-79200000D03*
X159800000Y-78600000D03*
X160800000Y-88400000D03*
X145800000Y-107200000D03*
X143000000Y-107000000D03*
X145600000Y-108400000D03*
X121600000Y-105400000D03*
X125000000Y-109000000D03*
X156400000Y-92800000D03*
X146400000Y-86800000D03*
X138000000Y-86800000D03*
X129600000Y-88000000D03*
X127800000Y-86200000D03*
X118000000Y-86200000D03*
X109400000Y-86200000D03*
X115400000Y-102800000D03*
X97200000Y-105800000D03*
X98400000Y-84600000D03*
D24*
X171540000Y-104772500D02*
X171250000Y-105062500D01*
X132887500Y-103287500D02*
X132600000Y-103000000D01*
X134400000Y-103287500D02*
X132887500Y-103287500D01*
D25*
X168000000Y-97750000D02*
X167960000Y-97790000D01*
D24*
X167960000Y-98840000D02*
X168000000Y-98800000D01*
X167960000Y-104850000D02*
X167960000Y-98840000D01*
X171250000Y-102050000D02*
X168000000Y-98800000D01*
X171250000Y-105062500D02*
X171250000Y-102050000D01*
X139825000Y-100300000D02*
X139800000Y-100325000D01*
X141850000Y-100300000D02*
X139825000Y-100300000D01*
X137312500Y-100325000D02*
X137300000Y-100312500D01*
X139800000Y-100325000D02*
X137312500Y-100325000D01*
X168000000Y-88975000D02*
X168000000Y-85000000D01*
D26*
X170375000Y-108037500D02*
X171250000Y-108037500D01*
X168541500Y-108037500D02*
X170375000Y-108037500D01*
X167960000Y-107456000D02*
X168541500Y-108037500D01*
X167960000Y-106750000D02*
X167960000Y-107456000D01*
D24*
X105000000Y-103000000D02*
X105000000Y-104250000D01*
X105000000Y-104250000D02*
X105000000Y-105600000D01*
X105000000Y-105600000D02*
X105000000Y-105600000D01*
X141925001Y-99524999D02*
X144410001Y-99524999D01*
X141850000Y-100300000D02*
X141850000Y-99600000D01*
X141850000Y-99600000D02*
X141925001Y-99524999D01*
X144800000Y-104600000D02*
X144800000Y-104600000D01*
X147500000Y-106987500D02*
X146212500Y-106987500D01*
X146212500Y-106987500D02*
X146012500Y-106987500D01*
X146012500Y-106987500D02*
X145800000Y-107200000D01*
X148262500Y-109500000D02*
X146900000Y-109500000D01*
X146900000Y-109500000D02*
X146900000Y-109500000D01*
X150750000Y-107380000D02*
X150800000Y-107430000D01*
X150750000Y-106600000D02*
X150750000Y-107380000D01*
X150800000Y-107430000D02*
X150800000Y-107800000D01*
X150800000Y-107800000D02*
X150800000Y-107800000D01*
X157625000Y-109487500D02*
X156800000Y-108662500D01*
X158500000Y-109487500D02*
X157625000Y-109487500D01*
X156800000Y-108662500D02*
X156800000Y-108662500D01*
X166987500Y-109000000D02*
X169000000Y-109000000D01*
X169000000Y-109000000D02*
X169000000Y-109000000D01*
X169318198Y-109000000D02*
X169000000Y-109000000D01*
X171000000Y-109000000D02*
X169318198Y-109000000D01*
X171250000Y-108750000D02*
X171000000Y-109000000D01*
X171250000Y-108037500D02*
X171250000Y-108750000D01*
X168000000Y-85475000D02*
X168000000Y-85000000D01*
X158975000Y-94500000D02*
X168000000Y-85475000D01*
X158262500Y-94500000D02*
X158975000Y-94500000D01*
X108744999Y-84505001D02*
X108744999Y-80655001D01*
X107500000Y-87000000D02*
X107500000Y-85750000D01*
X107500000Y-85750000D02*
X108744999Y-84505001D01*
X110400000Y-79000000D02*
X110400000Y-79000000D01*
X108744999Y-83874999D02*
X108744999Y-80655001D01*
X108820000Y-83950000D02*
X108744999Y-83874999D01*
X109850000Y-83950000D02*
X108820000Y-83950000D01*
X110175001Y-79224999D02*
X110400000Y-79000000D01*
X108744999Y-80655001D02*
X110175001Y-79224999D01*
X108744999Y-82145003D02*
X108744999Y-80655001D01*
X107890002Y-83000000D02*
X108744999Y-82145003D01*
X107150000Y-83000000D02*
X107890002Y-83000000D01*
X100400000Y-81800000D02*
X100400000Y-81800000D01*
X123214002Y-91600000D02*
X130200000Y-84614002D01*
X121287500Y-91600000D02*
X123214002Y-91600000D01*
X130200000Y-84614002D02*
X130200000Y-79200000D01*
X130200000Y-79200000D02*
X130200000Y-79200000D01*
X144410001Y-99524999D02*
X144800000Y-100000000D01*
X155400000Y-79800000D02*
X156600000Y-78600000D01*
X154687500Y-79800000D02*
X155400000Y-79800000D01*
X156600000Y-78600000D02*
X159800000Y-78600000D01*
X159800000Y-78600000D02*
X159800000Y-78600000D01*
X159787500Y-80600000D02*
X159887500Y-80500000D01*
X159787500Y-83000000D02*
X159787500Y-80600000D01*
X159887500Y-78687500D02*
X159800000Y-78600000D01*
X159887500Y-80500000D02*
X159887500Y-78687500D01*
X159775000Y-86875000D02*
X160800000Y-87900000D01*
X159775000Y-86000000D02*
X159775000Y-86875000D01*
X160800000Y-87900000D02*
X160800000Y-88400000D01*
X160800000Y-88400000D02*
X160800000Y-88400000D01*
X159775000Y-85125000D02*
X159775000Y-86000000D01*
X159449990Y-84799990D02*
X159775000Y-85125000D01*
X155400010Y-84799990D02*
X159449990Y-84799990D01*
X154749990Y-85450010D02*
X155400010Y-84799990D01*
X150443600Y-85450010D02*
X154749990Y-85450010D01*
X150333590Y-85340000D02*
X150443600Y-85450010D01*
X149000000Y-85340000D02*
X150333590Y-85340000D01*
X102025000Y-81800000D02*
X100400000Y-81800000D01*
X99400000Y-82800000D02*
X96800000Y-82800000D01*
X100400000Y-81800000D02*
X99400000Y-82800000D01*
X144800000Y-100000000D02*
X144800000Y-104600000D01*
X144410001Y-99524999D02*
X143685002Y-98800000D01*
X131648910Y-97800000D02*
X131648910Y-96808910D01*
X143685002Y-98800000D02*
X132648910Y-98800000D01*
X132648910Y-98800000D02*
X131648910Y-97800000D01*
X129925000Y-95085000D02*
X128900000Y-95085000D01*
X131648910Y-96808910D02*
X129925000Y-95085000D01*
X163512500Y-109500000D02*
X164012500Y-109000000D01*
D25*
X161109490Y-111000000D02*
X157609690Y-111000000D01*
X149800000Y-108775000D02*
X149800000Y-107511000D01*
X150525000Y-109500000D02*
X149800000Y-108775000D01*
X151237500Y-109500000D02*
X150525000Y-109500000D01*
X161987500Y-109000000D02*
X161500000Y-109487500D01*
X164012500Y-109000000D02*
X161987500Y-109000000D01*
X107150000Y-80050000D02*
X107150000Y-82050000D01*
X173670990Y-77670990D02*
X109529010Y-77670990D01*
X164012500Y-109875000D02*
X164937500Y-110800000D01*
X109529010Y-77670990D02*
X107150000Y-80050000D01*
X164012500Y-109000000D02*
X164012500Y-109875000D01*
X173800000Y-110800000D02*
X174200000Y-110400000D01*
X174200000Y-78200000D02*
X173670990Y-77670990D01*
X164937500Y-110800000D02*
X173800000Y-110800000D01*
X174200000Y-110400000D02*
X174200000Y-78200000D01*
D26*
X142800000Y-107200000D02*
X143000000Y-107000000D01*
X140680000Y-107200000D02*
X142800000Y-107200000D01*
X149220490Y-108090510D02*
X149800000Y-107511000D01*
X146227688Y-108090510D02*
X149220490Y-108090510D01*
X145918198Y-108400000D02*
X146227688Y-108090510D01*
D25*
X149800000Y-107511000D02*
X149800000Y-106600000D01*
D26*
X145600000Y-108400000D02*
X145918198Y-108400000D01*
D25*
X155750000Y-105425000D02*
X155750000Y-108750000D01*
X156519180Y-109500000D02*
X156500000Y-109500000D01*
X155750000Y-108750000D02*
X156500000Y-109500000D01*
X156500000Y-109500000D02*
X151237500Y-109500000D01*
X156519180Y-109909490D02*
X157609690Y-111000000D01*
X156519180Y-109500000D02*
X156519180Y-109909490D01*
X161500000Y-110609490D02*
X161500000Y-109487500D01*
X161109490Y-111000000D02*
X161500000Y-110609490D01*
D26*
X149412500Y-104012500D02*
X149800000Y-104400000D01*
X147500000Y-104012500D02*
X149412500Y-104012500D01*
D24*
X157550000Y-97500000D02*
X158262500Y-97500000D01*
X149800000Y-103620000D02*
X155920000Y-97500000D01*
X155920000Y-97500000D02*
X157550000Y-97500000D01*
X149800000Y-104400000D02*
X149800000Y-103620000D01*
D26*
X103787500Y-111000000D02*
X104600000Y-111000000D01*
X102500000Y-109712500D02*
X103787500Y-111000000D01*
X102500000Y-109000000D02*
X102500000Y-109712500D01*
X104600000Y-111000000D02*
X100550000Y-111000000D01*
X107500000Y-109000000D02*
X107500000Y-109712500D01*
X108787500Y-111000000D02*
X109600000Y-111000000D01*
X107500000Y-109712500D02*
X108787500Y-111000000D01*
X109600000Y-111000000D02*
X104600000Y-111000000D01*
X122375000Y-109675000D02*
X123700000Y-111000000D01*
X123700000Y-111000000D02*
X125000000Y-111000000D01*
X122375000Y-108800000D02*
X122375000Y-109675000D01*
X125000000Y-111000000D02*
X109600000Y-111000000D01*
X135200000Y-111000000D02*
X136400000Y-111000000D01*
X132950000Y-108750000D02*
X135200000Y-111000000D01*
X132237500Y-108750000D02*
X132950000Y-108750000D01*
X141225000Y-111000000D02*
X136400000Y-111000000D01*
X136400000Y-111000000D02*
X125000000Y-111000000D01*
D24*
X118312500Y-93797500D02*
X119600000Y-95085000D01*
X118312500Y-91600000D02*
X118312500Y-93797500D01*
D26*
X99250000Y-109700000D02*
X99250000Y-108987500D01*
X100550000Y-111000000D02*
X99250000Y-109700000D01*
D24*
X149800000Y-104400000D02*
X149800000Y-100200000D01*
X149800000Y-100200000D02*
X157000000Y-93000000D01*
X157000000Y-93000000D02*
X159000000Y-93000000D01*
X159000000Y-93000000D02*
X161400000Y-90600000D01*
X161400000Y-85724310D02*
X159875700Y-84200010D01*
X161400000Y-90600000D02*
X161400000Y-85724310D01*
X147650000Y-86580000D02*
X149000000Y-86580000D01*
X147574999Y-86504999D02*
X147650000Y-86580000D01*
X147574999Y-84795001D02*
X147574999Y-86504999D01*
X147650000Y-84720000D02*
X147574999Y-84795001D01*
X149000000Y-84720000D02*
X147650000Y-84720000D01*
X120625000Y-95085000D02*
X121600000Y-96060000D01*
X119600000Y-95085000D02*
X120625000Y-95085000D01*
X121600000Y-96060000D02*
X121600000Y-105400000D01*
X121600000Y-105400000D02*
X121600000Y-105400000D01*
X125000000Y-109000000D02*
X125000000Y-111000000D01*
X155200000Y-83800000D02*
X154487500Y-83800000D01*
X155600010Y-84200010D02*
X155200000Y-83800000D01*
X159875700Y-84200010D02*
X155600010Y-84200010D01*
X150350000Y-84720000D02*
X149000000Y-84720000D01*
X154162500Y-85000000D02*
X150630000Y-85000000D01*
X150630000Y-85000000D02*
X150350000Y-84720000D01*
X154487500Y-84675000D02*
X154162500Y-85000000D01*
X154487500Y-83800000D02*
X154487500Y-84675000D01*
D26*
X147500000Y-104012500D02*
X146187500Y-104012500D01*
X146187500Y-104626502D02*
X144000000Y-106814002D01*
X146187500Y-104012500D02*
X146187500Y-104626502D01*
X144000000Y-108225000D02*
X141225000Y-111000000D01*
X144000000Y-106814002D02*
X144000000Y-108225000D01*
D24*
X158100000Y-104637500D02*
X158750000Y-103987500D01*
D26*
X155837500Y-103987500D02*
X155750000Y-104075000D01*
X158750000Y-103987500D02*
X155837500Y-103987500D01*
D24*
X158700000Y-100962500D02*
X158750000Y-101012500D01*
D26*
X162765510Y-103259690D02*
X162255820Y-102750000D01*
X158750000Y-101725000D02*
X158750000Y-101012500D01*
X159775000Y-102750000D02*
X158750000Y-101725000D01*
X162255820Y-102750000D02*
X159775000Y-102750000D01*
X163159000Y-106750000D02*
X164540000Y-106750000D01*
X162765510Y-106356510D02*
X163159000Y-106750000D01*
X162765510Y-103259690D02*
X162765510Y-106356510D01*
D24*
X149000000Y-80575000D02*
X149000000Y-81000000D01*
X149775000Y-79800000D02*
X149000000Y-80575000D01*
X151712500Y-79800000D02*
X149775000Y-79800000D01*
X149040000Y-86000000D02*
X149000000Y-85960000D01*
X156800000Y-86000000D02*
X149040000Y-86000000D01*
X150350000Y-88440000D02*
X149000000Y-88440000D01*
X150552500Y-88440000D02*
X150350000Y-88440000D01*
X151625000Y-89512500D02*
X150552500Y-88440000D01*
X152500000Y-89512500D02*
X151625000Y-89512500D01*
X152500000Y-92487500D02*
X151625000Y-92487500D01*
X151000000Y-91862500D02*
X151000000Y-89523910D01*
X151625000Y-92487500D02*
X151000000Y-91862500D01*
X150536090Y-89060000D02*
X149000000Y-89060000D01*
X151000000Y-89523910D02*
X150536090Y-89060000D01*
X150350000Y-81620000D02*
X149000000Y-81620000D01*
X155080000Y-81620000D02*
X150350000Y-81620000D01*
X156200000Y-80500000D02*
X155080000Y-81620000D01*
X156912500Y-80500000D02*
X156200000Y-80500000D01*
X150350000Y-87200000D02*
X149000000Y-87200000D01*
X153812500Y-87200000D02*
X150350000Y-87200000D01*
X155125000Y-88512500D02*
X153812500Y-87200000D01*
X156000000Y-88512500D02*
X155125000Y-88512500D01*
X154500000Y-90862500D02*
X154500000Y-88523910D01*
X156000000Y-91487500D02*
X155125000Y-91487500D01*
X155125000Y-91487500D02*
X154500000Y-90862500D01*
X153796090Y-87820000D02*
X149000000Y-87820000D01*
X154500000Y-88523910D02*
X153796090Y-87820000D01*
X137312500Y-103300000D02*
X137300000Y-103287500D01*
X139800000Y-103300000D02*
X137312500Y-103300000D01*
X140675000Y-103300000D02*
X139800000Y-103300000D01*
X143235002Y-103300000D02*
X140675000Y-103300000D01*
X143750000Y-102785002D02*
X143235002Y-103300000D01*
X143750000Y-100300000D02*
X143750000Y-102785002D01*
X137275000Y-103312500D02*
X137300000Y-103287500D01*
X137300000Y-102575000D02*
X137300000Y-103287500D01*
X137300000Y-102337500D02*
X137300000Y-102575000D01*
X135275000Y-100312500D02*
X137300000Y-102337500D01*
X134400000Y-100312500D02*
X135275000Y-100312500D01*
X129925000Y-98895000D02*
X128900000Y-98895000D01*
X133525000Y-100312500D02*
X132107500Y-98895000D01*
X132107500Y-98895000D02*
X129925000Y-98895000D01*
X134400000Y-100312500D02*
X133525000Y-100312500D01*
X104987500Y-81787500D02*
X105000000Y-81800000D01*
X104987500Y-79300000D02*
X104987500Y-81787500D01*
X161237500Y-94500000D02*
X161237500Y-97500000D01*
X117903232Y-97625000D02*
X119600000Y-97625000D01*
X112928242Y-92650010D02*
X117903232Y-97625000D01*
X105800000Y-91236410D02*
X107213600Y-92650010D01*
X107213600Y-92650010D02*
X112928242Y-92650010D01*
X102725000Y-79300000D02*
X102012500Y-79300000D01*
X103062510Y-79637510D02*
X102725000Y-79300000D01*
X103062510Y-81763200D02*
X103062510Y-79637510D01*
X105800000Y-84500690D02*
X103062510Y-81763200D01*
X105800000Y-91236410D02*
X105800000Y-84500690D01*
X161710000Y-100802500D02*
X161500000Y-101012500D01*
D26*
X164540000Y-104144000D02*
X164540000Y-104850000D01*
X162375000Y-101012500D02*
X164540000Y-103177500D01*
X164540000Y-103177500D02*
X164540000Y-104144000D01*
X161500000Y-101012500D02*
X162375000Y-101012500D01*
X158500000Y-106512500D02*
X161500000Y-106512500D01*
D24*
X161500000Y-106512500D02*
X161500000Y-103987500D01*
D26*
X102500000Y-106025000D02*
X102500000Y-103000000D01*
D24*
X118575000Y-103975000D02*
X119600000Y-103975000D01*
X112938590Y-103975000D02*
X118575000Y-103975000D01*
X102575001Y-101674999D02*
X110638589Y-101674999D01*
X110638589Y-101674999D02*
X112938590Y-103975000D01*
X102500000Y-101750000D02*
X102575001Y-101674999D01*
X102500000Y-103000000D02*
X102500000Y-101750000D01*
D26*
X107500000Y-106025000D02*
X107500000Y-103000000D01*
D24*
X118575000Y-105245000D02*
X119600000Y-105245000D01*
X109155000Y-105245000D02*
X118575000Y-105245000D01*
X108375000Y-106025000D02*
X109155000Y-105245000D01*
X107500000Y-106025000D02*
X108375000Y-106025000D01*
X121990690Y-106515000D02*
X122800000Y-105705690D01*
X119600000Y-106515000D02*
X121990690Y-106515000D01*
X122800000Y-105705690D02*
X122800000Y-93200000D01*
X133140000Y-82860000D02*
X149000000Y-82860000D01*
X122800000Y-93200000D02*
X133140000Y-82860000D01*
X119600000Y-108600000D02*
X119400000Y-108800000D01*
X119600000Y-106515000D02*
X119600000Y-108600000D01*
X128900000Y-108387500D02*
X129262500Y-108750000D01*
X128900000Y-106515000D02*
X128900000Y-108387500D01*
X127875000Y-106515000D02*
X128900000Y-106515000D01*
X123400000Y-102040000D02*
X127875000Y-106515000D01*
X123400000Y-93236410D02*
X123400000Y-102040000D01*
X133156410Y-83480000D02*
X123400000Y-93236410D01*
X149000000Y-83480000D02*
X133156410Y-83480000D01*
X156100000Y-83000000D02*
X156812500Y-83000000D01*
X155340000Y-82240000D02*
X156100000Y-83000000D01*
X149000000Y-82240000D02*
X155340000Y-82240000D01*
X149100000Y-84000000D02*
X149000000Y-84100000D01*
X150500000Y-84100000D02*
X150350000Y-84100000D01*
X150800000Y-83800000D02*
X150500000Y-84100000D01*
X150350000Y-84100000D02*
X149000000Y-84100000D01*
X151512500Y-83800000D02*
X150800000Y-83800000D01*
D26*
X109624999Y-85975001D02*
X109400000Y-86200000D01*
X111020501Y-84579499D02*
X109624999Y-85975001D01*
X111020501Y-82059501D02*
X111020501Y-84579499D01*
X111011000Y-82050000D02*
X111020501Y-82059501D01*
X109850000Y-82050000D02*
X111011000Y-82050000D01*
X113850000Y-82050000D02*
X118000000Y-86200000D01*
X109850000Y-82050000D02*
X113850000Y-82050000D01*
X118000000Y-86200000D02*
X127800000Y-86200000D01*
X136800000Y-88000000D02*
X138000000Y-86800000D01*
X129600000Y-88000000D02*
X136800000Y-88000000D01*
X138000000Y-86800000D02*
X146400000Y-86800000D01*
X151609690Y-93590510D02*
X155680450Y-93590510D01*
X146400000Y-86800000D02*
X146400000Y-88380820D01*
X146400000Y-88380820D02*
X151609690Y-93590510D01*
X155680450Y-93590510D02*
X156335480Y-92935480D01*
D24*
X99250000Y-105300000D02*
X99250000Y-106012500D01*
X99825001Y-104724999D02*
X99250000Y-105300000D01*
X99825001Y-86025001D02*
X99825001Y-104724999D01*
X98400000Y-84600000D02*
X99825001Y-86025001D01*
X97412500Y-106012500D02*
X97200000Y-105800000D01*
X99250000Y-106012500D02*
X97412500Y-106012500D01*
X118575000Y-101435000D02*
X119600000Y-101435000D01*
X117330685Y-101435000D02*
X118575000Y-101435000D01*
X115965685Y-102800000D02*
X117330685Y-101435000D01*
X115400000Y-102800000D02*
X115965685Y-102800000D01*
X114420000Y-92200000D02*
X118575000Y-96355000D01*
X106424999Y-85250001D02*
X106424999Y-91224999D01*
X107150000Y-83950000D02*
X107150000Y-84525000D01*
X107150000Y-84525000D02*
X106424999Y-85250001D01*
X118575000Y-96355000D02*
X119600000Y-96355000D01*
X106424999Y-91224999D02*
X107400000Y-92200000D01*
X107400000Y-92200000D02*
X114420000Y-92200000D01*
X118095000Y-102705000D02*
X119600000Y-102705000D01*
X117275010Y-103524990D02*
X118095000Y-102705000D01*
X102500000Y-87000000D02*
X103500000Y-87000000D01*
X104600000Y-88100000D02*
X104600000Y-95000000D01*
X104600000Y-95000000D02*
X113124990Y-103524990D01*
X103500000Y-87000000D02*
X104600000Y-88100000D01*
X113124990Y-103524990D02*
X117275010Y-103524990D01*
X134500000Y-107200000D02*
X131800000Y-104500000D01*
X135600000Y-107200000D02*
X134500000Y-107200000D01*
X129925000Y-100165000D02*
X128900000Y-100165000D01*
X131800000Y-102040000D02*
X129925000Y-100165000D01*
X131800000Y-104500000D02*
X131800000Y-102040000D01*
M02*
