G04 #@! TF.GenerationSoftware,KiCad,Pcbnew,(5.1.5)-3*
G04 #@! TF.CreationDate,2020-08-02T11:19:38+02:00*
G04 #@! TF.ProjectId,_Spot,b553706f-742e-46b6-9963-61645f706362,rev?*
G04 #@! TF.SameCoordinates,Original*
G04 #@! TF.FileFunction,Copper,L2,Bot*
G04 #@! TF.FilePolarity,Positive*
%FSLAX46Y46*%
G04 Gerber Fmt 4.6, Leading zero omitted, Abs format (unit mm)*
G04 Created by KiCad (PCBNEW (5.1.5)-3) date 2020-08-02 11:19:38*
%MOMM*%
%LPD*%
G04 APERTURE LIST*
%ADD10O,1.700000X1.700000*%
%ADD11R,1.700000X1.700000*%
%ADD12C,3.500000*%
%ADD13C,0.900000*%
%ADD14C,8.600000*%
%ADD15C,0.150000*%
%ADD16R,0.700000X1.150000*%
%ADD17C,0.450000*%
%ADD18C,0.250000*%
%ADD19C,4.000000*%
%ADD20C,1.250000*%
%ADD21C,0.381000*%
%ADD22C,0.254000*%
G04 APERTURE END LIST*
D10*
X140680000Y-107200000D03*
X138140000Y-107200000D03*
D11*
X135600000Y-107200000D03*
D12*
X113200000Y-108000000D03*
X98000000Y-80000000D03*
D13*
X170280419Y-82719581D03*
X168000000Y-81775000D03*
X165719581Y-82719581D03*
X164775000Y-85000000D03*
X165719581Y-87280419D03*
X168000000Y-88225000D03*
X170280419Y-87280419D03*
X171225000Y-85000000D03*
D14*
X168000000Y-85000000D03*
D13*
X170280419Y-96519581D03*
X168000000Y-95575000D03*
X165719581Y-96519581D03*
X164775000Y-98800000D03*
X165719581Y-101080419D03*
X168000000Y-102025000D03*
X170280419Y-101080419D03*
X171225000Y-98800000D03*
D14*
X168000000Y-98800000D03*
G04 #@! TA.AperFunction,SMDPad,CuDef*
D15*
G36*
X99149504Y-85801204D02*
G01*
X99173773Y-85804804D01*
X99197571Y-85810765D01*
X99220671Y-85819030D01*
X99242849Y-85829520D01*
X99263893Y-85842133D01*
X99283598Y-85856747D01*
X99301777Y-85873223D01*
X99318253Y-85891402D01*
X99332867Y-85911107D01*
X99345480Y-85932151D01*
X99355970Y-85954329D01*
X99364235Y-85977429D01*
X99370196Y-86001227D01*
X99373796Y-86025496D01*
X99375000Y-86050000D01*
X99375000Y-86975000D01*
X99373796Y-86999504D01*
X99370196Y-87023773D01*
X99364235Y-87047571D01*
X99355970Y-87070671D01*
X99345480Y-87092849D01*
X99332867Y-87113893D01*
X99318253Y-87133598D01*
X99301777Y-87151777D01*
X99283598Y-87168253D01*
X99263893Y-87182867D01*
X99242849Y-87195480D01*
X99220671Y-87205970D01*
X99197571Y-87214235D01*
X99173773Y-87220196D01*
X99149504Y-87223796D01*
X99125000Y-87225000D01*
X97875000Y-87225000D01*
X97850496Y-87223796D01*
X97826227Y-87220196D01*
X97802429Y-87214235D01*
X97779329Y-87205970D01*
X97757151Y-87195480D01*
X97736107Y-87182867D01*
X97716402Y-87168253D01*
X97698223Y-87151777D01*
X97681747Y-87133598D01*
X97667133Y-87113893D01*
X97654520Y-87092849D01*
X97644030Y-87070671D01*
X97635765Y-87047571D01*
X97629804Y-87023773D01*
X97626204Y-86999504D01*
X97625000Y-86975000D01*
X97625000Y-86050000D01*
X97626204Y-86025496D01*
X97629804Y-86001227D01*
X97635765Y-85977429D01*
X97644030Y-85954329D01*
X97654520Y-85932151D01*
X97667133Y-85911107D01*
X97681747Y-85891402D01*
X97698223Y-85873223D01*
X97716402Y-85856747D01*
X97736107Y-85842133D01*
X97757151Y-85829520D01*
X97779329Y-85819030D01*
X97802429Y-85810765D01*
X97826227Y-85804804D01*
X97850496Y-85801204D01*
X97875000Y-85800000D01*
X99125000Y-85800000D01*
X99149504Y-85801204D01*
G37*
G04 #@! TD.AperFunction*
G04 #@! TA.AperFunction,SMDPad,CuDef*
G36*
X99149504Y-88776204D02*
G01*
X99173773Y-88779804D01*
X99197571Y-88785765D01*
X99220671Y-88794030D01*
X99242849Y-88804520D01*
X99263893Y-88817133D01*
X99283598Y-88831747D01*
X99301777Y-88848223D01*
X99318253Y-88866402D01*
X99332867Y-88886107D01*
X99345480Y-88907151D01*
X99355970Y-88929329D01*
X99364235Y-88952429D01*
X99370196Y-88976227D01*
X99373796Y-89000496D01*
X99375000Y-89025000D01*
X99375000Y-89950000D01*
X99373796Y-89974504D01*
X99370196Y-89998773D01*
X99364235Y-90022571D01*
X99355970Y-90045671D01*
X99345480Y-90067849D01*
X99332867Y-90088893D01*
X99318253Y-90108598D01*
X99301777Y-90126777D01*
X99283598Y-90143253D01*
X99263893Y-90157867D01*
X99242849Y-90170480D01*
X99220671Y-90180970D01*
X99197571Y-90189235D01*
X99173773Y-90195196D01*
X99149504Y-90198796D01*
X99125000Y-90200000D01*
X97875000Y-90200000D01*
X97850496Y-90198796D01*
X97826227Y-90195196D01*
X97802429Y-90189235D01*
X97779329Y-90180970D01*
X97757151Y-90170480D01*
X97736107Y-90157867D01*
X97716402Y-90143253D01*
X97698223Y-90126777D01*
X97681747Y-90108598D01*
X97667133Y-90088893D01*
X97654520Y-90067849D01*
X97644030Y-90045671D01*
X97635765Y-90022571D01*
X97629804Y-89998773D01*
X97626204Y-89974504D01*
X97625000Y-89950000D01*
X97625000Y-89025000D01*
X97626204Y-89000496D01*
X97629804Y-88976227D01*
X97635765Y-88952429D01*
X97644030Y-88929329D01*
X97654520Y-88907151D01*
X97667133Y-88886107D01*
X97681747Y-88866402D01*
X97698223Y-88848223D01*
X97716402Y-88831747D01*
X97736107Y-88817133D01*
X97757151Y-88804520D01*
X97779329Y-88794030D01*
X97802429Y-88785765D01*
X97826227Y-88779804D01*
X97850496Y-88776204D01*
X97875000Y-88775000D01*
X99125000Y-88775000D01*
X99149504Y-88776204D01*
G37*
G04 #@! TD.AperFunction*
G04 #@! TA.AperFunction,SMDPad,CuDef*
G36*
X108649504Y-87801204D02*
G01*
X108673773Y-87804804D01*
X108697571Y-87810765D01*
X108720671Y-87819030D01*
X108742849Y-87829520D01*
X108763893Y-87842133D01*
X108783598Y-87856747D01*
X108801777Y-87873223D01*
X108818253Y-87891402D01*
X108832867Y-87911107D01*
X108845480Y-87932151D01*
X108855970Y-87954329D01*
X108864235Y-87977429D01*
X108870196Y-88001227D01*
X108873796Y-88025496D01*
X108875000Y-88050000D01*
X108875000Y-88975000D01*
X108873796Y-88999504D01*
X108870196Y-89023773D01*
X108864235Y-89047571D01*
X108855970Y-89070671D01*
X108845480Y-89092849D01*
X108832867Y-89113893D01*
X108818253Y-89133598D01*
X108801777Y-89151777D01*
X108783598Y-89168253D01*
X108763893Y-89182867D01*
X108742849Y-89195480D01*
X108720671Y-89205970D01*
X108697571Y-89214235D01*
X108673773Y-89220196D01*
X108649504Y-89223796D01*
X108625000Y-89225000D01*
X107375000Y-89225000D01*
X107350496Y-89223796D01*
X107326227Y-89220196D01*
X107302429Y-89214235D01*
X107279329Y-89205970D01*
X107257151Y-89195480D01*
X107236107Y-89182867D01*
X107216402Y-89168253D01*
X107198223Y-89151777D01*
X107181747Y-89133598D01*
X107167133Y-89113893D01*
X107154520Y-89092849D01*
X107144030Y-89070671D01*
X107135765Y-89047571D01*
X107129804Y-89023773D01*
X107126204Y-88999504D01*
X107125000Y-88975000D01*
X107125000Y-88050000D01*
X107126204Y-88025496D01*
X107129804Y-88001227D01*
X107135765Y-87977429D01*
X107144030Y-87954329D01*
X107154520Y-87932151D01*
X107167133Y-87911107D01*
X107181747Y-87891402D01*
X107198223Y-87873223D01*
X107216402Y-87856747D01*
X107236107Y-87842133D01*
X107257151Y-87829520D01*
X107279329Y-87819030D01*
X107302429Y-87810765D01*
X107326227Y-87804804D01*
X107350496Y-87801204D01*
X107375000Y-87800000D01*
X108625000Y-87800000D01*
X108649504Y-87801204D01*
G37*
G04 #@! TD.AperFunction*
G04 #@! TA.AperFunction,SMDPad,CuDef*
G36*
X108649504Y-90776204D02*
G01*
X108673773Y-90779804D01*
X108697571Y-90785765D01*
X108720671Y-90794030D01*
X108742849Y-90804520D01*
X108763893Y-90817133D01*
X108783598Y-90831747D01*
X108801777Y-90848223D01*
X108818253Y-90866402D01*
X108832867Y-90886107D01*
X108845480Y-90907151D01*
X108855970Y-90929329D01*
X108864235Y-90952429D01*
X108870196Y-90976227D01*
X108873796Y-91000496D01*
X108875000Y-91025000D01*
X108875000Y-91950000D01*
X108873796Y-91974504D01*
X108870196Y-91998773D01*
X108864235Y-92022571D01*
X108855970Y-92045671D01*
X108845480Y-92067849D01*
X108832867Y-92088893D01*
X108818253Y-92108598D01*
X108801777Y-92126777D01*
X108783598Y-92143253D01*
X108763893Y-92157867D01*
X108742849Y-92170480D01*
X108720671Y-92180970D01*
X108697571Y-92189235D01*
X108673773Y-92195196D01*
X108649504Y-92198796D01*
X108625000Y-92200000D01*
X107375000Y-92200000D01*
X107350496Y-92198796D01*
X107326227Y-92195196D01*
X107302429Y-92189235D01*
X107279329Y-92180970D01*
X107257151Y-92170480D01*
X107236107Y-92157867D01*
X107216402Y-92143253D01*
X107198223Y-92126777D01*
X107181747Y-92108598D01*
X107167133Y-92088893D01*
X107154520Y-92067849D01*
X107144030Y-92045671D01*
X107135765Y-92022571D01*
X107129804Y-91998773D01*
X107126204Y-91974504D01*
X107125000Y-91950000D01*
X107125000Y-91025000D01*
X107126204Y-91000496D01*
X107129804Y-90976227D01*
X107135765Y-90952429D01*
X107144030Y-90929329D01*
X107154520Y-90907151D01*
X107167133Y-90886107D01*
X107181747Y-90866402D01*
X107198223Y-90848223D01*
X107216402Y-90831747D01*
X107236107Y-90817133D01*
X107257151Y-90804520D01*
X107279329Y-90794030D01*
X107302429Y-90785765D01*
X107326227Y-90779804D01*
X107350496Y-90776204D01*
X107375000Y-90775000D01*
X108625000Y-90775000D01*
X108649504Y-90776204D01*
G37*
G04 #@! TD.AperFunction*
G04 #@! TA.AperFunction,SMDPad,CuDef*
G36*
X118649504Y-87801204D02*
G01*
X118673773Y-87804804D01*
X118697571Y-87810765D01*
X118720671Y-87819030D01*
X118742849Y-87829520D01*
X118763893Y-87842133D01*
X118783598Y-87856747D01*
X118801777Y-87873223D01*
X118818253Y-87891402D01*
X118832867Y-87911107D01*
X118845480Y-87932151D01*
X118855970Y-87954329D01*
X118864235Y-87977429D01*
X118870196Y-88001227D01*
X118873796Y-88025496D01*
X118875000Y-88050000D01*
X118875000Y-88975000D01*
X118873796Y-88999504D01*
X118870196Y-89023773D01*
X118864235Y-89047571D01*
X118855970Y-89070671D01*
X118845480Y-89092849D01*
X118832867Y-89113893D01*
X118818253Y-89133598D01*
X118801777Y-89151777D01*
X118783598Y-89168253D01*
X118763893Y-89182867D01*
X118742849Y-89195480D01*
X118720671Y-89205970D01*
X118697571Y-89214235D01*
X118673773Y-89220196D01*
X118649504Y-89223796D01*
X118625000Y-89225000D01*
X117375000Y-89225000D01*
X117350496Y-89223796D01*
X117326227Y-89220196D01*
X117302429Y-89214235D01*
X117279329Y-89205970D01*
X117257151Y-89195480D01*
X117236107Y-89182867D01*
X117216402Y-89168253D01*
X117198223Y-89151777D01*
X117181747Y-89133598D01*
X117167133Y-89113893D01*
X117154520Y-89092849D01*
X117144030Y-89070671D01*
X117135765Y-89047571D01*
X117129804Y-89023773D01*
X117126204Y-88999504D01*
X117125000Y-88975000D01*
X117125000Y-88050000D01*
X117126204Y-88025496D01*
X117129804Y-88001227D01*
X117135765Y-87977429D01*
X117144030Y-87954329D01*
X117154520Y-87932151D01*
X117167133Y-87911107D01*
X117181747Y-87891402D01*
X117198223Y-87873223D01*
X117216402Y-87856747D01*
X117236107Y-87842133D01*
X117257151Y-87829520D01*
X117279329Y-87819030D01*
X117302429Y-87810765D01*
X117326227Y-87804804D01*
X117350496Y-87801204D01*
X117375000Y-87800000D01*
X118625000Y-87800000D01*
X118649504Y-87801204D01*
G37*
G04 #@! TD.AperFunction*
G04 #@! TA.AperFunction,SMDPad,CuDef*
G36*
X118649504Y-90776204D02*
G01*
X118673773Y-90779804D01*
X118697571Y-90785765D01*
X118720671Y-90794030D01*
X118742849Y-90804520D01*
X118763893Y-90817133D01*
X118783598Y-90831747D01*
X118801777Y-90848223D01*
X118818253Y-90866402D01*
X118832867Y-90886107D01*
X118845480Y-90907151D01*
X118855970Y-90929329D01*
X118864235Y-90952429D01*
X118870196Y-90976227D01*
X118873796Y-91000496D01*
X118875000Y-91025000D01*
X118875000Y-91950000D01*
X118873796Y-91974504D01*
X118870196Y-91998773D01*
X118864235Y-92022571D01*
X118855970Y-92045671D01*
X118845480Y-92067849D01*
X118832867Y-92088893D01*
X118818253Y-92108598D01*
X118801777Y-92126777D01*
X118783598Y-92143253D01*
X118763893Y-92157867D01*
X118742849Y-92170480D01*
X118720671Y-92180970D01*
X118697571Y-92189235D01*
X118673773Y-92195196D01*
X118649504Y-92198796D01*
X118625000Y-92200000D01*
X117375000Y-92200000D01*
X117350496Y-92198796D01*
X117326227Y-92195196D01*
X117302429Y-92189235D01*
X117279329Y-92180970D01*
X117257151Y-92170480D01*
X117236107Y-92157867D01*
X117216402Y-92143253D01*
X117198223Y-92126777D01*
X117181747Y-92108598D01*
X117167133Y-92088893D01*
X117154520Y-92067849D01*
X117144030Y-92045671D01*
X117135765Y-92022571D01*
X117129804Y-91998773D01*
X117126204Y-91974504D01*
X117125000Y-91950000D01*
X117125000Y-91025000D01*
X117126204Y-91000496D01*
X117129804Y-90976227D01*
X117135765Y-90952429D01*
X117144030Y-90929329D01*
X117154520Y-90907151D01*
X117167133Y-90886107D01*
X117181747Y-90866402D01*
X117198223Y-90848223D01*
X117216402Y-90831747D01*
X117236107Y-90817133D01*
X117257151Y-90804520D01*
X117279329Y-90794030D01*
X117302429Y-90785765D01*
X117326227Y-90779804D01*
X117350496Y-90776204D01*
X117375000Y-90775000D01*
X118625000Y-90775000D01*
X118649504Y-90776204D01*
G37*
G04 #@! TD.AperFunction*
G04 #@! TA.AperFunction,SMDPad,CuDef*
G36*
X128649504Y-87801204D02*
G01*
X128673773Y-87804804D01*
X128697571Y-87810765D01*
X128720671Y-87819030D01*
X128742849Y-87829520D01*
X128763893Y-87842133D01*
X128783598Y-87856747D01*
X128801777Y-87873223D01*
X128818253Y-87891402D01*
X128832867Y-87911107D01*
X128845480Y-87932151D01*
X128855970Y-87954329D01*
X128864235Y-87977429D01*
X128870196Y-88001227D01*
X128873796Y-88025496D01*
X128875000Y-88050000D01*
X128875000Y-88975000D01*
X128873796Y-88999504D01*
X128870196Y-89023773D01*
X128864235Y-89047571D01*
X128855970Y-89070671D01*
X128845480Y-89092849D01*
X128832867Y-89113893D01*
X128818253Y-89133598D01*
X128801777Y-89151777D01*
X128783598Y-89168253D01*
X128763893Y-89182867D01*
X128742849Y-89195480D01*
X128720671Y-89205970D01*
X128697571Y-89214235D01*
X128673773Y-89220196D01*
X128649504Y-89223796D01*
X128625000Y-89225000D01*
X127375000Y-89225000D01*
X127350496Y-89223796D01*
X127326227Y-89220196D01*
X127302429Y-89214235D01*
X127279329Y-89205970D01*
X127257151Y-89195480D01*
X127236107Y-89182867D01*
X127216402Y-89168253D01*
X127198223Y-89151777D01*
X127181747Y-89133598D01*
X127167133Y-89113893D01*
X127154520Y-89092849D01*
X127144030Y-89070671D01*
X127135765Y-89047571D01*
X127129804Y-89023773D01*
X127126204Y-88999504D01*
X127125000Y-88975000D01*
X127125000Y-88050000D01*
X127126204Y-88025496D01*
X127129804Y-88001227D01*
X127135765Y-87977429D01*
X127144030Y-87954329D01*
X127154520Y-87932151D01*
X127167133Y-87911107D01*
X127181747Y-87891402D01*
X127198223Y-87873223D01*
X127216402Y-87856747D01*
X127236107Y-87842133D01*
X127257151Y-87829520D01*
X127279329Y-87819030D01*
X127302429Y-87810765D01*
X127326227Y-87804804D01*
X127350496Y-87801204D01*
X127375000Y-87800000D01*
X128625000Y-87800000D01*
X128649504Y-87801204D01*
G37*
G04 #@! TD.AperFunction*
G04 #@! TA.AperFunction,SMDPad,CuDef*
G36*
X128649504Y-90776204D02*
G01*
X128673773Y-90779804D01*
X128697571Y-90785765D01*
X128720671Y-90794030D01*
X128742849Y-90804520D01*
X128763893Y-90817133D01*
X128783598Y-90831747D01*
X128801777Y-90848223D01*
X128818253Y-90866402D01*
X128832867Y-90886107D01*
X128845480Y-90907151D01*
X128855970Y-90929329D01*
X128864235Y-90952429D01*
X128870196Y-90976227D01*
X128873796Y-91000496D01*
X128875000Y-91025000D01*
X128875000Y-91950000D01*
X128873796Y-91974504D01*
X128870196Y-91998773D01*
X128864235Y-92022571D01*
X128855970Y-92045671D01*
X128845480Y-92067849D01*
X128832867Y-92088893D01*
X128818253Y-92108598D01*
X128801777Y-92126777D01*
X128783598Y-92143253D01*
X128763893Y-92157867D01*
X128742849Y-92170480D01*
X128720671Y-92180970D01*
X128697571Y-92189235D01*
X128673773Y-92195196D01*
X128649504Y-92198796D01*
X128625000Y-92200000D01*
X127375000Y-92200000D01*
X127350496Y-92198796D01*
X127326227Y-92195196D01*
X127302429Y-92189235D01*
X127279329Y-92180970D01*
X127257151Y-92170480D01*
X127236107Y-92157867D01*
X127216402Y-92143253D01*
X127198223Y-92126777D01*
X127181747Y-92108598D01*
X127167133Y-92088893D01*
X127154520Y-92067849D01*
X127144030Y-92045671D01*
X127135765Y-92022571D01*
X127129804Y-91998773D01*
X127126204Y-91974504D01*
X127125000Y-91950000D01*
X127125000Y-91025000D01*
X127126204Y-91000496D01*
X127129804Y-90976227D01*
X127135765Y-90952429D01*
X127144030Y-90929329D01*
X127154520Y-90907151D01*
X127167133Y-90886107D01*
X127181747Y-90866402D01*
X127198223Y-90848223D01*
X127216402Y-90831747D01*
X127236107Y-90817133D01*
X127257151Y-90804520D01*
X127279329Y-90794030D01*
X127302429Y-90785765D01*
X127326227Y-90779804D01*
X127350496Y-90776204D01*
X127375000Y-90775000D01*
X128625000Y-90775000D01*
X128649504Y-90776204D01*
G37*
G04 #@! TD.AperFunction*
G04 #@! TA.AperFunction,SMDPad,CuDef*
G36*
X138649504Y-87801204D02*
G01*
X138673773Y-87804804D01*
X138697571Y-87810765D01*
X138720671Y-87819030D01*
X138742849Y-87829520D01*
X138763893Y-87842133D01*
X138783598Y-87856747D01*
X138801777Y-87873223D01*
X138818253Y-87891402D01*
X138832867Y-87911107D01*
X138845480Y-87932151D01*
X138855970Y-87954329D01*
X138864235Y-87977429D01*
X138870196Y-88001227D01*
X138873796Y-88025496D01*
X138875000Y-88050000D01*
X138875000Y-88975000D01*
X138873796Y-88999504D01*
X138870196Y-89023773D01*
X138864235Y-89047571D01*
X138855970Y-89070671D01*
X138845480Y-89092849D01*
X138832867Y-89113893D01*
X138818253Y-89133598D01*
X138801777Y-89151777D01*
X138783598Y-89168253D01*
X138763893Y-89182867D01*
X138742849Y-89195480D01*
X138720671Y-89205970D01*
X138697571Y-89214235D01*
X138673773Y-89220196D01*
X138649504Y-89223796D01*
X138625000Y-89225000D01*
X137375000Y-89225000D01*
X137350496Y-89223796D01*
X137326227Y-89220196D01*
X137302429Y-89214235D01*
X137279329Y-89205970D01*
X137257151Y-89195480D01*
X137236107Y-89182867D01*
X137216402Y-89168253D01*
X137198223Y-89151777D01*
X137181747Y-89133598D01*
X137167133Y-89113893D01*
X137154520Y-89092849D01*
X137144030Y-89070671D01*
X137135765Y-89047571D01*
X137129804Y-89023773D01*
X137126204Y-88999504D01*
X137125000Y-88975000D01*
X137125000Y-88050000D01*
X137126204Y-88025496D01*
X137129804Y-88001227D01*
X137135765Y-87977429D01*
X137144030Y-87954329D01*
X137154520Y-87932151D01*
X137167133Y-87911107D01*
X137181747Y-87891402D01*
X137198223Y-87873223D01*
X137216402Y-87856747D01*
X137236107Y-87842133D01*
X137257151Y-87829520D01*
X137279329Y-87819030D01*
X137302429Y-87810765D01*
X137326227Y-87804804D01*
X137350496Y-87801204D01*
X137375000Y-87800000D01*
X138625000Y-87800000D01*
X138649504Y-87801204D01*
G37*
G04 #@! TD.AperFunction*
G04 #@! TA.AperFunction,SMDPad,CuDef*
G36*
X138649504Y-90776204D02*
G01*
X138673773Y-90779804D01*
X138697571Y-90785765D01*
X138720671Y-90794030D01*
X138742849Y-90804520D01*
X138763893Y-90817133D01*
X138783598Y-90831747D01*
X138801777Y-90848223D01*
X138818253Y-90866402D01*
X138832867Y-90886107D01*
X138845480Y-90907151D01*
X138855970Y-90929329D01*
X138864235Y-90952429D01*
X138870196Y-90976227D01*
X138873796Y-91000496D01*
X138875000Y-91025000D01*
X138875000Y-91950000D01*
X138873796Y-91974504D01*
X138870196Y-91998773D01*
X138864235Y-92022571D01*
X138855970Y-92045671D01*
X138845480Y-92067849D01*
X138832867Y-92088893D01*
X138818253Y-92108598D01*
X138801777Y-92126777D01*
X138783598Y-92143253D01*
X138763893Y-92157867D01*
X138742849Y-92170480D01*
X138720671Y-92180970D01*
X138697571Y-92189235D01*
X138673773Y-92195196D01*
X138649504Y-92198796D01*
X138625000Y-92200000D01*
X137375000Y-92200000D01*
X137350496Y-92198796D01*
X137326227Y-92195196D01*
X137302429Y-92189235D01*
X137279329Y-92180970D01*
X137257151Y-92170480D01*
X137236107Y-92157867D01*
X137216402Y-92143253D01*
X137198223Y-92126777D01*
X137181747Y-92108598D01*
X137167133Y-92088893D01*
X137154520Y-92067849D01*
X137144030Y-92045671D01*
X137135765Y-92022571D01*
X137129804Y-91998773D01*
X137126204Y-91974504D01*
X137125000Y-91950000D01*
X137125000Y-91025000D01*
X137126204Y-91000496D01*
X137129804Y-90976227D01*
X137135765Y-90952429D01*
X137144030Y-90929329D01*
X137154520Y-90907151D01*
X137167133Y-90886107D01*
X137181747Y-90866402D01*
X137198223Y-90848223D01*
X137216402Y-90831747D01*
X137236107Y-90817133D01*
X137257151Y-90804520D01*
X137279329Y-90794030D01*
X137302429Y-90785765D01*
X137326227Y-90779804D01*
X137350496Y-90776204D01*
X137375000Y-90775000D01*
X138625000Y-90775000D01*
X138649504Y-90776204D01*
G37*
G04 #@! TD.AperFunction*
G04 #@! TA.AperFunction,SMDPad,CuDef*
G36*
X148649504Y-87801204D02*
G01*
X148673773Y-87804804D01*
X148697571Y-87810765D01*
X148720671Y-87819030D01*
X148742849Y-87829520D01*
X148763893Y-87842133D01*
X148783598Y-87856747D01*
X148801777Y-87873223D01*
X148818253Y-87891402D01*
X148832867Y-87911107D01*
X148845480Y-87932151D01*
X148855970Y-87954329D01*
X148864235Y-87977429D01*
X148870196Y-88001227D01*
X148873796Y-88025496D01*
X148875000Y-88050000D01*
X148875000Y-88975000D01*
X148873796Y-88999504D01*
X148870196Y-89023773D01*
X148864235Y-89047571D01*
X148855970Y-89070671D01*
X148845480Y-89092849D01*
X148832867Y-89113893D01*
X148818253Y-89133598D01*
X148801777Y-89151777D01*
X148783598Y-89168253D01*
X148763893Y-89182867D01*
X148742849Y-89195480D01*
X148720671Y-89205970D01*
X148697571Y-89214235D01*
X148673773Y-89220196D01*
X148649504Y-89223796D01*
X148625000Y-89225000D01*
X147375000Y-89225000D01*
X147350496Y-89223796D01*
X147326227Y-89220196D01*
X147302429Y-89214235D01*
X147279329Y-89205970D01*
X147257151Y-89195480D01*
X147236107Y-89182867D01*
X147216402Y-89168253D01*
X147198223Y-89151777D01*
X147181747Y-89133598D01*
X147167133Y-89113893D01*
X147154520Y-89092849D01*
X147144030Y-89070671D01*
X147135765Y-89047571D01*
X147129804Y-89023773D01*
X147126204Y-88999504D01*
X147125000Y-88975000D01*
X147125000Y-88050000D01*
X147126204Y-88025496D01*
X147129804Y-88001227D01*
X147135765Y-87977429D01*
X147144030Y-87954329D01*
X147154520Y-87932151D01*
X147167133Y-87911107D01*
X147181747Y-87891402D01*
X147198223Y-87873223D01*
X147216402Y-87856747D01*
X147236107Y-87842133D01*
X147257151Y-87829520D01*
X147279329Y-87819030D01*
X147302429Y-87810765D01*
X147326227Y-87804804D01*
X147350496Y-87801204D01*
X147375000Y-87800000D01*
X148625000Y-87800000D01*
X148649504Y-87801204D01*
G37*
G04 #@! TD.AperFunction*
G04 #@! TA.AperFunction,SMDPad,CuDef*
G36*
X148649504Y-90776204D02*
G01*
X148673773Y-90779804D01*
X148697571Y-90785765D01*
X148720671Y-90794030D01*
X148742849Y-90804520D01*
X148763893Y-90817133D01*
X148783598Y-90831747D01*
X148801777Y-90848223D01*
X148818253Y-90866402D01*
X148832867Y-90886107D01*
X148845480Y-90907151D01*
X148855970Y-90929329D01*
X148864235Y-90952429D01*
X148870196Y-90976227D01*
X148873796Y-91000496D01*
X148875000Y-91025000D01*
X148875000Y-91950000D01*
X148873796Y-91974504D01*
X148870196Y-91998773D01*
X148864235Y-92022571D01*
X148855970Y-92045671D01*
X148845480Y-92067849D01*
X148832867Y-92088893D01*
X148818253Y-92108598D01*
X148801777Y-92126777D01*
X148783598Y-92143253D01*
X148763893Y-92157867D01*
X148742849Y-92170480D01*
X148720671Y-92180970D01*
X148697571Y-92189235D01*
X148673773Y-92195196D01*
X148649504Y-92198796D01*
X148625000Y-92200000D01*
X147375000Y-92200000D01*
X147350496Y-92198796D01*
X147326227Y-92195196D01*
X147302429Y-92189235D01*
X147279329Y-92180970D01*
X147257151Y-92170480D01*
X147236107Y-92157867D01*
X147216402Y-92143253D01*
X147198223Y-92126777D01*
X147181747Y-92108598D01*
X147167133Y-92088893D01*
X147154520Y-92067849D01*
X147144030Y-92045671D01*
X147135765Y-92022571D01*
X147129804Y-91998773D01*
X147126204Y-91974504D01*
X147125000Y-91950000D01*
X147125000Y-91025000D01*
X147126204Y-91000496D01*
X147129804Y-90976227D01*
X147135765Y-90952429D01*
X147144030Y-90929329D01*
X147154520Y-90907151D01*
X147167133Y-90886107D01*
X147181747Y-90866402D01*
X147198223Y-90848223D01*
X147216402Y-90831747D01*
X147236107Y-90817133D01*
X147257151Y-90804520D01*
X147279329Y-90794030D01*
X147302429Y-90785765D01*
X147326227Y-90779804D01*
X147350496Y-90776204D01*
X147375000Y-90775000D01*
X148625000Y-90775000D01*
X148649504Y-90776204D01*
G37*
G04 #@! TD.AperFunction*
G04 #@! TA.AperFunction,SMDPad,CuDef*
G36*
X158649504Y-87801204D02*
G01*
X158673773Y-87804804D01*
X158697571Y-87810765D01*
X158720671Y-87819030D01*
X158742849Y-87829520D01*
X158763893Y-87842133D01*
X158783598Y-87856747D01*
X158801777Y-87873223D01*
X158818253Y-87891402D01*
X158832867Y-87911107D01*
X158845480Y-87932151D01*
X158855970Y-87954329D01*
X158864235Y-87977429D01*
X158870196Y-88001227D01*
X158873796Y-88025496D01*
X158875000Y-88050000D01*
X158875000Y-88975000D01*
X158873796Y-88999504D01*
X158870196Y-89023773D01*
X158864235Y-89047571D01*
X158855970Y-89070671D01*
X158845480Y-89092849D01*
X158832867Y-89113893D01*
X158818253Y-89133598D01*
X158801777Y-89151777D01*
X158783598Y-89168253D01*
X158763893Y-89182867D01*
X158742849Y-89195480D01*
X158720671Y-89205970D01*
X158697571Y-89214235D01*
X158673773Y-89220196D01*
X158649504Y-89223796D01*
X158625000Y-89225000D01*
X157375000Y-89225000D01*
X157350496Y-89223796D01*
X157326227Y-89220196D01*
X157302429Y-89214235D01*
X157279329Y-89205970D01*
X157257151Y-89195480D01*
X157236107Y-89182867D01*
X157216402Y-89168253D01*
X157198223Y-89151777D01*
X157181747Y-89133598D01*
X157167133Y-89113893D01*
X157154520Y-89092849D01*
X157144030Y-89070671D01*
X157135765Y-89047571D01*
X157129804Y-89023773D01*
X157126204Y-88999504D01*
X157125000Y-88975000D01*
X157125000Y-88050000D01*
X157126204Y-88025496D01*
X157129804Y-88001227D01*
X157135765Y-87977429D01*
X157144030Y-87954329D01*
X157154520Y-87932151D01*
X157167133Y-87911107D01*
X157181747Y-87891402D01*
X157198223Y-87873223D01*
X157216402Y-87856747D01*
X157236107Y-87842133D01*
X157257151Y-87829520D01*
X157279329Y-87819030D01*
X157302429Y-87810765D01*
X157326227Y-87804804D01*
X157350496Y-87801204D01*
X157375000Y-87800000D01*
X158625000Y-87800000D01*
X158649504Y-87801204D01*
G37*
G04 #@! TD.AperFunction*
G04 #@! TA.AperFunction,SMDPad,CuDef*
G36*
X158649504Y-90776204D02*
G01*
X158673773Y-90779804D01*
X158697571Y-90785765D01*
X158720671Y-90794030D01*
X158742849Y-90804520D01*
X158763893Y-90817133D01*
X158783598Y-90831747D01*
X158801777Y-90848223D01*
X158818253Y-90866402D01*
X158832867Y-90886107D01*
X158845480Y-90907151D01*
X158855970Y-90929329D01*
X158864235Y-90952429D01*
X158870196Y-90976227D01*
X158873796Y-91000496D01*
X158875000Y-91025000D01*
X158875000Y-91950000D01*
X158873796Y-91974504D01*
X158870196Y-91998773D01*
X158864235Y-92022571D01*
X158855970Y-92045671D01*
X158845480Y-92067849D01*
X158832867Y-92088893D01*
X158818253Y-92108598D01*
X158801777Y-92126777D01*
X158783598Y-92143253D01*
X158763893Y-92157867D01*
X158742849Y-92170480D01*
X158720671Y-92180970D01*
X158697571Y-92189235D01*
X158673773Y-92195196D01*
X158649504Y-92198796D01*
X158625000Y-92200000D01*
X157375000Y-92200000D01*
X157350496Y-92198796D01*
X157326227Y-92195196D01*
X157302429Y-92189235D01*
X157279329Y-92180970D01*
X157257151Y-92170480D01*
X157236107Y-92157867D01*
X157216402Y-92143253D01*
X157198223Y-92126777D01*
X157181747Y-92108598D01*
X157167133Y-92088893D01*
X157154520Y-92067849D01*
X157144030Y-92045671D01*
X157135765Y-92022571D01*
X157129804Y-91998773D01*
X157126204Y-91974504D01*
X157125000Y-91950000D01*
X157125000Y-91025000D01*
X157126204Y-91000496D01*
X157129804Y-90976227D01*
X157135765Y-90952429D01*
X157144030Y-90929329D01*
X157154520Y-90907151D01*
X157167133Y-90886107D01*
X157181747Y-90866402D01*
X157198223Y-90848223D01*
X157216402Y-90831747D01*
X157236107Y-90817133D01*
X157257151Y-90804520D01*
X157279329Y-90794030D01*
X157302429Y-90785765D01*
X157326227Y-90779804D01*
X157350496Y-90776204D01*
X157375000Y-90775000D01*
X158625000Y-90775000D01*
X158649504Y-90776204D01*
G37*
G04 #@! TD.AperFunction*
G04 #@! TA.AperFunction,SMDPad,CuDef*
G36*
X100650000Y-92975000D02*
G01*
X100650000Y-91425000D01*
X100900000Y-91425000D01*
X100900000Y-88350000D01*
X105100000Y-88350000D01*
X105100000Y-91425000D01*
X105350000Y-91425000D01*
X105350000Y-92975000D01*
X100650000Y-92975000D01*
G37*
G04 #@! TD.AperFunction*
D16*
X104910000Y-86730000D03*
X103640000Y-86730000D03*
X101090000Y-86730000D03*
X102360000Y-86730000D03*
G04 #@! TA.AperFunction,SMDPad,CuDef*
D15*
G36*
X110650000Y-92975000D02*
G01*
X110650000Y-91425000D01*
X110900000Y-91425000D01*
X110900000Y-88350000D01*
X115100000Y-88350000D01*
X115100000Y-91425000D01*
X115350000Y-91425000D01*
X115350000Y-92975000D01*
X110650000Y-92975000D01*
G37*
G04 #@! TD.AperFunction*
D16*
X114910000Y-86730000D03*
X113640000Y-86730000D03*
X111090000Y-86730000D03*
X112360000Y-86730000D03*
G04 #@! TA.AperFunction,SMDPad,CuDef*
D15*
G36*
X120650000Y-92975000D02*
G01*
X120650000Y-91425000D01*
X120900000Y-91425000D01*
X120900000Y-88350000D01*
X125100000Y-88350000D01*
X125100000Y-91425000D01*
X125350000Y-91425000D01*
X125350000Y-92975000D01*
X120650000Y-92975000D01*
G37*
G04 #@! TD.AperFunction*
D16*
X124910000Y-86730000D03*
X123640000Y-86730000D03*
X121090000Y-86730000D03*
X122360000Y-86730000D03*
G04 #@! TA.AperFunction,SMDPad,CuDef*
D15*
G36*
X130650000Y-92975000D02*
G01*
X130650000Y-91425000D01*
X130900000Y-91425000D01*
X130900000Y-88350000D01*
X135100000Y-88350000D01*
X135100000Y-91425000D01*
X135350000Y-91425000D01*
X135350000Y-92975000D01*
X130650000Y-92975000D01*
G37*
G04 #@! TD.AperFunction*
D16*
X134910000Y-86730000D03*
X133640000Y-86730000D03*
X131090000Y-86730000D03*
X132360000Y-86730000D03*
G04 #@! TA.AperFunction,SMDPad,CuDef*
D15*
G36*
X140650000Y-92975000D02*
G01*
X140650000Y-91425000D01*
X140900000Y-91425000D01*
X140900000Y-88350000D01*
X145100000Y-88350000D01*
X145100000Y-91425000D01*
X145350000Y-91425000D01*
X145350000Y-92975000D01*
X140650000Y-92975000D01*
G37*
G04 #@! TD.AperFunction*
D16*
X144910000Y-86730000D03*
X143640000Y-86730000D03*
X141090000Y-86730000D03*
X142360000Y-86730000D03*
G04 #@! TA.AperFunction,SMDPad,CuDef*
D15*
G36*
X150650000Y-92975000D02*
G01*
X150650000Y-91425000D01*
X150900000Y-91425000D01*
X150900000Y-88350000D01*
X155100000Y-88350000D01*
X155100000Y-91425000D01*
X155350000Y-91425000D01*
X155350000Y-92975000D01*
X150650000Y-92975000D01*
G37*
G04 #@! TD.AperFunction*
D16*
X154910000Y-86730000D03*
X153640000Y-86730000D03*
X151090000Y-86730000D03*
X152360000Y-86730000D03*
D17*
X132600000Y-103000000D03*
X105000000Y-105600000D03*
X144800000Y-104600000D03*
X146900000Y-109500000D03*
X150800000Y-107800000D03*
X156800000Y-108662500D03*
X169000000Y-109000000D03*
X110400000Y-79000000D03*
X96800000Y-82800000D03*
X130200000Y-79200000D03*
X159800000Y-78600000D03*
X160800000Y-88400000D03*
X145800000Y-107200000D03*
X143000000Y-107000000D03*
X145600000Y-108400000D03*
X121600000Y-105400000D03*
X125000000Y-109000000D03*
X156400000Y-92800000D03*
X146400000Y-86800000D03*
X138000000Y-86800000D03*
X129600000Y-88000000D03*
X127800000Y-86200000D03*
X118000000Y-86200000D03*
X109400000Y-86200000D03*
X115400000Y-102800000D03*
X97200000Y-105800000D03*
X98400000Y-84600000D03*
D18*
X132600000Y-103000000D02*
X132600000Y-100200000D01*
D19*
X168000000Y-100000000D02*
X132800000Y-100000000D01*
D18*
X132600000Y-100200000D02*
X132800000Y-100000000D01*
D19*
X132800000Y-100000000D02*
X98000000Y-100000000D01*
D20*
X102360000Y-86730000D02*
X102360000Y-84160000D01*
X101160000Y-86730000D02*
X101160000Y-84160000D01*
X103560000Y-86800000D02*
X103560000Y-84230000D01*
X112360000Y-86730000D02*
X112360000Y-84160000D01*
X111160000Y-86730000D02*
X111160000Y-84160000D01*
X113560000Y-86800000D02*
X113560000Y-84230000D01*
X122360000Y-86730000D02*
X122360000Y-84160000D01*
X121160000Y-86730000D02*
X121160000Y-84160000D01*
X123560000Y-86800000D02*
X123560000Y-84230000D01*
X132360000Y-86730000D02*
X132360000Y-84160000D01*
X131160000Y-86730000D02*
X131160000Y-84160000D01*
X133560000Y-86800000D02*
X133560000Y-84230000D01*
X152360000Y-86730000D02*
X152360000Y-84160000D01*
X151160000Y-86730000D02*
X151160000Y-84160000D01*
X153560000Y-86800000D02*
X153560000Y-84230000D01*
X143560000Y-86800000D02*
X143560000Y-84230000D01*
X142360000Y-86730000D02*
X142360000Y-84160000D01*
X141160000Y-86730000D02*
X141160000Y-84160000D01*
D19*
X167000000Y-83200000D02*
X101400000Y-83200000D01*
D18*
X102360000Y-84160000D02*
X101400000Y-83200000D01*
D21*
X143318198Y-107000000D02*
X144718198Y-108400000D01*
X143000000Y-107000000D02*
X143318198Y-107000000D01*
X144718198Y-108400000D02*
X145600000Y-108400000D01*
X145600000Y-108400000D02*
X145600000Y-108400000D01*
D18*
X121918198Y-105400000D02*
X125000000Y-108481802D01*
X121600000Y-105400000D02*
X121918198Y-105400000D01*
X125000000Y-108481802D02*
X125000000Y-109000000D01*
X125000000Y-109000000D02*
X125000000Y-109000000D01*
D19*
X153000000Y-92600001D02*
X153000000Y-94200000D01*
X143000000Y-92400001D02*
X143000000Y-94000000D01*
X133000000Y-92400001D02*
X133000000Y-94000000D01*
X123000000Y-92400001D02*
X123000000Y-94000000D01*
X113000000Y-92600001D02*
X113000000Y-94200000D01*
X155000000Y-95400000D02*
X98000000Y-95400000D01*
X103000000Y-92400001D02*
X103000000Y-94000000D01*
D21*
X155641000Y-86730000D02*
X154910000Y-86730000D01*
X156734490Y-91096990D02*
X156734490Y-87823490D01*
X157125000Y-91487500D02*
X156734490Y-91096990D01*
X156734490Y-87823490D02*
X155641000Y-86730000D01*
X158000000Y-91487500D02*
X157125000Y-91487500D01*
X148000000Y-90697734D02*
X145800000Y-88497734D01*
X148000000Y-91487500D02*
X148000000Y-90697734D01*
X144910000Y-86955000D02*
X144910000Y-86730000D01*
X145800000Y-87845000D02*
X144910000Y-86955000D01*
X145800000Y-88497734D02*
X145800000Y-87845000D01*
X136734490Y-87823490D02*
X135641000Y-86730000D01*
X136734490Y-91096990D02*
X136734490Y-87823490D01*
X135641000Y-86730000D02*
X134910000Y-86730000D01*
X137125000Y-91487500D02*
X136734490Y-91096990D01*
X138000000Y-91487500D02*
X137125000Y-91487500D01*
X128000000Y-90697734D02*
X126600000Y-89297734D01*
X128000000Y-91487500D02*
X128000000Y-90697734D01*
X125641000Y-86730000D02*
X124910000Y-86730000D01*
X126600000Y-87689000D02*
X125641000Y-86730000D01*
X126600000Y-89297734D02*
X126600000Y-87689000D01*
X116734490Y-87823490D02*
X115641000Y-86730000D01*
X116734490Y-91096990D02*
X116734490Y-87823490D01*
X115641000Y-86730000D02*
X114910000Y-86730000D01*
X117125000Y-91487500D02*
X116734490Y-91096990D01*
X118000000Y-91487500D02*
X117125000Y-91487500D01*
X106734490Y-87823490D02*
X105641000Y-86730000D01*
X105641000Y-86730000D02*
X104910000Y-86730000D01*
X107125000Y-91487500D02*
X106734490Y-91096990D01*
X106734490Y-91096990D02*
X106734490Y-87823490D01*
X108000000Y-91487500D02*
X107125000Y-91487500D01*
X109400000Y-87112500D02*
X108000000Y-88512500D01*
X109400000Y-86200000D02*
X109400000Y-87112500D01*
X118000000Y-86200000D02*
X118000000Y-88512500D01*
X127800000Y-88312500D02*
X128000000Y-88512500D01*
X127800000Y-86200000D02*
X127800000Y-88312500D01*
X129087500Y-88512500D02*
X129600000Y-88000000D01*
X128000000Y-88512500D02*
X129087500Y-88512500D01*
X138000000Y-86800000D02*
X138000000Y-88512500D01*
X146400000Y-86912500D02*
X148000000Y-88512500D01*
X146400000Y-86800000D02*
X146400000Y-86912500D01*
X158875000Y-88512500D02*
X158000000Y-88512500D01*
X159265510Y-88903010D02*
X158875000Y-88512500D01*
X159265510Y-92215310D02*
X159265510Y-88903010D01*
X158680820Y-92800000D02*
X159265510Y-92215310D01*
X156400000Y-92800000D02*
X158680820Y-92800000D01*
D18*
X98500000Y-84700000D02*
X98400000Y-84600000D01*
X98500000Y-86512500D02*
X98500000Y-84700000D01*
X97765685Y-105800000D02*
X100765685Y-102800000D01*
X97200000Y-105800000D02*
X97765685Y-105800000D01*
X100765685Y-102800000D02*
X115400000Y-102800000D01*
D22*
G36*
X97498216Y-104992668D02*
G01*
X97450853Y-104973049D01*
X97284703Y-104940000D01*
X97115297Y-104940000D01*
X96949147Y-104973049D01*
X96792637Y-105037878D01*
X96651782Y-105131995D01*
X96531995Y-105251782D01*
X96437878Y-105392637D01*
X96373049Y-105549147D01*
X96340000Y-105715297D01*
X96340000Y-105884703D01*
X96373049Y-106050853D01*
X96437878Y-106207363D01*
X96531995Y-106348218D01*
X96651782Y-106468005D01*
X96792637Y-106562122D01*
X96949147Y-106626951D01*
X97115297Y-106660000D01*
X97284703Y-106660000D01*
X97450853Y-106626951D01*
X97607363Y-106562122D01*
X97610539Y-106560000D01*
X97728363Y-106560000D01*
X97765685Y-106563676D01*
X97803007Y-106560000D01*
X97803018Y-106560000D01*
X97914671Y-106549003D01*
X98057932Y-106505546D01*
X98189961Y-106434974D01*
X98305686Y-106340001D01*
X98329489Y-106310997D01*
X99325189Y-105315297D01*
X120740000Y-105315297D01*
X120740000Y-105484703D01*
X120773049Y-105650853D01*
X120837878Y-105807363D01*
X120931995Y-105948218D01*
X121051782Y-106068005D01*
X121192637Y-106162122D01*
X121349147Y-106226951D01*
X121515297Y-106260000D01*
X121684703Y-106260000D01*
X121700295Y-106256899D01*
X124178759Y-108735363D01*
X124173049Y-108749147D01*
X124140000Y-108915297D01*
X124140000Y-109084703D01*
X124173049Y-109250853D01*
X124237878Y-109407363D01*
X124331995Y-109548218D01*
X124451782Y-109668005D01*
X124592637Y-109762122D01*
X124749147Y-109826951D01*
X124915297Y-109860000D01*
X125084703Y-109860000D01*
X125250853Y-109826951D01*
X125407363Y-109762122D01*
X125548218Y-109668005D01*
X125668005Y-109548218D01*
X125762122Y-109407363D01*
X125826951Y-109250853D01*
X125860000Y-109084703D01*
X125860000Y-108915297D01*
X125826951Y-108749147D01*
X125762122Y-108592637D01*
X125760000Y-108589461D01*
X125760000Y-108519124D01*
X125763676Y-108481801D01*
X125760000Y-108444478D01*
X125760000Y-108444469D01*
X125749003Y-108332816D01*
X125705546Y-108189555D01*
X125634974Y-108057526D01*
X125540001Y-107941801D01*
X125511004Y-107918004D01*
X123943000Y-106350000D01*
X134111928Y-106350000D01*
X134111928Y-108050000D01*
X134124188Y-108174482D01*
X134160498Y-108294180D01*
X134219463Y-108404494D01*
X134298815Y-108501185D01*
X134395506Y-108580537D01*
X134505820Y-108639502D01*
X134625518Y-108675812D01*
X134750000Y-108688072D01*
X136450000Y-108688072D01*
X136574482Y-108675812D01*
X136694180Y-108639502D01*
X136804494Y-108580537D01*
X136901185Y-108501185D01*
X136980537Y-108404494D01*
X137039502Y-108294180D01*
X137063966Y-108213534D01*
X137139731Y-108297588D01*
X137373080Y-108471641D01*
X137635901Y-108596825D01*
X137783110Y-108641476D01*
X138013000Y-108520155D01*
X138013000Y-107327000D01*
X137993000Y-107327000D01*
X137993000Y-107073000D01*
X138013000Y-107073000D01*
X138013000Y-105879845D01*
X138267000Y-105879845D01*
X138267000Y-107073000D01*
X138287000Y-107073000D01*
X138287000Y-107327000D01*
X138267000Y-107327000D01*
X138267000Y-108520155D01*
X138496890Y-108641476D01*
X138644099Y-108596825D01*
X138906920Y-108471641D01*
X139140269Y-108297588D01*
X139335178Y-108081355D01*
X139404805Y-107964466D01*
X139526525Y-108146632D01*
X139733368Y-108353475D01*
X139976589Y-108515990D01*
X140246842Y-108627932D01*
X140533740Y-108685000D01*
X140826260Y-108685000D01*
X141113158Y-108627932D01*
X141383411Y-108515990D01*
X141626632Y-108353475D01*
X141833475Y-108146632D01*
X141995990Y-107903411D01*
X142107932Y-107633158D01*
X142165000Y-107346260D01*
X142165000Y-107210388D01*
X142173049Y-107250853D01*
X142237878Y-107407363D01*
X142331995Y-107548218D01*
X142451782Y-107668005D01*
X142592637Y-107762122D01*
X142749147Y-107826951D01*
X142915297Y-107860000D01*
X143010766Y-107860000D01*
X144105804Y-108955039D01*
X144131657Y-108986541D01*
X144174624Y-109021803D01*
X144257355Y-109089699D01*
X144332231Y-109129721D01*
X144400764Y-109166353D01*
X144556372Y-109213556D01*
X144677645Y-109225500D01*
X144677647Y-109225500D01*
X144718198Y-109229494D01*
X144758748Y-109225500D01*
X145345644Y-109225500D01*
X145349147Y-109226951D01*
X145515297Y-109260000D01*
X145684703Y-109260000D01*
X145850853Y-109226951D01*
X146007363Y-109162122D01*
X146148218Y-109068005D01*
X146268005Y-108948218D01*
X146362122Y-108807363D01*
X146426951Y-108650853D01*
X146460000Y-108484703D01*
X146460000Y-108315297D01*
X146426951Y-108149147D01*
X146362122Y-107992637D01*
X146268005Y-107851782D01*
X146148218Y-107731995D01*
X146007363Y-107637878D01*
X145850853Y-107573049D01*
X145684703Y-107540000D01*
X145515297Y-107540000D01*
X145349147Y-107573049D01*
X145345644Y-107574500D01*
X145060131Y-107574500D01*
X143930596Y-106444966D01*
X143904739Y-106413459D01*
X143779040Y-106310301D01*
X143635632Y-106233647D01*
X143480024Y-106186444D01*
X143358751Y-106174500D01*
X143358748Y-106174500D01*
X143318198Y-106170506D01*
X143277648Y-106174500D01*
X143254356Y-106174500D01*
X143250853Y-106173049D01*
X143084703Y-106140000D01*
X142915297Y-106140000D01*
X142749147Y-106173049D01*
X142592637Y-106237878D01*
X142451782Y-106331995D01*
X142331995Y-106451782D01*
X142237878Y-106592637D01*
X142173049Y-106749147D01*
X142140000Y-106915297D01*
X142140000Y-106928057D01*
X142107932Y-106766842D01*
X141995990Y-106496589D01*
X141833475Y-106253368D01*
X141626632Y-106046525D01*
X141383411Y-105884010D01*
X141113158Y-105772068D01*
X140826260Y-105715000D01*
X140533740Y-105715000D01*
X140246842Y-105772068D01*
X139976589Y-105884010D01*
X139733368Y-106046525D01*
X139526525Y-106253368D01*
X139404805Y-106435534D01*
X139335178Y-106318645D01*
X139140269Y-106102412D01*
X138906920Y-105928359D01*
X138644099Y-105803175D01*
X138496890Y-105758524D01*
X138267000Y-105879845D01*
X138013000Y-105879845D01*
X137783110Y-105758524D01*
X137635901Y-105803175D01*
X137373080Y-105928359D01*
X137139731Y-106102412D01*
X137063966Y-106186466D01*
X137039502Y-106105820D01*
X136980537Y-105995506D01*
X136901185Y-105898815D01*
X136804494Y-105819463D01*
X136694180Y-105760498D01*
X136574482Y-105724188D01*
X136450000Y-105711928D01*
X134750000Y-105711928D01*
X134625518Y-105724188D01*
X134505820Y-105760498D01*
X134395506Y-105819463D01*
X134298815Y-105898815D01*
X134219463Y-105995506D01*
X134160498Y-106105820D01*
X134124188Y-106225518D01*
X134111928Y-106350000D01*
X123943000Y-106350000D01*
X122482002Y-104889003D01*
X122458199Y-104859999D01*
X122342474Y-104765026D01*
X122210445Y-104694454D01*
X122067184Y-104650997D01*
X122020049Y-104646355D01*
X122007363Y-104637878D01*
X121850853Y-104573049D01*
X121684703Y-104540000D01*
X121515297Y-104540000D01*
X121349147Y-104573049D01*
X121192637Y-104637878D01*
X121051782Y-104731995D01*
X120931995Y-104851782D01*
X120837878Y-104992637D01*
X120773049Y-105149147D01*
X120740000Y-105315297D01*
X99325189Y-105315297D01*
X100513487Y-104127000D01*
X174340001Y-104127000D01*
X174340001Y-111340000D01*
X95660000Y-111340000D01*
X95660000Y-107765098D01*
X110815000Y-107765098D01*
X110815000Y-108234902D01*
X110906654Y-108695679D01*
X111086440Y-109129721D01*
X111347450Y-109520349D01*
X111679651Y-109852550D01*
X112070279Y-110113560D01*
X112504321Y-110293346D01*
X112965098Y-110385000D01*
X113434902Y-110385000D01*
X113895679Y-110293346D01*
X114329721Y-110113560D01*
X114720349Y-109852550D01*
X115052550Y-109520349D01*
X115313560Y-109129721D01*
X115493346Y-108695679D01*
X115585000Y-108234902D01*
X115585000Y-107765098D01*
X115493346Y-107304321D01*
X115313560Y-106870279D01*
X115052550Y-106479651D01*
X114720349Y-106147450D01*
X114329721Y-105886440D01*
X113895679Y-105706654D01*
X113434902Y-105615000D01*
X112965098Y-105615000D01*
X112504321Y-105706654D01*
X112070279Y-105886440D01*
X111679651Y-106147450D01*
X111347450Y-106479651D01*
X111086440Y-106870279D01*
X110906654Y-107304321D01*
X110815000Y-107765098D01*
X95660000Y-107765098D01*
X95660000Y-104127000D01*
X98363884Y-104127000D01*
X97498216Y-104992668D01*
G37*
X97498216Y-104992668D02*
X97450853Y-104973049D01*
X97284703Y-104940000D01*
X97115297Y-104940000D01*
X96949147Y-104973049D01*
X96792637Y-105037878D01*
X96651782Y-105131995D01*
X96531995Y-105251782D01*
X96437878Y-105392637D01*
X96373049Y-105549147D01*
X96340000Y-105715297D01*
X96340000Y-105884703D01*
X96373049Y-106050853D01*
X96437878Y-106207363D01*
X96531995Y-106348218D01*
X96651782Y-106468005D01*
X96792637Y-106562122D01*
X96949147Y-106626951D01*
X97115297Y-106660000D01*
X97284703Y-106660000D01*
X97450853Y-106626951D01*
X97607363Y-106562122D01*
X97610539Y-106560000D01*
X97728363Y-106560000D01*
X97765685Y-106563676D01*
X97803007Y-106560000D01*
X97803018Y-106560000D01*
X97914671Y-106549003D01*
X98057932Y-106505546D01*
X98189961Y-106434974D01*
X98305686Y-106340001D01*
X98329489Y-106310997D01*
X99325189Y-105315297D01*
X120740000Y-105315297D01*
X120740000Y-105484703D01*
X120773049Y-105650853D01*
X120837878Y-105807363D01*
X120931995Y-105948218D01*
X121051782Y-106068005D01*
X121192637Y-106162122D01*
X121349147Y-106226951D01*
X121515297Y-106260000D01*
X121684703Y-106260000D01*
X121700295Y-106256899D01*
X124178759Y-108735363D01*
X124173049Y-108749147D01*
X124140000Y-108915297D01*
X124140000Y-109084703D01*
X124173049Y-109250853D01*
X124237878Y-109407363D01*
X124331995Y-109548218D01*
X124451782Y-109668005D01*
X124592637Y-109762122D01*
X124749147Y-109826951D01*
X124915297Y-109860000D01*
X125084703Y-109860000D01*
X125250853Y-109826951D01*
X125407363Y-109762122D01*
X125548218Y-109668005D01*
X125668005Y-109548218D01*
X125762122Y-109407363D01*
X125826951Y-109250853D01*
X125860000Y-109084703D01*
X125860000Y-108915297D01*
X125826951Y-108749147D01*
X125762122Y-108592637D01*
X125760000Y-108589461D01*
X125760000Y-108519124D01*
X125763676Y-108481801D01*
X125760000Y-108444478D01*
X125760000Y-108444469D01*
X125749003Y-108332816D01*
X125705546Y-108189555D01*
X125634974Y-108057526D01*
X125540001Y-107941801D01*
X125511004Y-107918004D01*
X123943000Y-106350000D01*
X134111928Y-106350000D01*
X134111928Y-108050000D01*
X134124188Y-108174482D01*
X134160498Y-108294180D01*
X134219463Y-108404494D01*
X134298815Y-108501185D01*
X134395506Y-108580537D01*
X134505820Y-108639502D01*
X134625518Y-108675812D01*
X134750000Y-108688072D01*
X136450000Y-108688072D01*
X136574482Y-108675812D01*
X136694180Y-108639502D01*
X136804494Y-108580537D01*
X136901185Y-108501185D01*
X136980537Y-108404494D01*
X137039502Y-108294180D01*
X137063966Y-108213534D01*
X137139731Y-108297588D01*
X137373080Y-108471641D01*
X137635901Y-108596825D01*
X137783110Y-108641476D01*
X138013000Y-108520155D01*
X138013000Y-107327000D01*
X137993000Y-107327000D01*
X137993000Y-107073000D01*
X138013000Y-107073000D01*
X138013000Y-105879845D01*
X138267000Y-105879845D01*
X138267000Y-107073000D01*
X138287000Y-107073000D01*
X138287000Y-107327000D01*
X138267000Y-107327000D01*
X138267000Y-108520155D01*
X138496890Y-108641476D01*
X138644099Y-108596825D01*
X138906920Y-108471641D01*
X139140269Y-108297588D01*
X139335178Y-108081355D01*
X139404805Y-107964466D01*
X139526525Y-108146632D01*
X139733368Y-108353475D01*
X139976589Y-108515990D01*
X140246842Y-108627932D01*
X140533740Y-108685000D01*
X140826260Y-108685000D01*
X141113158Y-108627932D01*
X141383411Y-108515990D01*
X141626632Y-108353475D01*
X141833475Y-108146632D01*
X141995990Y-107903411D01*
X142107932Y-107633158D01*
X142165000Y-107346260D01*
X142165000Y-107210388D01*
X142173049Y-107250853D01*
X142237878Y-107407363D01*
X142331995Y-107548218D01*
X142451782Y-107668005D01*
X142592637Y-107762122D01*
X142749147Y-107826951D01*
X142915297Y-107860000D01*
X143010766Y-107860000D01*
X144105804Y-108955039D01*
X144131657Y-108986541D01*
X144174624Y-109021803D01*
X144257355Y-109089699D01*
X144332231Y-109129721D01*
X144400764Y-109166353D01*
X144556372Y-109213556D01*
X144677645Y-109225500D01*
X144677647Y-109225500D01*
X144718198Y-109229494D01*
X144758748Y-109225500D01*
X145345644Y-109225500D01*
X145349147Y-109226951D01*
X145515297Y-109260000D01*
X145684703Y-109260000D01*
X145850853Y-109226951D01*
X146007363Y-109162122D01*
X146148218Y-109068005D01*
X146268005Y-108948218D01*
X146362122Y-108807363D01*
X146426951Y-108650853D01*
X146460000Y-108484703D01*
X146460000Y-108315297D01*
X146426951Y-108149147D01*
X146362122Y-107992637D01*
X146268005Y-107851782D01*
X146148218Y-107731995D01*
X146007363Y-107637878D01*
X145850853Y-107573049D01*
X145684703Y-107540000D01*
X145515297Y-107540000D01*
X145349147Y-107573049D01*
X145345644Y-107574500D01*
X145060131Y-107574500D01*
X143930596Y-106444966D01*
X143904739Y-106413459D01*
X143779040Y-106310301D01*
X143635632Y-106233647D01*
X143480024Y-106186444D01*
X143358751Y-106174500D01*
X143358748Y-106174500D01*
X143318198Y-106170506D01*
X143277648Y-106174500D01*
X143254356Y-106174500D01*
X143250853Y-106173049D01*
X143084703Y-106140000D01*
X142915297Y-106140000D01*
X142749147Y-106173049D01*
X142592637Y-106237878D01*
X142451782Y-106331995D01*
X142331995Y-106451782D01*
X142237878Y-106592637D01*
X142173049Y-106749147D01*
X142140000Y-106915297D01*
X142140000Y-106928057D01*
X142107932Y-106766842D01*
X141995990Y-106496589D01*
X141833475Y-106253368D01*
X141626632Y-106046525D01*
X141383411Y-105884010D01*
X141113158Y-105772068D01*
X140826260Y-105715000D01*
X140533740Y-105715000D01*
X140246842Y-105772068D01*
X139976589Y-105884010D01*
X139733368Y-106046525D01*
X139526525Y-106253368D01*
X139404805Y-106435534D01*
X139335178Y-106318645D01*
X139140269Y-106102412D01*
X138906920Y-105928359D01*
X138644099Y-105803175D01*
X138496890Y-105758524D01*
X138267000Y-105879845D01*
X138013000Y-105879845D01*
X137783110Y-105758524D01*
X137635901Y-105803175D01*
X137373080Y-105928359D01*
X137139731Y-106102412D01*
X137063966Y-106186466D01*
X137039502Y-106105820D01*
X136980537Y-105995506D01*
X136901185Y-105898815D01*
X136804494Y-105819463D01*
X136694180Y-105760498D01*
X136574482Y-105724188D01*
X136450000Y-105711928D01*
X134750000Y-105711928D01*
X134625518Y-105724188D01*
X134505820Y-105760498D01*
X134395506Y-105819463D01*
X134298815Y-105898815D01*
X134219463Y-105995506D01*
X134160498Y-106105820D01*
X134124188Y-106225518D01*
X134111928Y-106350000D01*
X123943000Y-106350000D01*
X122482002Y-104889003D01*
X122458199Y-104859999D01*
X122342474Y-104765026D01*
X122210445Y-104694454D01*
X122067184Y-104650997D01*
X122020049Y-104646355D01*
X122007363Y-104637878D01*
X121850853Y-104573049D01*
X121684703Y-104540000D01*
X121515297Y-104540000D01*
X121349147Y-104573049D01*
X121192637Y-104637878D01*
X121051782Y-104731995D01*
X120931995Y-104851782D01*
X120837878Y-104992637D01*
X120773049Y-105149147D01*
X120740000Y-105315297D01*
X99325189Y-105315297D01*
X100513487Y-104127000D01*
X174340001Y-104127000D01*
X174340001Y-111340000D01*
X95660000Y-111340000D01*
X95660000Y-107765098D01*
X110815000Y-107765098D01*
X110815000Y-108234902D01*
X110906654Y-108695679D01*
X111086440Y-109129721D01*
X111347450Y-109520349D01*
X111679651Y-109852550D01*
X112070279Y-110113560D01*
X112504321Y-110293346D01*
X112965098Y-110385000D01*
X113434902Y-110385000D01*
X113895679Y-110293346D01*
X114329721Y-110113560D01*
X114720349Y-109852550D01*
X115052550Y-109520349D01*
X115313560Y-109129721D01*
X115493346Y-108695679D01*
X115585000Y-108234902D01*
X115585000Y-107765098D01*
X115493346Y-107304321D01*
X115313560Y-106870279D01*
X115052550Y-106479651D01*
X114720349Y-106147450D01*
X114329721Y-105886440D01*
X113895679Y-105706654D01*
X113434902Y-105615000D01*
X112965098Y-105615000D01*
X112504321Y-105706654D01*
X112070279Y-105886440D01*
X111679651Y-106147450D01*
X111347450Y-106479651D01*
X111086440Y-106870279D01*
X110906654Y-107304321D01*
X110815000Y-107765098D01*
X95660000Y-107765098D01*
X95660000Y-104127000D01*
X98363884Y-104127000D01*
X97498216Y-104992668D01*
G36*
X174448001Y-104053249D02*
G01*
X173127000Y-103979860D01*
X173127000Y-94900000D01*
X173124560Y-94875224D01*
X173117333Y-94851399D01*
X173105597Y-94829443D01*
X173089803Y-94810197D01*
X173068375Y-94792978D01*
X169468375Y-92492978D01*
X169446183Y-92481695D01*
X169422215Y-92474958D01*
X169400000Y-92473000D01*
X166200000Y-92473000D01*
X166175224Y-92475440D01*
X166151399Y-92482667D01*
X166127170Y-92495958D01*
X163127170Y-94595958D01*
X163108272Y-94612165D01*
X163092899Y-94631748D01*
X163083946Y-94648420D01*
X161917466Y-97273000D01*
X160127000Y-97273000D01*
X160127000Y-86327000D01*
X169600000Y-86327000D01*
X169624776Y-86324560D01*
X169648601Y-86317333D01*
X169670557Y-86305597D01*
X169689803Y-86289803D01*
X169705597Y-86270557D01*
X169717333Y-86248601D01*
X169724560Y-86224776D01*
X169727000Y-86200000D01*
X169727000Y-80200000D01*
X169724560Y-80175224D01*
X169717333Y-80151399D01*
X169705597Y-80129443D01*
X169689803Y-80110197D01*
X169670557Y-80094403D01*
X169648601Y-80082667D01*
X169624776Y-80075440D01*
X169600000Y-80073000D01*
X100277000Y-80073000D01*
X100277000Y-79775735D01*
X100189496Y-79335824D01*
X100017851Y-78921436D01*
X99768661Y-78548497D01*
X99451503Y-78231339D01*
X99078564Y-77982149D01*
X98664176Y-77810504D01*
X98224265Y-77723000D01*
X97775735Y-77723000D01*
X97335824Y-77810504D01*
X96921436Y-77982149D01*
X96548497Y-78231339D01*
X96231339Y-78548497D01*
X95982149Y-78921436D01*
X95810504Y-79335824D01*
X95723000Y-79775735D01*
X95723000Y-80224265D01*
X95810504Y-80664176D01*
X95982149Y-81078564D01*
X96231339Y-81451503D01*
X96548497Y-81768661D01*
X96921436Y-82017851D01*
X97335824Y-82189496D01*
X97775735Y-82277000D01*
X98224265Y-82277000D01*
X98664176Y-82189496D01*
X98673000Y-82185841D01*
X98673000Y-83899121D01*
X98619350Y-83876899D01*
X98474066Y-83848000D01*
X98325934Y-83848000D01*
X98180650Y-83876899D01*
X98043794Y-83933586D01*
X97920628Y-84015883D01*
X97815883Y-84120628D01*
X97733586Y-84243794D01*
X97676899Y-84380650D01*
X97648000Y-84525934D01*
X97648000Y-84674066D01*
X97676899Y-84819350D01*
X97733586Y-84956206D01*
X97815883Y-85079372D01*
X97848001Y-85111490D01*
X97848001Y-85273110D01*
X97722918Y-85285430D01*
X97576680Y-85329791D01*
X97441906Y-85401829D01*
X97323776Y-85498776D01*
X97226829Y-85616906D01*
X97154791Y-85751680D01*
X97110430Y-85897918D01*
X97095451Y-86050000D01*
X97095451Y-86975000D01*
X97110430Y-87127082D01*
X97154791Y-87273320D01*
X97226829Y-87408094D01*
X97323776Y-87526224D01*
X97441906Y-87623171D01*
X97576680Y-87695209D01*
X97722918Y-87739570D01*
X97875000Y-87754549D01*
X98673000Y-87754549D01*
X98673000Y-92873000D01*
X95552000Y-92873000D01*
X95552000Y-77552000D01*
X174448000Y-77552000D01*
X174448001Y-104053249D01*
G37*
X174448001Y-104053249D02*
X173127000Y-103979860D01*
X173127000Y-94900000D01*
X173124560Y-94875224D01*
X173117333Y-94851399D01*
X173105597Y-94829443D01*
X173089803Y-94810197D01*
X173068375Y-94792978D01*
X169468375Y-92492978D01*
X169446183Y-92481695D01*
X169422215Y-92474958D01*
X169400000Y-92473000D01*
X166200000Y-92473000D01*
X166175224Y-92475440D01*
X166151399Y-92482667D01*
X166127170Y-92495958D01*
X163127170Y-94595958D01*
X163108272Y-94612165D01*
X163092899Y-94631748D01*
X163083946Y-94648420D01*
X161917466Y-97273000D01*
X160127000Y-97273000D01*
X160127000Y-86327000D01*
X169600000Y-86327000D01*
X169624776Y-86324560D01*
X169648601Y-86317333D01*
X169670557Y-86305597D01*
X169689803Y-86289803D01*
X169705597Y-86270557D01*
X169717333Y-86248601D01*
X169724560Y-86224776D01*
X169727000Y-86200000D01*
X169727000Y-80200000D01*
X169724560Y-80175224D01*
X169717333Y-80151399D01*
X169705597Y-80129443D01*
X169689803Y-80110197D01*
X169670557Y-80094403D01*
X169648601Y-80082667D01*
X169624776Y-80075440D01*
X169600000Y-80073000D01*
X100277000Y-80073000D01*
X100277000Y-79775735D01*
X100189496Y-79335824D01*
X100017851Y-78921436D01*
X99768661Y-78548497D01*
X99451503Y-78231339D01*
X99078564Y-77982149D01*
X98664176Y-77810504D01*
X98224265Y-77723000D01*
X97775735Y-77723000D01*
X97335824Y-77810504D01*
X96921436Y-77982149D01*
X96548497Y-78231339D01*
X96231339Y-78548497D01*
X95982149Y-78921436D01*
X95810504Y-79335824D01*
X95723000Y-79775735D01*
X95723000Y-80224265D01*
X95810504Y-80664176D01*
X95982149Y-81078564D01*
X96231339Y-81451503D01*
X96548497Y-81768661D01*
X96921436Y-82017851D01*
X97335824Y-82189496D01*
X97775735Y-82277000D01*
X98224265Y-82277000D01*
X98664176Y-82189496D01*
X98673000Y-82185841D01*
X98673000Y-83899121D01*
X98619350Y-83876899D01*
X98474066Y-83848000D01*
X98325934Y-83848000D01*
X98180650Y-83876899D01*
X98043794Y-83933586D01*
X97920628Y-84015883D01*
X97815883Y-84120628D01*
X97733586Y-84243794D01*
X97676899Y-84380650D01*
X97648000Y-84525934D01*
X97648000Y-84674066D01*
X97676899Y-84819350D01*
X97733586Y-84956206D01*
X97815883Y-85079372D01*
X97848001Y-85111490D01*
X97848001Y-85273110D01*
X97722918Y-85285430D01*
X97576680Y-85329791D01*
X97441906Y-85401829D01*
X97323776Y-85498776D01*
X97226829Y-85616906D01*
X97154791Y-85751680D01*
X97110430Y-85897918D01*
X97095451Y-86050000D01*
X97095451Y-86975000D01*
X97110430Y-87127082D01*
X97154791Y-87273320D01*
X97226829Y-87408094D01*
X97323776Y-87526224D01*
X97441906Y-87623171D01*
X97576680Y-87695209D01*
X97722918Y-87739570D01*
X97875000Y-87754549D01*
X98673000Y-87754549D01*
X98673000Y-92873000D01*
X95552000Y-92873000D01*
X95552000Y-77552000D01*
X174448000Y-77552000D01*
X174448001Y-104053249D01*
M02*
