G04 #@! TF.GenerationSoftware,KiCad,Pcbnew,(5.1.5)-3*
G04 #@! TF.CreationDate,2020-08-02T11:19:38+02:00*
G04 #@! TF.ProjectId,_Spot,b553706f-742e-46b6-9963-61645f706362,rev?*
G04 #@! TF.SameCoordinates,Original*
G04 #@! TF.FileFunction,Legend,Bot*
G04 #@! TF.FilePolarity,Positive*
%FSLAX46Y46*%
G04 Gerber Fmt 4.6, Leading zero omitted, Abs format (unit mm)*
G04 Created by KiCad (PCBNEW (5.1.5)-3) date 2020-08-02 11:19:38*
%MOMM*%
%LPD*%
G04 APERTURE LIST*
%ADD10C,0.120000*%
%ADD11C,0.150000*%
G04 APERTURE END LIST*
D10*
X97590000Y-88602064D02*
X97590000Y-87397936D01*
X99410000Y-88602064D02*
X99410000Y-87397936D01*
X107090000Y-90602064D02*
X107090000Y-89397936D01*
X108910000Y-90602064D02*
X108910000Y-89397936D01*
X117090000Y-90602064D02*
X117090000Y-89397936D01*
X118910000Y-90602064D02*
X118910000Y-89397936D01*
X127090000Y-90602064D02*
X127090000Y-89397936D01*
X128910000Y-90602064D02*
X128910000Y-89397936D01*
X137090000Y-90602064D02*
X137090000Y-89397936D01*
X138910000Y-90602064D02*
X138910000Y-89397936D01*
X147090000Y-90602064D02*
X147090000Y-89397936D01*
X148910000Y-90602064D02*
X148910000Y-89397936D01*
X157090000Y-90602064D02*
X157090000Y-89397936D01*
X158910000Y-90602064D02*
X158910000Y-89397936D01*
X100400000Y-87250000D02*
X100600000Y-87250000D01*
X100400000Y-91550000D02*
X100400000Y-87250000D01*
X100550000Y-91550000D02*
X100400000Y-91550000D01*
X105600000Y-91550000D02*
X105450000Y-91550000D01*
X105600000Y-87250000D02*
X105600000Y-91550000D01*
X105400000Y-87250000D02*
X105600000Y-87250000D01*
X110400000Y-87250000D02*
X110600000Y-87250000D01*
X110400000Y-91550000D02*
X110400000Y-87250000D01*
X110550000Y-91550000D02*
X110400000Y-91550000D01*
X115600000Y-91550000D02*
X115450000Y-91550000D01*
X115600000Y-87250000D02*
X115600000Y-91550000D01*
X115400000Y-87250000D02*
X115600000Y-87250000D01*
X120400000Y-87250000D02*
X120600000Y-87250000D01*
X120400000Y-91550000D02*
X120400000Y-87250000D01*
X120550000Y-91550000D02*
X120400000Y-91550000D01*
X125600000Y-91550000D02*
X125450000Y-91550000D01*
X125600000Y-87250000D02*
X125600000Y-91550000D01*
X125400000Y-87250000D02*
X125600000Y-87250000D01*
X130400000Y-87250000D02*
X130600000Y-87250000D01*
X130400000Y-91550000D02*
X130400000Y-87250000D01*
X130550000Y-91550000D02*
X130400000Y-91550000D01*
X135600000Y-91550000D02*
X135450000Y-91550000D01*
X135600000Y-87250000D02*
X135600000Y-91550000D01*
X135400000Y-87250000D02*
X135600000Y-87250000D01*
X140400000Y-87250000D02*
X140600000Y-87250000D01*
X140400000Y-91550000D02*
X140400000Y-87250000D01*
X140550000Y-91550000D02*
X140400000Y-91550000D01*
X145600000Y-91550000D02*
X145450000Y-91550000D01*
X145600000Y-87250000D02*
X145600000Y-91550000D01*
X145400000Y-87250000D02*
X145600000Y-87250000D01*
X150400000Y-87250000D02*
X150600000Y-87250000D01*
X150400000Y-91550000D02*
X150400000Y-87250000D01*
X150550000Y-91550000D02*
X150400000Y-91550000D01*
X155600000Y-91550000D02*
X155450000Y-91550000D01*
X155600000Y-87250000D02*
X155600000Y-91550000D01*
X155400000Y-87250000D02*
X155600000Y-87250000D01*
D11*
X99785714Y-90752380D02*
X99214285Y-90752380D01*
X99500000Y-91752380D02*
X99500000Y-90752380D01*
X98880952Y-91752380D02*
X98880952Y-90752380D01*
X98880952Y-91228571D02*
X98309523Y-91228571D01*
X98309523Y-91752380D02*
X98309523Y-90752380D01*
X97309523Y-91752380D02*
X97880952Y-91752380D01*
X97595238Y-91752380D02*
X97595238Y-90752380D01*
X97690476Y-90895238D01*
X97785714Y-90990476D01*
X97880952Y-91038095D01*
X109242857Y-87252380D02*
X109576190Y-86776190D01*
X109814285Y-87252380D02*
X109814285Y-86252380D01*
X109433333Y-86252380D01*
X109338095Y-86300000D01*
X109290476Y-86347619D01*
X109242857Y-86442857D01*
X109242857Y-86585714D01*
X109290476Y-86680952D01*
X109338095Y-86728571D01*
X109433333Y-86776190D01*
X109814285Y-86776190D01*
X108861904Y-86347619D02*
X108814285Y-86300000D01*
X108719047Y-86252380D01*
X108480952Y-86252380D01*
X108385714Y-86300000D01*
X108338095Y-86347619D01*
X108290476Y-86442857D01*
X108290476Y-86538095D01*
X108338095Y-86680952D01*
X108909523Y-87252380D01*
X108290476Y-87252380D01*
X107338095Y-87252380D02*
X107909523Y-87252380D01*
X107623809Y-87252380D02*
X107623809Y-86252380D01*
X107719047Y-86395238D01*
X107814285Y-86490476D01*
X107909523Y-86538095D01*
X119342857Y-87352380D02*
X119676190Y-86876190D01*
X119914285Y-87352380D02*
X119914285Y-86352380D01*
X119533333Y-86352380D01*
X119438095Y-86400000D01*
X119390476Y-86447619D01*
X119342857Y-86542857D01*
X119342857Y-86685714D01*
X119390476Y-86780952D01*
X119438095Y-86828571D01*
X119533333Y-86876190D01*
X119914285Y-86876190D01*
X118961904Y-86447619D02*
X118914285Y-86400000D01*
X118819047Y-86352380D01*
X118580952Y-86352380D01*
X118485714Y-86400000D01*
X118438095Y-86447619D01*
X118390476Y-86542857D01*
X118390476Y-86638095D01*
X118438095Y-86780952D01*
X119009523Y-87352380D01*
X118390476Y-87352380D01*
X117771428Y-86352380D02*
X117676190Y-86352380D01*
X117580952Y-86400000D01*
X117533333Y-86447619D01*
X117485714Y-86542857D01*
X117438095Y-86733333D01*
X117438095Y-86971428D01*
X117485714Y-87161904D01*
X117533333Y-87257142D01*
X117580952Y-87304761D01*
X117676190Y-87352380D01*
X117771428Y-87352380D01*
X117866666Y-87304761D01*
X117914285Y-87257142D01*
X117961904Y-87161904D01*
X118009523Y-86971428D01*
X118009523Y-86733333D01*
X117961904Y-86542857D01*
X117914285Y-86447619D01*
X117866666Y-86400000D01*
X117771428Y-86352380D01*
X129342857Y-87352380D02*
X129676190Y-86876190D01*
X129914285Y-87352380D02*
X129914285Y-86352380D01*
X129533333Y-86352380D01*
X129438095Y-86400000D01*
X129390476Y-86447619D01*
X129342857Y-86542857D01*
X129342857Y-86685714D01*
X129390476Y-86780952D01*
X129438095Y-86828571D01*
X129533333Y-86876190D01*
X129914285Y-86876190D01*
X128390476Y-87352380D02*
X128961904Y-87352380D01*
X128676190Y-87352380D02*
X128676190Y-86352380D01*
X128771428Y-86495238D01*
X128866666Y-86590476D01*
X128961904Y-86638095D01*
X127914285Y-87352380D02*
X127723809Y-87352380D01*
X127628571Y-87304761D01*
X127580952Y-87257142D01*
X127485714Y-87114285D01*
X127438095Y-86923809D01*
X127438095Y-86542857D01*
X127485714Y-86447619D01*
X127533333Y-86400000D01*
X127628571Y-86352380D01*
X127819047Y-86352380D01*
X127914285Y-86400000D01*
X127961904Y-86447619D01*
X128009523Y-86542857D01*
X128009523Y-86780952D01*
X127961904Y-86876190D01*
X127914285Y-86923809D01*
X127819047Y-86971428D01*
X127628571Y-86971428D01*
X127533333Y-86923809D01*
X127485714Y-86876190D01*
X127438095Y-86780952D01*
X139142857Y-87352380D02*
X139476190Y-86876190D01*
X139714285Y-87352380D02*
X139714285Y-86352380D01*
X139333333Y-86352380D01*
X139238095Y-86400000D01*
X139190476Y-86447619D01*
X139142857Y-86542857D01*
X139142857Y-86685714D01*
X139190476Y-86780952D01*
X139238095Y-86828571D01*
X139333333Y-86876190D01*
X139714285Y-86876190D01*
X138190476Y-87352380D02*
X138761904Y-87352380D01*
X138476190Y-87352380D02*
X138476190Y-86352380D01*
X138571428Y-86495238D01*
X138666666Y-86590476D01*
X138761904Y-86638095D01*
X137619047Y-86780952D02*
X137714285Y-86733333D01*
X137761904Y-86685714D01*
X137809523Y-86590476D01*
X137809523Y-86542857D01*
X137761904Y-86447619D01*
X137714285Y-86400000D01*
X137619047Y-86352380D01*
X137428571Y-86352380D01*
X137333333Y-86400000D01*
X137285714Y-86447619D01*
X137238095Y-86542857D01*
X137238095Y-86590476D01*
X137285714Y-86685714D01*
X137333333Y-86733333D01*
X137428571Y-86780952D01*
X137619047Y-86780952D01*
X137714285Y-86828571D01*
X137761904Y-86876190D01*
X137809523Y-86971428D01*
X137809523Y-87161904D01*
X137761904Y-87257142D01*
X137714285Y-87304761D01*
X137619047Y-87352380D01*
X137428571Y-87352380D01*
X137333333Y-87304761D01*
X137285714Y-87257142D01*
X137238095Y-87161904D01*
X137238095Y-86971428D01*
X137285714Y-86876190D01*
X137333333Y-86828571D01*
X137428571Y-86780952D01*
X149342857Y-87252380D02*
X149676190Y-86776190D01*
X149914285Y-87252380D02*
X149914285Y-86252380D01*
X149533333Y-86252380D01*
X149438095Y-86300000D01*
X149390476Y-86347619D01*
X149342857Y-86442857D01*
X149342857Y-86585714D01*
X149390476Y-86680952D01*
X149438095Y-86728571D01*
X149533333Y-86776190D01*
X149914285Y-86776190D01*
X148390476Y-87252380D02*
X148961904Y-87252380D01*
X148676190Y-87252380D02*
X148676190Y-86252380D01*
X148771428Y-86395238D01*
X148866666Y-86490476D01*
X148961904Y-86538095D01*
X148057142Y-86252380D02*
X147390476Y-86252380D01*
X147819047Y-87252380D01*
X159242857Y-87352380D02*
X159576190Y-86876190D01*
X159814285Y-87352380D02*
X159814285Y-86352380D01*
X159433333Y-86352380D01*
X159338095Y-86400000D01*
X159290476Y-86447619D01*
X159242857Y-86542857D01*
X159242857Y-86685714D01*
X159290476Y-86780952D01*
X159338095Y-86828571D01*
X159433333Y-86876190D01*
X159814285Y-86876190D01*
X158290476Y-87352380D02*
X158861904Y-87352380D01*
X158576190Y-87352380D02*
X158576190Y-86352380D01*
X158671428Y-86495238D01*
X158766666Y-86590476D01*
X158861904Y-86638095D01*
X157385714Y-86352380D02*
X157861904Y-86352380D01*
X157909523Y-86828571D01*
X157861904Y-86780952D01*
X157766666Y-86733333D01*
X157528571Y-86733333D01*
X157433333Y-86780952D01*
X157385714Y-86828571D01*
X157338095Y-86923809D01*
X157338095Y-87161904D01*
X157385714Y-87257142D01*
X157433333Y-87304761D01*
X157528571Y-87352380D01*
X157766666Y-87352380D01*
X157861904Y-87304761D01*
X157909523Y-87257142D01*
X107047619Y-86504761D02*
X107000000Y-86409523D01*
X106904761Y-86314285D01*
X106761904Y-86171428D01*
X106714285Y-86076190D01*
X106714285Y-85980952D01*
X106952380Y-86028571D02*
X106904761Y-85933333D01*
X106809523Y-85838095D01*
X106619047Y-85790476D01*
X106285714Y-85790476D01*
X106095238Y-85838095D01*
X106000000Y-85933333D01*
X105952380Y-86028571D01*
X105952380Y-86219047D01*
X106000000Y-86314285D01*
X106095238Y-86409523D01*
X106285714Y-86457142D01*
X106619047Y-86457142D01*
X106809523Y-86409523D01*
X106904761Y-86314285D01*
X106952380Y-86219047D01*
X106952380Y-86028571D01*
X105952380Y-87314285D02*
X105952380Y-87123809D01*
X106000000Y-87028571D01*
X106047619Y-86980952D01*
X106190476Y-86885714D01*
X106380952Y-86838095D01*
X106761904Y-86838095D01*
X106857142Y-86885714D01*
X106904761Y-86933333D01*
X106952380Y-87028571D01*
X106952380Y-87219047D01*
X106904761Y-87314285D01*
X106857142Y-87361904D01*
X106761904Y-87409523D01*
X106523809Y-87409523D01*
X106428571Y-87361904D01*
X106380952Y-87314285D01*
X106333333Y-87219047D01*
X106333333Y-87028571D01*
X106380952Y-86933333D01*
X106428571Y-86885714D01*
X106523809Y-86838095D01*
X117147619Y-86404761D02*
X117100000Y-86309523D01*
X117004761Y-86214285D01*
X116861904Y-86071428D01*
X116814285Y-85976190D01*
X116814285Y-85880952D01*
X117052380Y-85928571D02*
X117004761Y-85833333D01*
X116909523Y-85738095D01*
X116719047Y-85690476D01*
X116385714Y-85690476D01*
X116195238Y-85738095D01*
X116100000Y-85833333D01*
X116052380Y-85928571D01*
X116052380Y-86119047D01*
X116100000Y-86214285D01*
X116195238Y-86309523D01*
X116385714Y-86357142D01*
X116719047Y-86357142D01*
X116909523Y-86309523D01*
X117004761Y-86214285D01*
X117052380Y-86119047D01*
X117052380Y-85928571D01*
X116052380Y-87261904D02*
X116052380Y-86785714D01*
X116528571Y-86738095D01*
X116480952Y-86785714D01*
X116433333Y-86880952D01*
X116433333Y-87119047D01*
X116480952Y-87214285D01*
X116528571Y-87261904D01*
X116623809Y-87309523D01*
X116861904Y-87309523D01*
X116957142Y-87261904D01*
X117004761Y-87214285D01*
X117052380Y-87119047D01*
X117052380Y-86880952D01*
X117004761Y-86785714D01*
X116957142Y-86738095D01*
X127047619Y-86504761D02*
X127000000Y-86409523D01*
X126904761Y-86314285D01*
X126761904Y-86171428D01*
X126714285Y-86076190D01*
X126714285Y-85980952D01*
X126952380Y-86028571D02*
X126904761Y-85933333D01*
X126809523Y-85838095D01*
X126619047Y-85790476D01*
X126285714Y-85790476D01*
X126095238Y-85838095D01*
X126000000Y-85933333D01*
X125952380Y-86028571D01*
X125952380Y-86219047D01*
X126000000Y-86314285D01*
X126095238Y-86409523D01*
X126285714Y-86457142D01*
X126619047Y-86457142D01*
X126809523Y-86409523D01*
X126904761Y-86314285D01*
X126952380Y-86219047D01*
X126952380Y-86028571D01*
X126285714Y-87314285D02*
X126952380Y-87314285D01*
X125904761Y-87076190D02*
X126619047Y-86838095D01*
X126619047Y-87457142D01*
X137047619Y-86404761D02*
X137000000Y-86309523D01*
X136904761Y-86214285D01*
X136761904Y-86071428D01*
X136714285Y-85976190D01*
X136714285Y-85880952D01*
X136952380Y-85928571D02*
X136904761Y-85833333D01*
X136809523Y-85738095D01*
X136619047Y-85690476D01*
X136285714Y-85690476D01*
X136095238Y-85738095D01*
X136000000Y-85833333D01*
X135952380Y-85928571D01*
X135952380Y-86119047D01*
X136000000Y-86214285D01*
X136095238Y-86309523D01*
X136285714Y-86357142D01*
X136619047Y-86357142D01*
X136809523Y-86309523D01*
X136904761Y-86214285D01*
X136952380Y-86119047D01*
X136952380Y-85928571D01*
X135952380Y-86690476D02*
X135952380Y-87309523D01*
X136333333Y-86976190D01*
X136333333Y-87119047D01*
X136380952Y-87214285D01*
X136428571Y-87261904D01*
X136523809Y-87309523D01*
X136761904Y-87309523D01*
X136857142Y-87261904D01*
X136904761Y-87214285D01*
X136952380Y-87119047D01*
X136952380Y-86833333D01*
X136904761Y-86738095D01*
X136857142Y-86690476D01*
X147047619Y-86404761D02*
X147000000Y-86309523D01*
X146904761Y-86214285D01*
X146761904Y-86071428D01*
X146714285Y-85976190D01*
X146714285Y-85880952D01*
X146952380Y-85928571D02*
X146904761Y-85833333D01*
X146809523Y-85738095D01*
X146619047Y-85690476D01*
X146285714Y-85690476D01*
X146095238Y-85738095D01*
X146000000Y-85833333D01*
X145952380Y-85928571D01*
X145952380Y-86119047D01*
X146000000Y-86214285D01*
X146095238Y-86309523D01*
X146285714Y-86357142D01*
X146619047Y-86357142D01*
X146809523Y-86309523D01*
X146904761Y-86214285D01*
X146952380Y-86119047D01*
X146952380Y-85928571D01*
X146047619Y-86738095D02*
X146000000Y-86785714D01*
X145952380Y-86880952D01*
X145952380Y-87119047D01*
X146000000Y-87214285D01*
X146047619Y-87261904D01*
X146142857Y-87309523D01*
X146238095Y-87309523D01*
X146380952Y-87261904D01*
X146952380Y-86690476D01*
X146952380Y-87309523D01*
X157047619Y-86404761D02*
X157000000Y-86309523D01*
X156904761Y-86214285D01*
X156761904Y-86071428D01*
X156714285Y-85976190D01*
X156714285Y-85880952D01*
X156952380Y-85928571D02*
X156904761Y-85833333D01*
X156809523Y-85738095D01*
X156619047Y-85690476D01*
X156285714Y-85690476D01*
X156095238Y-85738095D01*
X156000000Y-85833333D01*
X155952380Y-85928571D01*
X155952380Y-86119047D01*
X156000000Y-86214285D01*
X156095238Y-86309523D01*
X156285714Y-86357142D01*
X156619047Y-86357142D01*
X156809523Y-86309523D01*
X156904761Y-86214285D01*
X156952380Y-86119047D01*
X156952380Y-85928571D01*
X156952380Y-87309523D02*
X156952380Y-86738095D01*
X156952380Y-87023809D02*
X155952380Y-87023809D01*
X156095238Y-86928571D01*
X156190476Y-86833333D01*
X156238095Y-86738095D01*
M02*
