G04 #@! TF.GenerationSoftware,KiCad,Pcbnew,(5.1.5)-3*
G04 #@! TF.CreationDate,2020-08-02T11:19:38+02:00*
G04 #@! TF.ProjectId,_Spot,b553706f-742e-46b6-9963-61645f706362,rev?*
G04 #@! TF.SameCoordinates,Original*
G04 #@! TF.FileFunction,Soldermask,Top*
G04 #@! TF.FilePolarity,Negative*
%FSLAX46Y46*%
G04 Gerber Fmt 4.6, Leading zero omitted, Abs format (unit mm)*
G04 Created by KiCad (PCBNEW (5.1.5)-3) date 2020-08-02 11:19:38*
%MOMM*%
%LPD*%
G04 APERTURE LIST*
%ADD10C,0.150000*%
G04 APERTURE END LIST*
D10*
G36*
X151850562Y-108578181D02*
G01*
X151885481Y-108588774D01*
X151917663Y-108605976D01*
X151945873Y-108629127D01*
X151969024Y-108657337D01*
X151986226Y-108689519D01*
X151996819Y-108724438D01*
X152001000Y-108766895D01*
X152001000Y-110233105D01*
X151996819Y-110275562D01*
X151986226Y-110310481D01*
X151969024Y-110342663D01*
X151945873Y-110370873D01*
X151917663Y-110394024D01*
X151885481Y-110411226D01*
X151850562Y-110421819D01*
X151808105Y-110426000D01*
X150666895Y-110426000D01*
X150624438Y-110421819D01*
X150589519Y-110411226D01*
X150557337Y-110394024D01*
X150529127Y-110370873D01*
X150505976Y-110342663D01*
X150488774Y-110310481D01*
X150478181Y-110275562D01*
X150474000Y-110233105D01*
X150474000Y-108766895D01*
X150478181Y-108724438D01*
X150488774Y-108689519D01*
X150505976Y-108657337D01*
X150529127Y-108629127D01*
X150557337Y-108605976D01*
X150589519Y-108588774D01*
X150624438Y-108578181D01*
X150666895Y-108574000D01*
X151808105Y-108574000D01*
X151850562Y-108578181D01*
G37*
G36*
X148875562Y-108578181D02*
G01*
X148910481Y-108588774D01*
X148942663Y-108605976D01*
X148970873Y-108629127D01*
X148994024Y-108657337D01*
X149011226Y-108689519D01*
X149021819Y-108724438D01*
X149026000Y-108766895D01*
X149026000Y-110233105D01*
X149021819Y-110275562D01*
X149011226Y-110310481D01*
X148994024Y-110342663D01*
X148970873Y-110370873D01*
X148942663Y-110394024D01*
X148910481Y-110411226D01*
X148875562Y-110421819D01*
X148833105Y-110426000D01*
X147691895Y-110426000D01*
X147649438Y-110421819D01*
X147614519Y-110411226D01*
X147582337Y-110394024D01*
X147554127Y-110370873D01*
X147530976Y-110342663D01*
X147513774Y-110310481D01*
X147503181Y-110275562D01*
X147499000Y-110233105D01*
X147499000Y-108766895D01*
X147503181Y-108724438D01*
X147513774Y-108689519D01*
X147530976Y-108657337D01*
X147554127Y-108629127D01*
X147582337Y-108605976D01*
X147614519Y-108588774D01*
X147649438Y-108578181D01*
X147691895Y-108574000D01*
X148833105Y-108574000D01*
X148875562Y-108578181D01*
G37*
G36*
X159275562Y-108728181D02*
G01*
X159310481Y-108738774D01*
X159342663Y-108755976D01*
X159370873Y-108779127D01*
X159394024Y-108807337D01*
X159411226Y-108839519D01*
X159421819Y-108874438D01*
X159426000Y-108916895D01*
X159426000Y-110058105D01*
X159421819Y-110100562D01*
X159411226Y-110135481D01*
X159394024Y-110167663D01*
X159370873Y-110195873D01*
X159342663Y-110219024D01*
X159310481Y-110236226D01*
X159275562Y-110246819D01*
X159233105Y-110251000D01*
X157766895Y-110251000D01*
X157724438Y-110246819D01*
X157689519Y-110236226D01*
X157657337Y-110219024D01*
X157629127Y-110195873D01*
X157605976Y-110167663D01*
X157588774Y-110135481D01*
X157578181Y-110100562D01*
X157574000Y-110058105D01*
X157574000Y-108916895D01*
X157578181Y-108874438D01*
X157588774Y-108839519D01*
X157605976Y-108807337D01*
X157629127Y-108779127D01*
X157657337Y-108755976D01*
X157689519Y-108738774D01*
X157724438Y-108728181D01*
X157766895Y-108724000D01*
X159233105Y-108724000D01*
X159275562Y-108728181D01*
G37*
G36*
X162275562Y-108728181D02*
G01*
X162310481Y-108738774D01*
X162342663Y-108755976D01*
X162370873Y-108779127D01*
X162394024Y-108807337D01*
X162411226Y-108839519D01*
X162421819Y-108874438D01*
X162426000Y-108916895D01*
X162426000Y-110058105D01*
X162421819Y-110100562D01*
X162411226Y-110135481D01*
X162394024Y-110167663D01*
X162370873Y-110195873D01*
X162342663Y-110219024D01*
X162310481Y-110236226D01*
X162275562Y-110246819D01*
X162233105Y-110251000D01*
X160766895Y-110251000D01*
X160724438Y-110246819D01*
X160689519Y-110236226D01*
X160657337Y-110219024D01*
X160629127Y-110195873D01*
X160605976Y-110167663D01*
X160588774Y-110135481D01*
X160578181Y-110100562D01*
X160574000Y-110058105D01*
X160574000Y-108916895D01*
X160578181Y-108874438D01*
X160588774Y-108839519D01*
X160605976Y-108807337D01*
X160629127Y-108779127D01*
X160657337Y-108755976D01*
X160689519Y-108738774D01*
X160724438Y-108728181D01*
X160766895Y-108724000D01*
X162233105Y-108724000D01*
X162275562Y-108728181D01*
G37*
G36*
X167600562Y-108078181D02*
G01*
X167635481Y-108088774D01*
X167667663Y-108105976D01*
X167695873Y-108129127D01*
X167719024Y-108157337D01*
X167736226Y-108189519D01*
X167746819Y-108224438D01*
X167751000Y-108266895D01*
X167751000Y-109733105D01*
X167746819Y-109775562D01*
X167736226Y-109810481D01*
X167719024Y-109842663D01*
X167695873Y-109870873D01*
X167667663Y-109894024D01*
X167635481Y-109911226D01*
X167600562Y-109921819D01*
X167558105Y-109926000D01*
X166416895Y-109926000D01*
X166374438Y-109921819D01*
X166339519Y-109911226D01*
X166307337Y-109894024D01*
X166279127Y-109870873D01*
X166255976Y-109842663D01*
X166238774Y-109810481D01*
X166228181Y-109775562D01*
X166224000Y-109733105D01*
X166224000Y-108266895D01*
X166228181Y-108224438D01*
X166238774Y-108189519D01*
X166255976Y-108157337D01*
X166279127Y-108129127D01*
X166307337Y-108105976D01*
X166339519Y-108088774D01*
X166374438Y-108078181D01*
X166416895Y-108074000D01*
X167558105Y-108074000D01*
X167600562Y-108078181D01*
G37*
G36*
X164625562Y-108078181D02*
G01*
X164660481Y-108088774D01*
X164692663Y-108105976D01*
X164720873Y-108129127D01*
X164744024Y-108157337D01*
X164761226Y-108189519D01*
X164771819Y-108224438D01*
X164776000Y-108266895D01*
X164776000Y-109733105D01*
X164771819Y-109775562D01*
X164761226Y-109810481D01*
X164744024Y-109842663D01*
X164720873Y-109870873D01*
X164692663Y-109894024D01*
X164660481Y-109911226D01*
X164625562Y-109921819D01*
X164583105Y-109926000D01*
X163441895Y-109926000D01*
X163399438Y-109921819D01*
X163364519Y-109911226D01*
X163332337Y-109894024D01*
X163304127Y-109870873D01*
X163280976Y-109842663D01*
X163263774Y-109810481D01*
X163253181Y-109775562D01*
X163249000Y-109733105D01*
X163249000Y-108266895D01*
X163253181Y-108224438D01*
X163263774Y-108189519D01*
X163280976Y-108157337D01*
X163304127Y-108129127D01*
X163332337Y-108105976D01*
X163364519Y-108088774D01*
X163399438Y-108078181D01*
X163441895Y-108074000D01*
X164583105Y-108074000D01*
X164625562Y-108078181D01*
G37*
G36*
X113725331Y-106268211D02*
G01*
X114053092Y-106403974D01*
X114348070Y-106601072D01*
X114598928Y-106851930D01*
X114796026Y-107146908D01*
X114931789Y-107474669D01*
X115001000Y-107822616D01*
X115001000Y-108177384D01*
X114931789Y-108525331D01*
X114796026Y-108853092D01*
X114598928Y-109148070D01*
X114348070Y-109398928D01*
X114053092Y-109596026D01*
X113725331Y-109731789D01*
X113377384Y-109801000D01*
X113022616Y-109801000D01*
X112674669Y-109731789D01*
X112346908Y-109596026D01*
X112051930Y-109398928D01*
X111801072Y-109148070D01*
X111603974Y-108853092D01*
X111468211Y-108525331D01*
X111399000Y-108177384D01*
X111399000Y-107822616D01*
X111468211Y-107474669D01*
X111603974Y-107146908D01*
X111801072Y-106851930D01*
X112051930Y-106601072D01*
X112346908Y-106403974D01*
X112674669Y-106268211D01*
X113022616Y-106199000D01*
X113377384Y-106199000D01*
X113725331Y-106268211D01*
G37*
G36*
X108275562Y-108240681D02*
G01*
X108310481Y-108251274D01*
X108342663Y-108268476D01*
X108370873Y-108291627D01*
X108394024Y-108319837D01*
X108411226Y-108352019D01*
X108421819Y-108386938D01*
X108426000Y-108429395D01*
X108426000Y-109570605D01*
X108421819Y-109613062D01*
X108411226Y-109647981D01*
X108394024Y-109680163D01*
X108370873Y-109708373D01*
X108342663Y-109731524D01*
X108310481Y-109748726D01*
X108275562Y-109759319D01*
X108233105Y-109763500D01*
X106766895Y-109763500D01*
X106724438Y-109759319D01*
X106689519Y-109748726D01*
X106657337Y-109731524D01*
X106629127Y-109708373D01*
X106605976Y-109680163D01*
X106588774Y-109647981D01*
X106578181Y-109613062D01*
X106574000Y-109570605D01*
X106574000Y-108429395D01*
X106578181Y-108386938D01*
X106588774Y-108352019D01*
X106605976Y-108319837D01*
X106629127Y-108291627D01*
X106657337Y-108268476D01*
X106689519Y-108251274D01*
X106724438Y-108240681D01*
X106766895Y-108236500D01*
X108233105Y-108236500D01*
X108275562Y-108240681D01*
G37*
G36*
X103275562Y-108240681D02*
G01*
X103310481Y-108251274D01*
X103342663Y-108268476D01*
X103370873Y-108291627D01*
X103394024Y-108319837D01*
X103411226Y-108352019D01*
X103421819Y-108386938D01*
X103426000Y-108429395D01*
X103426000Y-109570605D01*
X103421819Y-109613062D01*
X103411226Y-109647981D01*
X103394024Y-109680163D01*
X103370873Y-109708373D01*
X103342663Y-109731524D01*
X103310481Y-109748726D01*
X103275562Y-109759319D01*
X103233105Y-109763500D01*
X101766895Y-109763500D01*
X101724438Y-109759319D01*
X101689519Y-109748726D01*
X101657337Y-109731524D01*
X101629127Y-109708373D01*
X101605976Y-109680163D01*
X101588774Y-109647981D01*
X101578181Y-109613062D01*
X101574000Y-109570605D01*
X101574000Y-108429395D01*
X101578181Y-108386938D01*
X101588774Y-108352019D01*
X101605976Y-108319837D01*
X101629127Y-108291627D01*
X101657337Y-108268476D01*
X101689519Y-108251274D01*
X101724438Y-108240681D01*
X101766895Y-108236500D01*
X103233105Y-108236500D01*
X103275562Y-108240681D01*
G37*
G36*
X100025562Y-108228181D02*
G01*
X100060481Y-108238774D01*
X100092663Y-108255976D01*
X100120873Y-108279127D01*
X100144024Y-108307337D01*
X100161226Y-108339519D01*
X100171819Y-108374438D01*
X100176000Y-108416895D01*
X100176000Y-109558105D01*
X100171819Y-109600562D01*
X100161226Y-109635481D01*
X100144024Y-109667663D01*
X100120873Y-109695873D01*
X100092663Y-109719024D01*
X100060481Y-109736226D01*
X100025562Y-109746819D01*
X99983105Y-109751000D01*
X98516895Y-109751000D01*
X98474438Y-109746819D01*
X98439519Y-109736226D01*
X98407337Y-109719024D01*
X98379127Y-109695873D01*
X98355976Y-109667663D01*
X98338774Y-109635481D01*
X98328181Y-109600562D01*
X98324000Y-109558105D01*
X98324000Y-108416895D01*
X98328181Y-108374438D01*
X98338774Y-108339519D01*
X98355976Y-108307337D01*
X98379127Y-108279127D01*
X98407337Y-108255976D01*
X98439519Y-108238774D01*
X98474438Y-108228181D01*
X98516895Y-108224000D01*
X99983105Y-108224000D01*
X100025562Y-108228181D01*
G37*
G36*
X120013062Y-107878181D02*
G01*
X120047981Y-107888774D01*
X120080163Y-107905976D01*
X120108373Y-107929127D01*
X120131524Y-107957337D01*
X120148726Y-107989519D01*
X120159319Y-108024438D01*
X120163500Y-108066895D01*
X120163500Y-109533105D01*
X120159319Y-109575562D01*
X120148726Y-109610481D01*
X120131524Y-109642663D01*
X120108373Y-109670873D01*
X120080163Y-109694024D01*
X120047981Y-109711226D01*
X120013062Y-109721819D01*
X119970605Y-109726000D01*
X118829395Y-109726000D01*
X118786938Y-109721819D01*
X118752019Y-109711226D01*
X118719837Y-109694024D01*
X118691627Y-109670873D01*
X118668476Y-109642663D01*
X118651274Y-109610481D01*
X118640681Y-109575562D01*
X118636500Y-109533105D01*
X118636500Y-108066895D01*
X118640681Y-108024438D01*
X118651274Y-107989519D01*
X118668476Y-107957337D01*
X118691627Y-107929127D01*
X118719837Y-107905976D01*
X118752019Y-107888774D01*
X118786938Y-107878181D01*
X118829395Y-107874000D01*
X119970605Y-107874000D01*
X120013062Y-107878181D01*
G37*
G36*
X122988062Y-107878181D02*
G01*
X123022981Y-107888774D01*
X123055163Y-107905976D01*
X123083373Y-107929127D01*
X123106524Y-107957337D01*
X123123726Y-107989519D01*
X123134319Y-108024438D01*
X123138500Y-108066895D01*
X123138500Y-109533105D01*
X123134319Y-109575562D01*
X123123726Y-109610481D01*
X123106524Y-109642663D01*
X123083373Y-109670873D01*
X123055163Y-109694024D01*
X123022981Y-109711226D01*
X122988062Y-109721819D01*
X122945605Y-109726000D01*
X121804395Y-109726000D01*
X121761938Y-109721819D01*
X121727019Y-109711226D01*
X121694837Y-109694024D01*
X121666627Y-109670873D01*
X121643476Y-109642663D01*
X121626274Y-109610481D01*
X121615681Y-109575562D01*
X121611500Y-109533105D01*
X121611500Y-108066895D01*
X121615681Y-108024438D01*
X121626274Y-107989519D01*
X121643476Y-107957337D01*
X121666627Y-107929127D01*
X121694837Y-107905976D01*
X121727019Y-107888774D01*
X121761938Y-107878181D01*
X121804395Y-107874000D01*
X122945605Y-107874000D01*
X122988062Y-107878181D01*
G37*
G36*
X129875562Y-107828181D02*
G01*
X129910481Y-107838774D01*
X129942663Y-107855976D01*
X129970873Y-107879127D01*
X129994024Y-107907337D01*
X130011226Y-107939519D01*
X130021819Y-107974438D01*
X130026000Y-108016895D01*
X130026000Y-109483105D01*
X130021819Y-109525562D01*
X130011226Y-109560481D01*
X129994024Y-109592663D01*
X129970873Y-109620873D01*
X129942663Y-109644024D01*
X129910481Y-109661226D01*
X129875562Y-109671819D01*
X129833105Y-109676000D01*
X128691895Y-109676000D01*
X128649438Y-109671819D01*
X128614519Y-109661226D01*
X128582337Y-109644024D01*
X128554127Y-109620873D01*
X128530976Y-109592663D01*
X128513774Y-109560481D01*
X128503181Y-109525562D01*
X128499000Y-109483105D01*
X128499000Y-108016895D01*
X128503181Y-107974438D01*
X128513774Y-107939519D01*
X128530976Y-107907337D01*
X128554127Y-107879127D01*
X128582337Y-107855976D01*
X128614519Y-107838774D01*
X128649438Y-107828181D01*
X128691895Y-107824000D01*
X129833105Y-107824000D01*
X129875562Y-107828181D01*
G37*
G36*
X132850562Y-107828181D02*
G01*
X132885481Y-107838774D01*
X132917663Y-107855976D01*
X132945873Y-107879127D01*
X132969024Y-107907337D01*
X132986226Y-107939519D01*
X132996819Y-107974438D01*
X133001000Y-108016895D01*
X133001000Y-109483105D01*
X132996819Y-109525562D01*
X132986226Y-109560481D01*
X132969024Y-109592663D01*
X132945873Y-109620873D01*
X132917663Y-109644024D01*
X132885481Y-109661226D01*
X132850562Y-109671819D01*
X132808105Y-109676000D01*
X131666895Y-109676000D01*
X131624438Y-109671819D01*
X131589519Y-109661226D01*
X131557337Y-109644024D01*
X131529127Y-109620873D01*
X131505976Y-109592663D01*
X131488774Y-109560481D01*
X131478181Y-109525562D01*
X131474000Y-109483105D01*
X131474000Y-108016895D01*
X131478181Y-107974438D01*
X131488774Y-107939519D01*
X131505976Y-107907337D01*
X131529127Y-107879127D01*
X131557337Y-107855976D01*
X131589519Y-107838774D01*
X131624438Y-107828181D01*
X131666895Y-107824000D01*
X132808105Y-107824000D01*
X132850562Y-107828181D01*
G37*
G36*
X172025562Y-107278181D02*
G01*
X172060481Y-107288774D01*
X172092663Y-107305976D01*
X172120873Y-107329127D01*
X172144024Y-107357337D01*
X172161226Y-107389519D01*
X172171819Y-107424438D01*
X172176000Y-107466895D01*
X172176000Y-108608105D01*
X172171819Y-108650562D01*
X172161226Y-108685481D01*
X172144024Y-108717663D01*
X172120873Y-108745873D01*
X172092663Y-108769024D01*
X172060481Y-108786226D01*
X172025562Y-108796819D01*
X171983105Y-108801000D01*
X170516895Y-108801000D01*
X170474438Y-108796819D01*
X170439519Y-108786226D01*
X170407337Y-108769024D01*
X170379127Y-108745873D01*
X170355976Y-108717663D01*
X170338774Y-108685481D01*
X170328181Y-108650562D01*
X170324000Y-108608105D01*
X170324000Y-107466895D01*
X170328181Y-107424438D01*
X170338774Y-107389519D01*
X170355976Y-107357337D01*
X170379127Y-107329127D01*
X170407337Y-107305976D01*
X170439519Y-107288774D01*
X170474438Y-107278181D01*
X170516895Y-107274000D01*
X171983105Y-107274000D01*
X172025562Y-107278181D01*
G37*
G36*
X138253512Y-106303927D02*
G01*
X138402812Y-106333624D01*
X138566784Y-106401544D01*
X138714354Y-106500147D01*
X138839853Y-106625646D01*
X138938456Y-106773216D01*
X139006376Y-106937188D01*
X139035400Y-107083105D01*
X139041000Y-107111258D01*
X139041000Y-107288742D01*
X139037572Y-107305976D01*
X139006376Y-107462812D01*
X138938456Y-107626784D01*
X138839853Y-107774354D01*
X138714354Y-107899853D01*
X138566784Y-107998456D01*
X138402812Y-108066376D01*
X138261962Y-108094392D01*
X138228742Y-108101000D01*
X138051258Y-108101000D01*
X138018038Y-108094392D01*
X137877188Y-108066376D01*
X137713216Y-107998456D01*
X137565646Y-107899853D01*
X137440147Y-107774354D01*
X137341544Y-107626784D01*
X137273624Y-107462812D01*
X137242428Y-107305976D01*
X137239000Y-107288742D01*
X137239000Y-107111258D01*
X137244600Y-107083105D01*
X137273624Y-106937188D01*
X137341544Y-106773216D01*
X137440147Y-106625646D01*
X137565646Y-106500147D01*
X137713216Y-106401544D01*
X137877188Y-106333624D01*
X138026488Y-106303927D01*
X138051258Y-106299000D01*
X138228742Y-106299000D01*
X138253512Y-106303927D01*
G37*
G36*
X140793512Y-106303927D02*
G01*
X140942812Y-106333624D01*
X141106784Y-106401544D01*
X141254354Y-106500147D01*
X141379853Y-106625646D01*
X141478456Y-106773216D01*
X141546376Y-106937188D01*
X141575400Y-107083105D01*
X141581000Y-107111258D01*
X141581000Y-107288742D01*
X141577572Y-107305976D01*
X141546376Y-107462812D01*
X141478456Y-107626784D01*
X141379853Y-107774354D01*
X141254354Y-107899853D01*
X141106784Y-107998456D01*
X140942812Y-108066376D01*
X140801962Y-108094392D01*
X140768742Y-108101000D01*
X140591258Y-108101000D01*
X140558038Y-108094392D01*
X140417188Y-108066376D01*
X140253216Y-107998456D01*
X140105646Y-107899853D01*
X139980147Y-107774354D01*
X139881544Y-107626784D01*
X139813624Y-107462812D01*
X139782428Y-107305976D01*
X139779000Y-107288742D01*
X139779000Y-107111258D01*
X139784600Y-107083105D01*
X139813624Y-106937188D01*
X139881544Y-106773216D01*
X139980147Y-106625646D01*
X140105646Y-106500147D01*
X140253216Y-106401544D01*
X140417188Y-106333624D01*
X140566488Y-106303927D01*
X140591258Y-106299000D01*
X140768742Y-106299000D01*
X140793512Y-106303927D01*
G37*
G36*
X136501000Y-108101000D02*
G01*
X134699000Y-108101000D01*
X134699000Y-106299000D01*
X136501000Y-106299000D01*
X136501000Y-108101000D01*
G37*
G36*
X148275562Y-105828181D02*
G01*
X148310481Y-105838774D01*
X148342663Y-105855976D01*
X148370873Y-105879127D01*
X148394024Y-105907337D01*
X148411226Y-105939519D01*
X148421819Y-105974438D01*
X148426000Y-106016895D01*
X148426000Y-107158105D01*
X148421819Y-107200562D01*
X148411226Y-107235481D01*
X148394024Y-107267663D01*
X148370873Y-107295873D01*
X148342663Y-107319024D01*
X148310481Y-107336226D01*
X148275562Y-107346819D01*
X148233105Y-107351000D01*
X146766895Y-107351000D01*
X146724438Y-107346819D01*
X146689519Y-107336226D01*
X146657337Y-107319024D01*
X146629127Y-107295873D01*
X146605976Y-107267663D01*
X146588774Y-107235481D01*
X146578181Y-107200562D01*
X146574000Y-107158105D01*
X146574000Y-106016895D01*
X146578181Y-105974438D01*
X146588774Y-105939519D01*
X146605976Y-105907337D01*
X146629127Y-105879127D01*
X146657337Y-105855976D01*
X146689519Y-105838774D01*
X146724438Y-105828181D01*
X146766895Y-105824000D01*
X148233105Y-105824000D01*
X148275562Y-105828181D01*
G37*
G36*
X162275562Y-105753181D02*
G01*
X162310481Y-105763774D01*
X162342663Y-105780976D01*
X162370873Y-105804127D01*
X162394024Y-105832337D01*
X162411226Y-105864519D01*
X162421819Y-105899438D01*
X162426000Y-105941895D01*
X162426000Y-107083105D01*
X162421819Y-107125562D01*
X162411226Y-107160481D01*
X162394024Y-107192663D01*
X162370873Y-107220873D01*
X162342663Y-107244024D01*
X162310481Y-107261226D01*
X162275562Y-107271819D01*
X162233105Y-107276000D01*
X160766895Y-107276000D01*
X160724438Y-107271819D01*
X160689519Y-107261226D01*
X160657337Y-107244024D01*
X160629127Y-107220873D01*
X160605976Y-107192663D01*
X160588774Y-107160481D01*
X160578181Y-107125562D01*
X160574000Y-107083105D01*
X160574000Y-105941895D01*
X160578181Y-105899438D01*
X160588774Y-105864519D01*
X160605976Y-105832337D01*
X160629127Y-105804127D01*
X160657337Y-105780976D01*
X160689519Y-105763774D01*
X160724438Y-105753181D01*
X160766895Y-105749000D01*
X162233105Y-105749000D01*
X162275562Y-105753181D01*
G37*
G36*
X159275562Y-105753181D02*
G01*
X159310481Y-105763774D01*
X159342663Y-105780976D01*
X159370873Y-105804127D01*
X159394024Y-105832337D01*
X159411226Y-105864519D01*
X159421819Y-105899438D01*
X159426000Y-105941895D01*
X159426000Y-107083105D01*
X159421819Y-107125562D01*
X159411226Y-107160481D01*
X159394024Y-107192663D01*
X159370873Y-107220873D01*
X159342663Y-107244024D01*
X159310481Y-107261226D01*
X159275562Y-107271819D01*
X159233105Y-107276000D01*
X157766895Y-107276000D01*
X157724438Y-107271819D01*
X157689519Y-107261226D01*
X157657337Y-107244024D01*
X157629127Y-107220873D01*
X157605976Y-107192663D01*
X157588774Y-107160481D01*
X157578181Y-107125562D01*
X157574000Y-107083105D01*
X157574000Y-105941895D01*
X157578181Y-105899438D01*
X157588774Y-105864519D01*
X157605976Y-105832337D01*
X157629127Y-105804127D01*
X157657337Y-105780976D01*
X157689519Y-105763774D01*
X157724438Y-105753181D01*
X157766895Y-105749000D01*
X159233105Y-105749000D01*
X159275562Y-105753181D01*
G37*
G36*
X152076000Y-107181000D02*
G01*
X149424000Y-107181000D01*
X149424000Y-106019000D01*
X152076000Y-106019000D01*
X152076000Y-107181000D01*
G37*
G36*
X169011000Y-107126000D02*
G01*
X166909000Y-107126000D01*
X166909000Y-104474000D01*
X169011000Y-104474000D01*
X169011000Y-107126000D01*
G37*
G36*
X165591000Y-107126000D02*
G01*
X163489000Y-107126000D01*
X163489000Y-104474000D01*
X165591000Y-104474000D01*
X165591000Y-107126000D01*
G37*
G36*
X129884928Y-106166764D02*
G01*
X129906009Y-106173160D01*
X129925445Y-106183548D01*
X129942476Y-106197524D01*
X129956452Y-106214555D01*
X129966840Y-106233991D01*
X129973236Y-106255072D01*
X129976000Y-106283140D01*
X129976000Y-106746860D01*
X129973236Y-106774928D01*
X129966840Y-106796009D01*
X129956452Y-106815445D01*
X129942476Y-106832476D01*
X129925445Y-106846452D01*
X129906009Y-106856840D01*
X129884928Y-106863236D01*
X129856860Y-106866000D01*
X127943140Y-106866000D01*
X127915072Y-106863236D01*
X127893991Y-106856840D01*
X127874555Y-106846452D01*
X127857524Y-106832476D01*
X127843548Y-106815445D01*
X127833160Y-106796009D01*
X127826764Y-106774928D01*
X127824000Y-106746860D01*
X127824000Y-106283140D01*
X127826764Y-106255072D01*
X127833160Y-106233991D01*
X127843548Y-106214555D01*
X127857524Y-106197524D01*
X127874555Y-106183548D01*
X127893991Y-106173160D01*
X127915072Y-106166764D01*
X127943140Y-106164000D01*
X129856860Y-106164000D01*
X129884928Y-106166764D01*
G37*
G36*
X120584928Y-106166764D02*
G01*
X120606009Y-106173160D01*
X120625445Y-106183548D01*
X120642476Y-106197524D01*
X120656452Y-106214555D01*
X120666840Y-106233991D01*
X120673236Y-106255072D01*
X120676000Y-106283140D01*
X120676000Y-106746860D01*
X120673236Y-106774928D01*
X120666840Y-106796009D01*
X120656452Y-106815445D01*
X120642476Y-106832476D01*
X120625445Y-106846452D01*
X120606009Y-106856840D01*
X120584928Y-106863236D01*
X120556860Y-106866000D01*
X118643140Y-106866000D01*
X118615072Y-106863236D01*
X118593991Y-106856840D01*
X118574555Y-106846452D01*
X118557524Y-106832476D01*
X118543548Y-106815445D01*
X118533160Y-106796009D01*
X118526764Y-106774928D01*
X118524000Y-106746860D01*
X118524000Y-106283140D01*
X118526764Y-106255072D01*
X118533160Y-106233991D01*
X118543548Y-106214555D01*
X118557524Y-106197524D01*
X118574555Y-106183548D01*
X118593991Y-106173160D01*
X118615072Y-106166764D01*
X118643140Y-106164000D01*
X120556860Y-106164000D01*
X120584928Y-106166764D01*
G37*
G36*
X108275562Y-105265681D02*
G01*
X108310481Y-105276274D01*
X108342663Y-105293476D01*
X108370873Y-105316627D01*
X108394024Y-105344837D01*
X108411226Y-105377019D01*
X108421819Y-105411938D01*
X108426000Y-105454395D01*
X108426000Y-106595605D01*
X108421819Y-106638062D01*
X108411226Y-106672981D01*
X108394024Y-106705163D01*
X108370873Y-106733373D01*
X108342663Y-106756524D01*
X108310481Y-106773726D01*
X108275562Y-106784319D01*
X108233105Y-106788500D01*
X106766895Y-106788500D01*
X106724438Y-106784319D01*
X106689519Y-106773726D01*
X106657337Y-106756524D01*
X106629127Y-106733373D01*
X106605976Y-106705163D01*
X106588774Y-106672981D01*
X106578181Y-106638062D01*
X106574000Y-106595605D01*
X106574000Y-105454395D01*
X106578181Y-105411938D01*
X106588774Y-105377019D01*
X106605976Y-105344837D01*
X106629127Y-105316627D01*
X106657337Y-105293476D01*
X106689519Y-105276274D01*
X106724438Y-105265681D01*
X106766895Y-105261500D01*
X108233105Y-105261500D01*
X108275562Y-105265681D01*
G37*
G36*
X103275562Y-105265681D02*
G01*
X103310481Y-105276274D01*
X103342663Y-105293476D01*
X103370873Y-105316627D01*
X103394024Y-105344837D01*
X103411226Y-105377019D01*
X103421819Y-105411938D01*
X103426000Y-105454395D01*
X103426000Y-106595605D01*
X103421819Y-106638062D01*
X103411226Y-106672981D01*
X103394024Y-106705163D01*
X103370873Y-106733373D01*
X103342663Y-106756524D01*
X103310481Y-106773726D01*
X103275562Y-106784319D01*
X103233105Y-106788500D01*
X101766895Y-106788500D01*
X101724438Y-106784319D01*
X101689519Y-106773726D01*
X101657337Y-106756524D01*
X101629127Y-106733373D01*
X101605976Y-106705163D01*
X101588774Y-106672981D01*
X101578181Y-106638062D01*
X101574000Y-106595605D01*
X101574000Y-105454395D01*
X101578181Y-105411938D01*
X101588774Y-105377019D01*
X101605976Y-105344837D01*
X101629127Y-105316627D01*
X101657337Y-105293476D01*
X101689519Y-105276274D01*
X101724438Y-105265681D01*
X101766895Y-105261500D01*
X103233105Y-105261500D01*
X103275562Y-105265681D01*
G37*
G36*
X100025562Y-105253181D02*
G01*
X100060481Y-105263774D01*
X100092663Y-105280976D01*
X100120873Y-105304127D01*
X100144024Y-105332337D01*
X100161226Y-105364519D01*
X100171819Y-105399438D01*
X100176000Y-105441895D01*
X100176000Y-106583105D01*
X100171819Y-106625562D01*
X100161226Y-106660481D01*
X100144024Y-106692663D01*
X100120873Y-106720873D01*
X100092663Y-106744024D01*
X100060481Y-106761226D01*
X100025562Y-106771819D01*
X99983105Y-106776000D01*
X98516895Y-106776000D01*
X98474438Y-106771819D01*
X98439519Y-106761226D01*
X98407337Y-106744024D01*
X98379127Y-106720873D01*
X98355976Y-106692663D01*
X98338774Y-106660481D01*
X98328181Y-106625562D01*
X98324000Y-106583105D01*
X98324000Y-105441895D01*
X98328181Y-105399438D01*
X98338774Y-105364519D01*
X98355976Y-105332337D01*
X98379127Y-105304127D01*
X98407337Y-105280976D01*
X98439519Y-105263774D01*
X98474438Y-105253181D01*
X98516895Y-105249000D01*
X99983105Y-105249000D01*
X100025562Y-105253181D01*
G37*
G36*
X172025562Y-104303181D02*
G01*
X172060481Y-104313774D01*
X172092663Y-104330976D01*
X172120873Y-104354127D01*
X172144024Y-104382337D01*
X172161226Y-104414519D01*
X172171819Y-104449438D01*
X172176000Y-104491895D01*
X172176000Y-105633105D01*
X172171819Y-105675562D01*
X172161226Y-105710481D01*
X172144024Y-105742663D01*
X172120873Y-105770873D01*
X172092663Y-105794024D01*
X172060481Y-105811226D01*
X172025562Y-105821819D01*
X171983105Y-105826000D01*
X170516895Y-105826000D01*
X170474438Y-105821819D01*
X170439519Y-105811226D01*
X170407337Y-105794024D01*
X170379127Y-105770873D01*
X170355976Y-105742663D01*
X170338774Y-105710481D01*
X170328181Y-105675562D01*
X170324000Y-105633105D01*
X170324000Y-104491895D01*
X170328181Y-104449438D01*
X170338774Y-104414519D01*
X170355976Y-104382337D01*
X170379127Y-104354127D01*
X170407337Y-104330976D01*
X170439519Y-104313774D01*
X170474438Y-104303181D01*
X170516895Y-104299000D01*
X171983105Y-104299000D01*
X172025562Y-104303181D01*
G37*
G36*
X156801000Y-105801000D02*
G01*
X154699000Y-105801000D01*
X154699000Y-105049000D01*
X156801000Y-105049000D01*
X156801000Y-105801000D01*
G37*
G36*
X129884928Y-104896764D02*
G01*
X129906009Y-104903160D01*
X129925445Y-104913548D01*
X129942476Y-104927524D01*
X129956452Y-104944555D01*
X129966840Y-104963991D01*
X129973236Y-104985072D01*
X129976000Y-105013140D01*
X129976000Y-105476860D01*
X129973236Y-105504928D01*
X129966840Y-105526009D01*
X129956452Y-105545445D01*
X129942476Y-105562476D01*
X129925445Y-105576452D01*
X129906009Y-105586840D01*
X129884928Y-105593236D01*
X129856860Y-105596000D01*
X127943140Y-105596000D01*
X127915072Y-105593236D01*
X127893991Y-105586840D01*
X127874555Y-105576452D01*
X127857524Y-105562476D01*
X127843548Y-105545445D01*
X127833160Y-105526009D01*
X127826764Y-105504928D01*
X127824000Y-105476860D01*
X127824000Y-105013140D01*
X127826764Y-104985072D01*
X127833160Y-104963991D01*
X127843548Y-104944555D01*
X127857524Y-104927524D01*
X127874555Y-104913548D01*
X127893991Y-104903160D01*
X127915072Y-104896764D01*
X127943140Y-104894000D01*
X129856860Y-104894000D01*
X129884928Y-104896764D01*
G37*
G36*
X120584928Y-104896764D02*
G01*
X120606009Y-104903160D01*
X120625445Y-104913548D01*
X120642476Y-104927524D01*
X120656452Y-104944555D01*
X120666840Y-104963991D01*
X120673236Y-104985072D01*
X120676000Y-105013140D01*
X120676000Y-105476860D01*
X120673236Y-105504928D01*
X120666840Y-105526009D01*
X120656452Y-105545445D01*
X120642476Y-105562476D01*
X120625445Y-105576452D01*
X120606009Y-105586840D01*
X120584928Y-105593236D01*
X120556860Y-105596000D01*
X118643140Y-105596000D01*
X118615072Y-105593236D01*
X118593991Y-105586840D01*
X118574555Y-105576452D01*
X118557524Y-105562476D01*
X118543548Y-105545445D01*
X118533160Y-105526009D01*
X118526764Y-105504928D01*
X118524000Y-105476860D01*
X118524000Y-105013140D01*
X118526764Y-104985072D01*
X118533160Y-104963991D01*
X118543548Y-104944555D01*
X118557524Y-104927524D01*
X118574555Y-104913548D01*
X118593991Y-104903160D01*
X118615072Y-104896764D01*
X118643140Y-104894000D01*
X120556860Y-104894000D01*
X120584928Y-104896764D01*
G37*
G36*
X150176000Y-104981000D02*
G01*
X149424000Y-104981000D01*
X149424000Y-103819000D01*
X150176000Y-103819000D01*
X150176000Y-104981000D01*
G37*
G36*
X152076000Y-104981000D02*
G01*
X151324000Y-104981000D01*
X151324000Y-103819000D01*
X152076000Y-103819000D01*
X152076000Y-104981000D01*
G37*
G36*
X159525562Y-103228181D02*
G01*
X159560481Y-103238774D01*
X159592663Y-103255976D01*
X159620873Y-103279127D01*
X159644024Y-103307337D01*
X159661226Y-103339519D01*
X159671819Y-103374438D01*
X159676000Y-103416895D01*
X159676000Y-104558105D01*
X159671819Y-104600562D01*
X159661226Y-104635481D01*
X159644024Y-104667663D01*
X159620873Y-104695873D01*
X159592663Y-104719024D01*
X159560481Y-104736226D01*
X159525562Y-104746819D01*
X159483105Y-104751000D01*
X158016895Y-104751000D01*
X157974438Y-104746819D01*
X157939519Y-104736226D01*
X157907337Y-104719024D01*
X157879127Y-104695873D01*
X157855976Y-104667663D01*
X157838774Y-104635481D01*
X157828181Y-104600562D01*
X157824000Y-104558105D01*
X157824000Y-103416895D01*
X157828181Y-103374438D01*
X157838774Y-103339519D01*
X157855976Y-103307337D01*
X157879127Y-103279127D01*
X157907337Y-103255976D01*
X157939519Y-103238774D01*
X157974438Y-103228181D01*
X158016895Y-103224000D01*
X159483105Y-103224000D01*
X159525562Y-103228181D01*
G37*
G36*
X162275562Y-103228181D02*
G01*
X162310481Y-103238774D01*
X162342663Y-103255976D01*
X162370873Y-103279127D01*
X162394024Y-103307337D01*
X162411226Y-103339519D01*
X162421819Y-103374438D01*
X162426000Y-103416895D01*
X162426000Y-104558105D01*
X162421819Y-104600562D01*
X162411226Y-104635481D01*
X162394024Y-104667663D01*
X162370873Y-104695873D01*
X162342663Y-104719024D01*
X162310481Y-104736226D01*
X162275562Y-104746819D01*
X162233105Y-104751000D01*
X160766895Y-104751000D01*
X160724438Y-104746819D01*
X160689519Y-104736226D01*
X160657337Y-104719024D01*
X160629127Y-104695873D01*
X160605976Y-104667663D01*
X160588774Y-104635481D01*
X160578181Y-104600562D01*
X160574000Y-104558105D01*
X160574000Y-103416895D01*
X160578181Y-103374438D01*
X160588774Y-103339519D01*
X160605976Y-103307337D01*
X160629127Y-103279127D01*
X160657337Y-103255976D01*
X160689519Y-103238774D01*
X160724438Y-103228181D01*
X160766895Y-103224000D01*
X162233105Y-103224000D01*
X162275562Y-103228181D01*
G37*
G36*
X156801000Y-104451000D02*
G01*
X154699000Y-104451000D01*
X154699000Y-103699000D01*
X156801000Y-103699000D01*
X156801000Y-104451000D01*
G37*
G36*
X148275562Y-102853181D02*
G01*
X148310481Y-102863774D01*
X148342663Y-102880976D01*
X148370873Y-102904127D01*
X148394024Y-102932337D01*
X148411226Y-102964519D01*
X148421819Y-102999438D01*
X148426000Y-103041895D01*
X148426000Y-104183105D01*
X148421819Y-104225562D01*
X148411226Y-104260481D01*
X148394024Y-104292663D01*
X148370873Y-104320873D01*
X148342663Y-104344024D01*
X148310481Y-104361226D01*
X148275562Y-104371819D01*
X148233105Y-104376000D01*
X146766895Y-104376000D01*
X146724438Y-104371819D01*
X146689519Y-104361226D01*
X146657337Y-104344024D01*
X146629127Y-104320873D01*
X146605976Y-104292663D01*
X146588774Y-104260481D01*
X146578181Y-104225562D01*
X146574000Y-104183105D01*
X146574000Y-103041895D01*
X146578181Y-102999438D01*
X146588774Y-102964519D01*
X146605976Y-102932337D01*
X146629127Y-102904127D01*
X146657337Y-102880976D01*
X146689519Y-102863774D01*
X146724438Y-102853181D01*
X146766895Y-102849000D01*
X148233105Y-102849000D01*
X148275562Y-102853181D01*
G37*
G36*
X120584928Y-103626764D02*
G01*
X120606009Y-103633160D01*
X120625445Y-103643548D01*
X120642476Y-103657524D01*
X120656452Y-103674555D01*
X120666840Y-103693991D01*
X120673236Y-103715072D01*
X120676000Y-103743140D01*
X120676000Y-104206860D01*
X120673236Y-104234928D01*
X120666840Y-104256009D01*
X120656452Y-104275445D01*
X120642476Y-104292476D01*
X120625445Y-104306452D01*
X120606009Y-104316840D01*
X120584928Y-104323236D01*
X120556860Y-104326000D01*
X118643140Y-104326000D01*
X118615072Y-104323236D01*
X118593991Y-104316840D01*
X118574555Y-104306452D01*
X118557524Y-104292476D01*
X118543548Y-104275445D01*
X118533160Y-104256009D01*
X118526764Y-104234928D01*
X118524000Y-104206860D01*
X118524000Y-103743140D01*
X118526764Y-103715072D01*
X118533160Y-103693991D01*
X118543548Y-103674555D01*
X118557524Y-103657524D01*
X118574555Y-103643548D01*
X118593991Y-103633160D01*
X118615072Y-103626764D01*
X118643140Y-103624000D01*
X120556860Y-103624000D01*
X120584928Y-103626764D01*
G37*
G36*
X129884928Y-103626764D02*
G01*
X129906009Y-103633160D01*
X129925445Y-103643548D01*
X129942476Y-103657524D01*
X129956452Y-103674555D01*
X129966840Y-103693991D01*
X129973236Y-103715072D01*
X129976000Y-103743140D01*
X129976000Y-104206860D01*
X129973236Y-104234928D01*
X129966840Y-104256009D01*
X129956452Y-104275445D01*
X129942476Y-104292476D01*
X129925445Y-104306452D01*
X129906009Y-104316840D01*
X129884928Y-104323236D01*
X129856860Y-104326000D01*
X127943140Y-104326000D01*
X127915072Y-104323236D01*
X127893991Y-104316840D01*
X127874555Y-104306452D01*
X127857524Y-104292476D01*
X127843548Y-104275445D01*
X127833160Y-104256009D01*
X127826764Y-104234928D01*
X127824000Y-104206860D01*
X127824000Y-103743140D01*
X127826764Y-103715072D01*
X127833160Y-103693991D01*
X127843548Y-103674555D01*
X127857524Y-103657524D01*
X127874555Y-103643548D01*
X127893991Y-103633160D01*
X127915072Y-103626764D01*
X127943140Y-103624000D01*
X129856860Y-103624000D01*
X129884928Y-103626764D01*
G37*
G36*
X140575562Y-102540681D02*
G01*
X140610481Y-102551274D01*
X140642663Y-102568476D01*
X140670873Y-102591627D01*
X140694024Y-102619837D01*
X140711226Y-102652019D01*
X140721819Y-102686938D01*
X140726000Y-102729395D01*
X140726000Y-103870605D01*
X140721819Y-103913062D01*
X140711226Y-103947981D01*
X140694024Y-103980163D01*
X140670873Y-104008373D01*
X140642663Y-104031524D01*
X140610481Y-104048726D01*
X140575562Y-104059319D01*
X140533105Y-104063500D01*
X139066895Y-104063500D01*
X139024438Y-104059319D01*
X138989519Y-104048726D01*
X138957337Y-104031524D01*
X138929127Y-104008373D01*
X138905976Y-103980163D01*
X138888774Y-103947981D01*
X138878181Y-103913062D01*
X138874000Y-103870605D01*
X138874000Y-102729395D01*
X138878181Y-102686938D01*
X138888774Y-102652019D01*
X138905976Y-102619837D01*
X138929127Y-102591627D01*
X138957337Y-102568476D01*
X138989519Y-102551274D01*
X139024438Y-102540681D01*
X139066895Y-102536500D01*
X140533105Y-102536500D01*
X140575562Y-102540681D01*
G37*
G36*
X138075562Y-102528181D02*
G01*
X138110481Y-102538774D01*
X138142663Y-102555976D01*
X138170873Y-102579127D01*
X138194024Y-102607337D01*
X138211226Y-102639519D01*
X138221819Y-102674438D01*
X138226000Y-102716895D01*
X138226000Y-103858105D01*
X138221819Y-103900562D01*
X138211226Y-103935481D01*
X138194024Y-103967663D01*
X138170873Y-103995873D01*
X138142663Y-104019024D01*
X138110481Y-104036226D01*
X138075562Y-104046819D01*
X138033105Y-104051000D01*
X136566895Y-104051000D01*
X136524438Y-104046819D01*
X136489519Y-104036226D01*
X136457337Y-104019024D01*
X136429127Y-103995873D01*
X136405976Y-103967663D01*
X136388774Y-103935481D01*
X136378181Y-103900562D01*
X136374000Y-103858105D01*
X136374000Y-102716895D01*
X136378181Y-102674438D01*
X136388774Y-102639519D01*
X136405976Y-102607337D01*
X136429127Y-102579127D01*
X136457337Y-102555976D01*
X136489519Y-102538774D01*
X136524438Y-102528181D01*
X136566895Y-102524000D01*
X138033105Y-102524000D01*
X138075562Y-102528181D01*
G37*
G36*
X108301000Y-104051000D02*
G01*
X106699000Y-104051000D01*
X106699000Y-101949000D01*
X108301000Y-101949000D01*
X108301000Y-104051000D01*
G37*
G36*
X103301000Y-104051000D02*
G01*
X101699000Y-104051000D01*
X101699000Y-101949000D01*
X103301000Y-101949000D01*
X103301000Y-104051000D01*
G37*
G36*
X105801000Y-104051000D02*
G01*
X104199000Y-104051000D01*
X104199000Y-101949000D01*
X105801000Y-101949000D01*
X105801000Y-104051000D01*
G37*
G36*
X135175562Y-102528181D02*
G01*
X135210481Y-102538774D01*
X135242663Y-102555976D01*
X135270873Y-102579127D01*
X135294024Y-102607337D01*
X135311226Y-102639519D01*
X135321819Y-102674438D01*
X135326000Y-102716895D01*
X135326000Y-103858105D01*
X135321819Y-103900562D01*
X135311226Y-103935481D01*
X135294024Y-103967663D01*
X135270873Y-103995873D01*
X135242663Y-104019024D01*
X135210481Y-104036226D01*
X135175562Y-104046819D01*
X135133105Y-104051000D01*
X133666895Y-104051000D01*
X133624438Y-104046819D01*
X133589519Y-104036226D01*
X133557337Y-104019024D01*
X133529127Y-103995873D01*
X133505976Y-103967663D01*
X133488774Y-103935481D01*
X133478181Y-103900562D01*
X133474000Y-103858105D01*
X133474000Y-102716895D01*
X133478181Y-102674438D01*
X133488774Y-102639519D01*
X133505976Y-102607337D01*
X133529127Y-102579127D01*
X133557337Y-102555976D01*
X133589519Y-102538774D01*
X133624438Y-102528181D01*
X133666895Y-102524000D01*
X135133105Y-102524000D01*
X135175562Y-102528181D01*
G37*
G36*
X168548156Y-94472794D02*
G01*
X169269140Y-94616206D01*
X170060972Y-94944193D01*
X170773601Y-95420357D01*
X171379643Y-96026399D01*
X171855807Y-96739028D01*
X172183794Y-97530860D01*
X172308560Y-98158105D01*
X172351000Y-98371463D01*
X172351000Y-99228537D01*
X172349348Y-99236840D01*
X172183794Y-100069140D01*
X171855807Y-100860972D01*
X171379643Y-101573601D01*
X170773601Y-102179643D01*
X170060972Y-102655807D01*
X169269140Y-102983794D01*
X168599994Y-103116895D01*
X168428537Y-103151000D01*
X167571463Y-103151000D01*
X167400006Y-103116895D01*
X166730860Y-102983794D01*
X165939028Y-102655807D01*
X165226399Y-102179643D01*
X164620357Y-101573601D01*
X164144193Y-100860972D01*
X163816206Y-100069140D01*
X163650652Y-99236840D01*
X163649000Y-99228537D01*
X163649000Y-98371463D01*
X163691440Y-98158105D01*
X163816206Y-97530860D01*
X164144193Y-96739028D01*
X164620357Y-96026399D01*
X165226399Y-95420357D01*
X165939028Y-94944193D01*
X166730860Y-94616206D01*
X167451844Y-94472794D01*
X167571463Y-94449000D01*
X168428537Y-94449000D01*
X168548156Y-94472794D01*
G37*
G36*
X120584928Y-102356764D02*
G01*
X120606009Y-102363160D01*
X120625445Y-102373548D01*
X120642476Y-102387524D01*
X120656452Y-102404555D01*
X120666840Y-102423991D01*
X120673236Y-102445072D01*
X120676000Y-102473140D01*
X120676000Y-102936860D01*
X120673236Y-102964928D01*
X120666840Y-102986009D01*
X120656452Y-103005445D01*
X120642476Y-103022476D01*
X120625445Y-103036452D01*
X120606009Y-103046840D01*
X120584928Y-103053236D01*
X120556860Y-103056000D01*
X118643140Y-103056000D01*
X118615072Y-103053236D01*
X118593991Y-103046840D01*
X118574555Y-103036452D01*
X118557524Y-103022476D01*
X118543548Y-103005445D01*
X118533160Y-102986009D01*
X118526764Y-102964928D01*
X118524000Y-102936860D01*
X118524000Y-102473140D01*
X118526764Y-102445072D01*
X118533160Y-102423991D01*
X118543548Y-102404555D01*
X118557524Y-102387524D01*
X118574555Y-102373548D01*
X118593991Y-102363160D01*
X118615072Y-102356764D01*
X118643140Y-102354000D01*
X120556860Y-102354000D01*
X120584928Y-102356764D01*
G37*
G36*
X129884928Y-102356764D02*
G01*
X129906009Y-102363160D01*
X129925445Y-102373548D01*
X129942476Y-102387524D01*
X129956452Y-102404555D01*
X129966840Y-102423991D01*
X129973236Y-102445072D01*
X129976000Y-102473140D01*
X129976000Y-102936860D01*
X129973236Y-102964928D01*
X129966840Y-102986009D01*
X129956452Y-103005445D01*
X129942476Y-103022476D01*
X129925445Y-103036452D01*
X129906009Y-103046840D01*
X129884928Y-103053236D01*
X129856860Y-103056000D01*
X127943140Y-103056000D01*
X127915072Y-103053236D01*
X127893991Y-103046840D01*
X127874555Y-103036452D01*
X127857524Y-103022476D01*
X127843548Y-103005445D01*
X127833160Y-102986009D01*
X127826764Y-102964928D01*
X127824000Y-102936860D01*
X127824000Y-102473140D01*
X127826764Y-102445072D01*
X127833160Y-102423991D01*
X127843548Y-102404555D01*
X127857524Y-102387524D01*
X127874555Y-102373548D01*
X127893991Y-102363160D01*
X127915072Y-102356764D01*
X127943140Y-102354000D01*
X129856860Y-102354000D01*
X129884928Y-102356764D01*
G37*
G36*
X143251000Y-102801000D02*
G01*
X142349000Y-102801000D01*
X142349000Y-101799000D01*
X143251000Y-101799000D01*
X143251000Y-102801000D01*
G37*
G36*
X120584928Y-101086764D02*
G01*
X120606009Y-101093160D01*
X120625445Y-101103548D01*
X120642476Y-101117524D01*
X120656452Y-101134555D01*
X120666840Y-101153991D01*
X120673236Y-101175072D01*
X120676000Y-101203140D01*
X120676000Y-101666860D01*
X120673236Y-101694928D01*
X120666840Y-101716009D01*
X120656452Y-101735445D01*
X120642476Y-101752476D01*
X120625445Y-101766452D01*
X120606009Y-101776840D01*
X120584928Y-101783236D01*
X120556860Y-101786000D01*
X118643140Y-101786000D01*
X118615072Y-101783236D01*
X118593991Y-101776840D01*
X118574555Y-101766452D01*
X118557524Y-101752476D01*
X118543548Y-101735445D01*
X118533160Y-101716009D01*
X118526764Y-101694928D01*
X118524000Y-101666860D01*
X118524000Y-101203140D01*
X118526764Y-101175072D01*
X118533160Y-101153991D01*
X118543548Y-101134555D01*
X118557524Y-101117524D01*
X118574555Y-101103548D01*
X118593991Y-101093160D01*
X118615072Y-101086764D01*
X118643140Y-101084000D01*
X120556860Y-101084000D01*
X120584928Y-101086764D01*
G37*
G36*
X129884928Y-101086764D02*
G01*
X129906009Y-101093160D01*
X129925445Y-101103548D01*
X129942476Y-101117524D01*
X129956452Y-101134555D01*
X129966840Y-101153991D01*
X129973236Y-101175072D01*
X129976000Y-101203140D01*
X129976000Y-101666860D01*
X129973236Y-101694928D01*
X129966840Y-101716009D01*
X129956452Y-101735445D01*
X129942476Y-101752476D01*
X129925445Y-101766452D01*
X129906009Y-101776840D01*
X129884928Y-101783236D01*
X129856860Y-101786000D01*
X127943140Y-101786000D01*
X127915072Y-101783236D01*
X127893991Y-101776840D01*
X127874555Y-101766452D01*
X127857524Y-101752476D01*
X127843548Y-101735445D01*
X127833160Y-101716009D01*
X127826764Y-101694928D01*
X127824000Y-101666860D01*
X127824000Y-101203140D01*
X127826764Y-101175072D01*
X127833160Y-101153991D01*
X127843548Y-101134555D01*
X127857524Y-101117524D01*
X127874555Y-101103548D01*
X127893991Y-101093160D01*
X127915072Y-101086764D01*
X127943140Y-101084000D01*
X129856860Y-101084000D01*
X129884928Y-101086764D01*
G37*
G36*
X162275562Y-100253181D02*
G01*
X162310481Y-100263774D01*
X162342663Y-100280976D01*
X162370873Y-100304127D01*
X162394024Y-100332337D01*
X162411226Y-100364519D01*
X162421819Y-100399438D01*
X162426000Y-100441895D01*
X162426000Y-101583105D01*
X162421819Y-101625562D01*
X162411226Y-101660481D01*
X162394024Y-101692663D01*
X162370873Y-101720873D01*
X162342663Y-101744024D01*
X162310481Y-101761226D01*
X162275562Y-101771819D01*
X162233105Y-101776000D01*
X160766895Y-101776000D01*
X160724438Y-101771819D01*
X160689519Y-101761226D01*
X160657337Y-101744024D01*
X160629127Y-101720873D01*
X160605976Y-101692663D01*
X160588774Y-101660481D01*
X160578181Y-101625562D01*
X160574000Y-101583105D01*
X160574000Y-100441895D01*
X160578181Y-100399438D01*
X160588774Y-100364519D01*
X160605976Y-100332337D01*
X160629127Y-100304127D01*
X160657337Y-100280976D01*
X160689519Y-100263774D01*
X160724438Y-100253181D01*
X160766895Y-100249000D01*
X162233105Y-100249000D01*
X162275562Y-100253181D01*
G37*
G36*
X159525562Y-100253181D02*
G01*
X159560481Y-100263774D01*
X159592663Y-100280976D01*
X159620873Y-100304127D01*
X159644024Y-100332337D01*
X159661226Y-100364519D01*
X159671819Y-100399438D01*
X159676000Y-100441895D01*
X159676000Y-101583105D01*
X159671819Y-101625562D01*
X159661226Y-101660481D01*
X159644024Y-101692663D01*
X159620873Y-101720873D01*
X159592663Y-101744024D01*
X159560481Y-101761226D01*
X159525562Y-101771819D01*
X159483105Y-101776000D01*
X158016895Y-101776000D01*
X157974438Y-101771819D01*
X157939519Y-101761226D01*
X157907337Y-101744024D01*
X157879127Y-101720873D01*
X157855976Y-101692663D01*
X157838774Y-101660481D01*
X157828181Y-101625562D01*
X157824000Y-101583105D01*
X157824000Y-100441895D01*
X157828181Y-100399438D01*
X157838774Y-100364519D01*
X157855976Y-100332337D01*
X157879127Y-100304127D01*
X157907337Y-100280976D01*
X157939519Y-100263774D01*
X157974438Y-100253181D01*
X158016895Y-100249000D01*
X159483105Y-100249000D01*
X159525562Y-100253181D01*
G37*
G36*
X140575562Y-99565681D02*
G01*
X140610481Y-99576274D01*
X140642663Y-99593476D01*
X140670873Y-99616627D01*
X140694024Y-99644837D01*
X140711226Y-99677019D01*
X140721819Y-99711938D01*
X140726000Y-99754395D01*
X140726000Y-100895605D01*
X140721819Y-100938062D01*
X140711226Y-100972981D01*
X140694024Y-101005163D01*
X140670873Y-101033373D01*
X140642663Y-101056524D01*
X140610481Y-101073726D01*
X140575562Y-101084319D01*
X140533105Y-101088500D01*
X139066895Y-101088500D01*
X139024438Y-101084319D01*
X138989519Y-101073726D01*
X138957337Y-101056524D01*
X138929127Y-101033373D01*
X138905976Y-101005163D01*
X138888774Y-100972981D01*
X138878181Y-100938062D01*
X138874000Y-100895605D01*
X138874000Y-99754395D01*
X138878181Y-99711938D01*
X138888774Y-99677019D01*
X138905976Y-99644837D01*
X138929127Y-99616627D01*
X138957337Y-99593476D01*
X138989519Y-99576274D01*
X139024438Y-99565681D01*
X139066895Y-99561500D01*
X140533105Y-99561500D01*
X140575562Y-99565681D01*
G37*
G36*
X135175562Y-99553181D02*
G01*
X135210481Y-99563774D01*
X135242663Y-99580976D01*
X135270873Y-99604127D01*
X135294024Y-99632337D01*
X135311226Y-99664519D01*
X135321819Y-99699438D01*
X135326000Y-99741895D01*
X135326000Y-100883105D01*
X135321819Y-100925562D01*
X135311226Y-100960481D01*
X135294024Y-100992663D01*
X135270873Y-101020873D01*
X135242663Y-101044024D01*
X135210481Y-101061226D01*
X135175562Y-101071819D01*
X135133105Y-101076000D01*
X133666895Y-101076000D01*
X133624438Y-101071819D01*
X133589519Y-101061226D01*
X133557337Y-101044024D01*
X133529127Y-101020873D01*
X133505976Y-100992663D01*
X133488774Y-100960481D01*
X133478181Y-100925562D01*
X133474000Y-100883105D01*
X133474000Y-99741895D01*
X133478181Y-99699438D01*
X133488774Y-99664519D01*
X133505976Y-99632337D01*
X133529127Y-99604127D01*
X133557337Y-99580976D01*
X133589519Y-99563774D01*
X133624438Y-99553181D01*
X133666895Y-99549000D01*
X135133105Y-99549000D01*
X135175562Y-99553181D01*
G37*
G36*
X138075562Y-99553181D02*
G01*
X138110481Y-99563774D01*
X138142663Y-99580976D01*
X138170873Y-99604127D01*
X138194024Y-99632337D01*
X138211226Y-99664519D01*
X138221819Y-99699438D01*
X138226000Y-99741895D01*
X138226000Y-100883105D01*
X138221819Y-100925562D01*
X138211226Y-100960481D01*
X138194024Y-100992663D01*
X138170873Y-101020873D01*
X138142663Y-101044024D01*
X138110481Y-101061226D01*
X138075562Y-101071819D01*
X138033105Y-101076000D01*
X136566895Y-101076000D01*
X136524438Y-101071819D01*
X136489519Y-101061226D01*
X136457337Y-101044024D01*
X136429127Y-101020873D01*
X136405976Y-100992663D01*
X136388774Y-100960481D01*
X136378181Y-100925562D01*
X136374000Y-100883105D01*
X136374000Y-99741895D01*
X136378181Y-99699438D01*
X136388774Y-99664519D01*
X136405976Y-99632337D01*
X136429127Y-99604127D01*
X136457337Y-99580976D01*
X136489519Y-99563774D01*
X136524438Y-99553181D01*
X136566895Y-99549000D01*
X138033105Y-99549000D01*
X138075562Y-99553181D01*
G37*
G36*
X142301000Y-100801000D02*
G01*
X141399000Y-100801000D01*
X141399000Y-99799000D01*
X142301000Y-99799000D01*
X142301000Y-100801000D01*
G37*
G36*
X144201000Y-100801000D02*
G01*
X143299000Y-100801000D01*
X143299000Y-99799000D01*
X144201000Y-99799000D01*
X144201000Y-100801000D01*
G37*
G36*
X120584928Y-99816764D02*
G01*
X120606009Y-99823160D01*
X120625445Y-99833548D01*
X120642476Y-99847524D01*
X120656452Y-99864555D01*
X120666840Y-99883991D01*
X120673236Y-99905072D01*
X120676000Y-99933140D01*
X120676000Y-100396860D01*
X120673236Y-100424928D01*
X120666840Y-100446009D01*
X120656452Y-100465445D01*
X120642476Y-100482476D01*
X120625445Y-100496452D01*
X120606009Y-100506840D01*
X120584928Y-100513236D01*
X120556860Y-100516000D01*
X118643140Y-100516000D01*
X118615072Y-100513236D01*
X118593991Y-100506840D01*
X118574555Y-100496452D01*
X118557524Y-100482476D01*
X118543548Y-100465445D01*
X118533160Y-100446009D01*
X118526764Y-100424928D01*
X118524000Y-100396860D01*
X118524000Y-99933140D01*
X118526764Y-99905072D01*
X118533160Y-99883991D01*
X118543548Y-99864555D01*
X118557524Y-99847524D01*
X118574555Y-99833548D01*
X118593991Y-99823160D01*
X118615072Y-99816764D01*
X118643140Y-99814000D01*
X120556860Y-99814000D01*
X120584928Y-99816764D01*
G37*
G36*
X129884928Y-99816764D02*
G01*
X129906009Y-99823160D01*
X129925445Y-99833548D01*
X129942476Y-99847524D01*
X129956452Y-99864555D01*
X129966840Y-99883991D01*
X129973236Y-99905072D01*
X129976000Y-99933140D01*
X129976000Y-100396860D01*
X129973236Y-100424928D01*
X129966840Y-100446009D01*
X129956452Y-100465445D01*
X129942476Y-100482476D01*
X129925445Y-100496452D01*
X129906009Y-100506840D01*
X129884928Y-100513236D01*
X129856860Y-100516000D01*
X127943140Y-100516000D01*
X127915072Y-100513236D01*
X127893991Y-100506840D01*
X127874555Y-100496452D01*
X127857524Y-100482476D01*
X127843548Y-100465445D01*
X127833160Y-100446009D01*
X127826764Y-100424928D01*
X127824000Y-100396860D01*
X127824000Y-99933140D01*
X127826764Y-99905072D01*
X127833160Y-99883991D01*
X127843548Y-99864555D01*
X127857524Y-99847524D01*
X127874555Y-99833548D01*
X127893991Y-99823160D01*
X127915072Y-99816764D01*
X127943140Y-99814000D01*
X129856860Y-99814000D01*
X129884928Y-99816764D01*
G37*
G36*
X120584928Y-98546764D02*
G01*
X120606009Y-98553160D01*
X120625445Y-98563548D01*
X120642476Y-98577524D01*
X120656452Y-98594555D01*
X120666840Y-98613991D01*
X120673236Y-98635072D01*
X120676000Y-98663140D01*
X120676000Y-99126860D01*
X120673236Y-99154928D01*
X120666840Y-99176009D01*
X120656452Y-99195445D01*
X120642476Y-99212476D01*
X120625445Y-99226452D01*
X120606009Y-99236840D01*
X120584928Y-99243236D01*
X120556860Y-99246000D01*
X118643140Y-99246000D01*
X118615072Y-99243236D01*
X118593991Y-99236840D01*
X118574555Y-99226452D01*
X118557524Y-99212476D01*
X118543548Y-99195445D01*
X118533160Y-99176009D01*
X118526764Y-99154928D01*
X118524000Y-99126860D01*
X118524000Y-98663140D01*
X118526764Y-98635072D01*
X118533160Y-98613991D01*
X118543548Y-98594555D01*
X118557524Y-98577524D01*
X118574555Y-98563548D01*
X118593991Y-98553160D01*
X118615072Y-98546764D01*
X118643140Y-98544000D01*
X120556860Y-98544000D01*
X120584928Y-98546764D01*
G37*
G36*
X129884928Y-98546764D02*
G01*
X129906009Y-98553160D01*
X129925445Y-98563548D01*
X129942476Y-98577524D01*
X129956452Y-98594555D01*
X129966840Y-98613991D01*
X129973236Y-98635072D01*
X129976000Y-98663140D01*
X129976000Y-99126860D01*
X129973236Y-99154928D01*
X129966840Y-99176009D01*
X129956452Y-99195445D01*
X129942476Y-99212476D01*
X129925445Y-99226452D01*
X129906009Y-99236840D01*
X129884928Y-99243236D01*
X129856860Y-99246000D01*
X127943140Y-99246000D01*
X127915072Y-99243236D01*
X127893991Y-99236840D01*
X127874555Y-99226452D01*
X127857524Y-99212476D01*
X127843548Y-99195445D01*
X127833160Y-99176009D01*
X127826764Y-99154928D01*
X127824000Y-99126860D01*
X127824000Y-98663140D01*
X127826764Y-98635072D01*
X127833160Y-98613991D01*
X127843548Y-98594555D01*
X127857524Y-98577524D01*
X127874555Y-98563548D01*
X127893991Y-98553160D01*
X127915072Y-98546764D01*
X127943140Y-98544000D01*
X129856860Y-98544000D01*
X129884928Y-98546764D01*
G37*
G36*
X161850562Y-96578181D02*
G01*
X161885481Y-96588774D01*
X161917663Y-96605976D01*
X161945873Y-96629127D01*
X161969024Y-96657337D01*
X161986226Y-96689519D01*
X161996819Y-96724438D01*
X162001000Y-96766895D01*
X162001000Y-98233105D01*
X161996819Y-98275562D01*
X161986226Y-98310481D01*
X161969024Y-98342663D01*
X161945873Y-98370873D01*
X161917663Y-98394024D01*
X161885481Y-98411226D01*
X161850562Y-98421819D01*
X161808105Y-98426000D01*
X160666895Y-98426000D01*
X160624438Y-98421819D01*
X160589519Y-98411226D01*
X160557337Y-98394024D01*
X160529127Y-98370873D01*
X160505976Y-98342663D01*
X160488774Y-98310481D01*
X160478181Y-98275562D01*
X160474000Y-98233105D01*
X160474000Y-96766895D01*
X160478181Y-96724438D01*
X160488774Y-96689519D01*
X160505976Y-96657337D01*
X160529127Y-96629127D01*
X160557337Y-96605976D01*
X160589519Y-96588774D01*
X160624438Y-96578181D01*
X160666895Y-96574000D01*
X161808105Y-96574000D01*
X161850562Y-96578181D01*
G37*
G36*
X158875562Y-96578181D02*
G01*
X158910481Y-96588774D01*
X158942663Y-96605976D01*
X158970873Y-96629127D01*
X158994024Y-96657337D01*
X159011226Y-96689519D01*
X159021819Y-96724438D01*
X159026000Y-96766895D01*
X159026000Y-98233105D01*
X159021819Y-98275562D01*
X159011226Y-98310481D01*
X158994024Y-98342663D01*
X158970873Y-98370873D01*
X158942663Y-98394024D01*
X158910481Y-98411226D01*
X158875562Y-98421819D01*
X158833105Y-98426000D01*
X157691895Y-98426000D01*
X157649438Y-98421819D01*
X157614519Y-98411226D01*
X157582337Y-98394024D01*
X157554127Y-98370873D01*
X157530976Y-98342663D01*
X157513774Y-98310481D01*
X157503181Y-98275562D01*
X157499000Y-98233105D01*
X157499000Y-96766895D01*
X157503181Y-96724438D01*
X157513774Y-96689519D01*
X157530976Y-96657337D01*
X157554127Y-96629127D01*
X157582337Y-96605976D01*
X157614519Y-96588774D01*
X157649438Y-96578181D01*
X157691895Y-96574000D01*
X158833105Y-96574000D01*
X158875562Y-96578181D01*
G37*
G36*
X120584928Y-97276764D02*
G01*
X120606009Y-97283160D01*
X120625445Y-97293548D01*
X120642476Y-97307524D01*
X120656452Y-97324555D01*
X120666840Y-97343991D01*
X120673236Y-97365072D01*
X120676000Y-97393140D01*
X120676000Y-97856860D01*
X120673236Y-97884928D01*
X120666840Y-97906009D01*
X120656452Y-97925445D01*
X120642476Y-97942476D01*
X120625445Y-97956452D01*
X120606009Y-97966840D01*
X120584928Y-97973236D01*
X120556860Y-97976000D01*
X118643140Y-97976000D01*
X118615072Y-97973236D01*
X118593991Y-97966840D01*
X118574555Y-97956452D01*
X118557524Y-97942476D01*
X118543548Y-97925445D01*
X118533160Y-97906009D01*
X118526764Y-97884928D01*
X118524000Y-97856860D01*
X118524000Y-97393140D01*
X118526764Y-97365072D01*
X118533160Y-97343991D01*
X118543548Y-97324555D01*
X118557524Y-97307524D01*
X118574555Y-97293548D01*
X118593991Y-97283160D01*
X118615072Y-97276764D01*
X118643140Y-97274000D01*
X120556860Y-97274000D01*
X120584928Y-97276764D01*
G37*
G36*
X129884928Y-97276764D02*
G01*
X129906009Y-97283160D01*
X129925445Y-97293548D01*
X129942476Y-97307524D01*
X129956452Y-97324555D01*
X129966840Y-97343991D01*
X129973236Y-97365072D01*
X129976000Y-97393140D01*
X129976000Y-97856860D01*
X129973236Y-97884928D01*
X129966840Y-97906009D01*
X129956452Y-97925445D01*
X129942476Y-97942476D01*
X129925445Y-97956452D01*
X129906009Y-97966840D01*
X129884928Y-97973236D01*
X129856860Y-97976000D01*
X127943140Y-97976000D01*
X127915072Y-97973236D01*
X127893991Y-97966840D01*
X127874555Y-97956452D01*
X127857524Y-97942476D01*
X127843548Y-97925445D01*
X127833160Y-97906009D01*
X127826764Y-97884928D01*
X127824000Y-97856860D01*
X127824000Y-97393140D01*
X127826764Y-97365072D01*
X127833160Y-97343991D01*
X127843548Y-97324555D01*
X127857524Y-97307524D01*
X127874555Y-97293548D01*
X127893991Y-97283160D01*
X127915072Y-97276764D01*
X127943140Y-97274000D01*
X129856860Y-97274000D01*
X129884928Y-97276764D01*
G37*
G36*
X129884928Y-96006764D02*
G01*
X129906009Y-96013160D01*
X129925445Y-96023548D01*
X129942476Y-96037524D01*
X129956452Y-96054555D01*
X129966840Y-96073991D01*
X129973236Y-96095072D01*
X129976000Y-96123140D01*
X129976000Y-96586860D01*
X129973236Y-96614928D01*
X129966840Y-96636009D01*
X129956452Y-96655445D01*
X129942476Y-96672476D01*
X129925445Y-96686452D01*
X129906009Y-96696840D01*
X129884928Y-96703236D01*
X129856860Y-96706000D01*
X127943140Y-96706000D01*
X127915072Y-96703236D01*
X127893991Y-96696840D01*
X127874555Y-96686452D01*
X127857524Y-96672476D01*
X127843548Y-96655445D01*
X127833160Y-96636009D01*
X127826764Y-96614928D01*
X127824000Y-96586860D01*
X127824000Y-96123140D01*
X127826764Y-96095072D01*
X127833160Y-96073991D01*
X127843548Y-96054555D01*
X127857524Y-96037524D01*
X127874555Y-96023548D01*
X127893991Y-96013160D01*
X127915072Y-96006764D01*
X127943140Y-96004000D01*
X129856860Y-96004000D01*
X129884928Y-96006764D01*
G37*
G36*
X120584928Y-96006764D02*
G01*
X120606009Y-96013160D01*
X120625445Y-96023548D01*
X120642476Y-96037524D01*
X120656452Y-96054555D01*
X120666840Y-96073991D01*
X120673236Y-96095072D01*
X120676000Y-96123140D01*
X120676000Y-96586860D01*
X120673236Y-96614928D01*
X120666840Y-96636009D01*
X120656452Y-96655445D01*
X120642476Y-96672476D01*
X120625445Y-96686452D01*
X120606009Y-96696840D01*
X120584928Y-96703236D01*
X120556860Y-96706000D01*
X118643140Y-96706000D01*
X118615072Y-96703236D01*
X118593991Y-96696840D01*
X118574555Y-96686452D01*
X118557524Y-96672476D01*
X118543548Y-96655445D01*
X118533160Y-96636009D01*
X118526764Y-96614928D01*
X118524000Y-96586860D01*
X118524000Y-96123140D01*
X118526764Y-96095072D01*
X118533160Y-96073991D01*
X118543548Y-96054555D01*
X118557524Y-96037524D01*
X118574555Y-96023548D01*
X118593991Y-96013160D01*
X118615072Y-96006764D01*
X118643140Y-96004000D01*
X120556860Y-96004000D01*
X120584928Y-96006764D01*
G37*
G36*
X99551000Y-96551000D02*
G01*
X96949000Y-96551000D01*
X96949000Y-93449000D01*
X99551000Y-93449000D01*
X99551000Y-96551000D01*
G37*
G36*
X113051000Y-96551000D02*
G01*
X110449000Y-96551000D01*
X110449000Y-93449000D01*
X113051000Y-93449000D01*
X113051000Y-96551000D01*
G37*
G36*
X103219059Y-94277860D02*
G01*
X103355732Y-94334472D01*
X103478735Y-94416660D01*
X103583340Y-94521265D01*
X103646778Y-94616207D01*
X103665529Y-94644270D01*
X103722140Y-94780941D01*
X103751000Y-94926032D01*
X103751000Y-95073968D01*
X103722140Y-95219059D01*
X103670942Y-95342663D01*
X103665528Y-95355732D01*
X103583340Y-95478735D01*
X103478735Y-95583340D01*
X103355732Y-95665528D01*
X103355731Y-95665529D01*
X103355730Y-95665529D01*
X103219059Y-95722140D01*
X103073968Y-95751000D01*
X102926032Y-95751000D01*
X102780941Y-95722140D01*
X102644270Y-95665529D01*
X102644269Y-95665529D01*
X102644268Y-95665528D01*
X102521265Y-95583340D01*
X102416660Y-95478735D01*
X102334472Y-95355732D01*
X102329059Y-95342663D01*
X102277860Y-95219059D01*
X102249000Y-95073968D01*
X102249000Y-94926032D01*
X102277860Y-94780941D01*
X102334471Y-94644270D01*
X102353222Y-94616207D01*
X102416660Y-94521265D01*
X102521265Y-94416660D01*
X102644268Y-94334472D01*
X102780941Y-94277860D01*
X102926032Y-94249000D01*
X103073968Y-94249000D01*
X103219059Y-94277860D01*
G37*
G36*
X107689890Y-94374017D02*
G01*
X107792839Y-94416660D01*
X107808364Y-94423091D01*
X107914988Y-94494335D01*
X108005665Y-94585012D01*
X108045259Y-94644268D01*
X108076910Y-94691638D01*
X108125983Y-94810110D01*
X108151000Y-94935881D01*
X108151000Y-95064119D01*
X108145205Y-95093253D01*
X108125983Y-95189890D01*
X108076909Y-95308364D01*
X108005665Y-95414988D01*
X107914988Y-95505665D01*
X107808364Y-95576909D01*
X107808363Y-95576910D01*
X107808362Y-95576910D01*
X107689890Y-95625983D01*
X107564119Y-95651000D01*
X107435881Y-95651000D01*
X107310110Y-95625983D01*
X107191638Y-95576910D01*
X107191637Y-95576910D01*
X107191636Y-95576909D01*
X107085012Y-95505665D01*
X106994335Y-95414988D01*
X106923091Y-95308364D01*
X106874017Y-95189890D01*
X106854795Y-95093253D01*
X106849000Y-95064119D01*
X106849000Y-94935881D01*
X106874017Y-94810110D01*
X106923090Y-94691638D01*
X106954742Y-94644268D01*
X106994335Y-94585012D01*
X107085012Y-94494335D01*
X107191636Y-94423091D01*
X107207162Y-94416660D01*
X107310110Y-94374017D01*
X107435881Y-94349000D01*
X107564119Y-94349000D01*
X107689890Y-94374017D01*
G37*
G36*
X120584928Y-94736764D02*
G01*
X120606009Y-94743160D01*
X120625445Y-94753548D01*
X120642476Y-94767524D01*
X120656452Y-94784555D01*
X120666840Y-94803991D01*
X120673236Y-94825072D01*
X120676000Y-94853140D01*
X120676000Y-95316860D01*
X120673236Y-95344928D01*
X120666840Y-95366009D01*
X120656452Y-95385445D01*
X120642476Y-95402476D01*
X120625445Y-95416452D01*
X120606009Y-95426840D01*
X120584928Y-95433236D01*
X120556860Y-95436000D01*
X118643140Y-95436000D01*
X118615072Y-95433236D01*
X118593991Y-95426840D01*
X118574555Y-95416452D01*
X118557524Y-95402476D01*
X118543548Y-95385445D01*
X118533160Y-95366009D01*
X118526764Y-95344928D01*
X118524000Y-95316860D01*
X118524000Y-94853140D01*
X118526764Y-94825072D01*
X118533160Y-94803991D01*
X118543548Y-94784555D01*
X118557524Y-94767524D01*
X118574555Y-94753548D01*
X118593991Y-94743160D01*
X118615072Y-94736764D01*
X118643140Y-94734000D01*
X120556860Y-94734000D01*
X120584928Y-94736764D01*
G37*
G36*
X129884928Y-94736764D02*
G01*
X129906009Y-94743160D01*
X129925445Y-94753548D01*
X129942476Y-94767524D01*
X129956452Y-94784555D01*
X129966840Y-94803991D01*
X129973236Y-94825072D01*
X129976000Y-94853140D01*
X129976000Y-95316860D01*
X129973236Y-95344928D01*
X129966840Y-95366009D01*
X129956452Y-95385445D01*
X129942476Y-95402476D01*
X129925445Y-95416452D01*
X129906009Y-95426840D01*
X129884928Y-95433236D01*
X129856860Y-95436000D01*
X127943140Y-95436000D01*
X127915072Y-95433236D01*
X127893991Y-95426840D01*
X127874555Y-95416452D01*
X127857524Y-95402476D01*
X127843548Y-95385445D01*
X127833160Y-95366009D01*
X127826764Y-95344928D01*
X127824000Y-95316860D01*
X127824000Y-94853140D01*
X127826764Y-94825072D01*
X127833160Y-94803991D01*
X127843548Y-94784555D01*
X127857524Y-94767524D01*
X127874555Y-94753548D01*
X127893991Y-94743160D01*
X127915072Y-94736764D01*
X127943140Y-94734000D01*
X129856860Y-94734000D01*
X129884928Y-94736764D01*
G37*
G36*
X158875562Y-93578181D02*
G01*
X158910481Y-93588774D01*
X158942663Y-93605976D01*
X158970873Y-93629127D01*
X158994024Y-93657337D01*
X159011226Y-93689519D01*
X159021819Y-93724438D01*
X159026000Y-93766895D01*
X159026000Y-95233105D01*
X159021819Y-95275562D01*
X159011226Y-95310481D01*
X158994024Y-95342663D01*
X158970873Y-95370873D01*
X158942663Y-95394024D01*
X158910481Y-95411226D01*
X158875562Y-95421819D01*
X158833105Y-95426000D01*
X157691895Y-95426000D01*
X157649438Y-95421819D01*
X157614519Y-95411226D01*
X157582337Y-95394024D01*
X157554127Y-95370873D01*
X157530976Y-95342663D01*
X157513774Y-95310481D01*
X157503181Y-95275562D01*
X157499000Y-95233105D01*
X157499000Y-93766895D01*
X157503181Y-93724438D01*
X157513774Y-93689519D01*
X157530976Y-93657337D01*
X157554127Y-93629127D01*
X157582337Y-93605976D01*
X157614519Y-93588774D01*
X157649438Y-93578181D01*
X157691895Y-93574000D01*
X158833105Y-93574000D01*
X158875562Y-93578181D01*
G37*
G36*
X161850562Y-93578181D02*
G01*
X161885481Y-93588774D01*
X161917663Y-93605976D01*
X161945873Y-93629127D01*
X161969024Y-93657337D01*
X161986226Y-93689519D01*
X161996819Y-93724438D01*
X162001000Y-93766895D01*
X162001000Y-95233105D01*
X161996819Y-95275562D01*
X161986226Y-95310481D01*
X161969024Y-95342663D01*
X161945873Y-95370873D01*
X161917663Y-95394024D01*
X161885481Y-95411226D01*
X161850562Y-95421819D01*
X161808105Y-95426000D01*
X160666895Y-95426000D01*
X160624438Y-95421819D01*
X160589519Y-95411226D01*
X160557337Y-95394024D01*
X160529127Y-95370873D01*
X160505976Y-95342663D01*
X160488774Y-95310481D01*
X160478181Y-95275562D01*
X160474000Y-95233105D01*
X160474000Y-93766895D01*
X160478181Y-93724438D01*
X160488774Y-93689519D01*
X160505976Y-93657337D01*
X160529127Y-93629127D01*
X160557337Y-93605976D01*
X160589519Y-93588774D01*
X160624438Y-93578181D01*
X160666895Y-93574000D01*
X161808105Y-93574000D01*
X161850562Y-93578181D01*
G37*
G36*
X153275562Y-91728181D02*
G01*
X153310481Y-91738774D01*
X153342663Y-91755976D01*
X153370873Y-91779127D01*
X153394024Y-91807337D01*
X153411226Y-91839519D01*
X153421819Y-91874438D01*
X153426000Y-91916895D01*
X153426000Y-93058105D01*
X153421819Y-93100562D01*
X153411226Y-93135481D01*
X153394024Y-93167663D01*
X153370873Y-93195873D01*
X153342663Y-93219024D01*
X153310481Y-93236226D01*
X153275562Y-93246819D01*
X153233105Y-93251000D01*
X151766895Y-93251000D01*
X151724438Y-93246819D01*
X151689519Y-93236226D01*
X151657337Y-93219024D01*
X151629127Y-93195873D01*
X151605976Y-93167663D01*
X151588774Y-93135481D01*
X151578181Y-93100562D01*
X151574000Y-93058105D01*
X151574000Y-91916895D01*
X151578181Y-91874438D01*
X151588774Y-91839519D01*
X151605976Y-91807337D01*
X151629127Y-91779127D01*
X151657337Y-91755976D01*
X151689519Y-91738774D01*
X151724438Y-91728181D01*
X151766895Y-91724000D01*
X153233105Y-91724000D01*
X153275562Y-91728181D01*
G37*
G36*
X121900562Y-90678181D02*
G01*
X121935481Y-90688774D01*
X121967663Y-90705976D01*
X121995873Y-90729127D01*
X122019024Y-90757337D01*
X122036226Y-90789519D01*
X122046819Y-90824438D01*
X122051000Y-90866895D01*
X122051000Y-92333105D01*
X122046819Y-92375562D01*
X122036226Y-92410481D01*
X122019024Y-92442663D01*
X121995873Y-92470873D01*
X121967663Y-92494024D01*
X121935481Y-92511226D01*
X121900562Y-92521819D01*
X121858105Y-92526000D01*
X120716895Y-92526000D01*
X120674438Y-92521819D01*
X120639519Y-92511226D01*
X120607337Y-92494024D01*
X120579127Y-92470873D01*
X120555976Y-92442663D01*
X120538774Y-92410481D01*
X120528181Y-92375562D01*
X120524000Y-92333105D01*
X120524000Y-90866895D01*
X120528181Y-90824438D01*
X120538774Y-90789519D01*
X120555976Y-90757337D01*
X120579127Y-90729127D01*
X120607337Y-90705976D01*
X120639519Y-90688774D01*
X120674438Y-90678181D01*
X120716895Y-90674000D01*
X121858105Y-90674000D01*
X121900562Y-90678181D01*
G37*
G36*
X118925562Y-90678181D02*
G01*
X118960481Y-90688774D01*
X118992663Y-90705976D01*
X119020873Y-90729127D01*
X119044024Y-90757337D01*
X119061226Y-90789519D01*
X119071819Y-90824438D01*
X119076000Y-90866895D01*
X119076000Y-92333105D01*
X119071819Y-92375562D01*
X119061226Y-92410481D01*
X119044024Y-92442663D01*
X119020873Y-92470873D01*
X118992663Y-92494024D01*
X118960481Y-92511226D01*
X118925562Y-92521819D01*
X118883105Y-92526000D01*
X117741895Y-92526000D01*
X117699438Y-92521819D01*
X117664519Y-92511226D01*
X117632337Y-92494024D01*
X117604127Y-92470873D01*
X117580976Y-92442663D01*
X117563774Y-92410481D01*
X117553181Y-92375562D01*
X117549000Y-92333105D01*
X117549000Y-90866895D01*
X117553181Y-90824438D01*
X117563774Y-90789519D01*
X117580976Y-90757337D01*
X117604127Y-90729127D01*
X117632337Y-90705976D01*
X117664519Y-90688774D01*
X117699438Y-90678181D01*
X117741895Y-90674000D01*
X118883105Y-90674000D01*
X118925562Y-90678181D01*
G37*
G36*
X156775562Y-90728181D02*
G01*
X156810481Y-90738774D01*
X156842663Y-90755976D01*
X156870873Y-90779127D01*
X156894024Y-90807337D01*
X156911226Y-90839519D01*
X156921819Y-90874438D01*
X156926000Y-90916895D01*
X156926000Y-92058105D01*
X156921819Y-92100562D01*
X156911226Y-92135481D01*
X156894024Y-92167663D01*
X156870873Y-92195873D01*
X156842663Y-92219024D01*
X156810481Y-92236226D01*
X156775562Y-92246819D01*
X156733105Y-92251000D01*
X155266895Y-92251000D01*
X155224438Y-92246819D01*
X155189519Y-92236226D01*
X155157337Y-92219024D01*
X155129127Y-92195873D01*
X155105976Y-92167663D01*
X155088774Y-92135481D01*
X155078181Y-92100562D01*
X155074000Y-92058105D01*
X155074000Y-90916895D01*
X155078181Y-90874438D01*
X155088774Y-90839519D01*
X155105976Y-90807337D01*
X155129127Y-90779127D01*
X155157337Y-90755976D01*
X155189519Y-90738774D01*
X155224438Y-90728181D01*
X155266895Y-90724000D01*
X156733105Y-90724000D01*
X156775562Y-90728181D01*
G37*
G36*
X153275562Y-88753181D02*
G01*
X153310481Y-88763774D01*
X153342663Y-88780976D01*
X153370873Y-88804127D01*
X153394024Y-88832337D01*
X153411226Y-88864519D01*
X153421819Y-88899438D01*
X153426000Y-88941895D01*
X153426000Y-90083105D01*
X153421819Y-90125562D01*
X153411226Y-90160481D01*
X153394024Y-90192663D01*
X153370873Y-90220873D01*
X153342663Y-90244024D01*
X153310481Y-90261226D01*
X153275562Y-90271819D01*
X153233105Y-90276000D01*
X151766895Y-90276000D01*
X151724438Y-90271819D01*
X151689519Y-90261226D01*
X151657337Y-90244024D01*
X151629127Y-90220873D01*
X151605976Y-90192663D01*
X151588774Y-90160481D01*
X151578181Y-90125562D01*
X151574000Y-90083105D01*
X151574000Y-88941895D01*
X151578181Y-88899438D01*
X151588774Y-88864519D01*
X151605976Y-88832337D01*
X151629127Y-88804127D01*
X151657337Y-88780976D01*
X151689519Y-88763774D01*
X151724438Y-88753181D01*
X151766895Y-88749000D01*
X153233105Y-88749000D01*
X153275562Y-88753181D01*
G37*
G36*
X168538499Y-80670873D02*
G01*
X169269140Y-80816206D01*
X170060972Y-81144193D01*
X170773601Y-81620357D01*
X171379643Y-82226399D01*
X171855807Y-82939028D01*
X172183794Y-83730860D01*
X172302174Y-84326000D01*
X172338848Y-84510369D01*
X172351000Y-84571464D01*
X172351000Y-85428536D01*
X172183794Y-86269140D01*
X171855807Y-87060972D01*
X171379643Y-87773601D01*
X170773601Y-88379643D01*
X170060972Y-88855807D01*
X169269140Y-89183794D01*
X168548156Y-89327206D01*
X168428537Y-89351000D01*
X167571463Y-89351000D01*
X167451844Y-89327206D01*
X166730860Y-89183794D01*
X165939028Y-88855807D01*
X165226399Y-88379643D01*
X164620357Y-87773601D01*
X164144193Y-87060972D01*
X163816206Y-86269140D01*
X163649000Y-85428536D01*
X163649000Y-84571464D01*
X163661153Y-84510369D01*
X163697826Y-84326000D01*
X163816206Y-83730860D01*
X164144193Y-82939028D01*
X164620357Y-82226399D01*
X165226399Y-81620357D01*
X165939028Y-81144193D01*
X166730860Y-80816206D01*
X167461501Y-80670873D01*
X167571463Y-80649000D01*
X168428537Y-80649000D01*
X168538499Y-80670873D01*
G37*
G36*
X150151000Y-89286000D02*
G01*
X147849000Y-89286000D01*
X147849000Y-80774000D01*
X150151000Y-80774000D01*
X150151000Y-89286000D01*
G37*
G36*
X156775562Y-87753181D02*
G01*
X156810481Y-87763774D01*
X156842663Y-87780976D01*
X156870873Y-87804127D01*
X156894024Y-87832337D01*
X156911226Y-87864519D01*
X156921819Y-87899438D01*
X156926000Y-87941895D01*
X156926000Y-89083105D01*
X156921819Y-89125562D01*
X156911226Y-89160481D01*
X156894024Y-89192663D01*
X156870873Y-89220873D01*
X156842663Y-89244024D01*
X156810481Y-89261226D01*
X156775562Y-89271819D01*
X156733105Y-89276000D01*
X155266895Y-89276000D01*
X155224438Y-89271819D01*
X155189519Y-89261226D01*
X155157337Y-89244024D01*
X155129127Y-89220873D01*
X155105976Y-89192663D01*
X155088774Y-89160481D01*
X155078181Y-89125562D01*
X155074000Y-89083105D01*
X155074000Y-87941895D01*
X155078181Y-87899438D01*
X155088774Y-87864519D01*
X155105976Y-87832337D01*
X155129127Y-87804127D01*
X155157337Y-87780976D01*
X155189519Y-87763774D01*
X155224438Y-87753181D01*
X155266895Y-87749000D01*
X156733105Y-87749000D01*
X156775562Y-87753181D01*
G37*
G36*
X108301000Y-88051000D02*
G01*
X106699000Y-88051000D01*
X106699000Y-85949000D01*
X108301000Y-85949000D01*
X108301000Y-88051000D01*
G37*
G36*
X103301000Y-88051000D02*
G01*
X101699000Y-88051000D01*
X101699000Y-85949000D01*
X103301000Y-85949000D01*
X103301000Y-88051000D01*
G37*
G36*
X157413062Y-85078181D02*
G01*
X157447981Y-85088774D01*
X157480163Y-85105976D01*
X157508373Y-85129127D01*
X157531524Y-85157337D01*
X157548726Y-85189519D01*
X157559319Y-85224438D01*
X157563500Y-85266895D01*
X157563500Y-86733105D01*
X157559319Y-86775562D01*
X157548726Y-86810481D01*
X157531524Y-86842663D01*
X157508373Y-86870873D01*
X157480163Y-86894024D01*
X157447981Y-86911226D01*
X157413062Y-86921819D01*
X157370605Y-86926000D01*
X156229395Y-86926000D01*
X156186938Y-86921819D01*
X156152019Y-86911226D01*
X156119837Y-86894024D01*
X156091627Y-86870873D01*
X156068476Y-86842663D01*
X156051274Y-86810481D01*
X156040681Y-86775562D01*
X156036500Y-86733105D01*
X156036500Y-85266895D01*
X156040681Y-85224438D01*
X156051274Y-85189519D01*
X156068476Y-85157337D01*
X156091627Y-85129127D01*
X156119837Y-85105976D01*
X156152019Y-85088774D01*
X156186938Y-85078181D01*
X156229395Y-85074000D01*
X157370605Y-85074000D01*
X157413062Y-85078181D01*
G37*
G36*
X160388062Y-85078181D02*
G01*
X160422981Y-85088774D01*
X160455163Y-85105976D01*
X160483373Y-85129127D01*
X160506524Y-85157337D01*
X160523726Y-85189519D01*
X160534319Y-85224438D01*
X160538500Y-85266895D01*
X160538500Y-86733105D01*
X160534319Y-86775562D01*
X160523726Y-86810481D01*
X160506524Y-86842663D01*
X160483373Y-86870873D01*
X160455163Y-86894024D01*
X160422981Y-86911226D01*
X160388062Y-86921819D01*
X160345605Y-86926000D01*
X159204395Y-86926000D01*
X159161938Y-86921819D01*
X159127019Y-86911226D01*
X159094837Y-86894024D01*
X159066627Y-86870873D01*
X159043476Y-86842663D01*
X159026274Y-86810481D01*
X159015681Y-86775562D01*
X159011500Y-86733105D01*
X159011500Y-85266895D01*
X159015681Y-85224438D01*
X159026274Y-85189519D01*
X159043476Y-85157337D01*
X159066627Y-85129127D01*
X159094837Y-85105976D01*
X159127019Y-85088774D01*
X159161938Y-85078181D01*
X159204395Y-85074000D01*
X160345605Y-85074000D01*
X160388062Y-85078181D01*
G37*
G36*
X155100562Y-82878181D02*
G01*
X155135481Y-82888774D01*
X155167663Y-82905976D01*
X155195873Y-82929127D01*
X155219024Y-82957337D01*
X155236226Y-82989519D01*
X155246819Y-83024438D01*
X155251000Y-83066895D01*
X155251000Y-84533105D01*
X155246819Y-84575562D01*
X155236226Y-84610481D01*
X155219024Y-84642663D01*
X155195873Y-84670873D01*
X155167663Y-84694024D01*
X155135481Y-84711226D01*
X155100562Y-84721819D01*
X155058105Y-84726000D01*
X153916895Y-84726000D01*
X153874438Y-84721819D01*
X153839519Y-84711226D01*
X153807337Y-84694024D01*
X153779127Y-84670873D01*
X153755976Y-84642663D01*
X153738774Y-84610481D01*
X153728181Y-84575562D01*
X153724000Y-84533105D01*
X153724000Y-83066895D01*
X153728181Y-83024438D01*
X153738774Y-82989519D01*
X153755976Y-82957337D01*
X153779127Y-82929127D01*
X153807337Y-82905976D01*
X153839519Y-82888774D01*
X153874438Y-82878181D01*
X153916895Y-82874000D01*
X155058105Y-82874000D01*
X155100562Y-82878181D01*
G37*
G36*
X152125562Y-82878181D02*
G01*
X152160481Y-82888774D01*
X152192663Y-82905976D01*
X152220873Y-82929127D01*
X152244024Y-82957337D01*
X152261226Y-82989519D01*
X152271819Y-83024438D01*
X152276000Y-83066895D01*
X152276000Y-84533105D01*
X152271819Y-84575562D01*
X152261226Y-84610481D01*
X152244024Y-84642663D01*
X152220873Y-84670873D01*
X152192663Y-84694024D01*
X152160481Y-84711226D01*
X152125562Y-84721819D01*
X152083105Y-84726000D01*
X150941895Y-84726000D01*
X150899438Y-84721819D01*
X150864519Y-84711226D01*
X150832337Y-84694024D01*
X150804127Y-84670873D01*
X150780976Y-84642663D01*
X150763774Y-84610481D01*
X150753181Y-84575562D01*
X150749000Y-84533105D01*
X150749000Y-83066895D01*
X150753181Y-83024438D01*
X150763774Y-82989519D01*
X150780976Y-82957337D01*
X150804127Y-82929127D01*
X150832337Y-82905976D01*
X150864519Y-82888774D01*
X150899438Y-82878181D01*
X150941895Y-82874000D01*
X152083105Y-82874000D01*
X152125562Y-82878181D01*
G37*
G36*
X107981000Y-84326000D02*
G01*
X106319000Y-84326000D01*
X106319000Y-81674000D01*
X107981000Y-81674000D01*
X107981000Y-84326000D01*
G37*
G36*
X110681000Y-84326000D02*
G01*
X109019000Y-84326000D01*
X109019000Y-83574000D01*
X110681000Y-83574000D01*
X110681000Y-84326000D01*
G37*
G36*
X157425562Y-82078181D02*
G01*
X157460481Y-82088774D01*
X157492663Y-82105976D01*
X157520873Y-82129127D01*
X157544024Y-82157337D01*
X157561226Y-82189519D01*
X157571819Y-82224438D01*
X157576000Y-82266895D01*
X157576000Y-83733105D01*
X157571819Y-83775562D01*
X157561226Y-83810481D01*
X157544024Y-83842663D01*
X157520873Y-83870873D01*
X157492663Y-83894024D01*
X157460481Y-83911226D01*
X157425562Y-83921819D01*
X157383105Y-83926000D01*
X156241895Y-83926000D01*
X156199438Y-83921819D01*
X156164519Y-83911226D01*
X156132337Y-83894024D01*
X156104127Y-83870873D01*
X156080976Y-83842663D01*
X156063774Y-83810481D01*
X156053181Y-83775562D01*
X156049000Y-83733105D01*
X156049000Y-82266895D01*
X156053181Y-82224438D01*
X156063774Y-82189519D01*
X156080976Y-82157337D01*
X156104127Y-82129127D01*
X156132337Y-82105976D01*
X156164519Y-82088774D01*
X156199438Y-82078181D01*
X156241895Y-82074000D01*
X157383105Y-82074000D01*
X157425562Y-82078181D01*
G37*
G36*
X160400562Y-82078181D02*
G01*
X160435481Y-82088774D01*
X160467663Y-82105976D01*
X160495873Y-82129127D01*
X160519024Y-82157337D01*
X160536226Y-82189519D01*
X160546819Y-82224438D01*
X160551000Y-82266895D01*
X160551000Y-83733105D01*
X160546819Y-83775562D01*
X160536226Y-83810481D01*
X160519024Y-83842663D01*
X160495873Y-83870873D01*
X160467663Y-83894024D01*
X160435481Y-83911226D01*
X160400562Y-83921819D01*
X160358105Y-83926000D01*
X159216895Y-83926000D01*
X159174438Y-83921819D01*
X159139519Y-83911226D01*
X159107337Y-83894024D01*
X159079127Y-83870873D01*
X159055976Y-83842663D01*
X159038774Y-83810481D01*
X159028181Y-83775562D01*
X159024000Y-83733105D01*
X159024000Y-82266895D01*
X159028181Y-82224438D01*
X159038774Y-82189519D01*
X159055976Y-82157337D01*
X159079127Y-82129127D01*
X159107337Y-82105976D01*
X159139519Y-82088774D01*
X159174438Y-82078181D01*
X159216895Y-82074000D01*
X160358105Y-82074000D01*
X160400562Y-82078181D01*
G37*
G36*
X102638062Y-80878181D02*
G01*
X102672981Y-80888774D01*
X102705163Y-80905976D01*
X102733373Y-80929127D01*
X102756524Y-80957337D01*
X102773726Y-80989519D01*
X102784319Y-81024438D01*
X102788500Y-81066895D01*
X102788500Y-82533105D01*
X102784319Y-82575562D01*
X102773726Y-82610481D01*
X102756524Y-82642663D01*
X102733373Y-82670873D01*
X102705163Y-82694024D01*
X102672981Y-82711226D01*
X102638062Y-82721819D01*
X102595605Y-82726000D01*
X101454395Y-82726000D01*
X101411938Y-82721819D01*
X101377019Y-82711226D01*
X101344837Y-82694024D01*
X101316627Y-82670873D01*
X101293476Y-82642663D01*
X101276274Y-82610481D01*
X101265681Y-82575562D01*
X101261500Y-82533105D01*
X101261500Y-81066895D01*
X101265681Y-81024438D01*
X101276274Y-80989519D01*
X101293476Y-80957337D01*
X101316627Y-80929127D01*
X101344837Y-80905976D01*
X101377019Y-80888774D01*
X101411938Y-80878181D01*
X101454395Y-80874000D01*
X102595605Y-80874000D01*
X102638062Y-80878181D01*
G37*
G36*
X105613062Y-80878181D02*
G01*
X105647981Y-80888774D01*
X105680163Y-80905976D01*
X105708373Y-80929127D01*
X105731524Y-80957337D01*
X105748726Y-80989519D01*
X105759319Y-81024438D01*
X105763500Y-81066895D01*
X105763500Y-82533105D01*
X105759319Y-82575562D01*
X105748726Y-82610481D01*
X105731524Y-82642663D01*
X105708373Y-82670873D01*
X105680163Y-82694024D01*
X105647981Y-82711226D01*
X105613062Y-82721819D01*
X105570605Y-82726000D01*
X104429395Y-82726000D01*
X104386938Y-82721819D01*
X104352019Y-82711226D01*
X104319837Y-82694024D01*
X104291627Y-82670873D01*
X104268476Y-82642663D01*
X104251274Y-82610481D01*
X104240681Y-82575562D01*
X104236500Y-82533105D01*
X104236500Y-81066895D01*
X104240681Y-81024438D01*
X104251274Y-80989519D01*
X104268476Y-80957337D01*
X104291627Y-80929127D01*
X104319837Y-80905976D01*
X104352019Y-80888774D01*
X104386938Y-80878181D01*
X104429395Y-80874000D01*
X105570605Y-80874000D01*
X105613062Y-80878181D01*
G37*
G36*
X110681000Y-82426000D02*
G01*
X109019000Y-82426000D01*
X109019000Y-81674000D01*
X110681000Y-81674000D01*
X110681000Y-82426000D01*
G37*
G36*
X98525331Y-78268211D02*
G01*
X98853092Y-78403974D01*
X99148070Y-78601072D01*
X99398928Y-78851930D01*
X99596026Y-79146908D01*
X99731789Y-79474669D01*
X99801000Y-79822616D01*
X99801000Y-80177384D01*
X99731789Y-80525331D01*
X99596026Y-80853092D01*
X99398928Y-81148070D01*
X99148070Y-81398928D01*
X98853092Y-81596026D01*
X98525331Y-81731789D01*
X98177384Y-81801000D01*
X97822616Y-81801000D01*
X97474669Y-81731789D01*
X97146908Y-81596026D01*
X96851930Y-81398928D01*
X96601072Y-81148070D01*
X96403974Y-80853092D01*
X96268211Y-80525331D01*
X96199000Y-80177384D01*
X96199000Y-79822616D01*
X96268211Y-79474669D01*
X96403974Y-79146908D01*
X96601072Y-78851930D01*
X96851930Y-78601072D01*
X97146908Y-78403974D01*
X97474669Y-78268211D01*
X97822616Y-78199000D01*
X98177384Y-78199000D01*
X98525331Y-78268211D01*
G37*
G36*
X157525562Y-79578181D02*
G01*
X157560481Y-79588774D01*
X157592663Y-79605976D01*
X157620873Y-79629127D01*
X157644024Y-79657337D01*
X157661226Y-79689519D01*
X157671819Y-79724438D01*
X157676000Y-79766895D01*
X157676000Y-81233105D01*
X157671819Y-81275562D01*
X157661226Y-81310481D01*
X157644024Y-81342663D01*
X157620873Y-81370873D01*
X157592663Y-81394024D01*
X157560481Y-81411226D01*
X157525562Y-81421819D01*
X157483105Y-81426000D01*
X156341895Y-81426000D01*
X156299438Y-81421819D01*
X156264519Y-81411226D01*
X156232337Y-81394024D01*
X156204127Y-81370873D01*
X156180976Y-81342663D01*
X156163774Y-81310481D01*
X156153181Y-81275562D01*
X156149000Y-81233105D01*
X156149000Y-79766895D01*
X156153181Y-79724438D01*
X156163774Y-79689519D01*
X156180976Y-79657337D01*
X156204127Y-79629127D01*
X156232337Y-79605976D01*
X156264519Y-79588774D01*
X156299438Y-79578181D01*
X156341895Y-79574000D01*
X157483105Y-79574000D01*
X157525562Y-79578181D01*
G37*
G36*
X160500562Y-79578181D02*
G01*
X160535481Y-79588774D01*
X160567663Y-79605976D01*
X160595873Y-79629127D01*
X160619024Y-79657337D01*
X160636226Y-79689519D01*
X160646819Y-79724438D01*
X160651000Y-79766895D01*
X160651000Y-81233105D01*
X160646819Y-81275562D01*
X160636226Y-81310481D01*
X160619024Y-81342663D01*
X160595873Y-81370873D01*
X160567663Y-81394024D01*
X160535481Y-81411226D01*
X160500562Y-81421819D01*
X160458105Y-81426000D01*
X159316895Y-81426000D01*
X159274438Y-81421819D01*
X159239519Y-81411226D01*
X159207337Y-81394024D01*
X159179127Y-81370873D01*
X159155976Y-81342663D01*
X159138774Y-81310481D01*
X159128181Y-81275562D01*
X159124000Y-81233105D01*
X159124000Y-79766895D01*
X159128181Y-79724438D01*
X159138774Y-79689519D01*
X159155976Y-79657337D01*
X159179127Y-79629127D01*
X159207337Y-79605976D01*
X159239519Y-79588774D01*
X159274438Y-79578181D01*
X159316895Y-79574000D01*
X160458105Y-79574000D01*
X160500562Y-79578181D01*
G37*
G36*
X155300562Y-78878181D02*
G01*
X155335481Y-78888774D01*
X155367663Y-78905976D01*
X155395873Y-78929127D01*
X155419024Y-78957337D01*
X155436226Y-78989519D01*
X155446819Y-79024438D01*
X155451000Y-79066895D01*
X155451000Y-80533105D01*
X155446819Y-80575562D01*
X155436226Y-80610481D01*
X155419024Y-80642663D01*
X155395873Y-80670873D01*
X155367663Y-80694024D01*
X155335481Y-80711226D01*
X155300562Y-80721819D01*
X155258105Y-80726000D01*
X154116895Y-80726000D01*
X154074438Y-80721819D01*
X154039519Y-80711226D01*
X154007337Y-80694024D01*
X153979127Y-80670873D01*
X153955976Y-80642663D01*
X153938774Y-80610481D01*
X153928181Y-80575562D01*
X153924000Y-80533105D01*
X153924000Y-79066895D01*
X153928181Y-79024438D01*
X153938774Y-78989519D01*
X153955976Y-78957337D01*
X153979127Y-78929127D01*
X154007337Y-78905976D01*
X154039519Y-78888774D01*
X154074438Y-78878181D01*
X154116895Y-78874000D01*
X155258105Y-78874000D01*
X155300562Y-78878181D01*
G37*
G36*
X152325562Y-78878181D02*
G01*
X152360481Y-78888774D01*
X152392663Y-78905976D01*
X152420873Y-78929127D01*
X152444024Y-78957337D01*
X152461226Y-78989519D01*
X152471819Y-79024438D01*
X152476000Y-79066895D01*
X152476000Y-80533105D01*
X152471819Y-80575562D01*
X152461226Y-80610481D01*
X152444024Y-80642663D01*
X152420873Y-80670873D01*
X152392663Y-80694024D01*
X152360481Y-80711226D01*
X152325562Y-80721819D01*
X152283105Y-80726000D01*
X151141895Y-80726000D01*
X151099438Y-80721819D01*
X151064519Y-80711226D01*
X151032337Y-80694024D01*
X151004127Y-80670873D01*
X150980976Y-80642663D01*
X150963774Y-80610481D01*
X150953181Y-80575562D01*
X150949000Y-80533105D01*
X150949000Y-79066895D01*
X150953181Y-79024438D01*
X150963774Y-78989519D01*
X150980976Y-78957337D01*
X151004127Y-78929127D01*
X151032337Y-78905976D01*
X151064519Y-78888774D01*
X151099438Y-78878181D01*
X151141895Y-78874000D01*
X152283105Y-78874000D01*
X152325562Y-78878181D01*
G37*
G36*
X102625562Y-78378181D02*
G01*
X102660481Y-78388774D01*
X102692663Y-78405976D01*
X102720873Y-78429127D01*
X102744024Y-78457337D01*
X102761226Y-78489519D01*
X102771819Y-78524438D01*
X102776000Y-78566895D01*
X102776000Y-80033105D01*
X102771819Y-80075562D01*
X102761226Y-80110481D01*
X102744024Y-80142663D01*
X102720873Y-80170873D01*
X102692663Y-80194024D01*
X102660481Y-80211226D01*
X102625562Y-80221819D01*
X102583105Y-80226000D01*
X101441895Y-80226000D01*
X101399438Y-80221819D01*
X101364519Y-80211226D01*
X101332337Y-80194024D01*
X101304127Y-80170873D01*
X101280976Y-80142663D01*
X101263774Y-80110481D01*
X101253181Y-80075562D01*
X101249000Y-80033105D01*
X101249000Y-78566895D01*
X101253181Y-78524438D01*
X101263774Y-78489519D01*
X101280976Y-78457337D01*
X101304127Y-78429127D01*
X101332337Y-78405976D01*
X101364519Y-78388774D01*
X101399438Y-78378181D01*
X101441895Y-78374000D01*
X102583105Y-78374000D01*
X102625562Y-78378181D01*
G37*
G36*
X105600562Y-78378181D02*
G01*
X105635481Y-78388774D01*
X105667663Y-78405976D01*
X105695873Y-78429127D01*
X105719024Y-78457337D01*
X105736226Y-78489519D01*
X105746819Y-78524438D01*
X105751000Y-78566895D01*
X105751000Y-80033105D01*
X105746819Y-80075562D01*
X105736226Y-80110481D01*
X105719024Y-80142663D01*
X105695873Y-80170873D01*
X105667663Y-80194024D01*
X105635481Y-80211226D01*
X105600562Y-80221819D01*
X105558105Y-80226000D01*
X104416895Y-80226000D01*
X104374438Y-80221819D01*
X104339519Y-80211226D01*
X104307337Y-80194024D01*
X104279127Y-80170873D01*
X104255976Y-80142663D01*
X104238774Y-80110481D01*
X104228181Y-80075562D01*
X104224000Y-80033105D01*
X104224000Y-78566895D01*
X104228181Y-78524438D01*
X104238774Y-78489519D01*
X104255976Y-78457337D01*
X104279127Y-78429127D01*
X104307337Y-78405976D01*
X104339519Y-78388774D01*
X104374438Y-78378181D01*
X104416895Y-78374000D01*
X105558105Y-78374000D01*
X105600562Y-78378181D01*
G37*
M02*
