G04 #@! TF.GenerationSoftware,KiCad,Pcbnew,(5.1.8)-1*
G04 #@! TF.CreationDate,2021-02-26T20:20:09+01:00*
G04 #@! TF.ProjectId,_Spot,b553706f-742e-46b6-9963-61645f706362,rev?*
G04 #@! TF.SameCoordinates,Original*
G04 #@! TF.FileFunction,Soldermask,Bot*
G04 #@! TF.FilePolarity,Negative*
%FSLAX46Y46*%
G04 Gerber Fmt 4.6, Leading zero omitted, Abs format (unit mm)*
G04 Created by KiCad (PCBNEW (5.1.8)-1) date 2021-02-26 20:20:09*
%MOMM*%
%LPD*%
G01*
G04 APERTURE LIST*
%ADD10C,4.000000*%
%ADD11O,1.802000X1.802000*%
%ADD12C,1.302000*%
%ADD13C,1.502000*%
%ADD14C,3.602000*%
%ADD15C,1.002000*%
%ADD16C,8.702000*%
%ADD17C,0.100000*%
G04 APERTURE END LIST*
D10*
X167000000Y-83200000D02*
X101400000Y-83200000D01*
X155000000Y-95400000D02*
X98000000Y-95400000D01*
X168000000Y-100000000D02*
X98000000Y-100000000D01*
X167000000Y-83200000D02*
X101400000Y-83200000D01*
X155000000Y-95400000D02*
X98000000Y-95400000D01*
X168000000Y-100000000D02*
X98000000Y-100000000D01*
D11*
X138480000Y-108800000D03*
X135940000Y-108800000D03*
G36*
G01*
X134250000Y-109701000D02*
X132550000Y-109701000D01*
G75*
G02*
X132499000Y-109650000I0J51000D01*
G01*
X132499000Y-107950000D01*
G75*
G02*
X132550000Y-107899000I51000J0D01*
G01*
X134250000Y-107899000D01*
G75*
G02*
X134301000Y-107950000I0J-51000D01*
G01*
X134301000Y-109650000D01*
G75*
G02*
X134250000Y-109701000I-51000J0D01*
G01*
G37*
D12*
X105000000Y-99500000D03*
D13*
X105000000Y-95000000D03*
G36*
G01*
X98978828Y-87601000D02*
X98021172Y-87601000D01*
G75*
G02*
X97749000Y-87328828I0J272172D01*
G01*
X97749000Y-86621172D01*
G75*
G02*
X98021172Y-86349000I272172J0D01*
G01*
X98978828Y-86349000D01*
G75*
G02*
X99251000Y-86621172I0J-272172D01*
G01*
X99251000Y-87328828D01*
G75*
G02*
X98978828Y-87601000I-272172J0D01*
G01*
G37*
G36*
G01*
X98978828Y-89651000D02*
X98021172Y-89651000D01*
G75*
G02*
X97749000Y-89378828I0J272172D01*
G01*
X97749000Y-88671172D01*
G75*
G02*
X98021172Y-88399000I272172J0D01*
G01*
X98978828Y-88399000D01*
G75*
G02*
X99251000Y-88671172I0J-272172D01*
G01*
X99251000Y-89378828D01*
G75*
G02*
X98978828Y-89651000I-272172J0D01*
G01*
G37*
G36*
G01*
X108478828Y-89601000D02*
X107521172Y-89601000D01*
G75*
G02*
X107249000Y-89328828I0J272172D01*
G01*
X107249000Y-88621172D01*
G75*
G02*
X107521172Y-88349000I272172J0D01*
G01*
X108478828Y-88349000D01*
G75*
G02*
X108751000Y-88621172I0J-272172D01*
G01*
X108751000Y-89328828D01*
G75*
G02*
X108478828Y-89601000I-272172J0D01*
G01*
G37*
G36*
G01*
X108478828Y-91651000D02*
X107521172Y-91651000D01*
G75*
G02*
X107249000Y-91378828I0J272172D01*
G01*
X107249000Y-90671172D01*
G75*
G02*
X107521172Y-90399000I272172J0D01*
G01*
X108478828Y-90399000D01*
G75*
G02*
X108751000Y-90671172I0J-272172D01*
G01*
X108751000Y-91378828D01*
G75*
G02*
X108478828Y-91651000I-272172J0D01*
G01*
G37*
G36*
G01*
X118478828Y-89601000D02*
X117521172Y-89601000D01*
G75*
G02*
X117249000Y-89328828I0J272172D01*
G01*
X117249000Y-88621172D01*
G75*
G02*
X117521172Y-88349000I272172J0D01*
G01*
X118478828Y-88349000D01*
G75*
G02*
X118751000Y-88621172I0J-272172D01*
G01*
X118751000Y-89328828D01*
G75*
G02*
X118478828Y-89601000I-272172J0D01*
G01*
G37*
G36*
G01*
X118478828Y-91651000D02*
X117521172Y-91651000D01*
G75*
G02*
X117249000Y-91378828I0J272172D01*
G01*
X117249000Y-90671172D01*
G75*
G02*
X117521172Y-90399000I272172J0D01*
G01*
X118478828Y-90399000D01*
G75*
G02*
X118751000Y-90671172I0J-272172D01*
G01*
X118751000Y-91378828D01*
G75*
G02*
X118478828Y-91651000I-272172J0D01*
G01*
G37*
G36*
G01*
X128478828Y-89601000D02*
X127521172Y-89601000D01*
G75*
G02*
X127249000Y-89328828I0J272172D01*
G01*
X127249000Y-88621172D01*
G75*
G02*
X127521172Y-88349000I272172J0D01*
G01*
X128478828Y-88349000D01*
G75*
G02*
X128751000Y-88621172I0J-272172D01*
G01*
X128751000Y-89328828D01*
G75*
G02*
X128478828Y-89601000I-272172J0D01*
G01*
G37*
G36*
G01*
X128478828Y-91651000D02*
X127521172Y-91651000D01*
G75*
G02*
X127249000Y-91378828I0J272172D01*
G01*
X127249000Y-90671172D01*
G75*
G02*
X127521172Y-90399000I272172J0D01*
G01*
X128478828Y-90399000D01*
G75*
G02*
X128751000Y-90671172I0J-272172D01*
G01*
X128751000Y-91378828D01*
G75*
G02*
X128478828Y-91651000I-272172J0D01*
G01*
G37*
G36*
G01*
X138478828Y-89601000D02*
X137521172Y-89601000D01*
G75*
G02*
X137249000Y-89328828I0J272172D01*
G01*
X137249000Y-88621172D01*
G75*
G02*
X137521172Y-88349000I272172J0D01*
G01*
X138478828Y-88349000D01*
G75*
G02*
X138751000Y-88621172I0J-272172D01*
G01*
X138751000Y-89328828D01*
G75*
G02*
X138478828Y-89601000I-272172J0D01*
G01*
G37*
G36*
G01*
X138478828Y-91651000D02*
X137521172Y-91651000D01*
G75*
G02*
X137249000Y-91378828I0J272172D01*
G01*
X137249000Y-90671172D01*
G75*
G02*
X137521172Y-90399000I272172J0D01*
G01*
X138478828Y-90399000D01*
G75*
G02*
X138751000Y-90671172I0J-272172D01*
G01*
X138751000Y-91378828D01*
G75*
G02*
X138478828Y-91651000I-272172J0D01*
G01*
G37*
G36*
G01*
X148478828Y-89601000D02*
X147521172Y-89601000D01*
G75*
G02*
X147249000Y-89328828I0J272172D01*
G01*
X147249000Y-88621172D01*
G75*
G02*
X147521172Y-88349000I272172J0D01*
G01*
X148478828Y-88349000D01*
G75*
G02*
X148751000Y-88621172I0J-272172D01*
G01*
X148751000Y-89328828D01*
G75*
G02*
X148478828Y-89601000I-272172J0D01*
G01*
G37*
G36*
G01*
X148478828Y-91651000D02*
X147521172Y-91651000D01*
G75*
G02*
X147249000Y-91378828I0J272172D01*
G01*
X147249000Y-90671172D01*
G75*
G02*
X147521172Y-90399000I272172J0D01*
G01*
X148478828Y-90399000D01*
G75*
G02*
X148751000Y-90671172I0J-272172D01*
G01*
X148751000Y-91378828D01*
G75*
G02*
X148478828Y-91651000I-272172J0D01*
G01*
G37*
G36*
G01*
X158478828Y-89601000D02*
X157521172Y-89601000D01*
G75*
G02*
X157249000Y-89328828I0J272172D01*
G01*
X157249000Y-88621172D01*
G75*
G02*
X157521172Y-88349000I272172J0D01*
G01*
X158478828Y-88349000D01*
G75*
G02*
X158751000Y-88621172I0J-272172D01*
G01*
X158751000Y-89328828D01*
G75*
G02*
X158478828Y-89601000I-272172J0D01*
G01*
G37*
G36*
G01*
X158478828Y-91651000D02*
X157521172Y-91651000D01*
G75*
G02*
X157249000Y-91378828I0J272172D01*
G01*
X157249000Y-90671172D01*
G75*
G02*
X157521172Y-90399000I272172J0D01*
G01*
X158478828Y-90399000D01*
G75*
G02*
X158751000Y-90671172I0J-272172D01*
G01*
X158751000Y-91378828D01*
G75*
G02*
X158478828Y-91651000I-272172J0D01*
G01*
G37*
D14*
X113200000Y-108000000D03*
X98000000Y-80000000D03*
D15*
X170280419Y-82719581D03*
X168000000Y-81775000D03*
X165719581Y-82719581D03*
X164775000Y-85000000D03*
X165719581Y-87280419D03*
X168000000Y-88225000D03*
X170280419Y-87280419D03*
X171225000Y-85000000D03*
D16*
X168000000Y-85000000D03*
D15*
X170280419Y-96519581D03*
X168000000Y-95575000D03*
X165719581Y-96519581D03*
X164775000Y-98800000D03*
X165719581Y-101080419D03*
X168000000Y-102025000D03*
X170280419Y-101080419D03*
X171225000Y-98800000D03*
D16*
X168000000Y-98800000D03*
D17*
G36*
X105418655Y-92988656D02*
G01*
X105414672Y-93001788D01*
X105408203Y-93013890D01*
X105399497Y-93024497D01*
X105388890Y-93033203D01*
X105376788Y-93039672D01*
X105363656Y-93043655D01*
X105350000Y-93045000D01*
X100650000Y-93045000D01*
X100636344Y-93043655D01*
X100623212Y-93039672D01*
X100611110Y-93033203D01*
X100600503Y-93024497D01*
X100591797Y-93013890D01*
X100585328Y-93001788D01*
X100581345Y-92988656D01*
X100580000Y-92975000D01*
X100580000Y-91425000D01*
X100581345Y-91411344D01*
X100585328Y-91398212D01*
X100591797Y-91386110D01*
X100600503Y-91375503D01*
X100611110Y-91366797D01*
X100623212Y-91360328D01*
X100636344Y-91356345D01*
X100650000Y-91355000D01*
X100830000Y-91355000D01*
X100830000Y-88350000D01*
X100831345Y-88336344D01*
X100835328Y-88323212D01*
X100841797Y-88311110D01*
X100850503Y-88300503D01*
X100861110Y-88291797D01*
X100873212Y-88285328D01*
X100886344Y-88281345D01*
X100900000Y-88280000D01*
X105100000Y-88280000D01*
X105113656Y-88281345D01*
X105126788Y-88285328D01*
X105138890Y-88291797D01*
X105149497Y-88300503D01*
X105158203Y-88311110D01*
X105164672Y-88323212D01*
X105168655Y-88336344D01*
X105170000Y-88350000D01*
X105170000Y-91355000D01*
X105350000Y-91355000D01*
X105363656Y-91356345D01*
X105376788Y-91360328D01*
X105388890Y-91366797D01*
X105399497Y-91375503D01*
X105408203Y-91386110D01*
X105414672Y-91398212D01*
X105418655Y-91411344D01*
X105420000Y-91425000D01*
X105420000Y-92975000D01*
X105418655Y-92988656D01*
G37*
G36*
G01*
X104490000Y-87305000D02*
X104490000Y-86155000D01*
G75*
G02*
X104560000Y-86085000I70000J0D01*
G01*
X105260000Y-86085000D01*
G75*
G02*
X105330000Y-86155000I0J-70000D01*
G01*
X105330000Y-87305000D01*
G75*
G02*
X105260000Y-87375000I-70000J0D01*
G01*
X104560000Y-87375000D01*
G75*
G02*
X104490000Y-87305000I0J70000D01*
G01*
G37*
G36*
G01*
X103220000Y-87305000D02*
X103220000Y-86155000D01*
G75*
G02*
X103290000Y-86085000I70000J0D01*
G01*
X103990000Y-86085000D01*
G75*
G02*
X104060000Y-86155000I0J-70000D01*
G01*
X104060000Y-87305000D01*
G75*
G02*
X103990000Y-87375000I-70000J0D01*
G01*
X103290000Y-87375000D01*
G75*
G02*
X103220000Y-87305000I0J70000D01*
G01*
G37*
G36*
G01*
X100670000Y-87305000D02*
X100670000Y-86155000D01*
G75*
G02*
X100740000Y-86085000I70000J0D01*
G01*
X101440000Y-86085000D01*
G75*
G02*
X101510000Y-86155000I0J-70000D01*
G01*
X101510000Y-87305000D01*
G75*
G02*
X101440000Y-87375000I-70000J0D01*
G01*
X100740000Y-87375000D01*
G75*
G02*
X100670000Y-87305000I0J70000D01*
G01*
G37*
G36*
G01*
X101940000Y-87305000D02*
X101940000Y-86155000D01*
G75*
G02*
X102010000Y-86085000I70000J0D01*
G01*
X102710000Y-86085000D01*
G75*
G02*
X102780000Y-86155000I0J-70000D01*
G01*
X102780000Y-87305000D01*
G75*
G02*
X102710000Y-87375000I-70000J0D01*
G01*
X102010000Y-87375000D01*
G75*
G02*
X101940000Y-87305000I0J70000D01*
G01*
G37*
G36*
X115418655Y-92988656D02*
G01*
X115414672Y-93001788D01*
X115408203Y-93013890D01*
X115399497Y-93024497D01*
X115388890Y-93033203D01*
X115376788Y-93039672D01*
X115363656Y-93043655D01*
X115350000Y-93045000D01*
X110650000Y-93045000D01*
X110636344Y-93043655D01*
X110623212Y-93039672D01*
X110611110Y-93033203D01*
X110600503Y-93024497D01*
X110591797Y-93013890D01*
X110585328Y-93001788D01*
X110581345Y-92988656D01*
X110580000Y-92975000D01*
X110580000Y-91425000D01*
X110581345Y-91411344D01*
X110585328Y-91398212D01*
X110591797Y-91386110D01*
X110600503Y-91375503D01*
X110611110Y-91366797D01*
X110623212Y-91360328D01*
X110636344Y-91356345D01*
X110650000Y-91355000D01*
X110830000Y-91355000D01*
X110830000Y-88350000D01*
X110831345Y-88336344D01*
X110835328Y-88323212D01*
X110841797Y-88311110D01*
X110850503Y-88300503D01*
X110861110Y-88291797D01*
X110873212Y-88285328D01*
X110886344Y-88281345D01*
X110900000Y-88280000D01*
X115100000Y-88280000D01*
X115113656Y-88281345D01*
X115126788Y-88285328D01*
X115138890Y-88291797D01*
X115149497Y-88300503D01*
X115158203Y-88311110D01*
X115164672Y-88323212D01*
X115168655Y-88336344D01*
X115170000Y-88350000D01*
X115170000Y-91355000D01*
X115350000Y-91355000D01*
X115363656Y-91356345D01*
X115376788Y-91360328D01*
X115388890Y-91366797D01*
X115399497Y-91375503D01*
X115408203Y-91386110D01*
X115414672Y-91398212D01*
X115418655Y-91411344D01*
X115420000Y-91425000D01*
X115420000Y-92975000D01*
X115418655Y-92988656D01*
G37*
G36*
G01*
X114490000Y-87305000D02*
X114490000Y-86155000D01*
G75*
G02*
X114560000Y-86085000I70000J0D01*
G01*
X115260000Y-86085000D01*
G75*
G02*
X115330000Y-86155000I0J-70000D01*
G01*
X115330000Y-87305000D01*
G75*
G02*
X115260000Y-87375000I-70000J0D01*
G01*
X114560000Y-87375000D01*
G75*
G02*
X114490000Y-87305000I0J70000D01*
G01*
G37*
G36*
G01*
X113220000Y-87305000D02*
X113220000Y-86155000D01*
G75*
G02*
X113290000Y-86085000I70000J0D01*
G01*
X113990000Y-86085000D01*
G75*
G02*
X114060000Y-86155000I0J-70000D01*
G01*
X114060000Y-87305000D01*
G75*
G02*
X113990000Y-87375000I-70000J0D01*
G01*
X113290000Y-87375000D01*
G75*
G02*
X113220000Y-87305000I0J70000D01*
G01*
G37*
G36*
G01*
X110670000Y-87305000D02*
X110670000Y-86155000D01*
G75*
G02*
X110740000Y-86085000I70000J0D01*
G01*
X111440000Y-86085000D01*
G75*
G02*
X111510000Y-86155000I0J-70000D01*
G01*
X111510000Y-87305000D01*
G75*
G02*
X111440000Y-87375000I-70000J0D01*
G01*
X110740000Y-87375000D01*
G75*
G02*
X110670000Y-87305000I0J70000D01*
G01*
G37*
G36*
G01*
X111940000Y-87305000D02*
X111940000Y-86155000D01*
G75*
G02*
X112010000Y-86085000I70000J0D01*
G01*
X112710000Y-86085000D01*
G75*
G02*
X112780000Y-86155000I0J-70000D01*
G01*
X112780000Y-87305000D01*
G75*
G02*
X112710000Y-87375000I-70000J0D01*
G01*
X112010000Y-87375000D01*
G75*
G02*
X111940000Y-87305000I0J70000D01*
G01*
G37*
G36*
X125418655Y-92988656D02*
G01*
X125414672Y-93001788D01*
X125408203Y-93013890D01*
X125399497Y-93024497D01*
X125388890Y-93033203D01*
X125376788Y-93039672D01*
X125363656Y-93043655D01*
X125350000Y-93045000D01*
X120650000Y-93045000D01*
X120636344Y-93043655D01*
X120623212Y-93039672D01*
X120611110Y-93033203D01*
X120600503Y-93024497D01*
X120591797Y-93013890D01*
X120585328Y-93001788D01*
X120581345Y-92988656D01*
X120580000Y-92975000D01*
X120580000Y-91425000D01*
X120581345Y-91411344D01*
X120585328Y-91398212D01*
X120591797Y-91386110D01*
X120600503Y-91375503D01*
X120611110Y-91366797D01*
X120623212Y-91360328D01*
X120636344Y-91356345D01*
X120650000Y-91355000D01*
X120830000Y-91355000D01*
X120830000Y-88350000D01*
X120831345Y-88336344D01*
X120835328Y-88323212D01*
X120841797Y-88311110D01*
X120850503Y-88300503D01*
X120861110Y-88291797D01*
X120873212Y-88285328D01*
X120886344Y-88281345D01*
X120900000Y-88280000D01*
X125100000Y-88280000D01*
X125113656Y-88281345D01*
X125126788Y-88285328D01*
X125138890Y-88291797D01*
X125149497Y-88300503D01*
X125158203Y-88311110D01*
X125164672Y-88323212D01*
X125168655Y-88336344D01*
X125170000Y-88350000D01*
X125170000Y-91355000D01*
X125350000Y-91355000D01*
X125363656Y-91356345D01*
X125376788Y-91360328D01*
X125388890Y-91366797D01*
X125399497Y-91375503D01*
X125408203Y-91386110D01*
X125414672Y-91398212D01*
X125418655Y-91411344D01*
X125420000Y-91425000D01*
X125420000Y-92975000D01*
X125418655Y-92988656D01*
G37*
G36*
G01*
X124490000Y-87305000D02*
X124490000Y-86155000D01*
G75*
G02*
X124560000Y-86085000I70000J0D01*
G01*
X125260000Y-86085000D01*
G75*
G02*
X125330000Y-86155000I0J-70000D01*
G01*
X125330000Y-87305000D01*
G75*
G02*
X125260000Y-87375000I-70000J0D01*
G01*
X124560000Y-87375000D01*
G75*
G02*
X124490000Y-87305000I0J70000D01*
G01*
G37*
G36*
G01*
X123220000Y-87305000D02*
X123220000Y-86155000D01*
G75*
G02*
X123290000Y-86085000I70000J0D01*
G01*
X123990000Y-86085000D01*
G75*
G02*
X124060000Y-86155000I0J-70000D01*
G01*
X124060000Y-87305000D01*
G75*
G02*
X123990000Y-87375000I-70000J0D01*
G01*
X123290000Y-87375000D01*
G75*
G02*
X123220000Y-87305000I0J70000D01*
G01*
G37*
G36*
G01*
X120670000Y-87305000D02*
X120670000Y-86155000D01*
G75*
G02*
X120740000Y-86085000I70000J0D01*
G01*
X121440000Y-86085000D01*
G75*
G02*
X121510000Y-86155000I0J-70000D01*
G01*
X121510000Y-87305000D01*
G75*
G02*
X121440000Y-87375000I-70000J0D01*
G01*
X120740000Y-87375000D01*
G75*
G02*
X120670000Y-87305000I0J70000D01*
G01*
G37*
G36*
G01*
X121940000Y-87305000D02*
X121940000Y-86155000D01*
G75*
G02*
X122010000Y-86085000I70000J0D01*
G01*
X122710000Y-86085000D01*
G75*
G02*
X122780000Y-86155000I0J-70000D01*
G01*
X122780000Y-87305000D01*
G75*
G02*
X122710000Y-87375000I-70000J0D01*
G01*
X122010000Y-87375000D01*
G75*
G02*
X121940000Y-87305000I0J70000D01*
G01*
G37*
G36*
X135418655Y-92988656D02*
G01*
X135414672Y-93001788D01*
X135408203Y-93013890D01*
X135399497Y-93024497D01*
X135388890Y-93033203D01*
X135376788Y-93039672D01*
X135363656Y-93043655D01*
X135350000Y-93045000D01*
X130650000Y-93045000D01*
X130636344Y-93043655D01*
X130623212Y-93039672D01*
X130611110Y-93033203D01*
X130600503Y-93024497D01*
X130591797Y-93013890D01*
X130585328Y-93001788D01*
X130581345Y-92988656D01*
X130580000Y-92975000D01*
X130580000Y-91425000D01*
X130581345Y-91411344D01*
X130585328Y-91398212D01*
X130591797Y-91386110D01*
X130600503Y-91375503D01*
X130611110Y-91366797D01*
X130623212Y-91360328D01*
X130636344Y-91356345D01*
X130650000Y-91355000D01*
X130830000Y-91355000D01*
X130830000Y-88350000D01*
X130831345Y-88336344D01*
X130835328Y-88323212D01*
X130841797Y-88311110D01*
X130850503Y-88300503D01*
X130861110Y-88291797D01*
X130873212Y-88285328D01*
X130886344Y-88281345D01*
X130900000Y-88280000D01*
X135100000Y-88280000D01*
X135113656Y-88281345D01*
X135126788Y-88285328D01*
X135138890Y-88291797D01*
X135149497Y-88300503D01*
X135158203Y-88311110D01*
X135164672Y-88323212D01*
X135168655Y-88336344D01*
X135170000Y-88350000D01*
X135170000Y-91355000D01*
X135350000Y-91355000D01*
X135363656Y-91356345D01*
X135376788Y-91360328D01*
X135388890Y-91366797D01*
X135399497Y-91375503D01*
X135408203Y-91386110D01*
X135414672Y-91398212D01*
X135418655Y-91411344D01*
X135420000Y-91425000D01*
X135420000Y-92975000D01*
X135418655Y-92988656D01*
G37*
G36*
G01*
X134490000Y-87305000D02*
X134490000Y-86155000D01*
G75*
G02*
X134560000Y-86085000I70000J0D01*
G01*
X135260000Y-86085000D01*
G75*
G02*
X135330000Y-86155000I0J-70000D01*
G01*
X135330000Y-87305000D01*
G75*
G02*
X135260000Y-87375000I-70000J0D01*
G01*
X134560000Y-87375000D01*
G75*
G02*
X134490000Y-87305000I0J70000D01*
G01*
G37*
G36*
G01*
X133220000Y-87305000D02*
X133220000Y-86155000D01*
G75*
G02*
X133290000Y-86085000I70000J0D01*
G01*
X133990000Y-86085000D01*
G75*
G02*
X134060000Y-86155000I0J-70000D01*
G01*
X134060000Y-87305000D01*
G75*
G02*
X133990000Y-87375000I-70000J0D01*
G01*
X133290000Y-87375000D01*
G75*
G02*
X133220000Y-87305000I0J70000D01*
G01*
G37*
G36*
G01*
X130670000Y-87305000D02*
X130670000Y-86155000D01*
G75*
G02*
X130740000Y-86085000I70000J0D01*
G01*
X131440000Y-86085000D01*
G75*
G02*
X131510000Y-86155000I0J-70000D01*
G01*
X131510000Y-87305000D01*
G75*
G02*
X131440000Y-87375000I-70000J0D01*
G01*
X130740000Y-87375000D01*
G75*
G02*
X130670000Y-87305000I0J70000D01*
G01*
G37*
G36*
G01*
X131940000Y-87305000D02*
X131940000Y-86155000D01*
G75*
G02*
X132010000Y-86085000I70000J0D01*
G01*
X132710000Y-86085000D01*
G75*
G02*
X132780000Y-86155000I0J-70000D01*
G01*
X132780000Y-87305000D01*
G75*
G02*
X132710000Y-87375000I-70000J0D01*
G01*
X132010000Y-87375000D01*
G75*
G02*
X131940000Y-87305000I0J70000D01*
G01*
G37*
G36*
X145418655Y-92988656D02*
G01*
X145414672Y-93001788D01*
X145408203Y-93013890D01*
X145399497Y-93024497D01*
X145388890Y-93033203D01*
X145376788Y-93039672D01*
X145363656Y-93043655D01*
X145350000Y-93045000D01*
X140650000Y-93045000D01*
X140636344Y-93043655D01*
X140623212Y-93039672D01*
X140611110Y-93033203D01*
X140600503Y-93024497D01*
X140591797Y-93013890D01*
X140585328Y-93001788D01*
X140581345Y-92988656D01*
X140580000Y-92975000D01*
X140580000Y-91425000D01*
X140581345Y-91411344D01*
X140585328Y-91398212D01*
X140591797Y-91386110D01*
X140600503Y-91375503D01*
X140611110Y-91366797D01*
X140623212Y-91360328D01*
X140636344Y-91356345D01*
X140650000Y-91355000D01*
X140830000Y-91355000D01*
X140830000Y-88350000D01*
X140831345Y-88336344D01*
X140835328Y-88323212D01*
X140841797Y-88311110D01*
X140850503Y-88300503D01*
X140861110Y-88291797D01*
X140873212Y-88285328D01*
X140886344Y-88281345D01*
X140900000Y-88280000D01*
X145100000Y-88280000D01*
X145113656Y-88281345D01*
X145126788Y-88285328D01*
X145138890Y-88291797D01*
X145149497Y-88300503D01*
X145158203Y-88311110D01*
X145164672Y-88323212D01*
X145168655Y-88336344D01*
X145170000Y-88350000D01*
X145170000Y-91355000D01*
X145350000Y-91355000D01*
X145363656Y-91356345D01*
X145376788Y-91360328D01*
X145388890Y-91366797D01*
X145399497Y-91375503D01*
X145408203Y-91386110D01*
X145414672Y-91398212D01*
X145418655Y-91411344D01*
X145420000Y-91425000D01*
X145420000Y-92975000D01*
X145418655Y-92988656D01*
G37*
G36*
G01*
X144490000Y-87305000D02*
X144490000Y-86155000D01*
G75*
G02*
X144560000Y-86085000I70000J0D01*
G01*
X145260000Y-86085000D01*
G75*
G02*
X145330000Y-86155000I0J-70000D01*
G01*
X145330000Y-87305000D01*
G75*
G02*
X145260000Y-87375000I-70000J0D01*
G01*
X144560000Y-87375000D01*
G75*
G02*
X144490000Y-87305000I0J70000D01*
G01*
G37*
G36*
G01*
X143220000Y-87305000D02*
X143220000Y-86155000D01*
G75*
G02*
X143290000Y-86085000I70000J0D01*
G01*
X143990000Y-86085000D01*
G75*
G02*
X144060000Y-86155000I0J-70000D01*
G01*
X144060000Y-87305000D01*
G75*
G02*
X143990000Y-87375000I-70000J0D01*
G01*
X143290000Y-87375000D01*
G75*
G02*
X143220000Y-87305000I0J70000D01*
G01*
G37*
G36*
G01*
X140670000Y-87305000D02*
X140670000Y-86155000D01*
G75*
G02*
X140740000Y-86085000I70000J0D01*
G01*
X141440000Y-86085000D01*
G75*
G02*
X141510000Y-86155000I0J-70000D01*
G01*
X141510000Y-87305000D01*
G75*
G02*
X141440000Y-87375000I-70000J0D01*
G01*
X140740000Y-87375000D01*
G75*
G02*
X140670000Y-87305000I0J70000D01*
G01*
G37*
G36*
G01*
X141940000Y-87305000D02*
X141940000Y-86155000D01*
G75*
G02*
X142010000Y-86085000I70000J0D01*
G01*
X142710000Y-86085000D01*
G75*
G02*
X142780000Y-86155000I0J-70000D01*
G01*
X142780000Y-87305000D01*
G75*
G02*
X142710000Y-87375000I-70000J0D01*
G01*
X142010000Y-87375000D01*
G75*
G02*
X141940000Y-87305000I0J70000D01*
G01*
G37*
G36*
X155418655Y-92988656D02*
G01*
X155414672Y-93001788D01*
X155408203Y-93013890D01*
X155399497Y-93024497D01*
X155388890Y-93033203D01*
X155376788Y-93039672D01*
X155363656Y-93043655D01*
X155350000Y-93045000D01*
X150650000Y-93045000D01*
X150636344Y-93043655D01*
X150623212Y-93039672D01*
X150611110Y-93033203D01*
X150600503Y-93024497D01*
X150591797Y-93013890D01*
X150585328Y-93001788D01*
X150581345Y-92988656D01*
X150580000Y-92975000D01*
X150580000Y-91425000D01*
X150581345Y-91411344D01*
X150585328Y-91398212D01*
X150591797Y-91386110D01*
X150600503Y-91375503D01*
X150611110Y-91366797D01*
X150623212Y-91360328D01*
X150636344Y-91356345D01*
X150650000Y-91355000D01*
X150830000Y-91355000D01*
X150830000Y-88350000D01*
X150831345Y-88336344D01*
X150835328Y-88323212D01*
X150841797Y-88311110D01*
X150850503Y-88300503D01*
X150861110Y-88291797D01*
X150873212Y-88285328D01*
X150886344Y-88281345D01*
X150900000Y-88280000D01*
X155100000Y-88280000D01*
X155113656Y-88281345D01*
X155126788Y-88285328D01*
X155138890Y-88291797D01*
X155149497Y-88300503D01*
X155158203Y-88311110D01*
X155164672Y-88323212D01*
X155168655Y-88336344D01*
X155170000Y-88350000D01*
X155170000Y-91355000D01*
X155350000Y-91355000D01*
X155363656Y-91356345D01*
X155376788Y-91360328D01*
X155388890Y-91366797D01*
X155399497Y-91375503D01*
X155408203Y-91386110D01*
X155414672Y-91398212D01*
X155418655Y-91411344D01*
X155420000Y-91425000D01*
X155420000Y-92975000D01*
X155418655Y-92988656D01*
G37*
G36*
G01*
X154490000Y-87305000D02*
X154490000Y-86155000D01*
G75*
G02*
X154560000Y-86085000I70000J0D01*
G01*
X155260000Y-86085000D01*
G75*
G02*
X155330000Y-86155000I0J-70000D01*
G01*
X155330000Y-87305000D01*
G75*
G02*
X155260000Y-87375000I-70000J0D01*
G01*
X154560000Y-87375000D01*
G75*
G02*
X154490000Y-87305000I0J70000D01*
G01*
G37*
G36*
G01*
X153220000Y-87305000D02*
X153220000Y-86155000D01*
G75*
G02*
X153290000Y-86085000I70000J0D01*
G01*
X153990000Y-86085000D01*
G75*
G02*
X154060000Y-86155000I0J-70000D01*
G01*
X154060000Y-87305000D01*
G75*
G02*
X153990000Y-87375000I-70000J0D01*
G01*
X153290000Y-87375000D01*
G75*
G02*
X153220000Y-87305000I0J70000D01*
G01*
G37*
G36*
G01*
X150670000Y-87305000D02*
X150670000Y-86155000D01*
G75*
G02*
X150740000Y-86085000I70000J0D01*
G01*
X151440000Y-86085000D01*
G75*
G02*
X151510000Y-86155000I0J-70000D01*
G01*
X151510000Y-87305000D01*
G75*
G02*
X151440000Y-87375000I-70000J0D01*
G01*
X150740000Y-87375000D01*
G75*
G02*
X150670000Y-87305000I0J70000D01*
G01*
G37*
G36*
G01*
X151940000Y-87305000D02*
X151940000Y-86155000D01*
G75*
G02*
X152010000Y-86085000I70000J0D01*
G01*
X152710000Y-86085000D01*
G75*
G02*
X152780000Y-86155000I0J-70000D01*
G01*
X152780000Y-87305000D01*
G75*
G02*
X152710000Y-87375000I-70000J0D01*
G01*
X152010000Y-87375000D01*
G75*
G02*
X151940000Y-87305000I0J70000D01*
G01*
G37*
M02*
