G04 #@! TF.GenerationSoftware,KiCad,Pcbnew,(5.1.8)-1*
G04 #@! TF.CreationDate,2021-02-26T20:20:08+01:00*
G04 #@! TF.ProjectId,_Spot,b553706f-742e-46b6-9963-61645f706362,rev?*
G04 #@! TF.SameCoordinates,Original*
G04 #@! TF.FileFunction,Legend,Bot*
G04 #@! TF.FilePolarity,Positive*
%FSLAX46Y46*%
G04 Gerber Fmt 4.6, Leading zero omitted, Abs format (unit mm)*
G04 Created by KiCad (PCBNEW (5.1.8)-1) date 2021-02-26 20:20:08*
%MOMM*%
%LPD*%
G01*
G04 APERTURE LIST*
%ADD10C,0.120000*%
%ADD11C,0.150000*%
G04 APERTURE END LIST*
D10*
X99210000Y-88261252D02*
X99210000Y-87738748D01*
X97790000Y-88261252D02*
X97790000Y-87738748D01*
X108710000Y-90261252D02*
X108710000Y-89738748D01*
X107290000Y-90261252D02*
X107290000Y-89738748D01*
X118710000Y-90261252D02*
X118710000Y-89738748D01*
X117290000Y-90261252D02*
X117290000Y-89738748D01*
X128710000Y-90261252D02*
X128710000Y-89738748D01*
X127290000Y-90261252D02*
X127290000Y-89738748D01*
X138710000Y-90261252D02*
X138710000Y-89738748D01*
X137290000Y-90261252D02*
X137290000Y-89738748D01*
X148710000Y-90261252D02*
X148710000Y-89738748D01*
X147290000Y-90261252D02*
X147290000Y-89738748D01*
X158710000Y-90261252D02*
X158710000Y-89738748D01*
X157290000Y-90261252D02*
X157290000Y-89738748D01*
X105400000Y-87250000D02*
X105600000Y-87250000D01*
X105600000Y-87250000D02*
X105600000Y-91550000D01*
X105600000Y-91550000D02*
X105450000Y-91550000D01*
X100550000Y-91550000D02*
X100400000Y-91550000D01*
X100400000Y-91550000D02*
X100400000Y-87250000D01*
X100400000Y-87250000D02*
X100600000Y-87250000D01*
X115400000Y-87250000D02*
X115600000Y-87250000D01*
X115600000Y-87250000D02*
X115600000Y-91550000D01*
X115600000Y-91550000D02*
X115450000Y-91550000D01*
X110550000Y-91550000D02*
X110400000Y-91550000D01*
X110400000Y-91550000D02*
X110400000Y-87250000D01*
X110400000Y-87250000D02*
X110600000Y-87250000D01*
X125400000Y-87250000D02*
X125600000Y-87250000D01*
X125600000Y-87250000D02*
X125600000Y-91550000D01*
X125600000Y-91550000D02*
X125450000Y-91550000D01*
X120550000Y-91550000D02*
X120400000Y-91550000D01*
X120400000Y-91550000D02*
X120400000Y-87250000D01*
X120400000Y-87250000D02*
X120600000Y-87250000D01*
X135400000Y-87250000D02*
X135600000Y-87250000D01*
X135600000Y-87250000D02*
X135600000Y-91550000D01*
X135600000Y-91550000D02*
X135450000Y-91550000D01*
X130550000Y-91550000D02*
X130400000Y-91550000D01*
X130400000Y-91550000D02*
X130400000Y-87250000D01*
X130400000Y-87250000D02*
X130600000Y-87250000D01*
X145400000Y-87250000D02*
X145600000Y-87250000D01*
X145600000Y-87250000D02*
X145600000Y-91550000D01*
X145600000Y-91550000D02*
X145450000Y-91550000D01*
X140550000Y-91550000D02*
X140400000Y-91550000D01*
X140400000Y-91550000D02*
X140400000Y-87250000D01*
X140400000Y-87250000D02*
X140600000Y-87250000D01*
X155400000Y-87250000D02*
X155600000Y-87250000D01*
X155600000Y-87250000D02*
X155600000Y-91550000D01*
X155600000Y-91550000D02*
X155450000Y-91550000D01*
X150550000Y-91550000D02*
X150400000Y-91550000D01*
X150400000Y-91550000D02*
X150400000Y-87250000D01*
X150400000Y-87250000D02*
X150600000Y-87250000D01*
D11*
X99602380Y-86714285D02*
X99602380Y-87285714D01*
X100602380Y-87000000D02*
X99602380Y-87000000D01*
X100602380Y-87619047D02*
X99602380Y-87619047D01*
X100078571Y-87619047D02*
X100078571Y-88190476D01*
X100602380Y-88190476D02*
X99602380Y-88190476D01*
X100602380Y-89190476D02*
X100602380Y-88619047D01*
X100602380Y-88904761D02*
X99602380Y-88904761D01*
X99745238Y-88809523D01*
X99840476Y-88714285D01*
X99888095Y-88619047D01*
X110102380Y-89357142D02*
X109626190Y-89023809D01*
X110102380Y-88785714D02*
X109102380Y-88785714D01*
X109102380Y-89166666D01*
X109150000Y-89261904D01*
X109197619Y-89309523D01*
X109292857Y-89357142D01*
X109435714Y-89357142D01*
X109530952Y-89309523D01*
X109578571Y-89261904D01*
X109626190Y-89166666D01*
X109626190Y-88785714D01*
X109197619Y-89738095D02*
X109150000Y-89785714D01*
X109102380Y-89880952D01*
X109102380Y-90119047D01*
X109150000Y-90214285D01*
X109197619Y-90261904D01*
X109292857Y-90309523D01*
X109388095Y-90309523D01*
X109530952Y-90261904D01*
X110102380Y-89690476D01*
X110102380Y-90309523D01*
X110102380Y-91261904D02*
X110102380Y-90690476D01*
X110102380Y-90976190D02*
X109102380Y-90976190D01*
X109245238Y-90880952D01*
X109340476Y-90785714D01*
X109388095Y-90690476D01*
X120102380Y-89357142D02*
X119626190Y-89023809D01*
X120102380Y-88785714D02*
X119102380Y-88785714D01*
X119102380Y-89166666D01*
X119150000Y-89261904D01*
X119197619Y-89309523D01*
X119292857Y-89357142D01*
X119435714Y-89357142D01*
X119530952Y-89309523D01*
X119578571Y-89261904D01*
X119626190Y-89166666D01*
X119626190Y-88785714D01*
X119197619Y-89738095D02*
X119150000Y-89785714D01*
X119102380Y-89880952D01*
X119102380Y-90119047D01*
X119150000Y-90214285D01*
X119197619Y-90261904D01*
X119292857Y-90309523D01*
X119388095Y-90309523D01*
X119530952Y-90261904D01*
X120102380Y-89690476D01*
X120102380Y-90309523D01*
X119102380Y-90928571D02*
X119102380Y-91023809D01*
X119150000Y-91119047D01*
X119197619Y-91166666D01*
X119292857Y-91214285D01*
X119483333Y-91261904D01*
X119721428Y-91261904D01*
X119911904Y-91214285D01*
X120007142Y-91166666D01*
X120054761Y-91119047D01*
X120102380Y-91023809D01*
X120102380Y-90928571D01*
X120054761Y-90833333D01*
X120007142Y-90785714D01*
X119911904Y-90738095D01*
X119721428Y-90690476D01*
X119483333Y-90690476D01*
X119292857Y-90738095D01*
X119197619Y-90785714D01*
X119150000Y-90833333D01*
X119102380Y-90928571D01*
X130102380Y-89357142D02*
X129626190Y-89023809D01*
X130102380Y-88785714D02*
X129102380Y-88785714D01*
X129102380Y-89166666D01*
X129150000Y-89261904D01*
X129197619Y-89309523D01*
X129292857Y-89357142D01*
X129435714Y-89357142D01*
X129530952Y-89309523D01*
X129578571Y-89261904D01*
X129626190Y-89166666D01*
X129626190Y-88785714D01*
X130102380Y-90309523D02*
X130102380Y-89738095D01*
X130102380Y-90023809D02*
X129102380Y-90023809D01*
X129245238Y-89928571D01*
X129340476Y-89833333D01*
X129388095Y-89738095D01*
X130102380Y-90785714D02*
X130102380Y-90976190D01*
X130054761Y-91071428D01*
X130007142Y-91119047D01*
X129864285Y-91214285D01*
X129673809Y-91261904D01*
X129292857Y-91261904D01*
X129197619Y-91214285D01*
X129150000Y-91166666D01*
X129102380Y-91071428D01*
X129102380Y-90880952D01*
X129150000Y-90785714D01*
X129197619Y-90738095D01*
X129292857Y-90690476D01*
X129530952Y-90690476D01*
X129626190Y-90738095D01*
X129673809Y-90785714D01*
X129721428Y-90880952D01*
X129721428Y-91071428D01*
X129673809Y-91166666D01*
X129626190Y-91214285D01*
X129530952Y-91261904D01*
X140102380Y-89357142D02*
X139626190Y-89023809D01*
X140102380Y-88785714D02*
X139102380Y-88785714D01*
X139102380Y-89166666D01*
X139150000Y-89261904D01*
X139197619Y-89309523D01*
X139292857Y-89357142D01*
X139435714Y-89357142D01*
X139530952Y-89309523D01*
X139578571Y-89261904D01*
X139626190Y-89166666D01*
X139626190Y-88785714D01*
X140102380Y-90309523D02*
X140102380Y-89738095D01*
X140102380Y-90023809D02*
X139102380Y-90023809D01*
X139245238Y-89928571D01*
X139340476Y-89833333D01*
X139388095Y-89738095D01*
X139530952Y-90880952D02*
X139483333Y-90785714D01*
X139435714Y-90738095D01*
X139340476Y-90690476D01*
X139292857Y-90690476D01*
X139197619Y-90738095D01*
X139150000Y-90785714D01*
X139102380Y-90880952D01*
X139102380Y-91071428D01*
X139150000Y-91166666D01*
X139197619Y-91214285D01*
X139292857Y-91261904D01*
X139340476Y-91261904D01*
X139435714Y-91214285D01*
X139483333Y-91166666D01*
X139530952Y-91071428D01*
X139530952Y-90880952D01*
X139578571Y-90785714D01*
X139626190Y-90738095D01*
X139721428Y-90690476D01*
X139911904Y-90690476D01*
X140007142Y-90738095D01*
X140054761Y-90785714D01*
X140102380Y-90880952D01*
X140102380Y-91071428D01*
X140054761Y-91166666D01*
X140007142Y-91214285D01*
X139911904Y-91261904D01*
X139721428Y-91261904D01*
X139626190Y-91214285D01*
X139578571Y-91166666D01*
X139530952Y-91071428D01*
X150102380Y-89357142D02*
X149626190Y-89023809D01*
X150102380Y-88785714D02*
X149102380Y-88785714D01*
X149102380Y-89166666D01*
X149150000Y-89261904D01*
X149197619Y-89309523D01*
X149292857Y-89357142D01*
X149435714Y-89357142D01*
X149530952Y-89309523D01*
X149578571Y-89261904D01*
X149626190Y-89166666D01*
X149626190Y-88785714D01*
X150102380Y-90309523D02*
X150102380Y-89738095D01*
X150102380Y-90023809D02*
X149102380Y-90023809D01*
X149245238Y-89928571D01*
X149340476Y-89833333D01*
X149388095Y-89738095D01*
X149102380Y-90642857D02*
X149102380Y-91309523D01*
X150102380Y-90880952D01*
X160102380Y-89357142D02*
X159626190Y-89023809D01*
X160102380Y-88785714D02*
X159102380Y-88785714D01*
X159102380Y-89166666D01*
X159150000Y-89261904D01*
X159197619Y-89309523D01*
X159292857Y-89357142D01*
X159435714Y-89357142D01*
X159530952Y-89309523D01*
X159578571Y-89261904D01*
X159626190Y-89166666D01*
X159626190Y-88785714D01*
X160102380Y-90309523D02*
X160102380Y-89738095D01*
X160102380Y-90023809D02*
X159102380Y-90023809D01*
X159245238Y-89928571D01*
X159340476Y-89833333D01*
X159388095Y-89738095D01*
X159102380Y-91214285D02*
X159102380Y-90738095D01*
X159578571Y-90690476D01*
X159530952Y-90738095D01*
X159483333Y-90833333D01*
X159483333Y-91071428D01*
X159530952Y-91166666D01*
X159578571Y-91214285D01*
X159673809Y-91261904D01*
X159911904Y-91261904D01*
X160007142Y-91214285D01*
X160054761Y-91166666D01*
X160102380Y-91071428D01*
X160102380Y-90833333D01*
X160054761Y-90738095D01*
X160007142Y-90690476D01*
X107047619Y-86504761D02*
X107000000Y-86409523D01*
X106904761Y-86314285D01*
X106761904Y-86171428D01*
X106714285Y-86076190D01*
X106714285Y-85980952D01*
X106952380Y-86028571D02*
X106904761Y-85933333D01*
X106809523Y-85838095D01*
X106619047Y-85790476D01*
X106285714Y-85790476D01*
X106095238Y-85838095D01*
X106000000Y-85933333D01*
X105952380Y-86028571D01*
X105952380Y-86219047D01*
X106000000Y-86314285D01*
X106095238Y-86409523D01*
X106285714Y-86457142D01*
X106619047Y-86457142D01*
X106809523Y-86409523D01*
X106904761Y-86314285D01*
X106952380Y-86219047D01*
X106952380Y-86028571D01*
X105952380Y-87314285D02*
X105952380Y-87123809D01*
X106000000Y-87028571D01*
X106047619Y-86980952D01*
X106190476Y-86885714D01*
X106380952Y-86838095D01*
X106761904Y-86838095D01*
X106857142Y-86885714D01*
X106904761Y-86933333D01*
X106952380Y-87028571D01*
X106952380Y-87219047D01*
X106904761Y-87314285D01*
X106857142Y-87361904D01*
X106761904Y-87409523D01*
X106523809Y-87409523D01*
X106428571Y-87361904D01*
X106380952Y-87314285D01*
X106333333Y-87219047D01*
X106333333Y-87028571D01*
X106380952Y-86933333D01*
X106428571Y-86885714D01*
X106523809Y-86838095D01*
X117147619Y-86404761D02*
X117100000Y-86309523D01*
X117004761Y-86214285D01*
X116861904Y-86071428D01*
X116814285Y-85976190D01*
X116814285Y-85880952D01*
X117052380Y-85928571D02*
X117004761Y-85833333D01*
X116909523Y-85738095D01*
X116719047Y-85690476D01*
X116385714Y-85690476D01*
X116195238Y-85738095D01*
X116100000Y-85833333D01*
X116052380Y-85928571D01*
X116052380Y-86119047D01*
X116100000Y-86214285D01*
X116195238Y-86309523D01*
X116385714Y-86357142D01*
X116719047Y-86357142D01*
X116909523Y-86309523D01*
X117004761Y-86214285D01*
X117052380Y-86119047D01*
X117052380Y-85928571D01*
X116052380Y-87261904D02*
X116052380Y-86785714D01*
X116528571Y-86738095D01*
X116480952Y-86785714D01*
X116433333Y-86880952D01*
X116433333Y-87119047D01*
X116480952Y-87214285D01*
X116528571Y-87261904D01*
X116623809Y-87309523D01*
X116861904Y-87309523D01*
X116957142Y-87261904D01*
X117004761Y-87214285D01*
X117052380Y-87119047D01*
X117052380Y-86880952D01*
X117004761Y-86785714D01*
X116957142Y-86738095D01*
X127047619Y-86504761D02*
X127000000Y-86409523D01*
X126904761Y-86314285D01*
X126761904Y-86171428D01*
X126714285Y-86076190D01*
X126714285Y-85980952D01*
X126952380Y-86028571D02*
X126904761Y-85933333D01*
X126809523Y-85838095D01*
X126619047Y-85790476D01*
X126285714Y-85790476D01*
X126095238Y-85838095D01*
X126000000Y-85933333D01*
X125952380Y-86028571D01*
X125952380Y-86219047D01*
X126000000Y-86314285D01*
X126095238Y-86409523D01*
X126285714Y-86457142D01*
X126619047Y-86457142D01*
X126809523Y-86409523D01*
X126904761Y-86314285D01*
X126952380Y-86219047D01*
X126952380Y-86028571D01*
X126285714Y-87314285D02*
X126952380Y-87314285D01*
X125904761Y-87076190D02*
X126619047Y-86838095D01*
X126619047Y-87457142D01*
X137047619Y-86404761D02*
X137000000Y-86309523D01*
X136904761Y-86214285D01*
X136761904Y-86071428D01*
X136714285Y-85976190D01*
X136714285Y-85880952D01*
X136952380Y-85928571D02*
X136904761Y-85833333D01*
X136809523Y-85738095D01*
X136619047Y-85690476D01*
X136285714Y-85690476D01*
X136095238Y-85738095D01*
X136000000Y-85833333D01*
X135952380Y-85928571D01*
X135952380Y-86119047D01*
X136000000Y-86214285D01*
X136095238Y-86309523D01*
X136285714Y-86357142D01*
X136619047Y-86357142D01*
X136809523Y-86309523D01*
X136904761Y-86214285D01*
X136952380Y-86119047D01*
X136952380Y-85928571D01*
X135952380Y-86690476D02*
X135952380Y-87309523D01*
X136333333Y-86976190D01*
X136333333Y-87119047D01*
X136380952Y-87214285D01*
X136428571Y-87261904D01*
X136523809Y-87309523D01*
X136761904Y-87309523D01*
X136857142Y-87261904D01*
X136904761Y-87214285D01*
X136952380Y-87119047D01*
X136952380Y-86833333D01*
X136904761Y-86738095D01*
X136857142Y-86690476D01*
X147047619Y-86404761D02*
X147000000Y-86309523D01*
X146904761Y-86214285D01*
X146761904Y-86071428D01*
X146714285Y-85976190D01*
X146714285Y-85880952D01*
X146952380Y-85928571D02*
X146904761Y-85833333D01*
X146809523Y-85738095D01*
X146619047Y-85690476D01*
X146285714Y-85690476D01*
X146095238Y-85738095D01*
X146000000Y-85833333D01*
X145952380Y-85928571D01*
X145952380Y-86119047D01*
X146000000Y-86214285D01*
X146095238Y-86309523D01*
X146285714Y-86357142D01*
X146619047Y-86357142D01*
X146809523Y-86309523D01*
X146904761Y-86214285D01*
X146952380Y-86119047D01*
X146952380Y-85928571D01*
X146047619Y-86738095D02*
X146000000Y-86785714D01*
X145952380Y-86880952D01*
X145952380Y-87119047D01*
X146000000Y-87214285D01*
X146047619Y-87261904D01*
X146142857Y-87309523D01*
X146238095Y-87309523D01*
X146380952Y-87261904D01*
X146952380Y-86690476D01*
X146952380Y-87309523D01*
X157047619Y-86404761D02*
X157000000Y-86309523D01*
X156904761Y-86214285D01*
X156761904Y-86071428D01*
X156714285Y-85976190D01*
X156714285Y-85880952D01*
X156952380Y-85928571D02*
X156904761Y-85833333D01*
X156809523Y-85738095D01*
X156619047Y-85690476D01*
X156285714Y-85690476D01*
X156095238Y-85738095D01*
X156000000Y-85833333D01*
X155952380Y-85928571D01*
X155952380Y-86119047D01*
X156000000Y-86214285D01*
X156095238Y-86309523D01*
X156285714Y-86357142D01*
X156619047Y-86357142D01*
X156809523Y-86309523D01*
X156904761Y-86214285D01*
X156952380Y-86119047D01*
X156952380Y-85928571D01*
X156952380Y-87309523D02*
X156952380Y-86738095D01*
X156952380Y-87023809D02*
X155952380Y-87023809D01*
X156095238Y-86928571D01*
X156190476Y-86833333D01*
X156238095Y-86738095D01*
M02*
