G04 #@! TF.GenerationSoftware,KiCad,Pcbnew,(5.1.8)-1*
G04 #@! TF.CreationDate,2021-02-26T20:20:08+01:00*
G04 #@! TF.ProjectId,_Spot,b553706f-742e-46b6-9963-61645f706362,rev?*
G04 #@! TF.SameCoordinates,Original*
G04 #@! TF.FileFunction,Legend,Top*
G04 #@! TF.FilePolarity,Positive*
%FSLAX46Y46*%
G04 Gerber Fmt 4.6, Leading zero omitted, Abs format (unit mm)*
G04 Created by KiCad (PCBNEW (5.1.8)-1) date 2021-02-26 20:20:08*
%MOMM*%
%LPD*%
G01*
G04 APERTURE LIST*
%ADD10C,0.300000*%
%ADD11C,0.150000*%
%ADD12C,0.120000*%
G04 APERTURE END LIST*
D10*
X99700000Y-90878571D02*
X99700000Y-91950000D01*
X99628571Y-92164285D01*
X99485714Y-92307142D01*
X99271428Y-92378571D01*
X99128571Y-92378571D01*
X101128571Y-92378571D02*
X100414285Y-92378571D01*
X100414285Y-90878571D01*
X102485714Y-92235714D02*
X102414285Y-92307142D01*
X102200000Y-92378571D01*
X102057142Y-92378571D01*
X101842857Y-92307142D01*
X101700000Y-92164285D01*
X101628571Y-92021428D01*
X101557142Y-91735714D01*
X101557142Y-91521428D01*
X101628571Y-91235714D01*
X101700000Y-91092857D01*
X101842857Y-90950000D01*
X102057142Y-90878571D01*
X102200000Y-90878571D01*
X102414285Y-90950000D01*
X102485714Y-91021428D01*
X103557142Y-90878571D02*
X103557142Y-91950000D01*
X103485714Y-92164285D01*
X103342857Y-92307142D01*
X103128571Y-92378571D01*
X102985714Y-92378571D01*
X104985714Y-92378571D02*
X104271428Y-92378571D01*
X104271428Y-90878571D01*
X106342857Y-92235714D02*
X106271428Y-92307142D01*
X106057142Y-92378571D01*
X105914285Y-92378571D01*
X105700000Y-92307142D01*
X105557142Y-92164285D01*
X105485714Y-92021428D01*
X105414285Y-91735714D01*
X105414285Y-91521428D01*
X105485714Y-91235714D01*
X105557142Y-91092857D01*
X105700000Y-90950000D01*
X105914285Y-90878571D01*
X106057142Y-90878571D01*
X106271428Y-90950000D01*
X106342857Y-91021428D01*
X107414285Y-90878571D02*
X107414285Y-91950000D01*
X107342857Y-92164285D01*
X107200000Y-92307142D01*
X106985714Y-92378571D01*
X106842857Y-92378571D01*
X108842857Y-92378571D02*
X108128571Y-92378571D01*
X108128571Y-90878571D01*
X110200000Y-92235714D02*
X110128571Y-92307142D01*
X109914285Y-92378571D01*
X109771428Y-92378571D01*
X109557142Y-92307142D01*
X109414285Y-92164285D01*
X109342857Y-92021428D01*
X109271428Y-91735714D01*
X109271428Y-91521428D01*
X109342857Y-91235714D01*
X109414285Y-91092857D01*
X109557142Y-90950000D01*
X109771428Y-90878571D01*
X109914285Y-90878571D01*
X110128571Y-90950000D01*
X110200000Y-91021428D01*
X128014285Y-78978571D02*
X128514285Y-80478571D01*
X129014285Y-78978571D01*
X129514285Y-80478571D02*
X129514285Y-79478571D01*
X129514285Y-78978571D02*
X129442857Y-79050000D01*
X129514285Y-79121428D01*
X129585714Y-79050000D01*
X129514285Y-78978571D01*
X129514285Y-79121428D01*
X130228571Y-80478571D02*
X130228571Y-78978571D01*
X130371428Y-79907142D02*
X130800000Y-80478571D01*
X130800000Y-79478571D02*
X130228571Y-80050000D01*
X131442857Y-80478571D02*
X131442857Y-79478571D01*
X131442857Y-78978571D02*
X131371428Y-79050000D01*
X131442857Y-79121428D01*
X131514285Y-79050000D01*
X131442857Y-78978571D01*
X131442857Y-79121428D01*
X132157142Y-79478571D02*
X132157142Y-80478571D01*
X132157142Y-79621428D02*
X132228571Y-79550000D01*
X132371428Y-79478571D01*
X132585714Y-79478571D01*
X132728571Y-79550000D01*
X132800000Y-79692857D01*
X132800000Y-80478571D01*
X134157142Y-79478571D02*
X134157142Y-80692857D01*
X134085714Y-80835714D01*
X134014285Y-80907142D01*
X133871428Y-80978571D01*
X133657142Y-80978571D01*
X133514285Y-80907142D01*
X134157142Y-80407142D02*
X134014285Y-80478571D01*
X133728571Y-80478571D01*
X133585714Y-80407142D01*
X133514285Y-80335714D01*
X133442857Y-80192857D01*
X133442857Y-79764285D01*
X133514285Y-79621428D01*
X133585714Y-79550000D01*
X133728571Y-79478571D01*
X134014285Y-79478571D01*
X134157142Y-79550000D01*
X136014285Y-79692857D02*
X136514285Y-79692857D01*
X136728571Y-80478571D02*
X136014285Y-80478571D01*
X136014285Y-78978571D01*
X136728571Y-78978571D01*
X137585714Y-80478571D02*
X137442857Y-80407142D01*
X137371428Y-80264285D01*
X137371428Y-78978571D01*
X138800000Y-80478571D02*
X138800000Y-79692857D01*
X138728571Y-79550000D01*
X138585714Y-79478571D01*
X138300000Y-79478571D01*
X138157142Y-79550000D01*
X138800000Y-80407142D02*
X138657142Y-80478571D01*
X138300000Y-80478571D01*
X138157142Y-80407142D01*
X138085714Y-80264285D01*
X138085714Y-80121428D01*
X138157142Y-79978571D01*
X138300000Y-79907142D01*
X138657142Y-79907142D01*
X138800000Y-79835714D01*
X139514285Y-80478571D02*
X139514285Y-78978571D01*
X139514285Y-79550000D02*
X139657142Y-79478571D01*
X139942857Y-79478571D01*
X140085714Y-79550000D01*
X140157142Y-79621428D01*
X140228571Y-79764285D01*
X140228571Y-80192857D01*
X140157142Y-80335714D01*
X140085714Y-80407142D01*
X139942857Y-80478571D01*
X139657142Y-80478571D01*
X139514285Y-80407142D01*
X140800000Y-80407142D02*
X140942857Y-80478571D01*
X141228571Y-80478571D01*
X141371428Y-80407142D01*
X141442857Y-80264285D01*
X141442857Y-80192857D01*
X141371428Y-80050000D01*
X141228571Y-79978571D01*
X141014285Y-79978571D01*
X140871428Y-79907142D01*
X140800000Y-79764285D01*
X140800000Y-79692857D01*
X140871428Y-79550000D01*
X141014285Y-79478571D01*
X141228571Y-79478571D01*
X141371428Y-79550000D01*
D11*
X173852380Y-87552380D02*
X172852380Y-87552380D01*
X173852380Y-86980952D01*
X172852380Y-86980952D01*
X173804761Y-86123809D02*
X173852380Y-86219047D01*
X173852380Y-86409523D01*
X173804761Y-86504761D01*
X173709523Y-86552380D01*
X173328571Y-86552380D01*
X173233333Y-86504761D01*
X173185714Y-86409523D01*
X173185714Y-86219047D01*
X173233333Y-86123809D01*
X173328571Y-86076190D01*
X173423809Y-86076190D01*
X173519047Y-86552380D01*
X173185714Y-85219047D02*
X173995238Y-85219047D01*
X174090476Y-85266666D01*
X174138095Y-85314285D01*
X174185714Y-85409523D01*
X174185714Y-85552380D01*
X174138095Y-85647619D01*
X173804761Y-85219047D02*
X173852380Y-85314285D01*
X173852380Y-85504761D01*
X173804761Y-85600000D01*
X173757142Y-85647619D01*
X173661904Y-85695238D01*
X173376190Y-85695238D01*
X173280952Y-85647619D01*
X173233333Y-85600000D01*
X173185714Y-85504761D01*
X173185714Y-85314285D01*
X173233333Y-85219047D01*
X173852380Y-84314285D02*
X173328571Y-84314285D01*
X173233333Y-84361904D01*
X173185714Y-84457142D01*
X173185714Y-84647619D01*
X173233333Y-84742857D01*
X173804761Y-84314285D02*
X173852380Y-84409523D01*
X173852380Y-84647619D01*
X173804761Y-84742857D01*
X173709523Y-84790476D01*
X173614285Y-84790476D01*
X173519047Y-84742857D01*
X173471428Y-84647619D01*
X173471428Y-84409523D01*
X173423809Y-84314285D01*
X173185714Y-83980952D02*
X173185714Y-83600000D01*
X172852380Y-83838095D02*
X173709523Y-83838095D01*
X173804761Y-83790476D01*
X173852380Y-83695238D01*
X173852380Y-83600000D01*
X173852380Y-83266666D02*
X173185714Y-83266666D01*
X172852380Y-83266666D02*
X172900000Y-83314285D01*
X172947619Y-83266666D01*
X172900000Y-83219047D01*
X172852380Y-83266666D01*
X172947619Y-83266666D01*
X173185714Y-82885714D02*
X173852380Y-82647619D01*
X173185714Y-82409523D01*
X173804761Y-81647619D02*
X173852380Y-81742857D01*
X173852380Y-81933333D01*
X173804761Y-82028571D01*
X173709523Y-82076190D01*
X173328571Y-82076190D01*
X173233333Y-82028571D01*
X173185714Y-81933333D01*
X173185714Y-81742857D01*
X173233333Y-81647619D01*
X173328571Y-81600000D01*
X173423809Y-81600000D01*
X173519047Y-82076190D01*
X174052380Y-101690476D02*
X173052380Y-101690476D01*
X173052380Y-101309523D01*
X173100000Y-101214285D01*
X173147619Y-101166666D01*
X173242857Y-101119047D01*
X173385714Y-101119047D01*
X173480952Y-101166666D01*
X173528571Y-101214285D01*
X173576190Y-101309523D01*
X173576190Y-101690476D01*
X174052380Y-100547619D02*
X174004761Y-100642857D01*
X173957142Y-100690476D01*
X173861904Y-100738095D01*
X173576190Y-100738095D01*
X173480952Y-100690476D01*
X173433333Y-100642857D01*
X173385714Y-100547619D01*
X173385714Y-100404761D01*
X173433333Y-100309523D01*
X173480952Y-100261904D01*
X173576190Y-100214285D01*
X173861904Y-100214285D01*
X173957142Y-100261904D01*
X174004761Y-100309523D01*
X174052380Y-100404761D01*
X174052380Y-100547619D01*
X174004761Y-99833333D02*
X174052380Y-99738095D01*
X174052380Y-99547619D01*
X174004761Y-99452380D01*
X173909523Y-99404761D01*
X173861904Y-99404761D01*
X173766666Y-99452380D01*
X173719047Y-99547619D01*
X173719047Y-99690476D01*
X173671428Y-99785714D01*
X173576190Y-99833333D01*
X173528571Y-99833333D01*
X173433333Y-99785714D01*
X173385714Y-99690476D01*
X173385714Y-99547619D01*
X173433333Y-99452380D01*
X174052380Y-98976190D02*
X173385714Y-98976190D01*
X173052380Y-98976190D02*
X173100000Y-99023809D01*
X173147619Y-98976190D01*
X173100000Y-98928571D01*
X173052380Y-98976190D01*
X173147619Y-98976190D01*
X173385714Y-98642857D02*
X173385714Y-98261904D01*
X173052380Y-98500000D02*
X173909523Y-98500000D01*
X174004761Y-98452380D01*
X174052380Y-98357142D01*
X174052380Y-98261904D01*
X174052380Y-97928571D02*
X173385714Y-97928571D01*
X173052380Y-97928571D02*
X173100000Y-97976190D01*
X173147619Y-97928571D01*
X173100000Y-97880952D01*
X173052380Y-97928571D01*
X173147619Y-97928571D01*
X173385714Y-97547619D02*
X174052380Y-97309523D01*
X173385714Y-97071428D01*
X174004761Y-96309523D02*
X174052380Y-96404761D01*
X174052380Y-96595238D01*
X174004761Y-96690476D01*
X173909523Y-96738095D01*
X173528571Y-96738095D01*
X173433333Y-96690476D01*
X173385714Y-96595238D01*
X173385714Y-96404761D01*
X173433333Y-96309523D01*
X173528571Y-96261904D01*
X173623809Y-96261904D01*
X173719047Y-96738095D01*
D12*
X109400000Y-81390000D02*
X106950000Y-81390000D01*
X107600000Y-84610000D02*
X109400000Y-84610000D01*
X147420000Y-106960000D02*
X147420000Y-105500000D01*
X150580000Y-106960000D02*
X150580000Y-104800000D01*
X150580000Y-106960000D02*
X149650000Y-106960000D01*
X147420000Y-106960000D02*
X148350000Y-106960000D01*
X106790000Y-107773752D02*
X106790000Y-107251248D01*
X108210000Y-107773752D02*
X108210000Y-107251248D01*
X101790000Y-107773752D02*
X101790000Y-107251248D01*
X103210000Y-107773752D02*
X103210000Y-107251248D01*
X125100000Y-102635000D02*
X127050000Y-102635000D01*
X125100000Y-102635000D02*
X123150000Y-102635000D01*
X125100000Y-93765000D02*
X127050000Y-93765000D01*
X125100000Y-93765000D02*
X121650000Y-93765000D01*
X135100000Y-102100000D02*
X132900000Y-102100000D01*
X135100000Y-99900000D02*
X132100000Y-99900000D01*
X140788748Y-99340000D02*
X141311252Y-99340000D01*
X140788748Y-100760000D02*
X141311252Y-100760000D01*
X138710000Y-98913748D02*
X138710000Y-99436252D01*
X137290000Y-98913748D02*
X137290000Y-99436252D01*
X136438748Y-92490000D02*
X136961252Y-92490000D01*
X136438748Y-93910000D02*
X136961252Y-93910000D01*
X132990000Y-92561252D02*
X132990000Y-92038748D01*
X134410000Y-92561252D02*
X134410000Y-92038748D01*
X139810000Y-110130000D02*
X139810000Y-107470000D01*
X134670000Y-110130000D02*
X139810000Y-110130000D01*
X134670000Y-107470000D02*
X139810000Y-107470000D01*
X134670000Y-110130000D02*
X134670000Y-107470000D01*
X133400000Y-110130000D02*
X132070000Y-110130000D01*
X132070000Y-110130000D02*
X132070000Y-108800000D01*
X142580000Y-96540000D02*
X141650000Y-96540000D01*
X139420000Y-96540000D02*
X140350000Y-96540000D01*
X139420000Y-96540000D02*
X139420000Y-98700000D01*
X142580000Y-96540000D02*
X142580000Y-98000000D01*
X138280000Y-89540000D02*
X137350000Y-89540000D01*
X135120000Y-89540000D02*
X136050000Y-89540000D01*
X135120000Y-89540000D02*
X135120000Y-91700000D01*
X138280000Y-89540000D02*
X138280000Y-91000000D01*
X133738748Y-96890000D02*
X134261252Y-96890000D01*
X133738748Y-98310000D02*
X134261252Y-98310000D01*
X140838748Y-101390000D02*
X141361252Y-101390000D01*
X140838748Y-102810000D02*
X141361252Y-102810000D01*
X136438748Y-94490000D02*
X136961252Y-94490000D01*
X136438748Y-95910000D02*
X136961252Y-95910000D01*
X165238748Y-108265000D02*
X165761252Y-108265000D01*
X165238748Y-109735000D02*
X165761252Y-109735000D01*
X171985000Y-106288748D02*
X171985000Y-106811252D01*
X170515000Y-106288748D02*
X170515000Y-106811252D01*
X154010000Y-99200000D02*
X154010000Y-97400000D01*
X150790000Y-97400000D02*
X150790000Y-99850000D01*
X143065000Y-107277064D02*
X143065000Y-106822936D01*
X144535000Y-107277064D02*
X144535000Y-106822936D01*
X149750000Y-110300000D02*
X149750000Y-108300000D01*
X149750000Y-108300000D02*
X145900000Y-108300000D01*
X149750000Y-110300000D02*
X145900000Y-110300000D01*
X167130000Y-104190000D02*
X165370000Y-104190000D01*
X165370000Y-107260000D02*
X167800000Y-107260000D01*
X157088748Y-98540000D02*
X157611252Y-98540000D01*
X157088748Y-99960000D02*
X157611252Y-99960000D01*
X140540000Y-90870000D02*
X140540000Y-93730000D01*
X140540000Y-93730000D02*
X142460000Y-93730000D01*
X142460000Y-93730000D02*
X142460000Y-90870000D01*
X103762500Y-83090000D02*
X100902500Y-83090000D01*
X100902500Y-83090000D02*
X100902500Y-85010000D01*
X100902500Y-85010000D02*
X103762500Y-85010000D01*
X146620000Y-92920000D02*
X146620000Y-90060000D01*
X146620000Y-90060000D02*
X144700000Y-90060000D01*
X144700000Y-90060000D02*
X144700000Y-92920000D01*
X160188748Y-106390000D02*
X160711252Y-106390000D01*
X160188748Y-107810000D02*
X160711252Y-107810000D01*
X96500000Y-95000000D02*
X96500000Y-86500000D01*
X96500000Y-86500000D02*
X113500000Y-86500000D01*
X113500000Y-86500000D02*
X113500000Y-104000000D01*
X113500000Y-104000000D02*
X96500000Y-104000000D01*
X96500000Y-104000000D02*
X96500000Y-95000000D01*
X99960000Y-107238748D02*
X99960000Y-107761252D01*
X98540000Y-107238748D02*
X98540000Y-107761252D01*
X168190000Y-92373752D02*
X168190000Y-91851248D01*
X169610000Y-92373752D02*
X169610000Y-91851248D01*
X163590000Y-92361252D02*
X163590000Y-91838748D01*
X165010000Y-92361252D02*
X165010000Y-91838748D01*
X126990000Y-108361252D02*
X126990000Y-107838748D01*
X128410000Y-108361252D02*
X128410000Y-107838748D01*
X128990000Y-108361252D02*
X128990000Y-107838748D01*
X130410000Y-108361252D02*
X130410000Y-107838748D01*
X155161252Y-105710000D02*
X154638748Y-105710000D01*
X155161252Y-104290000D02*
X154638748Y-104290000D01*
X154688748Y-106390000D02*
X155211252Y-106390000D01*
X154688748Y-107810000D02*
X155211252Y-107810000D01*
X142900000Y-92131252D02*
X142900000Y-91608748D01*
X144320000Y-92131252D02*
X144320000Y-91608748D01*
X102488748Y-80840000D02*
X103011252Y-80840000D01*
X102488748Y-82260000D02*
X103011252Y-82260000D01*
X157611252Y-102210000D02*
X157088748Y-102210000D01*
X157611252Y-100790000D02*
X157088748Y-100790000D01*
X152320000Y-80490000D02*
X154980000Y-80490000D01*
X154980000Y-80490000D02*
X154980000Y-83700000D01*
X154980000Y-85220000D02*
X154980000Y-88780000D01*
X154980000Y-90300000D02*
X154980000Y-90970000D01*
X152320000Y-90970000D02*
X154980000Y-90970000D01*
X152320000Y-80490000D02*
X152320000Y-81160000D01*
X152320000Y-82680000D02*
X152320000Y-86240000D01*
X152320000Y-87760000D02*
X152320000Y-90970000D01*
X151110000Y-81160000D02*
X152320000Y-81160000D01*
X165690000Y-92361252D02*
X165690000Y-91838748D01*
X167110000Y-92361252D02*
X167110000Y-91838748D01*
X122938748Y-91590000D02*
X123461252Y-91590000D01*
X122938748Y-93010000D02*
X123461252Y-93010000D01*
X160711252Y-105060000D02*
X160188748Y-105060000D01*
X160711252Y-103640000D02*
X160188748Y-103640000D01*
X149960000Y-98038748D02*
X149960000Y-98561252D01*
X148540000Y-98038748D02*
X148540000Y-98561252D01*
X150661252Y-102310000D02*
X150138748Y-102310000D01*
X150661252Y-100890000D02*
X150138748Y-100890000D01*
X170320000Y-92360000D02*
X171250000Y-92360000D01*
X173480000Y-92360000D02*
X172550000Y-92360000D01*
X173480000Y-92360000D02*
X173480000Y-90200000D01*
X170320000Y-92360000D02*
X170320000Y-90900000D01*
D11*
X107738095Y-79552380D02*
X107738095Y-80361904D01*
X107785714Y-80457142D01*
X107833333Y-80504761D01*
X107928571Y-80552380D01*
X108119047Y-80552380D01*
X108214285Y-80504761D01*
X108261904Y-80457142D01*
X108309523Y-80361904D01*
X108309523Y-79552380D01*
X109214285Y-79885714D02*
X109214285Y-80552380D01*
X108976190Y-79504761D02*
X108738095Y-80219047D01*
X109357142Y-80219047D01*
X152047619Y-106295238D02*
X152000000Y-106390476D01*
X151904761Y-106485714D01*
X151761904Y-106628571D01*
X151714285Y-106723809D01*
X151714285Y-106819047D01*
X151952380Y-106771428D02*
X151904761Y-106866666D01*
X151809523Y-106961904D01*
X151619047Y-107009523D01*
X151285714Y-107009523D01*
X151095238Y-106961904D01*
X151000000Y-106866666D01*
X150952380Y-106771428D01*
X150952380Y-106580952D01*
X151000000Y-106485714D01*
X151095238Y-106390476D01*
X151285714Y-106342857D01*
X151619047Y-106342857D01*
X151809523Y-106390476D01*
X151904761Y-106485714D01*
X151952380Y-106580952D01*
X151952380Y-106771428D01*
X150952380Y-106009523D02*
X150952380Y-105342857D01*
X151952380Y-105771428D01*
X106302380Y-107679166D02*
X105826190Y-108012500D01*
X106302380Y-108250595D02*
X105302380Y-108250595D01*
X105302380Y-107869642D01*
X105350000Y-107774404D01*
X105397619Y-107726785D01*
X105492857Y-107679166D01*
X105635714Y-107679166D01*
X105730952Y-107726785D01*
X105778571Y-107774404D01*
X105826190Y-107869642D01*
X105826190Y-108250595D01*
X105302380Y-107345833D02*
X105302380Y-106679166D01*
X106302380Y-107107738D01*
X104652380Y-107666666D02*
X104176190Y-108000000D01*
X104652380Y-108238095D02*
X103652380Y-108238095D01*
X103652380Y-107857142D01*
X103700000Y-107761904D01*
X103747619Y-107714285D01*
X103842857Y-107666666D01*
X103985714Y-107666666D01*
X104080952Y-107714285D01*
X104128571Y-107761904D01*
X104176190Y-107857142D01*
X104176190Y-108238095D01*
X103652380Y-106809523D02*
X103652380Y-107000000D01*
X103700000Y-107095238D01*
X103747619Y-107142857D01*
X103890476Y-107238095D01*
X104080952Y-107285714D01*
X104461904Y-107285714D01*
X104557142Y-107238095D01*
X104604761Y-107190476D01*
X104652380Y-107095238D01*
X104652380Y-106904761D01*
X104604761Y-106809523D01*
X104557142Y-106761904D01*
X104461904Y-106714285D01*
X104223809Y-106714285D01*
X104128571Y-106761904D01*
X104080952Y-106809523D01*
X104033333Y-106904761D01*
X104033333Y-107095238D01*
X104080952Y-107190476D01*
X104128571Y-107238095D01*
X104223809Y-107285714D01*
X124338095Y-92372380D02*
X124338095Y-93181904D01*
X124385714Y-93277142D01*
X124433333Y-93324761D01*
X124528571Y-93372380D01*
X124719047Y-93372380D01*
X124814285Y-93324761D01*
X124861904Y-93277142D01*
X124909523Y-93181904D01*
X124909523Y-92372380D01*
X125290476Y-92372380D02*
X125909523Y-92372380D01*
X125576190Y-92753333D01*
X125719047Y-92753333D01*
X125814285Y-92800952D01*
X125861904Y-92848571D01*
X125909523Y-92943809D01*
X125909523Y-93181904D01*
X125861904Y-93277142D01*
X125814285Y-93324761D01*
X125719047Y-93372380D01*
X125433333Y-93372380D01*
X125338095Y-93324761D01*
X125290476Y-93277142D01*
X133238095Y-102452380D02*
X133238095Y-103261904D01*
X133285714Y-103357142D01*
X133333333Y-103404761D01*
X133428571Y-103452380D01*
X133619047Y-103452380D01*
X133714285Y-103404761D01*
X133761904Y-103357142D01*
X133809523Y-103261904D01*
X133809523Y-102452380D01*
X134761904Y-102452380D02*
X134285714Y-102452380D01*
X134238095Y-102928571D01*
X134285714Y-102880952D01*
X134380952Y-102833333D01*
X134619047Y-102833333D01*
X134714285Y-102880952D01*
X134761904Y-102928571D01*
X134809523Y-103023809D01*
X134809523Y-103261904D01*
X134761904Y-103357142D01*
X134714285Y-103404761D01*
X134619047Y-103452380D01*
X134380952Y-103452380D01*
X134285714Y-103404761D01*
X134238095Y-103357142D01*
X143757142Y-100552380D02*
X143423809Y-100076190D01*
X143185714Y-100552380D02*
X143185714Y-99552380D01*
X143566666Y-99552380D01*
X143661904Y-99600000D01*
X143709523Y-99647619D01*
X143757142Y-99742857D01*
X143757142Y-99885714D01*
X143709523Y-99980952D01*
X143661904Y-100028571D01*
X143566666Y-100076190D01*
X143185714Y-100076190D01*
X144138095Y-99647619D02*
X144185714Y-99600000D01*
X144280952Y-99552380D01*
X144519047Y-99552380D01*
X144614285Y-99600000D01*
X144661904Y-99647619D01*
X144709523Y-99742857D01*
X144709523Y-99838095D01*
X144661904Y-99980952D01*
X144090476Y-100552380D01*
X144709523Y-100552380D01*
X145566666Y-99885714D02*
X145566666Y-100552380D01*
X145328571Y-99504761D02*
X145090476Y-100219047D01*
X145709523Y-100219047D01*
X137257142Y-102352380D02*
X136923809Y-101876190D01*
X136685714Y-102352380D02*
X136685714Y-101352380D01*
X137066666Y-101352380D01*
X137161904Y-101400000D01*
X137209523Y-101447619D01*
X137257142Y-101542857D01*
X137257142Y-101685714D01*
X137209523Y-101780952D01*
X137161904Y-101828571D01*
X137066666Y-101876190D01*
X136685714Y-101876190D01*
X137638095Y-101447619D02*
X137685714Y-101400000D01*
X137780952Y-101352380D01*
X138019047Y-101352380D01*
X138114285Y-101400000D01*
X138161904Y-101447619D01*
X138209523Y-101542857D01*
X138209523Y-101638095D01*
X138161904Y-101780952D01*
X137590476Y-102352380D01*
X138209523Y-102352380D01*
X138542857Y-101352380D02*
X139161904Y-101352380D01*
X138828571Y-101733333D01*
X138971428Y-101733333D01*
X139066666Y-101780952D01*
X139114285Y-101828571D01*
X139161904Y-101923809D01*
X139161904Y-102161904D01*
X139114285Y-102257142D01*
X139066666Y-102304761D01*
X138971428Y-102352380D01*
X138685714Y-102352380D01*
X138590476Y-102304761D01*
X138542857Y-102257142D01*
X139752380Y-93742857D02*
X139276190Y-94076190D01*
X139752380Y-94314285D02*
X138752380Y-94314285D01*
X138752380Y-93933333D01*
X138800000Y-93838095D01*
X138847619Y-93790476D01*
X138942857Y-93742857D01*
X139085714Y-93742857D01*
X139180952Y-93790476D01*
X139228571Y-93838095D01*
X139276190Y-93933333D01*
X139276190Y-94314285D01*
X138847619Y-93361904D02*
X138800000Y-93314285D01*
X138752380Y-93219047D01*
X138752380Y-92980952D01*
X138800000Y-92885714D01*
X138847619Y-92838095D01*
X138942857Y-92790476D01*
X139038095Y-92790476D01*
X139180952Y-92838095D01*
X139752380Y-93409523D01*
X139752380Y-92790476D01*
X138847619Y-92409523D02*
X138800000Y-92361904D01*
X138752380Y-92266666D01*
X138752380Y-92028571D01*
X138800000Y-91933333D01*
X138847619Y-91885714D01*
X138942857Y-91838095D01*
X139038095Y-91838095D01*
X139180952Y-91885714D01*
X139752380Y-92457142D01*
X139752380Y-91838095D01*
X132452380Y-92942857D02*
X131976190Y-93276190D01*
X132452380Y-93514285D02*
X131452380Y-93514285D01*
X131452380Y-93133333D01*
X131500000Y-93038095D01*
X131547619Y-92990476D01*
X131642857Y-92942857D01*
X131785714Y-92942857D01*
X131880952Y-92990476D01*
X131928571Y-93038095D01*
X131976190Y-93133333D01*
X131976190Y-93514285D01*
X132452380Y-91990476D02*
X132452380Y-92561904D01*
X132452380Y-92276190D02*
X131452380Y-92276190D01*
X131595238Y-92371428D01*
X131690476Y-92466666D01*
X131738095Y-92561904D01*
X131785714Y-91133333D02*
X132452380Y-91133333D01*
X131404761Y-91371428D02*
X132119047Y-91609523D01*
X132119047Y-90990476D01*
X135566666Y-105652380D02*
X135566666Y-106366666D01*
X135519047Y-106509523D01*
X135423809Y-106604761D01*
X135280952Y-106652380D01*
X135185714Y-106652380D01*
X136566666Y-106652380D02*
X135995238Y-106652380D01*
X136280952Y-106652380D02*
X136280952Y-105652380D01*
X136185714Y-105795238D01*
X136090476Y-105890476D01*
X135995238Y-105938095D01*
X144052380Y-98438095D02*
X143052380Y-98438095D01*
X143052380Y-98200000D01*
X143100000Y-98057142D01*
X143195238Y-97961904D01*
X143290476Y-97914285D01*
X143480952Y-97866666D01*
X143623809Y-97866666D01*
X143814285Y-97914285D01*
X143909523Y-97961904D01*
X144004761Y-98057142D01*
X144052380Y-98200000D01*
X144052380Y-98438095D01*
X143052380Y-97533333D02*
X143052380Y-96866666D01*
X144052380Y-97295238D01*
X135961904Y-88452380D02*
X135961904Y-87452380D01*
X136200000Y-87452380D01*
X136342857Y-87500000D01*
X136438095Y-87595238D01*
X136485714Y-87690476D01*
X136533333Y-87880952D01*
X136533333Y-88023809D01*
X136485714Y-88214285D01*
X136438095Y-88309523D01*
X136342857Y-88404761D01*
X136200000Y-88452380D01*
X135961904Y-88452380D01*
X137390476Y-87452380D02*
X137200000Y-87452380D01*
X137104761Y-87500000D01*
X137057142Y-87547619D01*
X136961904Y-87690476D01*
X136914285Y-87880952D01*
X136914285Y-88261904D01*
X136961904Y-88357142D01*
X137009523Y-88404761D01*
X137104761Y-88452380D01*
X137295238Y-88452380D01*
X137390476Y-88404761D01*
X137438095Y-88357142D01*
X137485714Y-88261904D01*
X137485714Y-88023809D01*
X137438095Y-87928571D01*
X137390476Y-87880952D01*
X137295238Y-87833333D01*
X137104761Y-87833333D01*
X137009523Y-87880952D01*
X136961904Y-87928571D01*
X136914285Y-88023809D01*
X133833333Y-96307142D02*
X133785714Y-96354761D01*
X133642857Y-96402380D01*
X133547619Y-96402380D01*
X133404761Y-96354761D01*
X133309523Y-96259523D01*
X133261904Y-96164285D01*
X133214285Y-95973809D01*
X133214285Y-95830952D01*
X133261904Y-95640476D01*
X133309523Y-95545238D01*
X133404761Y-95450000D01*
X133547619Y-95402380D01*
X133642857Y-95402380D01*
X133785714Y-95450000D01*
X133833333Y-95497619D01*
X134309523Y-96402380D02*
X134500000Y-96402380D01*
X134595238Y-96354761D01*
X134642857Y-96307142D01*
X134738095Y-96164285D01*
X134785714Y-95973809D01*
X134785714Y-95592857D01*
X134738095Y-95497619D01*
X134690476Y-95450000D01*
X134595238Y-95402380D01*
X134404761Y-95402380D01*
X134309523Y-95450000D01*
X134261904Y-95497619D01*
X134214285Y-95592857D01*
X134214285Y-95830952D01*
X134261904Y-95926190D01*
X134309523Y-95973809D01*
X134404761Y-96021428D01*
X134595238Y-96021428D01*
X134690476Y-95973809D01*
X134738095Y-95926190D01*
X134785714Y-95830952D01*
X140933333Y-104357142D02*
X140885714Y-104404761D01*
X140742857Y-104452380D01*
X140647619Y-104452380D01*
X140504761Y-104404761D01*
X140409523Y-104309523D01*
X140361904Y-104214285D01*
X140314285Y-104023809D01*
X140314285Y-103880952D01*
X140361904Y-103690476D01*
X140409523Y-103595238D01*
X140504761Y-103500000D01*
X140647619Y-103452380D01*
X140742857Y-103452380D01*
X140885714Y-103500000D01*
X140933333Y-103547619D01*
X141504761Y-103880952D02*
X141409523Y-103833333D01*
X141361904Y-103785714D01*
X141314285Y-103690476D01*
X141314285Y-103642857D01*
X141361904Y-103547619D01*
X141409523Y-103500000D01*
X141504761Y-103452380D01*
X141695238Y-103452380D01*
X141790476Y-103500000D01*
X141838095Y-103547619D01*
X141885714Y-103642857D01*
X141885714Y-103690476D01*
X141838095Y-103785714D01*
X141790476Y-103833333D01*
X141695238Y-103880952D01*
X141504761Y-103880952D01*
X141409523Y-103928571D01*
X141361904Y-103976190D01*
X141314285Y-104071428D01*
X141314285Y-104261904D01*
X141361904Y-104357142D01*
X141409523Y-104404761D01*
X141504761Y-104452380D01*
X141695238Y-104452380D01*
X141790476Y-104404761D01*
X141838095Y-104357142D01*
X141885714Y-104261904D01*
X141885714Y-104071428D01*
X141838095Y-103976190D01*
X141790476Y-103928571D01*
X141695238Y-103880952D01*
X137033333Y-97357142D02*
X136985714Y-97404761D01*
X136842857Y-97452380D01*
X136747619Y-97452380D01*
X136604761Y-97404761D01*
X136509523Y-97309523D01*
X136461904Y-97214285D01*
X136414285Y-97023809D01*
X136414285Y-96880952D01*
X136461904Y-96690476D01*
X136509523Y-96595238D01*
X136604761Y-96500000D01*
X136747619Y-96452380D01*
X136842857Y-96452380D01*
X136985714Y-96500000D01*
X137033333Y-96547619D01*
X137366666Y-96452380D02*
X138033333Y-96452380D01*
X137604761Y-97452380D01*
X165233333Y-111157142D02*
X165185714Y-111204761D01*
X165042857Y-111252380D01*
X164947619Y-111252380D01*
X164804761Y-111204761D01*
X164709523Y-111109523D01*
X164661904Y-111014285D01*
X164614285Y-110823809D01*
X164614285Y-110680952D01*
X164661904Y-110490476D01*
X164709523Y-110395238D01*
X164804761Y-110300000D01*
X164947619Y-110252380D01*
X165042857Y-110252380D01*
X165185714Y-110300000D01*
X165233333Y-110347619D01*
X166138095Y-110252380D02*
X165661904Y-110252380D01*
X165614285Y-110728571D01*
X165661904Y-110680952D01*
X165757142Y-110633333D01*
X165995238Y-110633333D01*
X166090476Y-110680952D01*
X166138095Y-110728571D01*
X166185714Y-110823809D01*
X166185714Y-111061904D01*
X166138095Y-111157142D01*
X166090476Y-111204761D01*
X165995238Y-111252380D01*
X165757142Y-111252380D01*
X165661904Y-111204761D01*
X165614285Y-111157142D01*
X173287142Y-106716666D02*
X173334761Y-106764285D01*
X173382380Y-106907142D01*
X173382380Y-107002380D01*
X173334761Y-107145238D01*
X173239523Y-107240476D01*
X173144285Y-107288095D01*
X172953809Y-107335714D01*
X172810952Y-107335714D01*
X172620476Y-107288095D01*
X172525238Y-107240476D01*
X172430000Y-107145238D01*
X172382380Y-107002380D01*
X172382380Y-106907142D01*
X172430000Y-106764285D01*
X172477619Y-106716666D01*
X173382380Y-105764285D02*
X173382380Y-106335714D01*
X173382380Y-106050000D02*
X172382380Y-106050000D01*
X172525238Y-106145238D01*
X172620476Y-106240476D01*
X172668095Y-106335714D01*
X151738095Y-95002380D02*
X151738095Y-95811904D01*
X151785714Y-95907142D01*
X151833333Y-95954761D01*
X151928571Y-96002380D01*
X152119047Y-96002380D01*
X152214285Y-95954761D01*
X152261904Y-95907142D01*
X152309523Y-95811904D01*
X152309523Y-95002380D01*
X152738095Y-95097619D02*
X152785714Y-95050000D01*
X152880952Y-95002380D01*
X153119047Y-95002380D01*
X153214285Y-95050000D01*
X153261904Y-95097619D01*
X153309523Y-95192857D01*
X153309523Y-95288095D01*
X153261904Y-95430952D01*
X152690476Y-96002380D01*
X153309523Y-96002380D01*
X142602380Y-107692857D02*
X142126190Y-108026190D01*
X142602380Y-108264285D02*
X141602380Y-108264285D01*
X141602380Y-107883333D01*
X141650000Y-107788095D01*
X141697619Y-107740476D01*
X141792857Y-107692857D01*
X141935714Y-107692857D01*
X142030952Y-107740476D01*
X142078571Y-107788095D01*
X142126190Y-107883333D01*
X142126190Y-108264285D01*
X142602380Y-106740476D02*
X142602380Y-107311904D01*
X142602380Y-107026190D02*
X141602380Y-107026190D01*
X141745238Y-107121428D01*
X141840476Y-107216666D01*
X141888095Y-107311904D01*
X142602380Y-105788095D02*
X142602380Y-106359523D01*
X142602380Y-106073809D02*
X141602380Y-106073809D01*
X141745238Y-106169047D01*
X141840476Y-106264285D01*
X141888095Y-106359523D01*
X146938904Y-111657380D02*
X146938904Y-110657380D01*
X147177000Y-110657380D01*
X147319857Y-110705000D01*
X147415095Y-110800238D01*
X147462714Y-110895476D01*
X147510333Y-111085952D01*
X147510333Y-111228809D01*
X147462714Y-111419285D01*
X147415095Y-111514523D01*
X147319857Y-111609761D01*
X147177000Y-111657380D01*
X146938904Y-111657380D01*
X147891285Y-110752619D02*
X147938904Y-110705000D01*
X148034142Y-110657380D01*
X148272238Y-110657380D01*
X148367476Y-110705000D01*
X148415095Y-110752619D01*
X148462714Y-110847857D01*
X148462714Y-110943095D01*
X148415095Y-111085952D01*
X147843666Y-111657380D01*
X148462714Y-111657380D01*
X162852380Y-106561904D02*
X163661904Y-106561904D01*
X163757142Y-106514285D01*
X163804761Y-106466666D01*
X163852380Y-106371428D01*
X163852380Y-106180952D01*
X163804761Y-106085714D01*
X163757142Y-106038095D01*
X163661904Y-105990476D01*
X162852380Y-105990476D01*
X163852380Y-104990476D02*
X163852380Y-105561904D01*
X163852380Y-105276190D02*
X162852380Y-105276190D01*
X162995238Y-105371428D01*
X163090476Y-105466666D01*
X163138095Y-105561904D01*
X156657142Y-97752380D02*
X156323809Y-97276190D01*
X156085714Y-97752380D02*
X156085714Y-96752380D01*
X156466666Y-96752380D01*
X156561904Y-96800000D01*
X156609523Y-96847619D01*
X156657142Y-96942857D01*
X156657142Y-97085714D01*
X156609523Y-97180952D01*
X156561904Y-97228571D01*
X156466666Y-97276190D01*
X156085714Y-97276190D01*
X157609523Y-97752380D02*
X157038095Y-97752380D01*
X157323809Y-97752380D02*
X157323809Y-96752380D01*
X157228571Y-96895238D01*
X157133333Y-96990476D01*
X157038095Y-97038095D01*
X158228571Y-96752380D02*
X158323809Y-96752380D01*
X158419047Y-96800000D01*
X158466666Y-96847619D01*
X158514285Y-96942857D01*
X158561904Y-97133333D01*
X158561904Y-97371428D01*
X158514285Y-97561904D01*
X158466666Y-97657142D01*
X158419047Y-97704761D01*
X158323809Y-97752380D01*
X158228571Y-97752380D01*
X158133333Y-97704761D01*
X158085714Y-97657142D01*
X158038095Y-97561904D01*
X157990476Y-97371428D01*
X157990476Y-97133333D01*
X158038095Y-96942857D01*
X158085714Y-96847619D01*
X158133333Y-96800000D01*
X158228571Y-96752380D01*
X140761904Y-95072380D02*
X140761904Y-94072380D01*
X141000000Y-94072380D01*
X141142857Y-94120000D01*
X141238095Y-94215238D01*
X141285714Y-94310476D01*
X141333333Y-94500952D01*
X141333333Y-94643809D01*
X141285714Y-94834285D01*
X141238095Y-94929523D01*
X141142857Y-95024761D01*
X141000000Y-95072380D01*
X140761904Y-95072380D01*
X142190476Y-94405714D02*
X142190476Y-95072380D01*
X141952380Y-94024761D02*
X141714285Y-94739047D01*
X142333333Y-94739047D01*
X102024404Y-86202380D02*
X102024404Y-85202380D01*
X102262500Y-85202380D01*
X102405357Y-85250000D01*
X102500595Y-85345238D01*
X102548214Y-85440476D01*
X102595833Y-85630952D01*
X102595833Y-85773809D01*
X102548214Y-85964285D01*
X102500595Y-86059523D01*
X102405357Y-86154761D01*
X102262500Y-86202380D01*
X102024404Y-86202380D01*
X102929166Y-85202380D02*
X103548214Y-85202380D01*
X103214880Y-85583333D01*
X103357738Y-85583333D01*
X103452976Y-85630952D01*
X103500595Y-85678571D01*
X103548214Y-85773809D01*
X103548214Y-86011904D01*
X103500595Y-86107142D01*
X103452976Y-86154761D01*
X103357738Y-86202380D01*
X103072023Y-86202380D01*
X102976785Y-86154761D01*
X102929166Y-86107142D01*
X144871904Y-95072380D02*
X144871904Y-94072380D01*
X145110000Y-94072380D01*
X145252857Y-94120000D01*
X145348095Y-94215238D01*
X145395714Y-94310476D01*
X145443333Y-94500952D01*
X145443333Y-94643809D01*
X145395714Y-94834285D01*
X145348095Y-94929523D01*
X145252857Y-95024761D01*
X145110000Y-95072380D01*
X144871904Y-95072380D01*
X146395714Y-95072380D02*
X145824285Y-95072380D01*
X146110000Y-95072380D02*
X146110000Y-94072380D01*
X146014761Y-94215238D01*
X145919523Y-94310476D01*
X145824285Y-94358095D01*
X160283333Y-109302380D02*
X159950000Y-108826190D01*
X159711904Y-109302380D02*
X159711904Y-108302380D01*
X160092857Y-108302380D01*
X160188095Y-108350000D01*
X160235714Y-108397619D01*
X160283333Y-108492857D01*
X160283333Y-108635714D01*
X160235714Y-108730952D01*
X160188095Y-108778571D01*
X160092857Y-108826190D01*
X159711904Y-108826190D01*
X160664285Y-108397619D02*
X160711904Y-108350000D01*
X160807142Y-108302380D01*
X161045238Y-108302380D01*
X161140476Y-108350000D01*
X161188095Y-108397619D01*
X161235714Y-108492857D01*
X161235714Y-108588095D01*
X161188095Y-108730952D01*
X160616666Y-109302380D01*
X161235714Y-109302380D01*
X113916666Y-95404761D02*
X114059523Y-95452380D01*
X114297619Y-95452380D01*
X114392857Y-95404761D01*
X114440476Y-95357142D01*
X114488095Y-95261904D01*
X114488095Y-95166666D01*
X114440476Y-95071428D01*
X114392857Y-95023809D01*
X114297619Y-94976190D01*
X114107142Y-94928571D01*
X114011904Y-94880952D01*
X113964285Y-94833333D01*
X113916666Y-94738095D01*
X113916666Y-94642857D01*
X113964285Y-94547619D01*
X114011904Y-94500000D01*
X114107142Y-94452380D01*
X114345238Y-94452380D01*
X114488095Y-94500000D01*
X114821428Y-94452380D02*
X115059523Y-95452380D01*
X115250000Y-94738095D01*
X115440476Y-95452380D01*
X115678571Y-94452380D01*
X116583333Y-95452380D02*
X116011904Y-95452380D01*
X116297619Y-95452380D02*
X116297619Y-94452380D01*
X116202380Y-94595238D01*
X116107142Y-94690476D01*
X116011904Y-94738095D01*
X98052380Y-108142857D02*
X97576190Y-108476190D01*
X98052380Y-108714285D02*
X97052380Y-108714285D01*
X97052380Y-108333333D01*
X97100000Y-108238095D01*
X97147619Y-108190476D01*
X97242857Y-108142857D01*
X97385714Y-108142857D01*
X97480952Y-108190476D01*
X97528571Y-108238095D01*
X97576190Y-108333333D01*
X97576190Y-108714285D01*
X98052380Y-107190476D02*
X98052380Y-107761904D01*
X98052380Y-107476190D02*
X97052380Y-107476190D01*
X97195238Y-107571428D01*
X97290476Y-107666666D01*
X97338095Y-107761904D01*
X97052380Y-106333333D02*
X97052380Y-106523809D01*
X97100000Y-106619047D01*
X97147619Y-106666666D01*
X97290476Y-106761904D01*
X97480952Y-106809523D01*
X97861904Y-106809523D01*
X97957142Y-106761904D01*
X98004761Y-106714285D01*
X98052380Y-106619047D01*
X98052380Y-106428571D01*
X98004761Y-106333333D01*
X97957142Y-106285714D01*
X97861904Y-106238095D01*
X97623809Y-106238095D01*
X97528571Y-106285714D01*
X97480952Y-106333333D01*
X97433333Y-106428571D01*
X97433333Y-106619047D01*
X97480952Y-106714285D01*
X97528571Y-106761904D01*
X97623809Y-106809523D01*
X168152380Y-92755357D02*
X167676190Y-93088690D01*
X168152380Y-93326785D02*
X167152380Y-93326785D01*
X167152380Y-92945833D01*
X167200000Y-92850595D01*
X167247619Y-92802976D01*
X167342857Y-92755357D01*
X167485714Y-92755357D01*
X167580952Y-92802976D01*
X167628571Y-92850595D01*
X167676190Y-92945833D01*
X167676190Y-93326785D01*
X168152380Y-91802976D02*
X168152380Y-92374404D01*
X168152380Y-92088690D02*
X167152380Y-92088690D01*
X167295238Y-92183928D01*
X167390476Y-92279166D01*
X167438095Y-92374404D01*
X167152380Y-91469642D02*
X167152380Y-90850595D01*
X167533333Y-91183928D01*
X167533333Y-91041071D01*
X167580952Y-90945833D01*
X167628571Y-90898214D01*
X167723809Y-90850595D01*
X167961904Y-90850595D01*
X168057142Y-90898214D01*
X168104761Y-90945833D01*
X168152380Y-91041071D01*
X168152380Y-91326785D01*
X168104761Y-91422023D01*
X168057142Y-91469642D01*
X163102380Y-92742857D02*
X162626190Y-93076190D01*
X163102380Y-93314285D02*
X162102380Y-93314285D01*
X162102380Y-92933333D01*
X162150000Y-92838095D01*
X162197619Y-92790476D01*
X162292857Y-92742857D01*
X162435714Y-92742857D01*
X162530952Y-92790476D01*
X162578571Y-92838095D01*
X162626190Y-92933333D01*
X162626190Y-93314285D01*
X163102380Y-91790476D02*
X163102380Y-92361904D01*
X163102380Y-92076190D02*
X162102380Y-92076190D01*
X162245238Y-92171428D01*
X162340476Y-92266666D01*
X162388095Y-92361904D01*
X162197619Y-91409523D02*
X162150000Y-91361904D01*
X162102380Y-91266666D01*
X162102380Y-91028571D01*
X162150000Y-90933333D01*
X162197619Y-90885714D01*
X162292857Y-90838095D01*
X162388095Y-90838095D01*
X162530952Y-90885714D01*
X163102380Y-91457142D01*
X163102380Y-90838095D01*
X127533333Y-105952380D02*
X127200000Y-105476190D01*
X126961904Y-105952380D02*
X126961904Y-104952380D01*
X127342857Y-104952380D01*
X127438095Y-105000000D01*
X127485714Y-105047619D01*
X127533333Y-105142857D01*
X127533333Y-105285714D01*
X127485714Y-105380952D01*
X127438095Y-105428571D01*
X127342857Y-105476190D01*
X126961904Y-105476190D01*
X128009523Y-105952380D02*
X128200000Y-105952380D01*
X128295238Y-105904761D01*
X128342857Y-105857142D01*
X128438095Y-105714285D01*
X128485714Y-105523809D01*
X128485714Y-105142857D01*
X128438095Y-105047619D01*
X128390476Y-105000000D01*
X128295238Y-104952380D01*
X128104761Y-104952380D01*
X128009523Y-105000000D01*
X127961904Y-105047619D01*
X127914285Y-105142857D01*
X127914285Y-105380952D01*
X127961904Y-105476190D01*
X128009523Y-105523809D01*
X128104761Y-105571428D01*
X128295238Y-105571428D01*
X128390476Y-105523809D01*
X128438095Y-105476190D01*
X128485714Y-105380952D01*
X129533333Y-105952380D02*
X129200000Y-105476190D01*
X128961904Y-105952380D02*
X128961904Y-104952380D01*
X129342857Y-104952380D01*
X129438095Y-105000000D01*
X129485714Y-105047619D01*
X129533333Y-105142857D01*
X129533333Y-105285714D01*
X129485714Y-105380952D01*
X129438095Y-105428571D01*
X129342857Y-105476190D01*
X128961904Y-105476190D01*
X130104761Y-105380952D02*
X130009523Y-105333333D01*
X129961904Y-105285714D01*
X129914285Y-105190476D01*
X129914285Y-105142857D01*
X129961904Y-105047619D01*
X130009523Y-105000000D01*
X130104761Y-104952380D01*
X130295238Y-104952380D01*
X130390476Y-105000000D01*
X130438095Y-105047619D01*
X130485714Y-105142857D01*
X130485714Y-105190476D01*
X130438095Y-105285714D01*
X130390476Y-105333333D01*
X130295238Y-105380952D01*
X130104761Y-105380952D01*
X130009523Y-105428571D01*
X129961904Y-105476190D01*
X129914285Y-105571428D01*
X129914285Y-105761904D01*
X129961904Y-105857142D01*
X130009523Y-105904761D01*
X130104761Y-105952380D01*
X130295238Y-105952380D01*
X130390476Y-105904761D01*
X130438095Y-105857142D01*
X130485714Y-105761904D01*
X130485714Y-105571428D01*
X130438095Y-105476190D01*
X130390476Y-105428571D01*
X130295238Y-105380952D01*
X157952380Y-105066666D02*
X157476190Y-105400000D01*
X157952380Y-105638095D02*
X156952380Y-105638095D01*
X156952380Y-105257142D01*
X157000000Y-105161904D01*
X157047619Y-105114285D01*
X157142857Y-105066666D01*
X157285714Y-105066666D01*
X157380952Y-105114285D01*
X157428571Y-105161904D01*
X157476190Y-105257142D01*
X157476190Y-105638095D01*
X156952380Y-104161904D02*
X156952380Y-104638095D01*
X157428571Y-104685714D01*
X157380952Y-104638095D01*
X157333333Y-104542857D01*
X157333333Y-104304761D01*
X157380952Y-104209523D01*
X157428571Y-104161904D01*
X157523809Y-104114285D01*
X157761904Y-104114285D01*
X157857142Y-104161904D01*
X157904761Y-104209523D01*
X157952380Y-104304761D01*
X157952380Y-104542857D01*
X157904761Y-104638095D01*
X157857142Y-104685714D01*
X158052380Y-107066666D02*
X157576190Y-107400000D01*
X158052380Y-107638095D02*
X157052380Y-107638095D01*
X157052380Y-107257142D01*
X157100000Y-107161904D01*
X157147619Y-107114285D01*
X157242857Y-107066666D01*
X157385714Y-107066666D01*
X157480952Y-107114285D01*
X157528571Y-107161904D01*
X157576190Y-107257142D01*
X157576190Y-107638095D01*
X157385714Y-106209523D02*
X158052380Y-106209523D01*
X157004761Y-106447619D02*
X157719047Y-106685714D01*
X157719047Y-106066666D01*
X143443333Y-95072380D02*
X143110000Y-94596190D01*
X142871904Y-95072380D02*
X142871904Y-94072380D01*
X143252857Y-94072380D01*
X143348095Y-94120000D01*
X143395714Y-94167619D01*
X143443333Y-94262857D01*
X143443333Y-94405714D01*
X143395714Y-94500952D01*
X143348095Y-94548571D01*
X143252857Y-94596190D01*
X142871904Y-94596190D01*
X143776666Y-94072380D02*
X144395714Y-94072380D01*
X144062380Y-94453333D01*
X144205238Y-94453333D01*
X144300476Y-94500952D01*
X144348095Y-94548571D01*
X144395714Y-94643809D01*
X144395714Y-94881904D01*
X144348095Y-94977142D01*
X144300476Y-95024761D01*
X144205238Y-95072380D01*
X143919523Y-95072380D01*
X143824285Y-95024761D01*
X143776666Y-94977142D01*
X102583333Y-80352380D02*
X102250000Y-79876190D01*
X102011904Y-80352380D02*
X102011904Y-79352380D01*
X102392857Y-79352380D01*
X102488095Y-79400000D01*
X102535714Y-79447619D01*
X102583333Y-79542857D01*
X102583333Y-79685714D01*
X102535714Y-79780952D01*
X102488095Y-79828571D01*
X102392857Y-79876190D01*
X102011904Y-79876190D01*
X103535714Y-80352380D02*
X102964285Y-80352380D01*
X103250000Y-80352380D02*
X103250000Y-79352380D01*
X103154761Y-79495238D01*
X103059523Y-79590476D01*
X102964285Y-79638095D01*
X157183333Y-103602380D02*
X156707142Y-103602380D01*
X156707142Y-102602380D01*
X158040476Y-103602380D02*
X157469047Y-103602380D01*
X157754761Y-103602380D02*
X157754761Y-102602380D01*
X157659523Y-102745238D01*
X157564285Y-102840476D01*
X157469047Y-102888095D01*
X153316666Y-78502380D02*
X153316666Y-79216666D01*
X153269047Y-79359523D01*
X153173809Y-79454761D01*
X153030952Y-79502380D01*
X152935714Y-79502380D01*
X153745238Y-78597619D02*
X153792857Y-78550000D01*
X153888095Y-78502380D01*
X154126190Y-78502380D01*
X154221428Y-78550000D01*
X154269047Y-78597619D01*
X154316666Y-78692857D01*
X154316666Y-78788095D01*
X154269047Y-78930952D01*
X153697619Y-79502380D01*
X154316666Y-79502380D01*
X165107142Y-92742857D02*
X165154761Y-92790476D01*
X165202380Y-92933333D01*
X165202380Y-93028571D01*
X165154761Y-93171428D01*
X165059523Y-93266666D01*
X164964285Y-93314285D01*
X164773809Y-93361904D01*
X164630952Y-93361904D01*
X164440476Y-93314285D01*
X164345238Y-93266666D01*
X164250000Y-93171428D01*
X164202380Y-93028571D01*
X164202380Y-92933333D01*
X164250000Y-92790476D01*
X164297619Y-92742857D01*
X165202380Y-91790476D02*
X165202380Y-92361904D01*
X165202380Y-92076190D02*
X164202380Y-92076190D01*
X164345238Y-92171428D01*
X164440476Y-92266666D01*
X164488095Y-92361904D01*
X164297619Y-91409523D02*
X164250000Y-91361904D01*
X164202380Y-91266666D01*
X164202380Y-91028571D01*
X164250000Y-90933333D01*
X164297619Y-90885714D01*
X164392857Y-90838095D01*
X164488095Y-90838095D01*
X164630952Y-90885714D01*
X165202380Y-91457142D01*
X165202380Y-90838095D01*
X123033333Y-91007142D02*
X122985714Y-91054761D01*
X122842857Y-91102380D01*
X122747619Y-91102380D01*
X122604761Y-91054761D01*
X122509523Y-90959523D01*
X122461904Y-90864285D01*
X122414285Y-90673809D01*
X122414285Y-90530952D01*
X122461904Y-90340476D01*
X122509523Y-90245238D01*
X122604761Y-90150000D01*
X122747619Y-90102380D01*
X122842857Y-90102380D01*
X122985714Y-90150000D01*
X123033333Y-90197619D01*
X123890476Y-90102380D02*
X123700000Y-90102380D01*
X123604761Y-90150000D01*
X123557142Y-90197619D01*
X123461904Y-90340476D01*
X123414285Y-90530952D01*
X123414285Y-90911904D01*
X123461904Y-91007142D01*
X123509523Y-91054761D01*
X123604761Y-91102380D01*
X123795238Y-91102380D01*
X123890476Y-91054761D01*
X123938095Y-91007142D01*
X123985714Y-90911904D01*
X123985714Y-90673809D01*
X123938095Y-90578571D01*
X123890476Y-90530952D01*
X123795238Y-90483333D01*
X123604761Y-90483333D01*
X123509523Y-90530952D01*
X123461904Y-90578571D01*
X123414285Y-90673809D01*
X160283333Y-102957142D02*
X160235714Y-103004761D01*
X160092857Y-103052380D01*
X159997619Y-103052380D01*
X159854761Y-103004761D01*
X159759523Y-102909523D01*
X159711904Y-102814285D01*
X159664285Y-102623809D01*
X159664285Y-102480952D01*
X159711904Y-102290476D01*
X159759523Y-102195238D01*
X159854761Y-102100000D01*
X159997619Y-102052380D01*
X160092857Y-102052380D01*
X160235714Y-102100000D01*
X160283333Y-102147619D01*
X161140476Y-102385714D02*
X161140476Y-103052380D01*
X160902380Y-102004761D02*
X160664285Y-102719047D01*
X161283333Y-102719047D01*
X147957142Y-98566666D02*
X148004761Y-98614285D01*
X148052380Y-98757142D01*
X148052380Y-98852380D01*
X148004761Y-98995238D01*
X147909523Y-99090476D01*
X147814285Y-99138095D01*
X147623809Y-99185714D01*
X147480952Y-99185714D01*
X147290476Y-99138095D01*
X147195238Y-99090476D01*
X147100000Y-98995238D01*
X147052380Y-98852380D01*
X147052380Y-98757142D01*
X147100000Y-98614285D01*
X147147619Y-98566666D01*
X147052380Y-98233333D02*
X147052380Y-97614285D01*
X147433333Y-97947619D01*
X147433333Y-97804761D01*
X147480952Y-97709523D01*
X147528571Y-97661904D01*
X147623809Y-97614285D01*
X147861904Y-97614285D01*
X147957142Y-97661904D01*
X148004761Y-97709523D01*
X148052380Y-97804761D01*
X148052380Y-98090476D01*
X148004761Y-98185714D01*
X147957142Y-98233333D01*
X150233333Y-103607142D02*
X150185714Y-103654761D01*
X150042857Y-103702380D01*
X149947619Y-103702380D01*
X149804761Y-103654761D01*
X149709523Y-103559523D01*
X149661904Y-103464285D01*
X149614285Y-103273809D01*
X149614285Y-103130952D01*
X149661904Y-102940476D01*
X149709523Y-102845238D01*
X149804761Y-102750000D01*
X149947619Y-102702380D01*
X150042857Y-102702380D01*
X150185714Y-102750000D01*
X150233333Y-102797619D01*
X150614285Y-102797619D02*
X150661904Y-102750000D01*
X150757142Y-102702380D01*
X150995238Y-102702380D01*
X151090476Y-102750000D01*
X151138095Y-102797619D01*
X151185714Y-102892857D01*
X151185714Y-102988095D01*
X151138095Y-103130952D01*
X150566666Y-103702380D01*
X151185714Y-103702380D01*
X171161904Y-94552380D02*
X171161904Y-93552380D01*
X171400000Y-93552380D01*
X171542857Y-93600000D01*
X171638095Y-93695238D01*
X171685714Y-93790476D01*
X171733333Y-93980952D01*
X171733333Y-94123809D01*
X171685714Y-94314285D01*
X171638095Y-94409523D01*
X171542857Y-94504761D01*
X171400000Y-94552380D01*
X171161904Y-94552380D01*
X172638095Y-93552380D02*
X172161904Y-93552380D01*
X172114285Y-94028571D01*
X172161904Y-93980952D01*
X172257142Y-93933333D01*
X172495238Y-93933333D01*
X172590476Y-93980952D01*
X172638095Y-94028571D01*
X172685714Y-94123809D01*
X172685714Y-94361904D01*
X172638095Y-94457142D01*
X172590476Y-94504761D01*
X172495238Y-94552380D01*
X172257142Y-94552380D01*
X172161904Y-94504761D01*
X172114285Y-94457142D01*
M02*
