G04 #@! TF.GenerationSoftware,KiCad,Pcbnew,(5.1.8)-1*
G04 #@! TF.CreationDate,2021-02-26T20:20:08+01:00*
G04 #@! TF.ProjectId,_Spot,b553706f-742e-46b6-9963-61645f706362,rev?*
G04 #@! TF.SameCoordinates,Original*
G04 #@! TF.FileFunction,Soldermask,Top*
G04 #@! TF.FilePolarity,Negative*
%FSLAX46Y46*%
G04 Gerber Fmt 4.6, Leading zero omitted, Abs format (unit mm)*
G04 Created by KiCad (PCBNEW (5.1.8)-1) date 2021-02-26 20:20:08*
%MOMM*%
%LPD*%
G01*
G04 APERTURE LIST*
%ADD10O,1.802000X1.802000*%
%ADD11C,1.302000*%
%ADD12C,1.502000*%
%ADD13C,3.602000*%
%ADD14C,1.002000*%
%ADD15C,8.702000*%
%ADD16C,0.100000*%
G04 APERTURE END LIST*
G36*
G01*
X109019000Y-82375001D02*
X109019000Y-81724999D01*
G75*
G02*
X109069999Y-81674000I50999J0D01*
G01*
X110630001Y-81674000D01*
G75*
G02*
X110681000Y-81724999I0J-50999D01*
G01*
X110681000Y-82375001D01*
G75*
G02*
X110630001Y-82426000I-50999J0D01*
G01*
X109069999Y-82426000D01*
G75*
G02*
X109019000Y-82375001I0J50999D01*
G01*
G37*
G36*
G01*
X109019000Y-84275001D02*
X109019000Y-83624999D01*
G75*
G02*
X109069999Y-83574000I50999J0D01*
G01*
X110630001Y-83574000D01*
G75*
G02*
X110681000Y-83624999I0J-50999D01*
G01*
X110681000Y-84275001D01*
G75*
G02*
X110630001Y-84326000I-50999J0D01*
G01*
X109069999Y-84326000D01*
G75*
G02*
X109019000Y-84275001I0J50999D01*
G01*
G37*
G36*
G01*
X106319000Y-84275001D02*
X106319000Y-83624999D01*
G75*
G02*
X106369999Y-83574000I50999J0D01*
G01*
X107930001Y-83574000D01*
G75*
G02*
X107981000Y-83624999I0J-50999D01*
G01*
X107981000Y-84275001D01*
G75*
G02*
X107930001Y-84326000I-50999J0D01*
G01*
X106369999Y-84326000D01*
G75*
G02*
X106319000Y-84275001I0J50999D01*
G01*
G37*
G36*
G01*
X106319000Y-83325001D02*
X106319000Y-82674999D01*
G75*
G02*
X106369999Y-82624000I50999J0D01*
G01*
X107930001Y-82624000D01*
G75*
G02*
X107981000Y-82674999I0J-50999D01*
G01*
X107981000Y-83325001D01*
G75*
G02*
X107930001Y-83376000I-50999J0D01*
G01*
X106369999Y-83376000D01*
G75*
G02*
X106319000Y-83325001I0J50999D01*
G01*
G37*
G36*
G01*
X106319000Y-82375001D02*
X106319000Y-81724999D01*
G75*
G02*
X106369999Y-81674000I50999J0D01*
G01*
X107930001Y-81674000D01*
G75*
G02*
X107981000Y-81724999I0J-50999D01*
G01*
X107981000Y-82375001D01*
G75*
G02*
X107930001Y-82426000I-50999J0D01*
G01*
X106369999Y-82426000D01*
G75*
G02*
X106319000Y-82375001I0J50999D01*
G01*
G37*
G36*
G01*
X148600000Y-106699000D02*
X149400000Y-106699000D01*
G75*
G02*
X149451000Y-106750000I0J-51000D01*
G01*
X149451000Y-107650000D01*
G75*
G02*
X149400000Y-107701000I-51000J0D01*
G01*
X148600000Y-107701000D01*
G75*
G02*
X148549000Y-107650000I0J51000D01*
G01*
X148549000Y-106750000D01*
G75*
G02*
X148600000Y-106699000I51000J0D01*
G01*
G37*
G36*
G01*
X147650000Y-104699000D02*
X148450000Y-104699000D01*
G75*
G02*
X148501000Y-104750000I0J-51000D01*
G01*
X148501000Y-105650000D01*
G75*
G02*
X148450000Y-105701000I-51000J0D01*
G01*
X147650000Y-105701000D01*
G75*
G02*
X147599000Y-105650000I0J51000D01*
G01*
X147599000Y-104750000D01*
G75*
G02*
X147650000Y-104699000I51000J0D01*
G01*
G37*
G36*
G01*
X149550000Y-104699000D02*
X150350000Y-104699000D01*
G75*
G02*
X150401000Y-104750000I0J-51000D01*
G01*
X150401000Y-105650000D01*
G75*
G02*
X150350000Y-105701000I-51000J0D01*
G01*
X149550000Y-105701000D01*
G75*
G02*
X149499000Y-105650000I0J51000D01*
G01*
X149499000Y-104750000D01*
G75*
G02*
X149550000Y-104699000I51000J0D01*
G01*
G37*
G36*
G01*
X107978828Y-107113500D02*
X107021172Y-107113500D01*
G75*
G02*
X106749000Y-106841328I0J272172D01*
G01*
X106749000Y-106133672D01*
G75*
G02*
X107021172Y-105861500I272172J0D01*
G01*
X107978828Y-105861500D01*
G75*
G02*
X108251000Y-106133672I0J-272172D01*
G01*
X108251000Y-106841328D01*
G75*
G02*
X107978828Y-107113500I-272172J0D01*
G01*
G37*
G36*
G01*
X107978828Y-109163500D02*
X107021172Y-109163500D01*
G75*
G02*
X106749000Y-108891328I0J272172D01*
G01*
X106749000Y-108183672D01*
G75*
G02*
X107021172Y-107911500I272172J0D01*
G01*
X107978828Y-107911500D01*
G75*
G02*
X108251000Y-108183672I0J-272172D01*
G01*
X108251000Y-108891328D01*
G75*
G02*
X107978828Y-109163500I-272172J0D01*
G01*
G37*
G36*
G01*
X102978828Y-107113500D02*
X102021172Y-107113500D01*
G75*
G02*
X101749000Y-106841328I0J272172D01*
G01*
X101749000Y-106133672D01*
G75*
G02*
X102021172Y-105861500I272172J0D01*
G01*
X102978828Y-105861500D01*
G75*
G02*
X103251000Y-106133672I0J-272172D01*
G01*
X103251000Y-106841328D01*
G75*
G02*
X102978828Y-107113500I-272172J0D01*
G01*
G37*
G36*
G01*
X102978828Y-109163500D02*
X102021172Y-109163500D01*
G75*
G02*
X101749000Y-108891328I0J272172D01*
G01*
X101749000Y-108183672D01*
G75*
G02*
X102021172Y-107911500I272172J0D01*
G01*
X102978828Y-107911500D01*
G75*
G02*
X103251000Y-108183672I0J-272172D01*
G01*
X103251000Y-108891328D01*
G75*
G02*
X102978828Y-109163500I-272172J0D01*
G01*
G37*
G36*
G01*
X126549000Y-94565500D02*
X126549000Y-94214500D01*
G75*
G02*
X126724500Y-94039000I175500J0D01*
G01*
X128425500Y-94039000D01*
G75*
G02*
X128601000Y-94214500I0J-175500D01*
G01*
X128601000Y-94565500D01*
G75*
G02*
X128425500Y-94741000I-175500J0D01*
G01*
X126724500Y-94741000D01*
G75*
G02*
X126549000Y-94565500I0J175500D01*
G01*
G37*
G36*
G01*
X126549000Y-95835500D02*
X126549000Y-95484500D01*
G75*
G02*
X126724500Y-95309000I175500J0D01*
G01*
X128425500Y-95309000D01*
G75*
G02*
X128601000Y-95484500I0J-175500D01*
G01*
X128601000Y-95835500D01*
G75*
G02*
X128425500Y-96011000I-175500J0D01*
G01*
X126724500Y-96011000D01*
G75*
G02*
X126549000Y-95835500I0J175500D01*
G01*
G37*
G36*
G01*
X126549000Y-97105500D02*
X126549000Y-96754500D01*
G75*
G02*
X126724500Y-96579000I175500J0D01*
G01*
X128425500Y-96579000D01*
G75*
G02*
X128601000Y-96754500I0J-175500D01*
G01*
X128601000Y-97105500D01*
G75*
G02*
X128425500Y-97281000I-175500J0D01*
G01*
X126724500Y-97281000D01*
G75*
G02*
X126549000Y-97105500I0J175500D01*
G01*
G37*
G36*
G01*
X126549000Y-98375500D02*
X126549000Y-98024500D01*
G75*
G02*
X126724500Y-97849000I175500J0D01*
G01*
X128425500Y-97849000D01*
G75*
G02*
X128601000Y-98024500I0J-175500D01*
G01*
X128601000Y-98375500D01*
G75*
G02*
X128425500Y-98551000I-175500J0D01*
G01*
X126724500Y-98551000D01*
G75*
G02*
X126549000Y-98375500I0J175500D01*
G01*
G37*
G36*
G01*
X126549000Y-99645500D02*
X126549000Y-99294500D01*
G75*
G02*
X126724500Y-99119000I175500J0D01*
G01*
X128425500Y-99119000D01*
G75*
G02*
X128601000Y-99294500I0J-175500D01*
G01*
X128601000Y-99645500D01*
G75*
G02*
X128425500Y-99821000I-175500J0D01*
G01*
X126724500Y-99821000D01*
G75*
G02*
X126549000Y-99645500I0J175500D01*
G01*
G37*
G36*
G01*
X126549000Y-100915500D02*
X126549000Y-100564500D01*
G75*
G02*
X126724500Y-100389000I175500J0D01*
G01*
X128425500Y-100389000D01*
G75*
G02*
X128601000Y-100564500I0J-175500D01*
G01*
X128601000Y-100915500D01*
G75*
G02*
X128425500Y-101091000I-175500J0D01*
G01*
X126724500Y-101091000D01*
G75*
G02*
X126549000Y-100915500I0J175500D01*
G01*
G37*
G36*
G01*
X126549000Y-102185500D02*
X126549000Y-101834500D01*
G75*
G02*
X126724500Y-101659000I175500J0D01*
G01*
X128425500Y-101659000D01*
G75*
G02*
X128601000Y-101834500I0J-175500D01*
G01*
X128601000Y-102185500D01*
G75*
G02*
X128425500Y-102361000I-175500J0D01*
G01*
X126724500Y-102361000D01*
G75*
G02*
X126549000Y-102185500I0J175500D01*
G01*
G37*
G36*
G01*
X121599000Y-102185500D02*
X121599000Y-101834500D01*
G75*
G02*
X121774500Y-101659000I175500J0D01*
G01*
X123475500Y-101659000D01*
G75*
G02*
X123651000Y-101834500I0J-175500D01*
G01*
X123651000Y-102185500D01*
G75*
G02*
X123475500Y-102361000I-175500J0D01*
G01*
X121774500Y-102361000D01*
G75*
G02*
X121599000Y-102185500I0J175500D01*
G01*
G37*
G36*
G01*
X121599000Y-100915500D02*
X121599000Y-100564500D01*
G75*
G02*
X121774500Y-100389000I175500J0D01*
G01*
X123475500Y-100389000D01*
G75*
G02*
X123651000Y-100564500I0J-175500D01*
G01*
X123651000Y-100915500D01*
G75*
G02*
X123475500Y-101091000I-175500J0D01*
G01*
X121774500Y-101091000D01*
G75*
G02*
X121599000Y-100915500I0J175500D01*
G01*
G37*
G36*
G01*
X121599000Y-99645500D02*
X121599000Y-99294500D01*
G75*
G02*
X121774500Y-99119000I175500J0D01*
G01*
X123475500Y-99119000D01*
G75*
G02*
X123651000Y-99294500I0J-175500D01*
G01*
X123651000Y-99645500D01*
G75*
G02*
X123475500Y-99821000I-175500J0D01*
G01*
X121774500Y-99821000D01*
G75*
G02*
X121599000Y-99645500I0J175500D01*
G01*
G37*
G36*
G01*
X121599000Y-98375500D02*
X121599000Y-98024500D01*
G75*
G02*
X121774500Y-97849000I175500J0D01*
G01*
X123475500Y-97849000D01*
G75*
G02*
X123651000Y-98024500I0J-175500D01*
G01*
X123651000Y-98375500D01*
G75*
G02*
X123475500Y-98551000I-175500J0D01*
G01*
X121774500Y-98551000D01*
G75*
G02*
X121599000Y-98375500I0J175500D01*
G01*
G37*
G36*
G01*
X121599000Y-97105500D02*
X121599000Y-96754500D01*
G75*
G02*
X121774500Y-96579000I175500J0D01*
G01*
X123475500Y-96579000D01*
G75*
G02*
X123651000Y-96754500I0J-175500D01*
G01*
X123651000Y-97105500D01*
G75*
G02*
X123475500Y-97281000I-175500J0D01*
G01*
X121774500Y-97281000D01*
G75*
G02*
X121599000Y-97105500I0J175500D01*
G01*
G37*
G36*
G01*
X121599000Y-95835500D02*
X121599000Y-95484500D01*
G75*
G02*
X121774500Y-95309000I175500J0D01*
G01*
X123475500Y-95309000D01*
G75*
G02*
X123651000Y-95484500I0J-175500D01*
G01*
X123651000Y-95835500D01*
G75*
G02*
X123475500Y-96011000I-175500J0D01*
G01*
X121774500Y-96011000D01*
G75*
G02*
X121599000Y-95835500I0J175500D01*
G01*
G37*
G36*
G01*
X121599000Y-94565500D02*
X121599000Y-94214500D01*
G75*
G02*
X121774500Y-94039000I175500J0D01*
G01*
X123475500Y-94039000D01*
G75*
G02*
X123651000Y-94214500I0J-175500D01*
G01*
X123651000Y-94565500D01*
G75*
G02*
X123475500Y-94741000I-175500J0D01*
G01*
X121774500Y-94741000D01*
G75*
G02*
X121599000Y-94565500I0J175500D01*
G01*
G37*
G36*
G01*
X135150000Y-100049000D02*
X135950000Y-100049000D01*
G75*
G02*
X136001000Y-100100000I0J-51000D01*
G01*
X136001000Y-100400000D01*
G75*
G02*
X135950000Y-100451000I-51000J0D01*
G01*
X135150000Y-100451000D01*
G75*
G02*
X135099000Y-100400000I0J51000D01*
G01*
X135099000Y-100100000D01*
G75*
G02*
X135150000Y-100049000I51000J0D01*
G01*
G37*
G36*
G01*
X135150000Y-100549000D02*
X135950000Y-100549000D01*
G75*
G02*
X136001000Y-100600000I0J-51000D01*
G01*
X136001000Y-100900000D01*
G75*
G02*
X135950000Y-100951000I-51000J0D01*
G01*
X135150000Y-100951000D01*
G75*
G02*
X135099000Y-100900000I0J51000D01*
G01*
X135099000Y-100600000D01*
G75*
G02*
X135150000Y-100549000I51000J0D01*
G01*
G37*
G36*
G01*
X135150000Y-101049000D02*
X135950000Y-101049000D01*
G75*
G02*
X136001000Y-101100000I0J-51000D01*
G01*
X136001000Y-101400000D01*
G75*
G02*
X135950000Y-101451000I-51000J0D01*
G01*
X135150000Y-101451000D01*
G75*
G02*
X135099000Y-101400000I0J51000D01*
G01*
X135099000Y-101100000D01*
G75*
G02*
X135150000Y-101049000I51000J0D01*
G01*
G37*
G36*
G01*
X135150000Y-101549000D02*
X135950000Y-101549000D01*
G75*
G02*
X136001000Y-101600000I0J-51000D01*
G01*
X136001000Y-101900000D01*
G75*
G02*
X135950000Y-101951000I-51000J0D01*
G01*
X135150000Y-101951000D01*
G75*
G02*
X135099000Y-101900000I0J51000D01*
G01*
X135099000Y-101600000D01*
G75*
G02*
X135150000Y-101549000I51000J0D01*
G01*
G37*
G36*
G01*
X132050000Y-101549000D02*
X132850000Y-101549000D01*
G75*
G02*
X132901000Y-101600000I0J-51000D01*
G01*
X132901000Y-101900000D01*
G75*
G02*
X132850000Y-101951000I-51000J0D01*
G01*
X132050000Y-101951000D01*
G75*
G02*
X131999000Y-101900000I0J51000D01*
G01*
X131999000Y-101600000D01*
G75*
G02*
X132050000Y-101549000I51000J0D01*
G01*
G37*
G36*
G01*
X132050000Y-101049000D02*
X132850000Y-101049000D01*
G75*
G02*
X132901000Y-101100000I0J-51000D01*
G01*
X132901000Y-101400000D01*
G75*
G02*
X132850000Y-101451000I-51000J0D01*
G01*
X132050000Y-101451000D01*
G75*
G02*
X131999000Y-101400000I0J51000D01*
G01*
X131999000Y-101100000D01*
G75*
G02*
X132050000Y-101049000I51000J0D01*
G01*
G37*
G36*
G01*
X132050000Y-100549000D02*
X132850000Y-100549000D01*
G75*
G02*
X132901000Y-100600000I0J-51000D01*
G01*
X132901000Y-100900000D01*
G75*
G02*
X132850000Y-100951000I-51000J0D01*
G01*
X132050000Y-100951000D01*
G75*
G02*
X131999000Y-100900000I0J51000D01*
G01*
X131999000Y-100600000D01*
G75*
G02*
X132050000Y-100549000I51000J0D01*
G01*
G37*
G36*
G01*
X132050000Y-100049000D02*
X132850000Y-100049000D01*
G75*
G02*
X132901000Y-100100000I0J-51000D01*
G01*
X132901000Y-100400000D01*
G75*
G02*
X132850000Y-100451000I-51000J0D01*
G01*
X132050000Y-100451000D01*
G75*
G02*
X131999000Y-100400000I0J51000D01*
G01*
X131999000Y-100100000D01*
G75*
G02*
X132050000Y-100049000I51000J0D01*
G01*
G37*
G36*
G01*
X141449000Y-100528828D02*
X141449000Y-99571172D01*
G75*
G02*
X141721172Y-99299000I272172J0D01*
G01*
X142428828Y-99299000D01*
G75*
G02*
X142701000Y-99571172I0J-272172D01*
G01*
X142701000Y-100528828D01*
G75*
G02*
X142428828Y-100801000I-272172J0D01*
G01*
X141721172Y-100801000D01*
G75*
G02*
X141449000Y-100528828I0J272172D01*
G01*
G37*
G36*
G01*
X139399000Y-100528828D02*
X139399000Y-99571172D01*
G75*
G02*
X139671172Y-99299000I272172J0D01*
G01*
X140378828Y-99299000D01*
G75*
G02*
X140651000Y-99571172I0J-272172D01*
G01*
X140651000Y-100528828D01*
G75*
G02*
X140378828Y-100801000I-272172J0D01*
G01*
X139671172Y-100801000D01*
G75*
G02*
X139399000Y-100528828I0J272172D01*
G01*
G37*
G36*
G01*
X137521172Y-99574000D02*
X138478828Y-99574000D01*
G75*
G02*
X138751000Y-99846172I0J-272172D01*
G01*
X138751000Y-100553828D01*
G75*
G02*
X138478828Y-100826000I-272172J0D01*
G01*
X137521172Y-100826000D01*
G75*
G02*
X137249000Y-100553828I0J272172D01*
G01*
X137249000Y-99846172D01*
G75*
G02*
X137521172Y-99574000I272172J0D01*
G01*
G37*
G36*
G01*
X137521172Y-97524000D02*
X138478828Y-97524000D01*
G75*
G02*
X138751000Y-97796172I0J-272172D01*
G01*
X138751000Y-98503828D01*
G75*
G02*
X138478828Y-98776000I-272172J0D01*
G01*
X137521172Y-98776000D01*
G75*
G02*
X137249000Y-98503828I0J272172D01*
G01*
X137249000Y-97796172D01*
G75*
G02*
X137521172Y-97524000I272172J0D01*
G01*
G37*
G36*
G01*
X137099000Y-93678828D02*
X137099000Y-92721172D01*
G75*
G02*
X137371172Y-92449000I272172J0D01*
G01*
X138078828Y-92449000D01*
G75*
G02*
X138351000Y-92721172I0J-272172D01*
G01*
X138351000Y-93678828D01*
G75*
G02*
X138078828Y-93951000I-272172J0D01*
G01*
X137371172Y-93951000D01*
G75*
G02*
X137099000Y-93678828I0J272172D01*
G01*
G37*
G36*
G01*
X135049000Y-93678828D02*
X135049000Y-92721172D01*
G75*
G02*
X135321172Y-92449000I272172J0D01*
G01*
X136028828Y-92449000D01*
G75*
G02*
X136301000Y-92721172I0J-272172D01*
G01*
X136301000Y-93678828D01*
G75*
G02*
X136028828Y-93951000I-272172J0D01*
G01*
X135321172Y-93951000D01*
G75*
G02*
X135049000Y-93678828I0J272172D01*
G01*
G37*
G36*
G01*
X134178828Y-91901000D02*
X133221172Y-91901000D01*
G75*
G02*
X132949000Y-91628828I0J272172D01*
G01*
X132949000Y-90921172D01*
G75*
G02*
X133221172Y-90649000I272172J0D01*
G01*
X134178828Y-90649000D01*
G75*
G02*
X134451000Y-90921172I0J-272172D01*
G01*
X134451000Y-91628828D01*
G75*
G02*
X134178828Y-91901000I-272172J0D01*
G01*
G37*
G36*
G01*
X134178828Y-93951000D02*
X133221172Y-93951000D01*
G75*
G02*
X132949000Y-93678828I0J272172D01*
G01*
X132949000Y-92971172D01*
G75*
G02*
X133221172Y-92699000I272172J0D01*
G01*
X134178828Y-92699000D01*
G75*
G02*
X134451000Y-92971172I0J-272172D01*
G01*
X134451000Y-93678828D01*
G75*
G02*
X134178828Y-93951000I-272172J0D01*
G01*
G37*
D10*
X138480000Y-108800000D03*
X135940000Y-108800000D03*
G36*
G01*
X134250000Y-109701000D02*
X132550000Y-109701000D01*
G75*
G02*
X132499000Y-109650000I0J51000D01*
G01*
X132499000Y-107950000D01*
G75*
G02*
X132550000Y-107899000I51000J0D01*
G01*
X134250000Y-107899000D01*
G75*
G02*
X134301000Y-107950000I0J-51000D01*
G01*
X134301000Y-109650000D01*
G75*
G02*
X134250000Y-109701000I-51000J0D01*
G01*
G37*
G36*
G01*
X141400000Y-96801000D02*
X140600000Y-96801000D01*
G75*
G02*
X140549000Y-96750000I0J51000D01*
G01*
X140549000Y-95850000D01*
G75*
G02*
X140600000Y-95799000I51000J0D01*
G01*
X141400000Y-95799000D01*
G75*
G02*
X141451000Y-95850000I0J-51000D01*
G01*
X141451000Y-96750000D01*
G75*
G02*
X141400000Y-96801000I-51000J0D01*
G01*
G37*
G36*
G01*
X142350000Y-98801000D02*
X141550000Y-98801000D01*
G75*
G02*
X141499000Y-98750000I0J51000D01*
G01*
X141499000Y-97850000D01*
G75*
G02*
X141550000Y-97799000I51000J0D01*
G01*
X142350000Y-97799000D01*
G75*
G02*
X142401000Y-97850000I0J-51000D01*
G01*
X142401000Y-98750000D01*
G75*
G02*
X142350000Y-98801000I-51000J0D01*
G01*
G37*
G36*
G01*
X140450000Y-98801000D02*
X139650000Y-98801000D01*
G75*
G02*
X139599000Y-98750000I0J51000D01*
G01*
X139599000Y-97850000D01*
G75*
G02*
X139650000Y-97799000I51000J0D01*
G01*
X140450000Y-97799000D01*
G75*
G02*
X140501000Y-97850000I0J-51000D01*
G01*
X140501000Y-98750000D01*
G75*
G02*
X140450000Y-98801000I-51000J0D01*
G01*
G37*
G36*
G01*
X137100000Y-89801000D02*
X136300000Y-89801000D01*
G75*
G02*
X136249000Y-89750000I0J51000D01*
G01*
X136249000Y-88850000D01*
G75*
G02*
X136300000Y-88799000I51000J0D01*
G01*
X137100000Y-88799000D01*
G75*
G02*
X137151000Y-88850000I0J-51000D01*
G01*
X137151000Y-89750000D01*
G75*
G02*
X137100000Y-89801000I-51000J0D01*
G01*
G37*
G36*
G01*
X138050000Y-91801000D02*
X137250000Y-91801000D01*
G75*
G02*
X137199000Y-91750000I0J51000D01*
G01*
X137199000Y-90850000D01*
G75*
G02*
X137250000Y-90799000I51000J0D01*
G01*
X138050000Y-90799000D01*
G75*
G02*
X138101000Y-90850000I0J-51000D01*
G01*
X138101000Y-91750000D01*
G75*
G02*
X138050000Y-91801000I-51000J0D01*
G01*
G37*
G36*
G01*
X136150000Y-91801000D02*
X135350000Y-91801000D01*
G75*
G02*
X135299000Y-91750000I0J51000D01*
G01*
X135299000Y-90850000D01*
G75*
G02*
X135350000Y-90799000I51000J0D01*
G01*
X136150000Y-90799000D01*
G75*
G02*
X136201000Y-90850000I0J-51000D01*
G01*
X136201000Y-91750000D01*
G75*
G02*
X136150000Y-91801000I-51000J0D01*
G01*
G37*
G36*
G01*
X134399000Y-98078828D02*
X134399000Y-97121172D01*
G75*
G02*
X134671172Y-96849000I272172J0D01*
G01*
X135378828Y-96849000D01*
G75*
G02*
X135651000Y-97121172I0J-272172D01*
G01*
X135651000Y-98078828D01*
G75*
G02*
X135378828Y-98351000I-272172J0D01*
G01*
X134671172Y-98351000D01*
G75*
G02*
X134399000Y-98078828I0J272172D01*
G01*
G37*
G36*
G01*
X132349000Y-98078828D02*
X132349000Y-97121172D01*
G75*
G02*
X132621172Y-96849000I272172J0D01*
G01*
X133328828Y-96849000D01*
G75*
G02*
X133601000Y-97121172I0J-272172D01*
G01*
X133601000Y-98078828D01*
G75*
G02*
X133328828Y-98351000I-272172J0D01*
G01*
X132621172Y-98351000D01*
G75*
G02*
X132349000Y-98078828I0J272172D01*
G01*
G37*
G36*
G01*
X141499000Y-102578828D02*
X141499000Y-101621172D01*
G75*
G02*
X141771172Y-101349000I272172J0D01*
G01*
X142478828Y-101349000D01*
G75*
G02*
X142751000Y-101621172I0J-272172D01*
G01*
X142751000Y-102578828D01*
G75*
G02*
X142478828Y-102851000I-272172J0D01*
G01*
X141771172Y-102851000D01*
G75*
G02*
X141499000Y-102578828I0J272172D01*
G01*
G37*
G36*
G01*
X139449000Y-102578828D02*
X139449000Y-101621172D01*
G75*
G02*
X139721172Y-101349000I272172J0D01*
G01*
X140428828Y-101349000D01*
G75*
G02*
X140701000Y-101621172I0J-272172D01*
G01*
X140701000Y-102578828D01*
G75*
G02*
X140428828Y-102851000I-272172J0D01*
G01*
X139721172Y-102851000D01*
G75*
G02*
X139449000Y-102578828I0J272172D01*
G01*
G37*
G36*
G01*
X137099000Y-95678828D02*
X137099000Y-94721172D01*
G75*
G02*
X137371172Y-94449000I272172J0D01*
G01*
X138078828Y-94449000D01*
G75*
G02*
X138351000Y-94721172I0J-272172D01*
G01*
X138351000Y-95678828D01*
G75*
G02*
X138078828Y-95951000I-272172J0D01*
G01*
X137371172Y-95951000D01*
G75*
G02*
X137099000Y-95678828I0J272172D01*
G01*
G37*
G36*
G01*
X135049000Y-95678828D02*
X135049000Y-94721172D01*
G75*
G02*
X135321172Y-94449000I272172J0D01*
G01*
X136028828Y-94449000D01*
G75*
G02*
X136301000Y-94721172I0J-272172D01*
G01*
X136301000Y-95678828D01*
G75*
G02*
X136028828Y-95951000I-272172J0D01*
G01*
X135321172Y-95951000D01*
G75*
G02*
X135049000Y-95678828I0J272172D01*
G01*
G37*
G36*
G01*
X165899000Y-109504298D02*
X165899000Y-108495702D01*
G75*
G02*
X166170702Y-108224000I271702J0D01*
G01*
X166904298Y-108224000D01*
G75*
G02*
X167176000Y-108495702I0J-271702D01*
G01*
X167176000Y-109504298D01*
G75*
G02*
X166904298Y-109776000I-271702J0D01*
G01*
X166170702Y-109776000D01*
G75*
G02*
X165899000Y-109504298I0J271702D01*
G01*
G37*
G36*
G01*
X163824000Y-109504298D02*
X163824000Y-108495702D01*
G75*
G02*
X164095702Y-108224000I271702J0D01*
G01*
X164829298Y-108224000D01*
G75*
G02*
X165101000Y-108495702I0J-271702D01*
G01*
X165101000Y-109504298D01*
G75*
G02*
X164829298Y-109776000I-271702J0D01*
G01*
X164095702Y-109776000D01*
G75*
G02*
X163824000Y-109504298I0J271702D01*
G01*
G37*
G36*
G01*
X170745702Y-106949000D02*
X171754298Y-106949000D01*
G75*
G02*
X172026000Y-107220702I0J-271702D01*
G01*
X172026000Y-107954298D01*
G75*
G02*
X171754298Y-108226000I-271702J0D01*
G01*
X170745702Y-108226000D01*
G75*
G02*
X170474000Y-107954298I0J271702D01*
G01*
X170474000Y-107220702D01*
G75*
G02*
X170745702Y-106949000I271702J0D01*
G01*
G37*
G36*
G01*
X170745702Y-104874000D02*
X171754298Y-104874000D01*
G75*
G02*
X172026000Y-105145702I0J-271702D01*
G01*
X172026000Y-105879298D01*
G75*
G02*
X171754298Y-106151000I-271702J0D01*
G01*
X170745702Y-106151000D01*
G75*
G02*
X170474000Y-105879298I0J271702D01*
G01*
X170474000Y-105145702D01*
G75*
G02*
X170745702Y-104874000I271702J0D01*
G01*
G37*
G36*
G01*
X151775001Y-97781000D02*
X151124999Y-97781000D01*
G75*
G02*
X151074000Y-97730001I0J50999D01*
G01*
X151074000Y-96669999D01*
G75*
G02*
X151124999Y-96619000I50999J0D01*
G01*
X151775001Y-96619000D01*
G75*
G02*
X151826000Y-96669999I0J-50999D01*
G01*
X151826000Y-97730001D01*
G75*
G02*
X151775001Y-97781000I-50999J0D01*
G01*
G37*
G36*
G01*
X153675001Y-97781000D02*
X153024999Y-97781000D01*
G75*
G02*
X152974000Y-97730001I0J50999D01*
G01*
X152974000Y-96669999D01*
G75*
G02*
X153024999Y-96619000I50999J0D01*
G01*
X153675001Y-96619000D01*
G75*
G02*
X153726000Y-96669999I0J-50999D01*
G01*
X153726000Y-97730001D01*
G75*
G02*
X153675001Y-97781000I-50999J0D01*
G01*
G37*
G36*
G01*
X153675001Y-99981000D02*
X153024999Y-99981000D01*
G75*
G02*
X152974000Y-99930001I0J50999D01*
G01*
X152974000Y-98869999D01*
G75*
G02*
X153024999Y-98819000I50999J0D01*
G01*
X153675001Y-98819000D01*
G75*
G02*
X153726000Y-98869999I0J-50999D01*
G01*
X153726000Y-99930001D01*
G75*
G02*
X153675001Y-99981000I-50999J0D01*
G01*
G37*
G36*
G01*
X152725001Y-99981000D02*
X152074999Y-99981000D01*
G75*
G02*
X152024000Y-99930001I0J50999D01*
G01*
X152024000Y-98869999D01*
G75*
G02*
X152074999Y-98819000I50999J0D01*
G01*
X152725001Y-98819000D01*
G75*
G02*
X152776000Y-98869999I0J-50999D01*
G01*
X152776000Y-99930001D01*
G75*
G02*
X152725001Y-99981000I-50999J0D01*
G01*
G37*
G36*
G01*
X151775001Y-99981000D02*
X151124999Y-99981000D01*
G75*
G02*
X151074000Y-99930001I0J50999D01*
G01*
X151074000Y-98869999D01*
G75*
G02*
X151124999Y-98819000I50999J0D01*
G01*
X151775001Y-98819000D01*
G75*
G02*
X151826000Y-98869999I0J-50999D01*
G01*
X151826000Y-99930001D01*
G75*
G02*
X151775001Y-99981000I-50999J0D01*
G01*
G37*
G36*
G01*
X144279752Y-106701000D02*
X143320248Y-106701000D01*
G75*
G02*
X143049000Y-106429752I0J271248D01*
G01*
X143049000Y-105670248D01*
G75*
G02*
X143320248Y-105399000I271248J0D01*
G01*
X144279752Y-105399000D01*
G75*
G02*
X144551000Y-105670248I0J-271248D01*
G01*
X144551000Y-106429752D01*
G75*
G02*
X144279752Y-106701000I-271248J0D01*
G01*
G37*
G36*
G01*
X144279752Y-108701000D02*
X143320248Y-108701000D01*
G75*
G02*
X143049000Y-108429752I0J271248D01*
G01*
X143049000Y-107670248D01*
G75*
G02*
X143320248Y-107399000I271248J0D01*
G01*
X144279752Y-107399000D01*
G75*
G02*
X144551000Y-107670248I0J-271248D01*
G01*
X144551000Y-108429752D01*
G75*
G02*
X144279752Y-108701000I-271248J0D01*
G01*
G37*
G36*
G01*
X146751000Y-108750000D02*
X146751000Y-109850000D01*
G75*
G02*
X146700000Y-109901000I-51000J0D01*
G01*
X145600000Y-109901000D01*
G75*
G02*
X145549000Y-109850000I0J51000D01*
G01*
X145549000Y-108750000D01*
G75*
G02*
X145600000Y-108699000I51000J0D01*
G01*
X146700000Y-108699000D01*
G75*
G02*
X146751000Y-108750000I0J-51000D01*
G01*
G37*
G36*
G01*
X149551000Y-108750000D02*
X149551000Y-109850000D01*
G75*
G02*
X149500000Y-109901000I-51000J0D01*
G01*
X148400000Y-109901000D01*
G75*
G02*
X148349000Y-109850000I0J51000D01*
G01*
X148349000Y-108750000D01*
G75*
G02*
X148400000Y-108699000I51000J0D01*
G01*
X149500000Y-108699000D01*
G75*
G02*
X149551000Y-108750000I0J-51000D01*
G01*
G37*
G36*
G01*
X165601000Y-106374999D02*
X165601000Y-107025001D01*
G75*
G02*
X165550001Y-107076000I-50999J0D01*
G01*
X164329999Y-107076000D01*
G75*
G02*
X164279000Y-107025001I0J50999D01*
G01*
X164279000Y-106374999D01*
G75*
G02*
X164329999Y-106324000I50999J0D01*
G01*
X165550001Y-106324000D01*
G75*
G02*
X165601000Y-106374999I0J-50999D01*
G01*
G37*
G36*
G01*
X165601000Y-105424999D02*
X165601000Y-106075001D01*
G75*
G02*
X165550001Y-106126000I-50999J0D01*
G01*
X164329999Y-106126000D01*
G75*
G02*
X164279000Y-106075001I0J50999D01*
G01*
X164279000Y-105424999D01*
G75*
G02*
X164329999Y-105374000I50999J0D01*
G01*
X165550001Y-105374000D01*
G75*
G02*
X165601000Y-105424999I0J-50999D01*
G01*
G37*
G36*
G01*
X165601000Y-104474999D02*
X165601000Y-105125001D01*
G75*
G02*
X165550001Y-105176000I-50999J0D01*
G01*
X164329999Y-105176000D01*
G75*
G02*
X164279000Y-105125001I0J50999D01*
G01*
X164279000Y-104474999D01*
G75*
G02*
X164329999Y-104424000I50999J0D01*
G01*
X165550001Y-104424000D01*
G75*
G02*
X165601000Y-104474999I0J-50999D01*
G01*
G37*
G36*
G01*
X168221000Y-104474999D02*
X168221000Y-105125001D01*
G75*
G02*
X168170001Y-105176000I-50999J0D01*
G01*
X166949999Y-105176000D01*
G75*
G02*
X166899000Y-105125001I0J50999D01*
G01*
X166899000Y-104474999D01*
G75*
G02*
X166949999Y-104424000I50999J0D01*
G01*
X168170001Y-104424000D01*
G75*
G02*
X168221000Y-104474999I0J-50999D01*
G01*
G37*
G36*
G01*
X168221000Y-105424999D02*
X168221000Y-106075001D01*
G75*
G02*
X168170001Y-106126000I-50999J0D01*
G01*
X166949999Y-106126000D01*
G75*
G02*
X166899000Y-106075001I0J50999D01*
G01*
X166899000Y-105424999D01*
G75*
G02*
X166949999Y-105374000I50999J0D01*
G01*
X168170001Y-105374000D01*
G75*
G02*
X168221000Y-105424999I0J-50999D01*
G01*
G37*
G36*
G01*
X168221000Y-106374999D02*
X168221000Y-107025001D01*
G75*
G02*
X168170001Y-107076000I-50999J0D01*
G01*
X166949999Y-107076000D01*
G75*
G02*
X166899000Y-107025001I0J50999D01*
G01*
X166899000Y-106374999D01*
G75*
G02*
X166949999Y-106324000I50999J0D01*
G01*
X168170001Y-106324000D01*
G75*
G02*
X168221000Y-106374999I0J-50999D01*
G01*
G37*
G36*
G01*
X157749000Y-99728828D02*
X157749000Y-98771172D01*
G75*
G02*
X158021172Y-98499000I272172J0D01*
G01*
X158728828Y-98499000D01*
G75*
G02*
X159001000Y-98771172I0J-272172D01*
G01*
X159001000Y-99728828D01*
G75*
G02*
X158728828Y-100001000I-272172J0D01*
G01*
X158021172Y-100001000D01*
G75*
G02*
X157749000Y-99728828I0J272172D01*
G01*
G37*
G36*
G01*
X155699000Y-99728828D02*
X155699000Y-98771172D01*
G75*
G02*
X155971172Y-98499000I272172J0D01*
G01*
X156678828Y-98499000D01*
G75*
G02*
X156951000Y-98771172I0J-272172D01*
G01*
X156951000Y-99728828D01*
G75*
G02*
X156678828Y-100001000I-272172J0D01*
G01*
X155971172Y-100001000D01*
G75*
G02*
X155699000Y-99728828I0J272172D01*
G01*
G37*
G36*
G01*
X141978828Y-91471000D02*
X141021172Y-91471000D01*
G75*
G02*
X140749000Y-91198828I0J272172D01*
G01*
X140749000Y-90491172D01*
G75*
G02*
X141021172Y-90219000I272172J0D01*
G01*
X141978828Y-90219000D01*
G75*
G02*
X142251000Y-90491172I0J-272172D01*
G01*
X142251000Y-91198828D01*
G75*
G02*
X141978828Y-91471000I-272172J0D01*
G01*
G37*
G36*
G01*
X141978828Y-93521000D02*
X141021172Y-93521000D01*
G75*
G02*
X140749000Y-93248828I0J272172D01*
G01*
X140749000Y-92541172D01*
G75*
G02*
X141021172Y-92269000I272172J0D01*
G01*
X141978828Y-92269000D01*
G75*
G02*
X142251000Y-92541172I0J-272172D01*
G01*
X142251000Y-93248828D01*
G75*
G02*
X141978828Y-93521000I-272172J0D01*
G01*
G37*
G36*
G01*
X103161500Y-84528828D02*
X103161500Y-83571172D01*
G75*
G02*
X103433672Y-83299000I272172J0D01*
G01*
X104141328Y-83299000D01*
G75*
G02*
X104413500Y-83571172I0J-272172D01*
G01*
X104413500Y-84528828D01*
G75*
G02*
X104141328Y-84801000I-272172J0D01*
G01*
X103433672Y-84801000D01*
G75*
G02*
X103161500Y-84528828I0J272172D01*
G01*
G37*
G36*
G01*
X101111500Y-84528828D02*
X101111500Y-83571172D01*
G75*
G02*
X101383672Y-83299000I272172J0D01*
G01*
X102091328Y-83299000D01*
G75*
G02*
X102363500Y-83571172I0J-272172D01*
G01*
X102363500Y-84528828D01*
G75*
G02*
X102091328Y-84801000I-272172J0D01*
G01*
X101383672Y-84801000D01*
G75*
G02*
X101111500Y-84528828I0J272172D01*
G01*
G37*
G36*
G01*
X145181172Y-92319000D02*
X146138828Y-92319000D01*
G75*
G02*
X146411000Y-92591172I0J-272172D01*
G01*
X146411000Y-93298828D01*
G75*
G02*
X146138828Y-93571000I-272172J0D01*
G01*
X145181172Y-93571000D01*
G75*
G02*
X144909000Y-93298828I0J272172D01*
G01*
X144909000Y-92591172D01*
G75*
G02*
X145181172Y-92319000I272172J0D01*
G01*
G37*
G36*
G01*
X145181172Y-90269000D02*
X146138828Y-90269000D01*
G75*
G02*
X146411000Y-90541172I0J-272172D01*
G01*
X146411000Y-91248828D01*
G75*
G02*
X146138828Y-91521000I-272172J0D01*
G01*
X145181172Y-91521000D01*
G75*
G02*
X144909000Y-91248828I0J272172D01*
G01*
X144909000Y-90541172D01*
G75*
G02*
X145181172Y-90269000I272172J0D01*
G01*
G37*
G36*
G01*
X160849000Y-107578828D02*
X160849000Y-106621172D01*
G75*
G02*
X161121172Y-106349000I272172J0D01*
G01*
X161828828Y-106349000D01*
G75*
G02*
X162101000Y-106621172I0J-272172D01*
G01*
X162101000Y-107578828D01*
G75*
G02*
X161828828Y-107851000I-272172J0D01*
G01*
X161121172Y-107851000D01*
G75*
G02*
X160849000Y-107578828I0J272172D01*
G01*
G37*
G36*
G01*
X158799000Y-107578828D02*
X158799000Y-106621172D01*
G75*
G02*
X159071172Y-106349000I272172J0D01*
G01*
X159778828Y-106349000D01*
G75*
G02*
X160051000Y-106621172I0J-272172D01*
G01*
X160051000Y-107578828D01*
G75*
G02*
X159778828Y-107851000I-272172J0D01*
G01*
X159071172Y-107851000D01*
G75*
G02*
X158799000Y-107578828I0J272172D01*
G01*
G37*
D11*
X105000000Y-99500000D03*
D12*
X105000000Y-95000000D03*
G36*
G01*
X104249000Y-103500000D02*
X104249000Y-101100000D01*
G75*
G02*
X104300000Y-101049000I51000J0D01*
G01*
X105700000Y-101049000D01*
G75*
G02*
X105751000Y-101100000I0J-51000D01*
G01*
X105751000Y-103500000D01*
G75*
G02*
X105700000Y-103551000I-51000J0D01*
G01*
X104300000Y-103551000D01*
G75*
G02*
X104249000Y-103500000I0J51000D01*
G01*
G37*
G36*
G01*
X101749000Y-103500000D02*
X101749000Y-101100000D01*
G75*
G02*
X101800000Y-101049000I51000J0D01*
G01*
X103200000Y-101049000D01*
G75*
G02*
X103251000Y-101100000I0J-51000D01*
G01*
X103251000Y-103500000D01*
G75*
G02*
X103200000Y-103551000I-51000J0D01*
G01*
X101800000Y-103551000D01*
G75*
G02*
X101749000Y-103500000I0J51000D01*
G01*
G37*
G36*
G01*
X106749000Y-103500000D02*
X106749000Y-101100000D01*
G75*
G02*
X106800000Y-101049000I51000J0D01*
G01*
X108200000Y-101049000D01*
G75*
G02*
X108251000Y-101100000I0J-51000D01*
G01*
X108251000Y-103500000D01*
G75*
G02*
X108200000Y-103551000I-51000J0D01*
G01*
X106800000Y-103551000D01*
G75*
G02*
X106749000Y-103500000I0J51000D01*
G01*
G37*
G36*
G01*
X106549000Y-89200000D02*
X106549000Y-86800000D01*
G75*
G02*
X106600000Y-86749000I51000J0D01*
G01*
X108200000Y-86749000D01*
G75*
G02*
X108251000Y-86800000I0J-51000D01*
G01*
X108251000Y-89200000D01*
G75*
G02*
X108200000Y-89251000I-51000J0D01*
G01*
X106600000Y-89251000D01*
G75*
G02*
X106549000Y-89200000I0J51000D01*
G01*
G37*
G36*
G01*
X101749000Y-89200000D02*
X101749000Y-86800000D01*
G75*
G02*
X101800000Y-86749000I51000J0D01*
G01*
X103400000Y-86749000D01*
G75*
G02*
X103451000Y-86800000I0J-51000D01*
G01*
X103451000Y-89200000D01*
G75*
G02*
X103400000Y-89251000I-51000J0D01*
G01*
X101800000Y-89251000D01*
G75*
G02*
X101749000Y-89200000I0J51000D01*
G01*
G37*
G36*
G01*
X110699000Y-96500000D02*
X110699000Y-93500000D01*
G75*
G02*
X110750000Y-93449000I51000J0D01*
G01*
X113250000Y-93449000D01*
G75*
G02*
X113301000Y-93500000I0J-51000D01*
G01*
X113301000Y-96500000D01*
G75*
G02*
X113250000Y-96551000I-51000J0D01*
G01*
X110750000Y-96551000D01*
G75*
G02*
X110699000Y-96500000I0J51000D01*
G01*
G37*
G36*
G01*
X96699000Y-96500000D02*
X96699000Y-93500000D01*
G75*
G02*
X96750000Y-93449000I51000J0D01*
G01*
X99250000Y-93449000D01*
G75*
G02*
X99301000Y-93500000I0J-51000D01*
G01*
X99301000Y-96500000D01*
G75*
G02*
X99250000Y-96551000I-51000J0D01*
G01*
X96750000Y-96551000D01*
G75*
G02*
X96699000Y-96500000I0J51000D01*
G01*
G37*
G36*
G01*
X98771172Y-107899000D02*
X99728828Y-107899000D01*
G75*
G02*
X100001000Y-108171172I0J-272172D01*
G01*
X100001000Y-108878828D01*
G75*
G02*
X99728828Y-109151000I-272172J0D01*
G01*
X98771172Y-109151000D01*
G75*
G02*
X98499000Y-108878828I0J272172D01*
G01*
X98499000Y-108171172D01*
G75*
G02*
X98771172Y-107899000I272172J0D01*
G01*
G37*
G36*
G01*
X98771172Y-105849000D02*
X99728828Y-105849000D01*
G75*
G02*
X100001000Y-106121172I0J-272172D01*
G01*
X100001000Y-106828828D01*
G75*
G02*
X99728828Y-107101000I-272172J0D01*
G01*
X98771172Y-107101000D01*
G75*
G02*
X98499000Y-106828828I0J272172D01*
G01*
X98499000Y-106121172D01*
G75*
G02*
X98771172Y-105849000I272172J0D01*
G01*
G37*
G36*
G01*
X169378828Y-91713500D02*
X168421172Y-91713500D01*
G75*
G02*
X168149000Y-91441328I0J272172D01*
G01*
X168149000Y-90733672D01*
G75*
G02*
X168421172Y-90461500I272172J0D01*
G01*
X169378828Y-90461500D01*
G75*
G02*
X169651000Y-90733672I0J-272172D01*
G01*
X169651000Y-91441328D01*
G75*
G02*
X169378828Y-91713500I-272172J0D01*
G01*
G37*
G36*
G01*
X169378828Y-93763500D02*
X168421172Y-93763500D01*
G75*
G02*
X168149000Y-93491328I0J272172D01*
G01*
X168149000Y-92783672D01*
G75*
G02*
X168421172Y-92511500I272172J0D01*
G01*
X169378828Y-92511500D01*
G75*
G02*
X169651000Y-92783672I0J-272172D01*
G01*
X169651000Y-93491328D01*
G75*
G02*
X169378828Y-93763500I-272172J0D01*
G01*
G37*
G36*
G01*
X164778828Y-91701000D02*
X163821172Y-91701000D01*
G75*
G02*
X163549000Y-91428828I0J272172D01*
G01*
X163549000Y-90721172D01*
G75*
G02*
X163821172Y-90449000I272172J0D01*
G01*
X164778828Y-90449000D01*
G75*
G02*
X165051000Y-90721172I0J-272172D01*
G01*
X165051000Y-91428828D01*
G75*
G02*
X164778828Y-91701000I-272172J0D01*
G01*
G37*
G36*
G01*
X164778828Y-93751000D02*
X163821172Y-93751000D01*
G75*
G02*
X163549000Y-93478828I0J272172D01*
G01*
X163549000Y-92771172D01*
G75*
G02*
X163821172Y-92499000I272172J0D01*
G01*
X164778828Y-92499000D01*
G75*
G02*
X165051000Y-92771172I0J-272172D01*
G01*
X165051000Y-93478828D01*
G75*
G02*
X164778828Y-93751000I-272172J0D01*
G01*
G37*
G36*
G01*
X128178828Y-107701000D02*
X127221172Y-107701000D01*
G75*
G02*
X126949000Y-107428828I0J272172D01*
G01*
X126949000Y-106721172D01*
G75*
G02*
X127221172Y-106449000I272172J0D01*
G01*
X128178828Y-106449000D01*
G75*
G02*
X128451000Y-106721172I0J-272172D01*
G01*
X128451000Y-107428828D01*
G75*
G02*
X128178828Y-107701000I-272172J0D01*
G01*
G37*
G36*
G01*
X128178828Y-109751000D02*
X127221172Y-109751000D01*
G75*
G02*
X126949000Y-109478828I0J272172D01*
G01*
X126949000Y-108771172D01*
G75*
G02*
X127221172Y-108499000I272172J0D01*
G01*
X128178828Y-108499000D01*
G75*
G02*
X128451000Y-108771172I0J-272172D01*
G01*
X128451000Y-109478828D01*
G75*
G02*
X128178828Y-109751000I-272172J0D01*
G01*
G37*
G36*
G01*
X130178828Y-107701000D02*
X129221172Y-107701000D01*
G75*
G02*
X128949000Y-107428828I0J272172D01*
G01*
X128949000Y-106721172D01*
G75*
G02*
X129221172Y-106449000I272172J0D01*
G01*
X130178828Y-106449000D01*
G75*
G02*
X130451000Y-106721172I0J-272172D01*
G01*
X130451000Y-107428828D01*
G75*
G02*
X130178828Y-107701000I-272172J0D01*
G01*
G37*
G36*
G01*
X130178828Y-109751000D02*
X129221172Y-109751000D01*
G75*
G02*
X128949000Y-109478828I0J272172D01*
G01*
X128949000Y-108771172D01*
G75*
G02*
X129221172Y-108499000I272172J0D01*
G01*
X130178828Y-108499000D01*
G75*
G02*
X130451000Y-108771172I0J-272172D01*
G01*
X130451000Y-109478828D01*
G75*
G02*
X130178828Y-109751000I-272172J0D01*
G01*
G37*
G36*
G01*
X154501000Y-104521172D02*
X154501000Y-105478828D01*
G75*
G02*
X154228828Y-105751000I-272172J0D01*
G01*
X153521172Y-105751000D01*
G75*
G02*
X153249000Y-105478828I0J272172D01*
G01*
X153249000Y-104521172D01*
G75*
G02*
X153521172Y-104249000I272172J0D01*
G01*
X154228828Y-104249000D01*
G75*
G02*
X154501000Y-104521172I0J-272172D01*
G01*
G37*
G36*
G01*
X156551000Y-104521172D02*
X156551000Y-105478828D01*
G75*
G02*
X156278828Y-105751000I-272172J0D01*
G01*
X155571172Y-105751000D01*
G75*
G02*
X155299000Y-105478828I0J272172D01*
G01*
X155299000Y-104521172D01*
G75*
G02*
X155571172Y-104249000I272172J0D01*
G01*
X156278828Y-104249000D01*
G75*
G02*
X156551000Y-104521172I0J-272172D01*
G01*
G37*
G36*
G01*
X155349000Y-107578828D02*
X155349000Y-106621172D01*
G75*
G02*
X155621172Y-106349000I272172J0D01*
G01*
X156328828Y-106349000D01*
G75*
G02*
X156601000Y-106621172I0J-272172D01*
G01*
X156601000Y-107578828D01*
G75*
G02*
X156328828Y-107851000I-272172J0D01*
G01*
X155621172Y-107851000D01*
G75*
G02*
X155349000Y-107578828I0J272172D01*
G01*
G37*
G36*
G01*
X153299000Y-107578828D02*
X153299000Y-106621172D01*
G75*
G02*
X153571172Y-106349000I272172J0D01*
G01*
X154278828Y-106349000D01*
G75*
G02*
X154551000Y-106621172I0J-272172D01*
G01*
X154551000Y-107578828D01*
G75*
G02*
X154278828Y-107851000I-272172J0D01*
G01*
X153571172Y-107851000D01*
G75*
G02*
X153299000Y-107578828I0J272172D01*
G01*
G37*
G36*
G01*
X144088828Y-91471000D02*
X143131172Y-91471000D01*
G75*
G02*
X142859000Y-91198828I0J272172D01*
G01*
X142859000Y-90491172D01*
G75*
G02*
X143131172Y-90219000I272172J0D01*
G01*
X144088828Y-90219000D01*
G75*
G02*
X144361000Y-90491172I0J-272172D01*
G01*
X144361000Y-91198828D01*
G75*
G02*
X144088828Y-91471000I-272172J0D01*
G01*
G37*
G36*
G01*
X144088828Y-93521000D02*
X143131172Y-93521000D01*
G75*
G02*
X142859000Y-93248828I0J272172D01*
G01*
X142859000Y-92541172D01*
G75*
G02*
X143131172Y-92269000I272172J0D01*
G01*
X144088828Y-92269000D01*
G75*
G02*
X144361000Y-92541172I0J-272172D01*
G01*
X144361000Y-93248828D01*
G75*
G02*
X144088828Y-93521000I-272172J0D01*
G01*
G37*
G36*
G01*
X103149000Y-82028828D02*
X103149000Y-81071172D01*
G75*
G02*
X103421172Y-80799000I272172J0D01*
G01*
X104128828Y-80799000D01*
G75*
G02*
X104401000Y-81071172I0J-272172D01*
G01*
X104401000Y-82028828D01*
G75*
G02*
X104128828Y-82301000I-272172J0D01*
G01*
X103421172Y-82301000D01*
G75*
G02*
X103149000Y-82028828I0J272172D01*
G01*
G37*
G36*
G01*
X101099000Y-82028828D02*
X101099000Y-81071172D01*
G75*
G02*
X101371172Y-80799000I272172J0D01*
G01*
X102078828Y-80799000D01*
G75*
G02*
X102351000Y-81071172I0J-272172D01*
G01*
X102351000Y-82028828D01*
G75*
G02*
X102078828Y-82301000I-272172J0D01*
G01*
X101371172Y-82301000D01*
G75*
G02*
X101099000Y-82028828I0J272172D01*
G01*
G37*
G36*
G01*
X156951000Y-101021172D02*
X156951000Y-101978828D01*
G75*
G02*
X156678828Y-102251000I-272172J0D01*
G01*
X155971172Y-102251000D01*
G75*
G02*
X155699000Y-101978828I0J272172D01*
G01*
X155699000Y-101021172D01*
G75*
G02*
X155971172Y-100749000I272172J0D01*
G01*
X156678828Y-100749000D01*
G75*
G02*
X156951000Y-101021172I0J-272172D01*
G01*
G37*
G36*
G01*
X159001000Y-101021172D02*
X159001000Y-101978828D01*
G75*
G02*
X158728828Y-102251000I-272172J0D01*
G01*
X158021172Y-102251000D01*
G75*
G02*
X157749000Y-101978828I0J272172D01*
G01*
X157749000Y-101021172D01*
G75*
G02*
X158021172Y-100749000I272172J0D01*
G01*
X158728828Y-100749000D01*
G75*
G02*
X159001000Y-101021172I0J-272172D01*
G01*
G37*
G36*
G01*
X154299000Y-90040000D02*
X154299000Y-89040000D01*
G75*
G02*
X154350000Y-88989000I51000J0D01*
G01*
X156250000Y-88989000D01*
G75*
G02*
X156301000Y-89040000I0J-51000D01*
G01*
X156301000Y-90040000D01*
G75*
G02*
X156250000Y-90091000I-51000J0D01*
G01*
X154350000Y-90091000D01*
G75*
G02*
X154299000Y-90040000I0J51000D01*
G01*
G37*
G36*
G01*
X154299000Y-84960000D02*
X154299000Y-83960000D01*
G75*
G02*
X154350000Y-83909000I51000J0D01*
G01*
X156250000Y-83909000D01*
G75*
G02*
X156301000Y-83960000I0J-51000D01*
G01*
X156301000Y-84960000D01*
G75*
G02*
X156250000Y-85011000I-51000J0D01*
G01*
X154350000Y-85011000D01*
G75*
G02*
X154299000Y-84960000I0J51000D01*
G01*
G37*
G36*
G01*
X150999000Y-87500000D02*
X150999000Y-86500000D01*
G75*
G02*
X151050000Y-86449000I51000J0D01*
G01*
X152950000Y-86449000D01*
G75*
G02*
X153001000Y-86500000I0J-51000D01*
G01*
X153001000Y-87500000D01*
G75*
G02*
X152950000Y-87551000I-51000J0D01*
G01*
X151050000Y-87551000D01*
G75*
G02*
X150999000Y-87500000I0J51000D01*
G01*
G37*
G36*
G01*
X150999000Y-82420000D02*
X150999000Y-81420000D01*
G75*
G02*
X151050000Y-81369000I51000J0D01*
G01*
X152950000Y-81369000D01*
G75*
G02*
X153001000Y-81420000I0J-51000D01*
G01*
X153001000Y-82420000D01*
G75*
G02*
X152950000Y-82471000I-51000J0D01*
G01*
X151050000Y-82471000D01*
G75*
G02*
X150999000Y-82420000I0J51000D01*
G01*
G37*
G36*
G01*
X166878828Y-91701000D02*
X165921172Y-91701000D01*
G75*
G02*
X165649000Y-91428828I0J272172D01*
G01*
X165649000Y-90721172D01*
G75*
G02*
X165921172Y-90449000I272172J0D01*
G01*
X166878828Y-90449000D01*
G75*
G02*
X167151000Y-90721172I0J-272172D01*
G01*
X167151000Y-91428828D01*
G75*
G02*
X166878828Y-91701000I-272172J0D01*
G01*
G37*
G36*
G01*
X166878828Y-93751000D02*
X165921172Y-93751000D01*
G75*
G02*
X165649000Y-93478828I0J272172D01*
G01*
X165649000Y-92771172D01*
G75*
G02*
X165921172Y-92499000I272172J0D01*
G01*
X166878828Y-92499000D01*
G75*
G02*
X167151000Y-92771172I0J-272172D01*
G01*
X167151000Y-93478828D01*
G75*
G02*
X166878828Y-93751000I-272172J0D01*
G01*
G37*
G36*
G01*
X123599000Y-92778828D02*
X123599000Y-91821172D01*
G75*
G02*
X123871172Y-91549000I272172J0D01*
G01*
X124578828Y-91549000D01*
G75*
G02*
X124851000Y-91821172I0J-272172D01*
G01*
X124851000Y-92778828D01*
G75*
G02*
X124578828Y-93051000I-272172J0D01*
G01*
X123871172Y-93051000D01*
G75*
G02*
X123599000Y-92778828I0J272172D01*
G01*
G37*
G36*
G01*
X121549000Y-92778828D02*
X121549000Y-91821172D01*
G75*
G02*
X121821172Y-91549000I272172J0D01*
G01*
X122528828Y-91549000D01*
G75*
G02*
X122801000Y-91821172I0J-272172D01*
G01*
X122801000Y-92778828D01*
G75*
G02*
X122528828Y-93051000I-272172J0D01*
G01*
X121821172Y-93051000D01*
G75*
G02*
X121549000Y-92778828I0J272172D01*
G01*
G37*
G36*
G01*
X160051000Y-103871172D02*
X160051000Y-104828828D01*
G75*
G02*
X159778828Y-105101000I-272172J0D01*
G01*
X159071172Y-105101000D01*
G75*
G02*
X158799000Y-104828828I0J272172D01*
G01*
X158799000Y-103871172D01*
G75*
G02*
X159071172Y-103599000I272172J0D01*
G01*
X159778828Y-103599000D01*
G75*
G02*
X160051000Y-103871172I0J-272172D01*
G01*
G37*
G36*
G01*
X162101000Y-103871172D02*
X162101000Y-104828828D01*
G75*
G02*
X161828828Y-105101000I-272172J0D01*
G01*
X161121172Y-105101000D01*
G75*
G02*
X160849000Y-104828828I0J272172D01*
G01*
X160849000Y-103871172D01*
G75*
G02*
X161121172Y-103599000I272172J0D01*
G01*
X161828828Y-103599000D01*
G75*
G02*
X162101000Y-103871172I0J-272172D01*
G01*
G37*
G36*
G01*
X148771172Y-98699000D02*
X149728828Y-98699000D01*
G75*
G02*
X150001000Y-98971172I0J-272172D01*
G01*
X150001000Y-99678828D01*
G75*
G02*
X149728828Y-99951000I-272172J0D01*
G01*
X148771172Y-99951000D01*
G75*
G02*
X148499000Y-99678828I0J272172D01*
G01*
X148499000Y-98971172D01*
G75*
G02*
X148771172Y-98699000I272172J0D01*
G01*
G37*
G36*
G01*
X148771172Y-96649000D02*
X149728828Y-96649000D01*
G75*
G02*
X150001000Y-96921172I0J-272172D01*
G01*
X150001000Y-97628828D01*
G75*
G02*
X149728828Y-97901000I-272172J0D01*
G01*
X148771172Y-97901000D01*
G75*
G02*
X148499000Y-97628828I0J272172D01*
G01*
X148499000Y-96921172D01*
G75*
G02*
X148771172Y-96649000I272172J0D01*
G01*
G37*
G36*
G01*
X150001000Y-101121172D02*
X150001000Y-102078828D01*
G75*
G02*
X149728828Y-102351000I-272172J0D01*
G01*
X149021172Y-102351000D01*
G75*
G02*
X148749000Y-102078828I0J272172D01*
G01*
X148749000Y-101121172D01*
G75*
G02*
X149021172Y-100849000I272172J0D01*
G01*
X149728828Y-100849000D01*
G75*
G02*
X150001000Y-101121172I0J-272172D01*
G01*
G37*
G36*
G01*
X152051000Y-101121172D02*
X152051000Y-102078828D01*
G75*
G02*
X151778828Y-102351000I-272172J0D01*
G01*
X151071172Y-102351000D01*
G75*
G02*
X150799000Y-102078828I0J272172D01*
G01*
X150799000Y-101121172D01*
G75*
G02*
X151071172Y-100849000I272172J0D01*
G01*
X151778828Y-100849000D01*
G75*
G02*
X152051000Y-101121172I0J-272172D01*
G01*
G37*
D13*
X113200000Y-108000000D03*
X98000000Y-80000000D03*
D14*
X170280419Y-82719581D03*
X168000000Y-81775000D03*
X165719581Y-82719581D03*
X164775000Y-85000000D03*
X165719581Y-87280419D03*
X168000000Y-88225000D03*
X170280419Y-87280419D03*
X171225000Y-85000000D03*
D15*
X168000000Y-85000000D03*
D14*
X170280419Y-96519581D03*
X168000000Y-95575000D03*
X165719581Y-96519581D03*
X164775000Y-98800000D03*
X165719581Y-101080419D03*
X168000000Y-102025000D03*
X170280419Y-101080419D03*
X171225000Y-98800000D03*
D15*
X168000000Y-98800000D03*
G36*
G01*
X171500000Y-92099000D02*
X172300000Y-92099000D01*
G75*
G02*
X172351000Y-92150000I0J-51000D01*
G01*
X172351000Y-93050000D01*
G75*
G02*
X172300000Y-93101000I-51000J0D01*
G01*
X171500000Y-93101000D01*
G75*
G02*
X171449000Y-93050000I0J51000D01*
G01*
X171449000Y-92150000D01*
G75*
G02*
X171500000Y-92099000I51000J0D01*
G01*
G37*
G36*
G01*
X170550000Y-90099000D02*
X171350000Y-90099000D01*
G75*
G02*
X171401000Y-90150000I0J-51000D01*
G01*
X171401000Y-91050000D01*
G75*
G02*
X171350000Y-91101000I-51000J0D01*
G01*
X170550000Y-91101000D01*
G75*
G02*
X170499000Y-91050000I0J51000D01*
G01*
X170499000Y-90150000D01*
G75*
G02*
X170550000Y-90099000I51000J0D01*
G01*
G37*
G36*
G01*
X172450000Y-90099000D02*
X173250000Y-90099000D01*
G75*
G02*
X173301000Y-90150000I0J-51000D01*
G01*
X173301000Y-91050000D01*
G75*
G02*
X173250000Y-91101000I-51000J0D01*
G01*
X172450000Y-91101000D01*
G75*
G02*
X172399000Y-91050000I0J51000D01*
G01*
X172399000Y-90150000D01*
G75*
G02*
X172450000Y-90099000I51000J0D01*
G01*
G37*
D16*
G36*
X168222732Y-106125000D02*
G01*
X168223000Y-106126000D01*
X168223000Y-106324000D01*
X168222000Y-106325732D01*
X168221000Y-106326000D01*
X166899000Y-106326000D01*
X166897268Y-106325000D01*
X166897000Y-106324000D01*
X166897000Y-106126000D01*
X166898000Y-106124268D01*
X166899000Y-106124000D01*
X168221000Y-106124000D01*
X168222732Y-106125000D01*
G37*
G36*
X165602732Y-106125000D02*
G01*
X165603000Y-106126000D01*
X165603000Y-106324000D01*
X165602000Y-106325732D01*
X165601000Y-106326000D01*
X164279000Y-106326000D01*
X164277268Y-106325000D01*
X164277000Y-106324000D01*
X164277000Y-106126000D01*
X164278000Y-106124268D01*
X164279000Y-106124000D01*
X165601000Y-106124000D01*
X165602732Y-106125000D01*
G37*
G36*
X165602732Y-105175000D02*
G01*
X165603000Y-105176000D01*
X165603000Y-105374000D01*
X165602000Y-105375732D01*
X165601000Y-105376000D01*
X164279000Y-105376000D01*
X164277268Y-105375000D01*
X164277000Y-105374000D01*
X164277000Y-105176000D01*
X164278000Y-105174268D01*
X164279000Y-105174000D01*
X165601000Y-105174000D01*
X165602732Y-105175000D01*
G37*
G36*
X168222732Y-105175000D02*
G01*
X168223000Y-105176000D01*
X168223000Y-105374000D01*
X168222000Y-105375732D01*
X168221000Y-105376000D01*
X166899000Y-105376000D01*
X166897268Y-105375000D01*
X166897000Y-105374000D01*
X166897000Y-105176000D01*
X166898000Y-105174268D01*
X166899000Y-105174000D01*
X168221000Y-105174000D01*
X168222732Y-105175000D01*
G37*
G36*
X136002732Y-101450000D02*
G01*
X136003000Y-101451000D01*
X136003000Y-101549000D01*
X136002000Y-101550732D01*
X136001000Y-101551000D01*
X135099000Y-101551000D01*
X135097268Y-101550000D01*
X135097000Y-101549000D01*
X135097000Y-101451000D01*
X135098000Y-101449268D01*
X135099000Y-101449000D01*
X136001000Y-101449000D01*
X136002732Y-101450000D01*
G37*
G36*
X132902732Y-101450000D02*
G01*
X132903000Y-101451000D01*
X132903000Y-101549000D01*
X132902000Y-101550732D01*
X132901000Y-101551000D01*
X131999000Y-101551000D01*
X131997268Y-101550000D01*
X131997000Y-101549000D01*
X131997000Y-101451000D01*
X131998000Y-101449268D01*
X131999000Y-101449000D01*
X132901000Y-101449000D01*
X132902732Y-101450000D01*
G37*
G36*
X132902732Y-100950000D02*
G01*
X132903000Y-100951000D01*
X132903000Y-101049000D01*
X132902000Y-101050732D01*
X132901000Y-101051000D01*
X131999000Y-101051000D01*
X131997268Y-101050000D01*
X131997000Y-101049000D01*
X131997000Y-100951000D01*
X131998000Y-100949268D01*
X131999000Y-100949000D01*
X132901000Y-100949000D01*
X132902732Y-100950000D01*
G37*
G36*
X136002732Y-100950000D02*
G01*
X136003000Y-100951000D01*
X136003000Y-101049000D01*
X136002000Y-101050732D01*
X136001000Y-101051000D01*
X135099000Y-101051000D01*
X135097268Y-101050000D01*
X135097000Y-101049000D01*
X135097000Y-100951000D01*
X135098000Y-100949268D01*
X135099000Y-100949000D01*
X136001000Y-100949000D01*
X136002732Y-100950000D01*
G37*
G36*
X136002732Y-100450000D02*
G01*
X136003000Y-100451000D01*
X136003000Y-100549000D01*
X136002000Y-100550732D01*
X136001000Y-100551000D01*
X135099000Y-100551000D01*
X135097268Y-100550000D01*
X135097000Y-100549000D01*
X135097000Y-100451000D01*
X135098000Y-100449268D01*
X135099000Y-100449000D01*
X136001000Y-100449000D01*
X136002732Y-100450000D01*
G37*
G36*
X132902732Y-100450000D02*
G01*
X132903000Y-100451000D01*
X132903000Y-100549000D01*
X132902000Y-100550732D01*
X132901000Y-100551000D01*
X131999000Y-100551000D01*
X131997268Y-100550000D01*
X131997000Y-100549000D01*
X131997000Y-100451000D01*
X131998000Y-100449268D01*
X131999000Y-100449000D01*
X132901000Y-100449000D01*
X132902732Y-100450000D01*
G37*
G36*
X152975732Y-98818000D02*
G01*
X152976000Y-98819000D01*
X152976000Y-99981000D01*
X152975000Y-99982732D01*
X152974000Y-99983000D01*
X152776000Y-99983000D01*
X152774268Y-99982000D01*
X152774000Y-99981000D01*
X152774000Y-98821000D01*
X152026000Y-98821000D01*
X152026000Y-99981000D01*
X152025000Y-99982732D01*
X152024000Y-99983000D01*
X151826000Y-99983000D01*
X151824268Y-99982000D01*
X151824000Y-99981000D01*
X151824000Y-98819000D01*
X151825000Y-98817268D01*
X151826000Y-98817000D01*
X152974000Y-98817000D01*
X152975732Y-98818000D01*
G37*
G36*
X107982732Y-83375000D02*
G01*
X107983000Y-83376000D01*
X107983000Y-83574000D01*
X107982000Y-83575732D01*
X107981000Y-83576000D01*
X106319000Y-83576000D01*
X106317268Y-83575000D01*
X106317000Y-83574000D01*
X106317000Y-83376000D01*
X106318000Y-83374268D01*
X106319000Y-83374000D01*
X107981000Y-83374000D01*
X107982732Y-83375000D01*
G37*
G36*
X107982732Y-82425000D02*
G01*
X107983000Y-82426000D01*
X107983000Y-82624000D01*
X107982000Y-82625732D01*
X107981000Y-82626000D01*
X106319000Y-82626000D01*
X106317268Y-82625000D01*
X106317000Y-82624000D01*
X106317000Y-82426000D01*
X106318000Y-82424268D01*
X106319000Y-82424000D01*
X107981000Y-82424000D01*
X107982732Y-82425000D01*
G37*
M02*
