G04 #@! TF.GenerationSoftware,KiCad,Pcbnew,(5.1.5)-3*
G04 #@! TF.CreationDate,2020-08-02T11:19:38+02:00*
G04 #@! TF.ProjectId,_Spot,b553706f-742e-46b6-9963-61645f706362,rev?*
G04 #@! TF.SameCoordinates,Original*
G04 #@! TF.FileFunction,Soldermask,Bot*
G04 #@! TF.FilePolarity,Negative*
%FSLAX46Y46*%
G04 Gerber Fmt 4.6, Leading zero omitted, Abs format (unit mm)*
G04 Created by KiCad (PCBNEW (5.1.5)-3) date 2020-08-02 11:19:38*
%MOMM*%
%LPD*%
G04 APERTURE LIST*
%ADD10C,4.000000*%
%ADD11C,0.150000*%
G04 APERTURE END LIST*
D10*
X167000000Y-83200000D02*
X101400000Y-83200000D01*
X155000000Y-95400000D02*
X98000000Y-95400000D01*
X168000000Y-100000000D02*
X98000000Y-100000000D01*
D11*
G36*
X113725331Y-106268211D02*
G01*
X114053092Y-106403974D01*
X114348070Y-106601072D01*
X114598928Y-106851930D01*
X114796026Y-107146908D01*
X114931789Y-107474669D01*
X115001000Y-107822616D01*
X115001000Y-108177384D01*
X114931789Y-108525331D01*
X114796026Y-108853092D01*
X114598928Y-109148070D01*
X114348070Y-109398928D01*
X114053092Y-109596026D01*
X113725331Y-109731789D01*
X113377384Y-109801000D01*
X113022616Y-109801000D01*
X112674669Y-109731789D01*
X112346908Y-109596026D01*
X112051930Y-109398928D01*
X111801072Y-109148070D01*
X111603974Y-108853092D01*
X111468211Y-108525331D01*
X111399000Y-108177384D01*
X111399000Y-107822616D01*
X111468211Y-107474669D01*
X111603974Y-107146908D01*
X111801072Y-106851930D01*
X112051930Y-106601072D01*
X112346908Y-106403974D01*
X112674669Y-106268211D01*
X113022616Y-106199000D01*
X113377384Y-106199000D01*
X113725331Y-106268211D01*
G37*
G36*
X140793512Y-106303927D02*
G01*
X140942812Y-106333624D01*
X141106784Y-106401544D01*
X141254354Y-106500147D01*
X141379853Y-106625646D01*
X141478456Y-106773216D01*
X141546376Y-106937188D01*
X141581000Y-107111259D01*
X141581000Y-107288741D01*
X141546376Y-107462812D01*
X141478456Y-107626784D01*
X141379853Y-107774354D01*
X141254354Y-107899853D01*
X141106784Y-107998456D01*
X140942812Y-108066376D01*
X140793512Y-108096073D01*
X140768742Y-108101000D01*
X140591258Y-108101000D01*
X140566488Y-108096073D01*
X140417188Y-108066376D01*
X140253216Y-107998456D01*
X140105646Y-107899853D01*
X139980147Y-107774354D01*
X139881544Y-107626784D01*
X139813624Y-107462812D01*
X139779000Y-107288741D01*
X139779000Y-107111259D01*
X139813624Y-106937188D01*
X139881544Y-106773216D01*
X139980147Y-106625646D01*
X140105646Y-106500147D01*
X140253216Y-106401544D01*
X140417188Y-106333624D01*
X140566488Y-106303927D01*
X140591258Y-106299000D01*
X140768742Y-106299000D01*
X140793512Y-106303927D01*
G37*
G36*
X136501000Y-108101000D02*
G01*
X134699000Y-108101000D01*
X134699000Y-106299000D01*
X136501000Y-106299000D01*
X136501000Y-108101000D01*
G37*
G36*
X138253512Y-106303927D02*
G01*
X138402812Y-106333624D01*
X138566784Y-106401544D01*
X138714354Y-106500147D01*
X138839853Y-106625646D01*
X138938456Y-106773216D01*
X139006376Y-106937188D01*
X139041000Y-107111259D01*
X139041000Y-107288741D01*
X139006376Y-107462812D01*
X138938456Y-107626784D01*
X138839853Y-107774354D01*
X138714354Y-107899853D01*
X138566784Y-107998456D01*
X138402812Y-108066376D01*
X138253512Y-108096073D01*
X138228742Y-108101000D01*
X138051258Y-108101000D01*
X138026488Y-108096073D01*
X137877188Y-108066376D01*
X137713216Y-107998456D01*
X137565646Y-107899853D01*
X137440147Y-107774354D01*
X137341544Y-107626784D01*
X137273624Y-107462812D01*
X137239000Y-107288741D01*
X137239000Y-107111259D01*
X137273624Y-106937188D01*
X137341544Y-106773216D01*
X137440147Y-106625646D01*
X137565646Y-106500147D01*
X137713216Y-106401544D01*
X137877188Y-106333624D01*
X138026488Y-106303927D01*
X138051258Y-106299000D01*
X138228742Y-106299000D01*
X138253512Y-106303927D01*
G37*
G36*
X168548156Y-94472794D02*
G01*
X169269140Y-94616206D01*
X170060972Y-94944193D01*
X170773601Y-95420357D01*
X171379643Y-96026399D01*
X171855807Y-96739028D01*
X172183794Y-97530860D01*
X172351000Y-98371464D01*
X172351000Y-99228536D01*
X172183794Y-100069140D01*
X171855807Y-100860972D01*
X171379643Y-101573601D01*
X170773601Y-102179643D01*
X170060972Y-102655807D01*
X169269140Y-102983794D01*
X168548156Y-103127206D01*
X168428537Y-103151000D01*
X167571463Y-103151000D01*
X167451844Y-103127206D01*
X166730860Y-102983794D01*
X165939028Y-102655807D01*
X165226399Y-102179643D01*
X164620357Y-101573601D01*
X164144193Y-100860972D01*
X163816206Y-100069140D01*
X163649000Y-99228536D01*
X163649000Y-98371464D01*
X163816206Y-97530860D01*
X164144193Y-96739028D01*
X164620357Y-96026399D01*
X165226399Y-95420357D01*
X165939028Y-94944193D01*
X166730860Y-94616206D01*
X167451844Y-94472794D01*
X167571463Y-94449000D01*
X168428537Y-94449000D01*
X168548156Y-94472794D01*
G37*
G36*
X103219059Y-94277860D02*
G01*
X103355732Y-94334472D01*
X103478735Y-94416660D01*
X103583340Y-94521265D01*
X103646778Y-94616207D01*
X103665529Y-94644270D01*
X103722140Y-94780941D01*
X103751000Y-94926032D01*
X103751000Y-95073968D01*
X103747164Y-95093253D01*
X103722140Y-95219059D01*
X103665528Y-95355732D01*
X103583340Y-95478735D01*
X103478735Y-95583340D01*
X103355732Y-95665528D01*
X103355731Y-95665529D01*
X103355730Y-95665529D01*
X103219059Y-95722140D01*
X103073968Y-95751000D01*
X102926032Y-95751000D01*
X102780941Y-95722140D01*
X102644270Y-95665529D01*
X102644269Y-95665529D01*
X102644268Y-95665528D01*
X102521265Y-95583340D01*
X102416660Y-95478735D01*
X102334472Y-95355732D01*
X102277860Y-95219059D01*
X102252836Y-95093253D01*
X102249000Y-95073968D01*
X102249000Y-94926032D01*
X102277860Y-94780941D01*
X102334471Y-94644270D01*
X102353222Y-94616207D01*
X102416660Y-94521265D01*
X102521265Y-94416660D01*
X102644268Y-94334472D01*
X102780941Y-94277860D01*
X102926032Y-94249000D01*
X103073968Y-94249000D01*
X103219059Y-94277860D01*
G37*
G36*
X107689890Y-94374017D02*
G01*
X107792839Y-94416660D01*
X107808364Y-94423091D01*
X107914988Y-94494335D01*
X108005665Y-94585012D01*
X108045259Y-94644268D01*
X108076910Y-94691638D01*
X108125983Y-94810110D01*
X108151000Y-94935881D01*
X108151000Y-95064119D01*
X108145205Y-95093253D01*
X108125983Y-95189890D01*
X108076909Y-95308364D01*
X108005665Y-95414988D01*
X107914988Y-95505665D01*
X107808364Y-95576909D01*
X107808363Y-95576910D01*
X107808362Y-95576910D01*
X107689890Y-95625983D01*
X107564119Y-95651000D01*
X107435881Y-95651000D01*
X107310110Y-95625983D01*
X107191638Y-95576910D01*
X107191637Y-95576910D01*
X107191636Y-95576909D01*
X107085012Y-95505665D01*
X106994335Y-95414988D01*
X106923091Y-95308364D01*
X106874017Y-95189890D01*
X106854795Y-95093253D01*
X106849000Y-95064119D01*
X106849000Y-94935881D01*
X106874017Y-94810110D01*
X106923090Y-94691638D01*
X106954742Y-94644268D01*
X106994335Y-94585012D01*
X107085012Y-94494335D01*
X107191636Y-94423091D01*
X107207162Y-94416660D01*
X107310110Y-94374017D01*
X107435881Y-94349000D01*
X107564119Y-94349000D01*
X107689890Y-94374017D01*
G37*
G36*
X155113721Y-88281012D02*
G01*
X155126921Y-88285016D01*
X155139078Y-88291514D01*
X155149738Y-88300262D01*
X155158486Y-88310922D01*
X155164984Y-88323079D01*
X155168988Y-88336279D01*
X155170944Y-88356140D01*
X155170944Y-91229057D01*
X155173346Y-91253443D01*
X155180459Y-91276892D01*
X155192010Y-91298503D01*
X155207555Y-91317445D01*
X155226497Y-91332990D01*
X155248108Y-91344541D01*
X155271557Y-91351654D01*
X155295943Y-91354056D01*
X155343860Y-91354056D01*
X155363721Y-91356012D01*
X155376921Y-91360016D01*
X155389078Y-91366514D01*
X155399738Y-91375262D01*
X155408486Y-91385922D01*
X155414984Y-91398079D01*
X155418988Y-91411279D01*
X155420944Y-91431140D01*
X155420944Y-92968860D01*
X155418988Y-92988721D01*
X155414984Y-93001921D01*
X155408486Y-93014078D01*
X155399738Y-93024738D01*
X155389078Y-93033486D01*
X155376921Y-93039984D01*
X155363721Y-93043988D01*
X155343860Y-93045944D01*
X150656140Y-93045944D01*
X150636279Y-93043988D01*
X150623079Y-93039984D01*
X150610922Y-93033486D01*
X150600262Y-93024738D01*
X150591514Y-93014078D01*
X150585016Y-93001921D01*
X150581012Y-92988721D01*
X150579056Y-92968860D01*
X150579056Y-91431140D01*
X150581012Y-91411279D01*
X150585016Y-91398079D01*
X150591514Y-91385922D01*
X150600262Y-91375262D01*
X150610922Y-91366514D01*
X150623079Y-91360016D01*
X150636279Y-91356012D01*
X150656140Y-91354056D01*
X150704057Y-91354056D01*
X150728443Y-91351654D01*
X150751892Y-91344541D01*
X150773503Y-91332990D01*
X150792445Y-91317445D01*
X150807990Y-91298503D01*
X150819541Y-91276892D01*
X150826654Y-91253443D01*
X150829056Y-91229057D01*
X150829056Y-88356140D01*
X150831012Y-88336279D01*
X150835016Y-88323079D01*
X150841514Y-88310922D01*
X150850262Y-88300262D01*
X150860922Y-88291514D01*
X150873079Y-88285016D01*
X150886279Y-88281012D01*
X150906140Y-88279056D01*
X155093860Y-88279056D01*
X155113721Y-88281012D01*
G37*
G36*
X145113721Y-88281012D02*
G01*
X145126921Y-88285016D01*
X145139078Y-88291514D01*
X145149738Y-88300262D01*
X145158486Y-88310922D01*
X145164984Y-88323079D01*
X145168988Y-88336279D01*
X145170944Y-88356140D01*
X145170944Y-91229057D01*
X145173346Y-91253443D01*
X145180459Y-91276892D01*
X145192010Y-91298503D01*
X145207555Y-91317445D01*
X145226497Y-91332990D01*
X145248108Y-91344541D01*
X145271557Y-91351654D01*
X145295943Y-91354056D01*
X145343860Y-91354056D01*
X145363721Y-91356012D01*
X145376921Y-91360016D01*
X145389078Y-91366514D01*
X145399738Y-91375262D01*
X145408486Y-91385922D01*
X145414984Y-91398079D01*
X145418988Y-91411279D01*
X145420944Y-91431140D01*
X145420944Y-92968860D01*
X145418988Y-92988721D01*
X145414984Y-93001921D01*
X145408486Y-93014078D01*
X145399738Y-93024738D01*
X145389078Y-93033486D01*
X145376921Y-93039984D01*
X145363721Y-93043988D01*
X145343860Y-93045944D01*
X140656140Y-93045944D01*
X140636279Y-93043988D01*
X140623079Y-93039984D01*
X140610922Y-93033486D01*
X140600262Y-93024738D01*
X140591514Y-93014078D01*
X140585016Y-93001921D01*
X140581012Y-92988721D01*
X140579056Y-92968860D01*
X140579056Y-91431140D01*
X140581012Y-91411279D01*
X140585016Y-91398079D01*
X140591514Y-91385922D01*
X140600262Y-91375262D01*
X140610922Y-91366514D01*
X140623079Y-91360016D01*
X140636279Y-91356012D01*
X140656140Y-91354056D01*
X140704057Y-91354056D01*
X140728443Y-91351654D01*
X140751892Y-91344541D01*
X140773503Y-91332990D01*
X140792445Y-91317445D01*
X140807990Y-91298503D01*
X140819541Y-91276892D01*
X140826654Y-91253443D01*
X140829056Y-91229057D01*
X140829056Y-88356140D01*
X140831012Y-88336279D01*
X140835016Y-88323079D01*
X140841514Y-88310922D01*
X140850262Y-88300262D01*
X140860922Y-88291514D01*
X140873079Y-88285016D01*
X140886279Y-88281012D01*
X140906140Y-88279056D01*
X145093860Y-88279056D01*
X145113721Y-88281012D01*
G37*
G36*
X135113721Y-88281012D02*
G01*
X135126921Y-88285016D01*
X135139078Y-88291514D01*
X135149738Y-88300262D01*
X135158486Y-88310922D01*
X135164984Y-88323079D01*
X135168988Y-88336279D01*
X135170944Y-88356140D01*
X135170944Y-91229057D01*
X135173346Y-91253443D01*
X135180459Y-91276892D01*
X135192010Y-91298503D01*
X135207555Y-91317445D01*
X135226497Y-91332990D01*
X135248108Y-91344541D01*
X135271557Y-91351654D01*
X135295943Y-91354056D01*
X135343860Y-91354056D01*
X135363721Y-91356012D01*
X135376921Y-91360016D01*
X135389078Y-91366514D01*
X135399738Y-91375262D01*
X135408486Y-91385922D01*
X135414984Y-91398079D01*
X135418988Y-91411279D01*
X135420944Y-91431140D01*
X135420944Y-92968860D01*
X135418988Y-92988721D01*
X135414984Y-93001921D01*
X135408486Y-93014078D01*
X135399738Y-93024738D01*
X135389078Y-93033486D01*
X135376921Y-93039984D01*
X135363721Y-93043988D01*
X135343860Y-93045944D01*
X130656140Y-93045944D01*
X130636279Y-93043988D01*
X130623079Y-93039984D01*
X130610922Y-93033486D01*
X130600262Y-93024738D01*
X130591514Y-93014078D01*
X130585016Y-93001921D01*
X130581012Y-92988721D01*
X130579056Y-92968860D01*
X130579056Y-91431140D01*
X130581012Y-91411279D01*
X130585016Y-91398079D01*
X130591514Y-91385922D01*
X130600262Y-91375262D01*
X130610922Y-91366514D01*
X130623079Y-91360016D01*
X130636279Y-91356012D01*
X130656140Y-91354056D01*
X130704057Y-91354056D01*
X130728443Y-91351654D01*
X130751892Y-91344541D01*
X130773503Y-91332990D01*
X130792445Y-91317445D01*
X130807990Y-91298503D01*
X130819541Y-91276892D01*
X130826654Y-91253443D01*
X130829056Y-91229057D01*
X130829056Y-88356140D01*
X130831012Y-88336279D01*
X130835016Y-88323079D01*
X130841514Y-88310922D01*
X130850262Y-88300262D01*
X130860922Y-88291514D01*
X130873079Y-88285016D01*
X130886279Y-88281012D01*
X130906140Y-88279056D01*
X135093860Y-88279056D01*
X135113721Y-88281012D01*
G37*
G36*
X125113721Y-88281012D02*
G01*
X125126921Y-88285016D01*
X125139078Y-88291514D01*
X125149738Y-88300262D01*
X125158486Y-88310922D01*
X125164984Y-88323079D01*
X125168988Y-88336279D01*
X125170944Y-88356140D01*
X125170944Y-91229057D01*
X125173346Y-91253443D01*
X125180459Y-91276892D01*
X125192010Y-91298503D01*
X125207555Y-91317445D01*
X125226497Y-91332990D01*
X125248108Y-91344541D01*
X125271557Y-91351654D01*
X125295943Y-91354056D01*
X125343860Y-91354056D01*
X125363721Y-91356012D01*
X125376921Y-91360016D01*
X125389078Y-91366514D01*
X125399738Y-91375262D01*
X125408486Y-91385922D01*
X125414984Y-91398079D01*
X125418988Y-91411279D01*
X125420944Y-91431140D01*
X125420944Y-92968860D01*
X125418988Y-92988721D01*
X125414984Y-93001921D01*
X125408486Y-93014078D01*
X125399738Y-93024738D01*
X125389078Y-93033486D01*
X125376921Y-93039984D01*
X125363721Y-93043988D01*
X125343860Y-93045944D01*
X120656140Y-93045944D01*
X120636279Y-93043988D01*
X120623079Y-93039984D01*
X120610922Y-93033486D01*
X120600262Y-93024738D01*
X120591514Y-93014078D01*
X120585016Y-93001921D01*
X120581012Y-92988721D01*
X120579056Y-92968860D01*
X120579056Y-91431140D01*
X120581012Y-91411279D01*
X120585016Y-91398079D01*
X120591514Y-91385922D01*
X120600262Y-91375262D01*
X120610922Y-91366514D01*
X120623079Y-91360016D01*
X120636279Y-91356012D01*
X120656140Y-91354056D01*
X120704057Y-91354056D01*
X120728443Y-91351654D01*
X120751892Y-91344541D01*
X120773503Y-91332990D01*
X120792445Y-91317445D01*
X120807990Y-91298503D01*
X120819541Y-91276892D01*
X120826654Y-91253443D01*
X120829056Y-91229057D01*
X120829056Y-88356140D01*
X120831012Y-88336279D01*
X120835016Y-88323079D01*
X120841514Y-88310922D01*
X120850262Y-88300262D01*
X120860922Y-88291514D01*
X120873079Y-88285016D01*
X120886279Y-88281012D01*
X120906140Y-88279056D01*
X125093860Y-88279056D01*
X125113721Y-88281012D01*
G37*
G36*
X115113721Y-88281012D02*
G01*
X115126921Y-88285016D01*
X115139078Y-88291514D01*
X115149738Y-88300262D01*
X115158486Y-88310922D01*
X115164984Y-88323079D01*
X115168988Y-88336279D01*
X115170944Y-88356140D01*
X115170944Y-91229057D01*
X115173346Y-91253443D01*
X115180459Y-91276892D01*
X115192010Y-91298503D01*
X115207555Y-91317445D01*
X115226497Y-91332990D01*
X115248108Y-91344541D01*
X115271557Y-91351654D01*
X115295943Y-91354056D01*
X115343860Y-91354056D01*
X115363721Y-91356012D01*
X115376921Y-91360016D01*
X115389078Y-91366514D01*
X115399738Y-91375262D01*
X115408486Y-91385922D01*
X115414984Y-91398079D01*
X115418988Y-91411279D01*
X115420944Y-91431140D01*
X115420944Y-92968860D01*
X115418988Y-92988721D01*
X115414984Y-93001921D01*
X115408486Y-93014078D01*
X115399738Y-93024738D01*
X115389078Y-93033486D01*
X115376921Y-93039984D01*
X115363721Y-93043988D01*
X115343860Y-93045944D01*
X110656140Y-93045944D01*
X110636279Y-93043988D01*
X110623079Y-93039984D01*
X110610922Y-93033486D01*
X110600262Y-93024738D01*
X110591514Y-93014078D01*
X110585016Y-93001921D01*
X110581012Y-92988721D01*
X110579056Y-92968860D01*
X110579056Y-91431140D01*
X110581012Y-91411279D01*
X110585016Y-91398079D01*
X110591514Y-91385922D01*
X110600262Y-91375262D01*
X110610922Y-91366514D01*
X110623079Y-91360016D01*
X110636279Y-91356012D01*
X110656140Y-91354056D01*
X110704057Y-91354056D01*
X110728443Y-91351654D01*
X110751892Y-91344541D01*
X110773503Y-91332990D01*
X110792445Y-91317445D01*
X110807990Y-91298503D01*
X110819541Y-91276892D01*
X110826654Y-91253443D01*
X110829056Y-91229057D01*
X110829056Y-88356140D01*
X110831012Y-88336279D01*
X110835016Y-88323079D01*
X110841514Y-88310922D01*
X110850262Y-88300262D01*
X110860922Y-88291514D01*
X110873079Y-88285016D01*
X110886279Y-88281012D01*
X110906140Y-88279056D01*
X115093860Y-88279056D01*
X115113721Y-88281012D01*
G37*
G36*
X105113721Y-88281012D02*
G01*
X105126921Y-88285016D01*
X105139078Y-88291514D01*
X105149738Y-88300262D01*
X105158486Y-88310922D01*
X105164984Y-88323079D01*
X105168988Y-88336279D01*
X105170944Y-88356140D01*
X105170944Y-91229057D01*
X105173346Y-91253443D01*
X105180459Y-91276892D01*
X105192010Y-91298503D01*
X105207555Y-91317445D01*
X105226497Y-91332990D01*
X105248108Y-91344541D01*
X105271557Y-91351654D01*
X105295943Y-91354056D01*
X105343860Y-91354056D01*
X105363721Y-91356012D01*
X105376921Y-91360016D01*
X105389078Y-91366514D01*
X105399738Y-91375262D01*
X105408486Y-91385922D01*
X105414984Y-91398079D01*
X105418988Y-91411279D01*
X105420944Y-91431140D01*
X105420944Y-92968860D01*
X105418988Y-92988721D01*
X105414984Y-93001921D01*
X105408486Y-93014078D01*
X105399738Y-93024738D01*
X105389078Y-93033486D01*
X105376921Y-93039984D01*
X105363721Y-93043988D01*
X105343860Y-93045944D01*
X100656140Y-93045944D01*
X100636279Y-93043988D01*
X100623079Y-93039984D01*
X100610922Y-93033486D01*
X100600262Y-93024738D01*
X100591514Y-93014078D01*
X100585016Y-93001921D01*
X100581012Y-92988721D01*
X100579056Y-92968860D01*
X100579056Y-91431140D01*
X100581012Y-91411279D01*
X100585016Y-91398079D01*
X100591514Y-91385922D01*
X100600262Y-91375262D01*
X100610922Y-91366514D01*
X100623079Y-91360016D01*
X100636279Y-91356012D01*
X100656140Y-91354056D01*
X100704057Y-91354056D01*
X100728443Y-91351654D01*
X100751892Y-91344541D01*
X100773503Y-91332990D01*
X100792445Y-91317445D01*
X100807990Y-91298503D01*
X100819541Y-91276892D01*
X100826654Y-91253443D01*
X100829056Y-91229057D01*
X100829056Y-88356140D01*
X100831012Y-88336279D01*
X100835016Y-88323079D01*
X100841514Y-88310922D01*
X100850262Y-88300262D01*
X100860922Y-88291514D01*
X100873079Y-88285016D01*
X100886279Y-88281012D01*
X100906140Y-88279056D01*
X105093860Y-88279056D01*
X105113721Y-88281012D01*
G37*
G36*
X148775562Y-90728181D02*
G01*
X148810481Y-90738774D01*
X148842663Y-90755976D01*
X148870873Y-90779127D01*
X148894024Y-90807337D01*
X148911226Y-90839519D01*
X148921819Y-90874438D01*
X148926000Y-90916895D01*
X148926000Y-92058105D01*
X148921819Y-92100562D01*
X148911226Y-92135481D01*
X148894024Y-92167663D01*
X148870873Y-92195873D01*
X148842663Y-92219024D01*
X148810481Y-92236226D01*
X148775562Y-92246819D01*
X148733105Y-92251000D01*
X147266895Y-92251000D01*
X147224438Y-92246819D01*
X147189519Y-92236226D01*
X147157337Y-92219024D01*
X147129127Y-92195873D01*
X147105976Y-92167663D01*
X147088774Y-92135481D01*
X147078181Y-92100562D01*
X147074000Y-92058105D01*
X147074000Y-90916895D01*
X147078181Y-90874438D01*
X147088774Y-90839519D01*
X147105976Y-90807337D01*
X147129127Y-90779127D01*
X147157337Y-90755976D01*
X147189519Y-90738774D01*
X147224438Y-90728181D01*
X147266895Y-90724000D01*
X148733105Y-90724000D01*
X148775562Y-90728181D01*
G37*
G36*
X158775562Y-90728181D02*
G01*
X158810481Y-90738774D01*
X158842663Y-90755976D01*
X158870873Y-90779127D01*
X158894024Y-90807337D01*
X158911226Y-90839519D01*
X158921819Y-90874438D01*
X158926000Y-90916895D01*
X158926000Y-92058105D01*
X158921819Y-92100562D01*
X158911226Y-92135481D01*
X158894024Y-92167663D01*
X158870873Y-92195873D01*
X158842663Y-92219024D01*
X158810481Y-92236226D01*
X158775562Y-92246819D01*
X158733105Y-92251000D01*
X157266895Y-92251000D01*
X157224438Y-92246819D01*
X157189519Y-92236226D01*
X157157337Y-92219024D01*
X157129127Y-92195873D01*
X157105976Y-92167663D01*
X157088774Y-92135481D01*
X157078181Y-92100562D01*
X157074000Y-92058105D01*
X157074000Y-90916895D01*
X157078181Y-90874438D01*
X157088774Y-90839519D01*
X157105976Y-90807337D01*
X157129127Y-90779127D01*
X157157337Y-90755976D01*
X157189519Y-90738774D01*
X157224438Y-90728181D01*
X157266895Y-90724000D01*
X158733105Y-90724000D01*
X158775562Y-90728181D01*
G37*
G36*
X108775562Y-90728181D02*
G01*
X108810481Y-90738774D01*
X108842663Y-90755976D01*
X108870873Y-90779127D01*
X108894024Y-90807337D01*
X108911226Y-90839519D01*
X108921819Y-90874438D01*
X108926000Y-90916895D01*
X108926000Y-92058105D01*
X108921819Y-92100562D01*
X108911226Y-92135481D01*
X108894024Y-92167663D01*
X108870873Y-92195873D01*
X108842663Y-92219024D01*
X108810481Y-92236226D01*
X108775562Y-92246819D01*
X108733105Y-92251000D01*
X107266895Y-92251000D01*
X107224438Y-92246819D01*
X107189519Y-92236226D01*
X107157337Y-92219024D01*
X107129127Y-92195873D01*
X107105976Y-92167663D01*
X107088774Y-92135481D01*
X107078181Y-92100562D01*
X107074000Y-92058105D01*
X107074000Y-90916895D01*
X107078181Y-90874438D01*
X107088774Y-90839519D01*
X107105976Y-90807337D01*
X107129127Y-90779127D01*
X107157337Y-90755976D01*
X107189519Y-90738774D01*
X107224438Y-90728181D01*
X107266895Y-90724000D01*
X108733105Y-90724000D01*
X108775562Y-90728181D01*
G37*
G36*
X118775562Y-90728181D02*
G01*
X118810481Y-90738774D01*
X118842663Y-90755976D01*
X118870873Y-90779127D01*
X118894024Y-90807337D01*
X118911226Y-90839519D01*
X118921819Y-90874438D01*
X118926000Y-90916895D01*
X118926000Y-92058105D01*
X118921819Y-92100562D01*
X118911226Y-92135481D01*
X118894024Y-92167663D01*
X118870873Y-92195873D01*
X118842663Y-92219024D01*
X118810481Y-92236226D01*
X118775562Y-92246819D01*
X118733105Y-92251000D01*
X117266895Y-92251000D01*
X117224438Y-92246819D01*
X117189519Y-92236226D01*
X117157337Y-92219024D01*
X117129127Y-92195873D01*
X117105976Y-92167663D01*
X117088774Y-92135481D01*
X117078181Y-92100562D01*
X117074000Y-92058105D01*
X117074000Y-90916895D01*
X117078181Y-90874438D01*
X117088774Y-90839519D01*
X117105976Y-90807337D01*
X117129127Y-90779127D01*
X117157337Y-90755976D01*
X117189519Y-90738774D01*
X117224438Y-90728181D01*
X117266895Y-90724000D01*
X118733105Y-90724000D01*
X118775562Y-90728181D01*
G37*
G36*
X138775562Y-90728181D02*
G01*
X138810481Y-90738774D01*
X138842663Y-90755976D01*
X138870873Y-90779127D01*
X138894024Y-90807337D01*
X138911226Y-90839519D01*
X138921819Y-90874438D01*
X138926000Y-90916895D01*
X138926000Y-92058105D01*
X138921819Y-92100562D01*
X138911226Y-92135481D01*
X138894024Y-92167663D01*
X138870873Y-92195873D01*
X138842663Y-92219024D01*
X138810481Y-92236226D01*
X138775562Y-92246819D01*
X138733105Y-92251000D01*
X137266895Y-92251000D01*
X137224438Y-92246819D01*
X137189519Y-92236226D01*
X137157337Y-92219024D01*
X137129127Y-92195873D01*
X137105976Y-92167663D01*
X137088774Y-92135481D01*
X137078181Y-92100562D01*
X137074000Y-92058105D01*
X137074000Y-90916895D01*
X137078181Y-90874438D01*
X137088774Y-90839519D01*
X137105976Y-90807337D01*
X137129127Y-90779127D01*
X137157337Y-90755976D01*
X137189519Y-90738774D01*
X137224438Y-90728181D01*
X137266895Y-90724000D01*
X138733105Y-90724000D01*
X138775562Y-90728181D01*
G37*
G36*
X128775562Y-90728181D02*
G01*
X128810481Y-90738774D01*
X128842663Y-90755976D01*
X128870873Y-90779127D01*
X128894024Y-90807337D01*
X128911226Y-90839519D01*
X128921819Y-90874438D01*
X128926000Y-90916895D01*
X128926000Y-92058105D01*
X128921819Y-92100562D01*
X128911226Y-92135481D01*
X128894024Y-92167663D01*
X128870873Y-92195873D01*
X128842663Y-92219024D01*
X128810481Y-92236226D01*
X128775562Y-92246819D01*
X128733105Y-92251000D01*
X127266895Y-92251000D01*
X127224438Y-92246819D01*
X127189519Y-92236226D01*
X127157337Y-92219024D01*
X127129127Y-92195873D01*
X127105976Y-92167663D01*
X127088774Y-92135481D01*
X127078181Y-92100562D01*
X127074000Y-92058105D01*
X127074000Y-90916895D01*
X127078181Y-90874438D01*
X127088774Y-90839519D01*
X127105976Y-90807337D01*
X127129127Y-90779127D01*
X127157337Y-90755976D01*
X127189519Y-90738774D01*
X127224438Y-90728181D01*
X127266895Y-90724000D01*
X128733105Y-90724000D01*
X128775562Y-90728181D01*
G37*
G36*
X99275562Y-88728181D02*
G01*
X99310481Y-88738774D01*
X99342663Y-88755976D01*
X99370873Y-88779127D01*
X99394024Y-88807337D01*
X99411226Y-88839519D01*
X99421819Y-88874438D01*
X99426000Y-88916895D01*
X99426000Y-90058105D01*
X99421819Y-90100562D01*
X99411226Y-90135481D01*
X99394024Y-90167663D01*
X99370873Y-90195873D01*
X99342663Y-90219024D01*
X99310481Y-90236226D01*
X99275562Y-90246819D01*
X99233105Y-90251000D01*
X97766895Y-90251000D01*
X97724438Y-90246819D01*
X97689519Y-90236226D01*
X97657337Y-90219024D01*
X97629127Y-90195873D01*
X97605976Y-90167663D01*
X97588774Y-90135481D01*
X97578181Y-90100562D01*
X97574000Y-90058105D01*
X97574000Y-88916895D01*
X97578181Y-88874438D01*
X97588774Y-88839519D01*
X97605976Y-88807337D01*
X97629127Y-88779127D01*
X97657337Y-88755976D01*
X97689519Y-88738774D01*
X97724438Y-88728181D01*
X97766895Y-88724000D01*
X99233105Y-88724000D01*
X99275562Y-88728181D01*
G37*
G36*
X168548156Y-80672794D02*
G01*
X169269140Y-80816206D01*
X170060972Y-81144193D01*
X170773601Y-81620357D01*
X171379643Y-82226399D01*
X171855807Y-82939028D01*
X172183794Y-83730860D01*
X172351000Y-84571464D01*
X172351000Y-85428536D01*
X172183794Y-86269140D01*
X171855807Y-87060972D01*
X171379643Y-87773601D01*
X170773601Y-88379643D01*
X170060972Y-88855807D01*
X169269140Y-89183794D01*
X168548156Y-89327206D01*
X168428537Y-89351000D01*
X167571463Y-89351000D01*
X167451844Y-89327206D01*
X166730860Y-89183794D01*
X165939028Y-88855807D01*
X165226399Y-88379643D01*
X164620357Y-87773601D01*
X164144193Y-87060972D01*
X163816206Y-86269140D01*
X163649000Y-85428536D01*
X163649000Y-84571464D01*
X163816206Y-83730860D01*
X164144193Y-82939028D01*
X164620357Y-82226399D01*
X165226399Y-81620357D01*
X165939028Y-81144193D01*
X166730860Y-80816206D01*
X167451844Y-80672794D01*
X167571463Y-80649000D01*
X168428537Y-80649000D01*
X168548156Y-80672794D01*
G37*
G36*
X148775562Y-87753181D02*
G01*
X148810481Y-87763774D01*
X148842663Y-87780976D01*
X148870873Y-87804127D01*
X148894024Y-87832337D01*
X148911226Y-87864519D01*
X148921819Y-87899438D01*
X148926000Y-87941895D01*
X148926000Y-89083105D01*
X148921819Y-89125562D01*
X148911226Y-89160481D01*
X148894024Y-89192663D01*
X148870873Y-89220873D01*
X148842663Y-89244024D01*
X148810481Y-89261226D01*
X148775562Y-89271819D01*
X148733105Y-89276000D01*
X147266895Y-89276000D01*
X147224438Y-89271819D01*
X147189519Y-89261226D01*
X147157337Y-89244024D01*
X147129127Y-89220873D01*
X147105976Y-89192663D01*
X147088774Y-89160481D01*
X147078181Y-89125562D01*
X147074000Y-89083105D01*
X147074000Y-87941895D01*
X147078181Y-87899438D01*
X147088774Y-87864519D01*
X147105976Y-87832337D01*
X147129127Y-87804127D01*
X147157337Y-87780976D01*
X147189519Y-87763774D01*
X147224438Y-87753181D01*
X147266895Y-87749000D01*
X148733105Y-87749000D01*
X148775562Y-87753181D01*
G37*
G36*
X108775562Y-87753181D02*
G01*
X108810481Y-87763774D01*
X108842663Y-87780976D01*
X108870873Y-87804127D01*
X108894024Y-87832337D01*
X108911226Y-87864519D01*
X108921819Y-87899438D01*
X108926000Y-87941895D01*
X108926000Y-89083105D01*
X108921819Y-89125562D01*
X108911226Y-89160481D01*
X108894024Y-89192663D01*
X108870873Y-89220873D01*
X108842663Y-89244024D01*
X108810481Y-89261226D01*
X108775562Y-89271819D01*
X108733105Y-89276000D01*
X107266895Y-89276000D01*
X107224438Y-89271819D01*
X107189519Y-89261226D01*
X107157337Y-89244024D01*
X107129127Y-89220873D01*
X107105976Y-89192663D01*
X107088774Y-89160481D01*
X107078181Y-89125562D01*
X107074000Y-89083105D01*
X107074000Y-87941895D01*
X107078181Y-87899438D01*
X107088774Y-87864519D01*
X107105976Y-87832337D01*
X107129127Y-87804127D01*
X107157337Y-87780976D01*
X107189519Y-87763774D01*
X107224438Y-87753181D01*
X107266895Y-87749000D01*
X108733105Y-87749000D01*
X108775562Y-87753181D01*
G37*
G36*
X118775562Y-87753181D02*
G01*
X118810481Y-87763774D01*
X118842663Y-87780976D01*
X118870873Y-87804127D01*
X118894024Y-87832337D01*
X118911226Y-87864519D01*
X118921819Y-87899438D01*
X118926000Y-87941895D01*
X118926000Y-89083105D01*
X118921819Y-89125562D01*
X118911226Y-89160481D01*
X118894024Y-89192663D01*
X118870873Y-89220873D01*
X118842663Y-89244024D01*
X118810481Y-89261226D01*
X118775562Y-89271819D01*
X118733105Y-89276000D01*
X117266895Y-89276000D01*
X117224438Y-89271819D01*
X117189519Y-89261226D01*
X117157337Y-89244024D01*
X117129127Y-89220873D01*
X117105976Y-89192663D01*
X117088774Y-89160481D01*
X117078181Y-89125562D01*
X117074000Y-89083105D01*
X117074000Y-87941895D01*
X117078181Y-87899438D01*
X117088774Y-87864519D01*
X117105976Y-87832337D01*
X117129127Y-87804127D01*
X117157337Y-87780976D01*
X117189519Y-87763774D01*
X117224438Y-87753181D01*
X117266895Y-87749000D01*
X118733105Y-87749000D01*
X118775562Y-87753181D01*
G37*
G36*
X138775562Y-87753181D02*
G01*
X138810481Y-87763774D01*
X138842663Y-87780976D01*
X138870873Y-87804127D01*
X138894024Y-87832337D01*
X138911226Y-87864519D01*
X138921819Y-87899438D01*
X138926000Y-87941895D01*
X138926000Y-89083105D01*
X138921819Y-89125562D01*
X138911226Y-89160481D01*
X138894024Y-89192663D01*
X138870873Y-89220873D01*
X138842663Y-89244024D01*
X138810481Y-89261226D01*
X138775562Y-89271819D01*
X138733105Y-89276000D01*
X137266895Y-89276000D01*
X137224438Y-89271819D01*
X137189519Y-89261226D01*
X137157337Y-89244024D01*
X137129127Y-89220873D01*
X137105976Y-89192663D01*
X137088774Y-89160481D01*
X137078181Y-89125562D01*
X137074000Y-89083105D01*
X137074000Y-87941895D01*
X137078181Y-87899438D01*
X137088774Y-87864519D01*
X137105976Y-87832337D01*
X137129127Y-87804127D01*
X137157337Y-87780976D01*
X137189519Y-87763774D01*
X137224438Y-87753181D01*
X137266895Y-87749000D01*
X138733105Y-87749000D01*
X138775562Y-87753181D01*
G37*
G36*
X158775562Y-87753181D02*
G01*
X158810481Y-87763774D01*
X158842663Y-87780976D01*
X158870873Y-87804127D01*
X158894024Y-87832337D01*
X158911226Y-87864519D01*
X158921819Y-87899438D01*
X158926000Y-87941895D01*
X158926000Y-89083105D01*
X158921819Y-89125562D01*
X158911226Y-89160481D01*
X158894024Y-89192663D01*
X158870873Y-89220873D01*
X158842663Y-89244024D01*
X158810481Y-89261226D01*
X158775562Y-89271819D01*
X158733105Y-89276000D01*
X157266895Y-89276000D01*
X157224438Y-89271819D01*
X157189519Y-89261226D01*
X157157337Y-89244024D01*
X157129127Y-89220873D01*
X157105976Y-89192663D01*
X157088774Y-89160481D01*
X157078181Y-89125562D01*
X157074000Y-89083105D01*
X157074000Y-87941895D01*
X157078181Y-87899438D01*
X157088774Y-87864519D01*
X157105976Y-87832337D01*
X157129127Y-87804127D01*
X157157337Y-87780976D01*
X157189519Y-87763774D01*
X157224438Y-87753181D01*
X157266895Y-87749000D01*
X158733105Y-87749000D01*
X158775562Y-87753181D01*
G37*
G36*
X128775562Y-87753181D02*
G01*
X128810481Y-87763774D01*
X128842663Y-87780976D01*
X128870873Y-87804127D01*
X128894024Y-87832337D01*
X128911226Y-87864519D01*
X128921819Y-87899438D01*
X128926000Y-87941895D01*
X128926000Y-89083105D01*
X128921819Y-89125562D01*
X128911226Y-89160481D01*
X128894024Y-89192663D01*
X128870873Y-89220873D01*
X128842663Y-89244024D01*
X128810481Y-89261226D01*
X128775562Y-89271819D01*
X128733105Y-89276000D01*
X127266895Y-89276000D01*
X127224438Y-89271819D01*
X127189519Y-89261226D01*
X127157337Y-89244024D01*
X127129127Y-89220873D01*
X127105976Y-89192663D01*
X127088774Y-89160481D01*
X127078181Y-89125562D01*
X127074000Y-89083105D01*
X127074000Y-87941895D01*
X127078181Y-87899438D01*
X127088774Y-87864519D01*
X127105976Y-87832337D01*
X127129127Y-87804127D01*
X127157337Y-87780976D01*
X127189519Y-87763774D01*
X127224438Y-87753181D01*
X127266895Y-87749000D01*
X128733105Y-87749000D01*
X128775562Y-87753181D01*
G37*
G36*
X102780000Y-87375000D02*
G01*
X101940000Y-87375000D01*
X101940000Y-86085000D01*
X102780000Y-86085000D01*
X102780000Y-87375000D01*
G37*
G36*
X101510000Y-87375000D02*
G01*
X100670000Y-87375000D01*
X100670000Y-86085000D01*
X101510000Y-86085000D01*
X101510000Y-87375000D01*
G37*
G36*
X104060000Y-87375000D02*
G01*
X103220000Y-87375000D01*
X103220000Y-86085000D01*
X104060000Y-86085000D01*
X104060000Y-87375000D01*
G37*
G36*
X105330000Y-87375000D02*
G01*
X104490000Y-87375000D01*
X104490000Y-86085000D01*
X105330000Y-86085000D01*
X105330000Y-87375000D01*
G37*
G36*
X115330000Y-87375000D02*
G01*
X114490000Y-87375000D01*
X114490000Y-86085000D01*
X115330000Y-86085000D01*
X115330000Y-87375000D01*
G37*
G36*
X114060000Y-87375000D02*
G01*
X113220000Y-87375000D01*
X113220000Y-86085000D01*
X114060000Y-86085000D01*
X114060000Y-87375000D01*
G37*
G36*
X111510000Y-87375000D02*
G01*
X110670000Y-87375000D01*
X110670000Y-86085000D01*
X111510000Y-86085000D01*
X111510000Y-87375000D01*
G37*
G36*
X112780000Y-87375000D02*
G01*
X111940000Y-87375000D01*
X111940000Y-86085000D01*
X112780000Y-86085000D01*
X112780000Y-87375000D01*
G37*
G36*
X125330000Y-87375000D02*
G01*
X124490000Y-87375000D01*
X124490000Y-86085000D01*
X125330000Y-86085000D01*
X125330000Y-87375000D01*
G37*
G36*
X124060000Y-87375000D02*
G01*
X123220000Y-87375000D01*
X123220000Y-86085000D01*
X124060000Y-86085000D01*
X124060000Y-87375000D01*
G37*
G36*
X121510000Y-87375000D02*
G01*
X120670000Y-87375000D01*
X120670000Y-86085000D01*
X121510000Y-86085000D01*
X121510000Y-87375000D01*
G37*
G36*
X122780000Y-87375000D02*
G01*
X121940000Y-87375000D01*
X121940000Y-86085000D01*
X122780000Y-86085000D01*
X122780000Y-87375000D01*
G37*
G36*
X135330000Y-87375000D02*
G01*
X134490000Y-87375000D01*
X134490000Y-86085000D01*
X135330000Y-86085000D01*
X135330000Y-87375000D01*
G37*
G36*
X131510000Y-87375000D02*
G01*
X130670000Y-87375000D01*
X130670000Y-86085000D01*
X131510000Y-86085000D01*
X131510000Y-87375000D01*
G37*
G36*
X132780000Y-87375000D02*
G01*
X131940000Y-87375000D01*
X131940000Y-86085000D01*
X132780000Y-86085000D01*
X132780000Y-87375000D01*
G37*
G36*
X152780000Y-87375000D02*
G01*
X151940000Y-87375000D01*
X151940000Y-86085000D01*
X152780000Y-86085000D01*
X152780000Y-87375000D01*
G37*
G36*
X151510000Y-87375000D02*
G01*
X150670000Y-87375000D01*
X150670000Y-86085000D01*
X151510000Y-86085000D01*
X151510000Y-87375000D01*
G37*
G36*
X154060000Y-87375000D02*
G01*
X153220000Y-87375000D01*
X153220000Y-86085000D01*
X154060000Y-86085000D01*
X154060000Y-87375000D01*
G37*
G36*
X155330000Y-87375000D02*
G01*
X154490000Y-87375000D01*
X154490000Y-86085000D01*
X155330000Y-86085000D01*
X155330000Y-87375000D01*
G37*
G36*
X142780000Y-87375000D02*
G01*
X141940000Y-87375000D01*
X141940000Y-86085000D01*
X142780000Y-86085000D01*
X142780000Y-87375000D01*
G37*
G36*
X141510000Y-87375000D02*
G01*
X140670000Y-87375000D01*
X140670000Y-86085000D01*
X141510000Y-86085000D01*
X141510000Y-87375000D01*
G37*
G36*
X144060000Y-87375000D02*
G01*
X143220000Y-87375000D01*
X143220000Y-86085000D01*
X144060000Y-86085000D01*
X144060000Y-87375000D01*
G37*
G36*
X134060000Y-87375000D02*
G01*
X133220000Y-87375000D01*
X133220000Y-86085000D01*
X134060000Y-86085000D01*
X134060000Y-87375000D01*
G37*
G36*
X145330000Y-87375000D02*
G01*
X144490000Y-87375000D01*
X144490000Y-86085000D01*
X145330000Y-86085000D01*
X145330000Y-87375000D01*
G37*
G36*
X99275562Y-85753181D02*
G01*
X99310481Y-85763774D01*
X99342663Y-85780976D01*
X99370873Y-85804127D01*
X99394024Y-85832337D01*
X99411226Y-85864519D01*
X99421819Y-85899438D01*
X99426000Y-85941895D01*
X99426000Y-87083105D01*
X99421819Y-87125562D01*
X99411226Y-87160481D01*
X99394024Y-87192663D01*
X99370873Y-87220873D01*
X99342663Y-87244024D01*
X99310481Y-87261226D01*
X99275562Y-87271819D01*
X99233105Y-87276000D01*
X97766895Y-87276000D01*
X97724438Y-87271819D01*
X97689519Y-87261226D01*
X97657337Y-87244024D01*
X97629127Y-87220873D01*
X97605976Y-87192663D01*
X97588774Y-87160481D01*
X97578181Y-87125562D01*
X97574000Y-87083105D01*
X97574000Y-85941895D01*
X97578181Y-85899438D01*
X97588774Y-85864519D01*
X97605976Y-85832337D01*
X97629127Y-85804127D01*
X97657337Y-85780976D01*
X97689519Y-85763774D01*
X97724438Y-85753181D01*
X97766895Y-85749000D01*
X99233105Y-85749000D01*
X99275562Y-85753181D01*
G37*
G36*
X98525331Y-78268211D02*
G01*
X98853092Y-78403974D01*
X99148070Y-78601072D01*
X99398928Y-78851930D01*
X99596026Y-79146908D01*
X99731789Y-79474669D01*
X99801000Y-79822616D01*
X99801000Y-80177384D01*
X99731789Y-80525331D01*
X99596026Y-80853092D01*
X99398928Y-81148070D01*
X99148070Y-81398928D01*
X98853092Y-81596026D01*
X98525331Y-81731789D01*
X98177384Y-81801000D01*
X97822616Y-81801000D01*
X97474669Y-81731789D01*
X97146908Y-81596026D01*
X96851930Y-81398928D01*
X96601072Y-81148070D01*
X96403974Y-80853092D01*
X96268211Y-80525331D01*
X96199000Y-80177384D01*
X96199000Y-79822616D01*
X96268211Y-79474669D01*
X96403974Y-79146908D01*
X96601072Y-78851930D01*
X96851930Y-78601072D01*
X97146908Y-78403974D01*
X97474669Y-78268211D01*
X97822616Y-78199000D01*
X98177384Y-78199000D01*
X98525331Y-78268211D01*
G37*
M02*
