M48
; DRILL file {KiCad (5.1.5)-3} date 02-08-2020 11:19:41
; FORMAT={-:-/ absolute / inch / decimal}
; #@! TF.CreationDate,2020-08-02T11:19:41+02:00
; #@! TF.GenerationSoftware,Kicad,Pcbnew,(5.1.5)-3
; #@! TF.FileFunction,Plated,1,2,PTH
FMAT,2
INCH
T1C0.0079
T2C0.0236
T3C0.0394
T4C0.0866
T5C0.1693
%
G90
G05
T1
X3.811Y-3.2598
X3.8268Y-4.1654
X3.874Y-3.3307
X4.1339Y-4.1575
X4.3071Y-3.3937
X4.3465Y-3.1102
X4.5433Y-4.0472
X4.6457Y-3.3937
X4.7874Y-4.1496
X4.9213Y-4.2913
X5.0315Y-3.3937
X5.1024Y-3.4646
X5.126Y-3.1181
X5.2205Y-4.0551
X5.4331Y-3.4173
X5.6299Y-4.2126
X5.7008Y-4.1181
X5.7323Y-4.2677
X5.7402Y-4.2205
X5.7638Y-3.4173
X5.7835Y-4.311
X5.937Y-4.2441
X6.1575Y-3.6535
X6.1732Y-4.2781
X6.2913Y-3.0945
X6.3307Y-3.4803
X6.6535Y-4.2913
T2
X6.4872Y-3.3465
X6.5244Y-3.2567
X6.5244Y-3.4362
X6.6142Y-3.2195
X6.6142Y-3.4734
X6.704Y-3.2567
X6.704Y-3.4362
X6.7411Y-3.3465
X6.4872Y-3.8898
X6.5244Y-3.8
X6.5244Y-3.9795
X6.6142Y-3.7628
X6.6142Y-4.0167
X6.704Y-3.8
X6.704Y-3.9795
X6.7411Y-3.8898
T3
X5.3386Y-4.2205
X5.4386Y-4.2205
X5.5386Y-4.2205
T4
X3.8583Y-3.1496
X4.4567Y-4.252
T5
X6.6142Y-3.3465
X6.6142Y-3.8898
T0
M30
