M48
; DRILL file {KiCad (5.1.8)-1} date 02/26/21 20:20:38
; FORMAT={-:-/ absolute / inch / decimal}
; #@! TF.CreationDate,2021-02-26T20:20:38+01:00
; #@! TF.GenerationSoftware,Kicad,Pcbnew,(5.1.8)-1
FMAT,2
INCH
T1C0.0118
T2C0.0157
T3C0.0236
T4C0.0394
T5C0.0866
T6C0.1693
T7C0.0472
T8C0.0551
%
G90
G05
T1
X4.3071Y-3.3937
X4.6457Y-3.3937
X5.0098Y-3.3898
X5.1024Y-3.4646
X5.4331Y-3.4173
X5.8248Y-3.4173
X6.1575Y-3.6535
X6.1929Y-3.6969
X6.311Y-3.8268
T2
X3.8681Y-3.2697
X3.874Y-3.3307
X3.9606Y-4.0669
X4.1339Y-4.1575
X4.3465Y-3.1102
X4.7874Y-4.1496
X4.878Y-3.122
X4.8858Y-4.0669
X4.9213Y-4.3701
X4.9528Y-4.0669
X5.1496Y-4.063
X5.185Y-3.8937
X5.2047Y-4.1339
X5.3465Y-4.063
X5.4173Y-4.3701
X5.4961Y-4.1142
X5.5039Y-3.7283
X5.5689Y-4.1161
X5.7008Y-4.1181
X5.7362Y-4.1693
X5.8051Y-4.063
X5.8809Y-4.0581
X5.9843Y-3.1181
X6.0906Y-4.0709
X6.2165Y-4.1457
X6.4134Y-4.0512
X6.4606Y-4.0669
X6.6535Y-4.2913
X6.6634Y-4.1535
T3
X6.4872Y-3.3465
X6.5244Y-3.2567
X6.5244Y-3.4362
X6.6142Y-3.2195
X6.6142Y-3.4734
X6.704Y-3.2567
X6.704Y-3.4362
X6.7411Y-3.3465
X6.4872Y-3.8898
X6.5244Y-3.8
X6.5244Y-3.9795
X6.6142Y-3.7628
X6.6142Y-4.0167
X6.704Y-3.8
X6.704Y-3.9795
X6.7411Y-3.8898
T4
X5.252Y-4.2835
X5.352Y-4.2835
X5.452Y-4.2835
T5
X3.8583Y-3.1496
X4.4567Y-4.252
T6
X6.6142Y-3.3465
X6.6142Y-3.8898
T7
X4.1339Y-3.9173
T8
X4.1339Y-3.7402
T0
M30
